<?xml version="1.0" encoding="utf-8"?>
<svg width="1194" height="834" viewBox="-597 -417 1194 834" xmlns="http://www.w3.org/2000/svg">
  <style>
svg { background-color:#FFE4D4; }

#looom { --version:2; }

#t0 {
--visible:1; --timeOffset:12.99999; --speed:12; --bookmarkIndex:-1; --latched:0; --playMode:0; --masked:0; --blendMode:0; 
fill:#23234C; stroke-opacity:0; fill-opacity:1; stroke-width:10; stroke-linecap:round; stroke-linejoin:round;
}
@keyframes t0 { 0% { opacity: 1; } 8.333333% { opacity: 0; } }
#t0 .frame { animation:t0 1s calc(var(--index) * 0.08333334s) steps(1) infinite; }

#t1 {
--visible:1; --timeOffset:12.99999; --speed:12; --bookmarkIndex:-1; --latched:0; --playMode:0; --masked:0; --blendMode:0; 
fill:#FFD000; stroke-opacity:0; fill-opacity:1; stroke-width:10; stroke-linecap:round; stroke-linejoin:round;
}
@keyframes t1 { 0% { opacity: 1; } 8.333333% { opacity: 0; } }
#t1 .frame { animation:t1 1s calc(var(--index) * 0.08333334s) steps(1) infinite; }

#t2 {
--visible:1; --timeOffset:12.99999; --speed:12; --bookmarkIndex:-1; --latched:0; --playMode:0; --masked:0; --blendMode:0; 
fill:#5390A8; stroke-opacity:0; fill-opacity:1; stroke-width:10; stroke-linecap:round; stroke-linejoin:round;
}
@keyframes t2 { 0% { opacity: 1; } 8.333333% { opacity: 0; } }
#t2 .frame { animation:t2 1s calc(var(--index) * 0.08333334s) steps(1) infinite; }

</style>
  <g id="w0" transform="translate(139.50 1.25) scale(2.93 2.93) rotate(-8.70)" class="weave">
    <g id="t0" transform="translate(12.73 -40.36)" class="thread">
      <g id="f0" style="--index:0; opacity:1;" class="frame">
        <path d="M-149.99,-46.16L-150.23,-40.96L-149.35,-40.11L-144.29,-38.54L-136.07,-37.45L-132.65,-35.36L-129.55,-28.91L-126.70,-16.04L-126.27,-6.39L-126.92,3.86L-130.90,25.84L-135.29,35.80L-140.41,42.09L-144.70,50.22L-148.24,58.92L-148.99,63.90L-148.90,67.42L-146.20,74.77L-141.18,85.19L-135.46,92.72L-133.49,100.58L-131.52,104.09L-125.82,105.97L-103.64,107.82L-96.32,111.58L-92.56,114.61L-88.49,120.27L-82.46,136.76L-76.50,139.87L-73.27,140.58L-64.73,140.96L-55.50,139.64L-44.64,136.22L-40.62,133.24L-35.00,131.23L-29.47,127.62L-17.37,126.53L8.02,126.70L21.29,124.36L31.79,123.62L36.10,121.46L37.42,117.92L35.00,112.36L30.56,107.75L29.14,104.88L26.49,96.63L24.60,82.40L25.50,72.91L34.90,52.59L38.61,36.31L43.35,25.05L43.42,17.54L41.66,8.58L36.15,-4.22L34.72,-10.82L35.22,-18.74L38.28,-27.41L37.79,-29.70L33.97,-30.55L24.98,-30.72L17.87,-27.24L10.03,-22.08L4.70,-22.05L-0.38,-24.09L-6.66,-28.72L-10.23,-36.28L-13.40,-40.05L-21.11,-45.28L-28.35,-48.16L-32.66,-48.05L-43.56,-44.08L-53.30,-43.95L-58.28,-46.22L-63.32,-54.93L-66.75,-57.49L-69.16,-58.28L-72.26,-57.56L-80.51,-52.48L-89.78,-49.87L-95.51,-49.42L-111.93,-50.29L-118.82,-52.23L-124.21,-57.82L-130.48,-62.58L-133.85,-64.40L-137.30,-65.08L-140.08,-64.88L-147.10,-61.74L-152.35,-57.66L-153.45,-54.28L-153.29,-49.72L-149.99,-46.16" />
        <path d="M-191.75,88.11L-191.75,88.11" />
        <path d="M-191.75,88.11L-191.75,88.11" />
        <path d="M21.53,-91.11" />
        <path d="M-54.85,-74.29L-54.85,-74.29" />
      </g>
      <g id="f1" style="--index:1; opacity:0;" class="frame">
        <path d="M-138.57,-37.60L-131.21,-32.12L-125.11,-24.59L-118.26,1.18L-120.22,10.69L-123.13,19.62L-130.85,33.32L-136.29,53.62L-136.28,56.99L-134.90,61.82L-131.78,82.93L-121.56,100.59L-108.90,112.53L-101.79,121.21L-72.03,139.45L-58.45,143.92L-54.80,144.17L-44.36,142.81L-37.18,141.04L-25.86,136.88L-5.77,133.49L5.25,129.64L13.34,122.87L16.63,118.72L23.60,104.16L25.44,97.70L27.26,82.14L28.76,75.68L36.76,60.08L38.59,53.69L39.19,42.22L35.40,29.36L35.29,25.06L39.41,13.50L40.16,3.78L38.43,-3.61L36.82,-6.26L26.76,-15.37L11.80,-19.86L7.08,-22.51L2.47,-28.34L-2.19,-32.17L-12.90,-33.87L-22.80,-31.40L-25.30,-31.51L-29.41,-33.40L-43.37,-44.36L-51.43,-45.50L-73.98,-45.46L-79.75,-47.66L-89.39,-56.14L-94.14,-58.94L-122.63,-65.31L-129.05,-65.64L-137.06,-63.24L-146.06,-57.39L-149.52,-53.87L-150.12,-50.35L-147.86,-41.08L-144.00,-38.85L-138.57,-37.60" />
        <path d="M-144.91,-42.02L-141.66,-40.55L-138.57,-37.60L-135.18,-36.81" />
        <path d="M-139.84,-39.24L-135.75,-31.43L-131.05,-17.18L-130.37,-10.43L-131.07,10.02L-133.06,16.44L-138.47,22.08L-140.22,26.00L-150.43,67.36L-151.45,77.17L-149.30,92.15L-143.46,108.41L-140.75,113.71L-133.56,121.26L-129.96,123.86L-121.79,127.41L-91.02,134.16L-71.40,134.13L-60.24,132.81L-38.35,135.12L-26.03,132.39L-14.29,128.43L-9.78,125.84L3.80,120.35L7.29,117.67L13.73,108.37L18.36,96.54L21.22,85.34L24.24,79.15L26.64,60.51L33.58,50.10L38.14,38.33L39.38,24.98L36.42,8.27L36.55,-1.78L34.05,-7.19L30.25,-10.22L23.73,-13.62L9.22,-18.82L-9.87,-33.65L-18.75,-38.00L-27.43,-37.98L-33.54,-35.75L-38.76,-35.38L-61.77,-46.16L-84.49,-51.21L-87.88,-53.11L-91.55,-57.14L-95.71,-60.12L-103.37,-62.73L-109.20,-62.78L-117.43,-61.62L-127.62,-58.76L-131.88,-56.22" />
        <path d="M-117.13,-55.72L-115.16,-57.84L-111.17,-59.13L-98.18,-62.98L-87.63,-64.81L-75.83,-61.93L-49.85,-57.86L-31.72,-53.53L-18.62,-49.97L-5.38,-45.17L2.51,-40.06L10.02,-36.40L24.20,-25.62L40.30,-15.90L42.60,-11.80L43.55,2.25L42.83,15.87L43.56,23.43L42.42,32.90L38.52,49.54L35.14,56.90L30.85,60.66L20.93,72.26" />
        <path d="M18.66,98.51L18.81,95.62L19.56,95.32L22.97,103.24L24.98,114.01L24.51,117.65L12.25,124.10L3.70,127.40" />
        <path d="M21.53,-91.11L17.34,-90.47" />
        <path d="M60.13,-49.18L59.43,-48.85L60.13,-49.18" />
      </g>
      <g id="f2" style="--index:2; opacity:0;" class="frame">
        <path d="M-124.89,-63.90L-129.69,-61.54L-139.39,-49.93L-141.16,-45.63L-141.72,-40.62L-138.63,-32.20L-130.64,-17.67L-127.30,-6.13L-123.18,17.18L-122.92,24.64L-124.35,38.00L-125.26,61.37L-120.40,75.06L-114.93,82.97L-110.85,96.74L-100.50,115.34L-90.67,125.03L-81.64,130.78L-77.33,132.67L-60.51,137.14L-41.92,139.30L-32.78,141.34L-15.95,137.60L15.71,117.67L25.28,108.31L29.70,97.10L30.36,89.97L28.32,74.30L28.15,66.13L30.11,55.31L32.56,47.71L33.98,33.36L29.30,20.23L21.91,8.05L18.83,-0.68L16.53,-4.33L5.53,-15.05L-8.39,-21.21L-13.96,-28.46L-15.88,-29.90L-19.98,-30.47L-29.42,-27.93L-36.14,-28.81L-48.32,-36.50L-71.11,-47.78L-81.26,-48.87L-91.98,-47.76L-97.40,-48.15L-110.35,-63.27L-115.24,-66.88L-120.52,-68.01L-124.89,-63.90" />
        <path d="M-128.35,-59.05L-128.35,-59.05" />
        <path d="M-191.53,-30.36L-192.37,-28.62L-191.53,-30.36" />
        <path d="M-191.17,-31.01L-191.53,-30.36L-191.44,-31.38" />
        <path d="M17.37,110.78L18.89,112.68L19.50,117.15L15.77,122.60L13.12,124.51L6.83,126.86L-4.45,129.83L-6.45,129.83L-4.88,129.23" />
        <path d="M20.78,103.76L24.05,105.79L27.45,110.66L27.93,116.75L26.65,118.66L22.69,121.49L15.10,125.09L5.49,127.21L-2.08,127.88" />
        <path d="M75.98,135.99L75.98,135.99" />
      </g>
      <g id="f3" style="--index:3; opacity:0;" class="frame">
        <path d="M-109.85,-59.51L-112.38,-60.93L-117.79,-60.63L-126.71,-54.22L-129.80,-50.72L-132.68,-45.38L-134.90,-38.84L-135.22,-33.10L-134.40,-23.36L-129.54,-3.08L-122.87,10.76L-114.96,31.56L-113.28,46.54L-113.05,79.11L-111.99,87.48L-109.97,94.60L-102.11,106.51L-96.57,112.01L-91.19,119.94L-87.37,129.06L-82.21,133.74L-72.86,137.00L-56.54,138.68L-40.26,139.17L-30.66,138.11L-25.87,137.04L-19.01,133.64L-12.58,131.89L2.92,122.70L5.81,119.83L9.91,112.35L13.98,107.09L26.62,78.36L28.38,69.41L29.12,56.42L33.08,41.42L32.95,31.78L27.22,23.16L21.69,18.56L8.52,2.16L1.79,-3.21L-2.29,-8.58L-33.23,-21.21L-50.03,-23.46L-58.13,-27.38L-67.18,-34.29L-81.47,-52.31L-90.85,-59.69L-99.10,-60.50L-104.93,-57.46L-108.47,-57.05L-119.22,-59.66L-120.74,-57.91" />
        <path d="M-139.03,-41.07L-140.62,-29.28L-142.35,7.75L-154.51,41.92L-161.40,55.11L-164.80,71.58L-166.09,82.35L-166.15,87.28L-164.49,98.44L-162.42,106.37L-156.98,115.46L-149.11,123.69L-129.81,134.28L-112.21,140.63L-95.57,143.47L-84.27,143.09L-75.66,140.10L-62.08,138.33L-40.93,138.03L-37.06,136.55L-31.31,132.63L-24.51,129.80L-19.13,125.35L-7.19,117.68L-0.93,111.47L5.29,107.68L10.09,101.13L16.98,96.61L19.95,89.21L24.72,81.47L28.02,80.16L32.90,76.38L35.74,71.54L38.69,63.52L48.09,48.32L52.84,26.17L59.30,2.99L59.78,-4.33L57.58,-10.21L49.64,-19.18L33.12,-30.16L27.00,-35.40L21.33,-40.71L16.69,-47.66L10.08,-54.52L-11.73,-64.63L-47.46,-74.10L-57.59,-74.81L-81.71,-72.93L-94.81,-72.80L-108.14,-66.03L-119.89,-56.61L-124.17,-54.88L-126.91,-55.03L-135.98,-49.40L-137.62,-43.19L-139.03,-41.07" />
        <path d="M-139.03,-41.07L-139.03,-41.07" />
        <path d="M-139.00,-46.09L-140.20,-34.04L-138.71,-31.20" />
        <path d="M-162.16,82.18L-162.63,74.71L-161.39,59.76L-147.54,15.32L-144.14,-1.58L-143.26,-8.30L-142.80,-31.75L-141.59,-39.49L-137.68,-49.84L-127.51,-59.44L-116.45,-67.28L-107.81,-72.08L-96.68,-76.80L-86.87,-78.92L-70.10,-79.70L-50.14,-77.89L-39.97,-76.01L-18.06,-69.42L-0.17,-65.13L18.23,-56.43L29.38,-47.23L31.66,-43.82L34.30,-36.57L40.02,-25.23L45.42,-10.75L51.93,14.39L52.72,19.11L52.22,30.93L49.28,49.49L46.07,58.01L35.68,77.65L25.80,92.04L15.47,102.29L9.71,106.52L2.34,116.89L-13.34,124.58L-49.40,134.10L-60.20,138.96" />
        <path d="M18.42,91.24L18.95,102.64L17.45,111.37L15.61,114.96L13.23,116.63L2.23,121.10L-8.68,123.92" />
        <path d="M80.40,-59.48L80.42,-60.19L80.40,-59.48" />
      </g>
      <g id="f4" style="--index:4; opacity:0;" class="frame">
        <path d="M-155.66,-2.76L-157.45,-8.84L-157.65,-20.50L-155.34,-31.36L-152.90,-38.38L-145.53,-52.67L-142.04,-57.04L-124.15,-73.26L-104.41,-83.58L-88.85,-88.42L-70.91,-89.02L-58.72,-87.43L-42.63,-87.24L-32.45,-85.71L-8.60,-78.56L17.49,-72.13L31.39,-64.39L39.01,-58.30L41.27,-55.52L56.15,-33.55L62.66,-15.81L66.55,3.67L67.16,11.73L66.76,23.72L64.24,37.49L59.59,53.04L56.95,58.27L39.68,84.09L17.09,104.62L4.32,111.90L-5.36,119.24L-28.60,134.14L-44.04,141.63L-49.85,143.68L-74.88,148.97L-100.19,149.90L-117.66,147.05L-128.59,143.14L-144.08,133.61L-148.12,130.10L-168.33,108.99L-174.28,98.32L-176.47,91.84L-177.00,82.31L-172.63,58.27L-165.67,36.50L-157.85,18.43L-155.87,9.29L-154.08,-8.45" />
      </g>
      <g id="f5" style="--index:5; opacity:0;" class="frame">
        <path d="M-159.00,25.96L-161.09,37.35L-165.79,54.03L-164.74,63.31L-164.68,76.28L-169.84,97.80L-170.17,105.74L-168.78,110.58L-163.35,118.78L-147.99,130.70L-126.28,140.70L-109.44,145.93L-100.72,147.25L-94.94,147.11L-80.71,145.33L-74.43,143.61L-66.48,143.21L-52.64,136.59L-39.13,127.59L-32.63,124.41L-20.72,120.77L-17.02,120.37L-6.61,116.93L5.25,111.84L15.23,109.32L29.21,103.49L36.89,101.97L42.40,95.75L45.69,90.05L53.64,81.12L59.67,70.92L63.51,60.13L66.55,39.08L66.63,17.70L63.38,-13.41L62.13,-19.18L58.34,-29.58L54.44,-34.93L45.84,-43.80L40.54,-54.06L32.85,-59.37L16.76,-64.00L9.15,-65.51L-15.49,-65.12L-25.82,-68.69L-33.43,-70.41L-41.50,-74.32L-53.16,-78.35L-57.21,-81.01L-61.71,-85.44L-65.35,-87.16L-79.05,-86.97L-96.54,-82.26L-101.70,-79.55L-126.00,-59.10L-132.09,-50.36L-141.89,-41.16L-146.34,-34.67L-155.14,-17.19L-161.17,-0.84L-162.02,5.05L-159.84,13.92L-159.00,25.96" />
        <path d="M-156.67,20.87L-159.18,26.57L-162.22,42.91L-167.93,63.24L-169.64,71.25L-169.91,78.00" />
      </g>
      <g id="f6" style="--index:6; opacity:0;" class="frame">
        <path d="M-160.97,20.72L-161.72,34.49L-164.50,54.34L-165.85,61.05L-168.97,69.51L-170.37,90.81L-169.77,93.88L-162.98,104.71L-155.68,109.65L-151.08,117.13L-141.46,126.54L-112.55,138.97L-101.78,142.17L-94.75,143.11L-58.74,144.28L-53.70,143.57L-39.36,139.44L-30.74,134.05L-17.33,127.50L-12.17,123.48L5.10,112.70L12.68,109.53L23.58,107.21L33.53,102.44L42.07,96.43L55.91,83.96L65.46,70.23L67.89,65.44L73.69,49.11L75.91,40.73L76.31,32.72L73.76,8.87L68.70,-7.60L60.05,-18.83L50.99,-26.58L47.78,-35.07L39.74,-46.92L32.93,-51.47L29.49,-54.97L23.16,-56.58L19.08,-58.62L12.21,-67.05L8.60,-70.21L-23.77,-77.89L-35.40,-78.49L-57.63,-77.69L-80.25,-80.61L-89.61,-80.85L-97.57,-79.09L-103.96,-76.00L-131.49,-57.11L-138.34,-49.63L-141.68,-42.58L-148.37,-32.29L-154.33,-15.56L-158.06,-7.80L-159.71,-1.34L-159.95,4.33L-158.52,10.38L-157.91,28.83L-162.05,42.00L-162.05,46.87L-161.12,48.57" />
        <path d="M-23.33,51.47" />
      </g>
      <g id="f7" style="--index:7; opacity:0;" class="frame">
        <path d="M-150.79,-34.59L-154.01,-24.32L-157.93,-16.87L-162.47,-0.86L-164.48,26.61L-162.52,36.50L-161.64,48.06L-165.29,61.62L-166.75,79.59L-165.26,87.73L-160.09,103.52L-155.14,114.06L-151.87,117.62L-146.58,120.05L-135.29,127.10L-123.81,132.27L-117.90,133.38L-109.40,132.26L-101.71,129.91L-91.41,129.73L-87.50,130.61L-83.27,133.06L-73.41,136.74L-64.02,138.26L-53.44,137.84L-39.43,134.57L-20.36,126.32L-10.82,119.92L-3.50,117.09L20.59,103.66L37.53,99.15L46.26,95.72L50.55,92.00L58.09,87.28L66.83,77.11L70.22,71.06L74.49,57.98L75.13,50.60L73.49,39.31L68.25,21.22L61.89,9.40L57.15,-2.11L52.87,-8.99L46.17,-37.43L42.93,-42.68L37.56,-47.83L27.93,-54.65L8.47,-65.21L-21.33,-78.13L-30.91,-81.62L-41.42,-83.77L-67.33,-84.64L-88.29,-81.57L-98.32,-79.04L-108.27,-74.55L-116.60,-67.19L-120.20,-60.12L-125.75,-52.45L-131.57,-47.70L-140.68,-43.19L-148.96,-40.63L-150.22,-38.50L-150.79,-34.59" />
        <path d="M-150.08,-35.59L-152.31,-28.75L-152.43,-17.11L-153.43,-11.86L-152.84,-10.16" />
      </g>
      <g id="f8" style="--index:8; opacity:0;" class="frame">
        <path d="M-144.98,-40.01L-142.90,-40.70L-133.98,-47.27L-117.89,-63.59L-112.80,-67.27L-94.51,-75.48L-76.15,-78.38L-51.66,-78.23L-20.50,-70.87L-10.49,-65.95L13.24,-51.87L21.41,-48.19L29.51,-46.08L38.40,-40.61L46.74,-32.68L49.14,-29.43L52.76,-17.94L52.44,0.65L57.87,11.16L62.96,18.93L68.85,24.28L70.80,28.47L72.37,34.58L71.68,46.45L67.05,68.20L58.18,79.17L47.58,86.74L40.77,90.38L31.92,97.01L14.76,113.54L-2.39,124.45L-15.26,130.51L-27.95,132.95L-41.57,132.35L-62.57,137.44L-73.52,137.70L-82.84,137.13L-90.08,135.21L-98.30,130.85L-106.31,128.92L-114.02,129.15L-124.55,131.48L-131.53,131.32L-146.97,124.44L-151.29,121.78L-158.52,114.53L-158.96,99.76L-161.52,91.61L-164.08,76.90L-166.53,72.61L-173.25,65.09L-175.85,59.06L-175.69,56.72L-168.09,37.83L-165.86,28.64L-156.87,3.36L-155.48,-11.06L-157.25,-21.16L-156.83,-25.62L-150.65,-36.85L-144.98,-40.01" />
        <path d="M-146.54,-40.02L-143.10,-40.55L-133.92,-43.90L-111.80,-60.58" />
      </g>
      <g id="f9" style="--index:9; opacity:0;" class="frame">
        <path d="M-157.70,-21.29L-155.85,-18.96L-154.78,-14.91L-154.68,-0.28L-155.56,5.10L-165.69,32.70L-175.24,51.11L-177.13,60.21L-177.41,67.32L-176.03,71.75L-173.15,76.04L-164.66,82.25L-162.09,86.67L-148.68,100.49L-148.57,104.86L-154.98,127.04L-152.79,130.17L-146.91,133.05L-133.68,136.20L-121.32,137.81L-105.46,138.92L-86.85,137.92L-81.23,140.49L-76.90,141.48L-62.13,132.52L-52.45,133.83L-44.64,136.25L-37.10,136.52L-16.87,131.66L-7.79,126.09L0.30,118.85L8.77,113.05L17.92,109.57L26.50,109.58L31.75,107.12L36.38,101.93L41.61,92.36L51.14,81.97L64.51,69.34L68.17,63.41L69.65,54.77L69.27,46.69L61.63,21.59L58.36,4.50L59.29,-18.73L57.19,-26.12L51.70,-37.86L49.26,-40.75L42.70,-44.95L37.15,-47.43L21.67,-52.12L4.56,-61.08L-3.41,-67.12L-17.64,-73.85L-28.60,-76.49L-46.66,-77.17L-67.21,-74.21L-82.85,-70.08L-88.97,-70.10L-100.36,-71.59L-111.50,-68.25L-118.98,-66.92L-139.58,-60.04L-147.76,-56.26L-151.68,-52.16L-167.17,-43.09L-169.44,-40.20L-171.52,-32.51L-170.23,-27.74L-166.75,-23.87L-162.35,-22.07L-157.70,-21.29" />
        <path d="M-167.35,-29.87L-166.71,-27.42L-164.28,-25.51L-157.70,-21.29L-151.19,-20.06L-147.28,-15.89L-145.54,-8.07L-145.94,-2.14L-147.64,2.01L-147.24,4.23" />
      </g>
      <g id="f10" style="--index:10; opacity:0;" class="frame">
        <path d="M-139.67,-61.26L-146.04,-59.88L-149.56,-58.20L-164.49,-47.88L-166.84,-43.84L-166.87,-38.88L-160.15,-35.94L-150.66,-33.33L-142.80,-16.53L-141.73,-8.49L-142.88,-4.11L-147.62,6.06L-149.39,18.85L-153.15,29.38L-156.55,36.62L-166.12,51.03L-168.17,55.27L-171.18,67.44L-171.53,72.95L-170.53,76.34L-163.32,84.52L-144.01,99.64L-135.49,107.78L-133.93,112.59L-133.74,117.58L-138.77,127.91L-139.07,130.39L-138.28,131.72L-132.08,135.51L-124.56,137.03L-103.69,137.20L-84.74,134.97L-53.93,137.57L-38.62,135.18L-24.73,129.54L-5.99,126.53L2.17,124.00L15.43,122.41L23.49,116.88L26.87,111.95L30.81,97.77L47.51,79.16L51.53,69.50L49.96,51.60L51.85,32.29L47.37,8.26L46.96,-19.77L44.94,-30.00L40.63,-36.39L38.64,-38.23L35.42,-39.54L10.09,-41.85L2.43,-44.12L-6.42,-48.15L-9.16,-50.08L-15.88,-57.59L-21.82,-67.10L-29.22,-73.57L-32.09,-75.21L-42.41,-77.12L-58.13,-77.32L-65.84,-75.75L-91.22,-64.69L-100.98,-62.25L-119.39,-61.59L-136.77,-63.45L-139.67,-61.26" />
        <path d="M-139.52,-61.29L-150.44,-53.19L-154.50,-51.50" />
      </g>
      <g id="f11" style="--index:11; opacity:0;" class="frame">
        <path d="M-147.71,-57.48L-152.49,-55.36L-156.73,-52.13L-159.14,-48.52L-159.48,-45.57L-157.34,-43.22L-151.16,-41.11L-145.98,-38.20L-139.27,-33.05L-137.82,-30.97L-137.47,-11.06L-140.60,9.34L-139.75,22.02L-141.21,26.86L-145.91,36.41L-159.48,59.68L-161.71,68.24L-162.37,76.99L-160.08,83.40L-152.29,95.21L-143.02,103.00L-137.25,105.01L-121.51,106.02L-115.20,108.57L-108.12,113.66L-105.78,117.17L-105.17,121.51L-109.67,132.16L-109.76,135.09L-108.82,136.45L-106.54,137.93L-102.71,138.31L-85.22,137.43L-65.83,134.58L-43.81,128.72L-23.39,118.19L-10.82,113.37L9.55,113.50L16.61,114.45L20.14,112.36L27.14,110.37L30.29,108.68L33.18,106.09L35.59,101.98L37.34,93.78L36.55,86.18L32.33,76.28L31.60,64.07L35.81,57.41L46.69,46.29L54.04,32.33L55.19,23.75L48.13,11.39L40.46,2.07L38.09,-3.87L33.53,-11.04L32.12,-17.36L28.52,-22.82L24.97,-24.89L17.73,-26.65L1.01,-28.36L-8.60,-31.41L-17.60,-37.88L-28.03,-48.50L-37.69,-65.84L-40.61,-68.04L-43.97,-69.04L-53.12,-69.81L-65.15,-67.53L-82.68,-59.44L-91.75,-56.40L-97.85,-55.70L-104.40,-55.76L-109.06,-56.94L-116.55,-61.82L-120.92,-66.71L-125.59,-67.26L-128.85,-66.30L-135.99,-61.79L-141.53,-55.99L-151.35,-53.09L-153.66,-53.19" />
      </g>
    </g>
    <g id="t1" transform="translate(-39.09 -23.77) scale(0.82 0.82) rotate(-320.27)" class="thread">
      <g id="f0" transform="translate(63.07 -13.20)" style="--index:0; opacity:1;" class="frame">
        <path d="M-191.75,88.11L-191.75,88.11" />
        <path d="M-191.75,88.11L-191.75,88.11" />
        <path d="M21.53,-91.11" />
        <path d="M-149.99,-46.16L-150.23,-40.96L-149.35,-40.11L-144.29,-38.54L-136.07,-37.45L-132.65,-35.36L-129.55,-28.91L-126.70,-16.04L-126.27,-6.39L-126.92,3.86L-130.90,25.84L-135.29,35.80L-140.41,42.09L-144.70,50.22L-148.24,58.92L-148.99,63.90L-148.90,67.42L-146.20,74.77L-141.18,85.19L-135.46,92.72L-133.49,100.58L-131.52,104.09L-125.82,105.97L-103.64,107.82L-96.32,111.58L-92.56,114.61L-88.49,120.27L-82.46,136.76L-76.50,139.87L-73.27,140.58L-64.73,140.96L-55.50,139.64L-44.64,136.22L-40.62,133.24L-35.00,131.23L-29.47,127.62L-17.37,126.53L8.02,126.70L21.29,124.36L31.79,123.62L36.10,121.46L37.42,117.92L35.00,112.36L30.56,107.75L29.14,104.88L26.49,96.63L24.60,82.40L25.50,72.91L34.90,52.59L38.61,36.31L43.35,25.05L43.42,17.54L41.66,8.58L36.15,-4.22L34.72,-10.82L35.22,-18.74L38.28,-27.41L37.79,-29.70L33.97,-30.55L24.98,-30.72L17.87,-27.24L10.03,-22.08L4.70,-22.05L-0.38,-24.09L-6.66,-28.72L-10.23,-36.28L-13.40,-40.05L-21.11,-45.28L-28.35,-48.16L-32.66,-48.05L-43.56,-44.08L-53.30,-43.95L-58.28,-46.22L-63.32,-54.93L-66.75,-57.49L-69.16,-58.28L-72.26,-57.56L-80.51,-52.48L-89.78,-49.87L-95.51,-49.42L-111.93,-50.29L-118.82,-52.23L-124.21,-57.82L-130.48,-62.58L-133.85,-64.40L-137.30,-65.08L-140.08,-64.88L-147.10,-61.74L-152.35,-57.66L-153.45,-54.28L-153.29,-49.72L-149.99,-46.16" />
        <path d="M-54.85,-74.29L-54.85,-74.29" />
      </g>
      <g id="f1" transform="translate(63.07 -13.20)" style="--index:1; opacity:0;" class="frame">
        <path d="M-138.57,-37.60L-131.21,-32.12L-125.11,-24.59L-118.26,1.18L-120.22,10.69L-123.13,19.62L-130.85,33.32L-136.29,53.62L-136.28,56.99L-134.90,61.82L-131.78,82.93L-121.56,100.59L-108.90,112.53L-101.79,121.21L-72.03,139.45L-58.45,143.92L-54.80,144.17L-44.36,142.81L-37.18,141.04L-25.86,136.88L-5.77,133.49L5.25,129.64L13.34,122.87L16.63,118.72L23.60,104.16L25.44,97.70L27.26,82.14L28.76,75.68L36.76,60.08L38.59,53.69L39.19,42.22L35.40,29.36L35.29,25.06L39.41,13.50L40.16,3.78L38.43,-3.61L36.82,-6.26L26.76,-15.37L11.80,-19.86L7.08,-22.51L2.47,-28.34L-2.19,-32.17L-12.90,-33.87L-22.80,-31.40L-25.30,-31.51L-29.41,-33.40L-43.37,-44.36L-51.43,-45.50L-73.98,-45.46L-79.75,-47.66L-89.39,-56.14L-94.14,-58.94L-122.63,-65.31L-129.05,-65.64L-137.06,-63.24L-146.06,-57.39L-149.52,-53.87L-150.12,-50.35L-147.86,-41.08L-144.00,-38.85L-138.57,-37.60" />
        <path d="M-144.91,-42.02L-141.66,-40.55L-138.57,-37.60L-135.18,-36.81" />
        <path d="M-139.84,-39.24L-135.75,-31.43L-131.05,-17.18L-130.37,-10.43L-131.07,10.02L-133.06,16.44L-138.47,22.08L-140.22,26.00L-150.43,67.36L-151.45,77.17L-149.30,92.15L-143.46,108.41L-140.75,113.71L-133.56,121.26L-129.96,123.86L-121.79,127.41L-91.02,134.16L-71.40,134.13L-60.24,132.81L-38.35,135.12L-26.03,132.39L-14.29,128.43L-9.78,125.84L3.80,120.35L7.29,117.67L13.73,108.37L18.36,96.54L21.22,85.34L24.24,79.15L26.64,60.51L33.58,50.10L38.14,38.33L39.38,24.98L36.42,8.27L36.55,-1.78L34.05,-7.19L30.25,-10.22L23.73,-13.62L9.22,-18.82L-9.87,-33.65L-18.75,-38.00L-27.43,-37.98L-33.54,-35.75L-38.76,-35.38L-61.77,-46.16L-84.49,-51.21L-87.88,-53.11L-91.55,-57.14L-95.71,-60.12L-103.37,-62.73L-109.20,-62.78L-117.43,-61.62L-127.62,-58.76L-131.88,-56.22" />
        <path d="M-117.13,-55.72L-115.16,-57.84L-111.17,-59.13L-98.18,-62.98L-87.63,-64.81L-75.83,-61.93L-49.85,-57.86L-31.72,-53.53L-18.62,-49.97L-5.38,-45.17L2.51,-40.06L10.02,-36.40L24.20,-25.62L40.30,-15.90L42.60,-11.80L43.55,2.25L42.83,15.87L43.56,23.43L42.42,32.90L38.52,49.54L35.14,56.90L30.85,60.66L20.93,72.26" />
        <path d="M18.66,98.51L18.81,95.62L19.56,95.32L22.97,103.24L24.98,114.01L24.51,117.65L12.25,124.10L3.70,127.40" />
        <path d="M60.13,-49.18L59.43,-48.85L60.13,-49.18" />
      </g>
      <g id="f2" transform="translate(63.07 -13.20)" style="--index:2; opacity:0;" class="frame">
        <path d="M-124.89,-63.90L-129.69,-61.54L-139.39,-49.93L-141.16,-45.63L-141.72,-40.62L-138.63,-32.20L-130.64,-17.67L-127.30,-6.13L-123.18,17.18L-122.92,24.64L-124.35,38.00L-125.26,61.37L-120.40,75.06L-114.93,82.97L-110.85,96.74L-100.50,115.34L-90.67,125.03L-81.64,130.78L-77.33,132.67L-60.51,137.14L-41.92,139.30L-32.78,141.34L-15.95,137.60L15.71,117.67L25.28,108.31L29.70,97.10L30.36,89.97L28.32,74.30L28.15,66.13L30.11,55.31L32.56,47.71L33.98,33.36L29.30,20.23L21.91,8.05L18.83,-0.68L16.53,-4.33L5.53,-15.05L-8.39,-21.21L-13.96,-28.46L-15.88,-29.90L-19.98,-30.47L-29.42,-27.93L-36.14,-28.81L-48.32,-36.50L-71.11,-47.78L-81.26,-48.87L-91.98,-47.76L-97.40,-48.15L-110.35,-63.27L-115.24,-66.88L-120.52,-68.01L-124.89,-63.90" />
        <path d="M-128.35,-59.05L-128.35,-59.05" />
        <path d="M-121.37,-64.35L-124.89,-63.90L-127.01,-59.71L-128.30,-59.05" />
        <path d="M-117.80,-63.50L-102.94,-67.50L-91.45,-67.50L-55.80,-70.48L-38.90,-69.54L-21.17,-65.43L-0.59,-56.28L9.24,-48.02L34.83,-23.27L46.12,-4.53L50.48,5.23L49.73,15.69L50.84,26.47L50.87,36.17L50.40,40.06L46.18,53.18L37.75,70.55L30.94,79.22L27.20,90.25L18.14,97.85L8.83,103.57L3.64,107.71L-16.00,118.17L-32.64,125.47L-51.07,131.67L-55.83,134.14L-67.79,137.91L-83.81,140.79L-94.61,140.74L-100.43,138.45L-111.72,133.03L-117.36,128.93L-131.61,122.46L-141.93,115.18L-150.86,105.57L-152.77,97.45L-152.85,89.93L-152.21,77.71L-149.68,61.07L-142.61,38.09L-131.13,-4.98L-130.33,-14.30L-130.81,-19.92L-132.95,-25.82L-138.24,-34.82L-138.86,-38.32L-138.36,-40.49" />
        <path d="M-191.53,-30.36L-192.37,-28.62L-191.53,-30.36" />
        <path d="M-191.17,-31.01L-191.53,-30.36L-191.44,-31.38" />
        <path d="M17.37,110.78L18.89,112.68L19.50,117.15L15.77,122.60L13.12,124.51L6.83,126.86L-4.45,129.83L-6.45,129.83L-4.88,129.23" />
        <path d="M20.78,103.76L24.05,105.79L27.45,110.66L27.93,116.75L26.65,118.66L22.69,121.49L15.10,125.09L5.49,127.21L-2.08,127.88" />
        <path d="M75.98,135.99L75.98,135.99" />
      </g>
      <g id="f3" transform="translate(63.07 -13.20)" style="--index:3; opacity:0;" class="frame">
        <path d="M-109.85,-59.51L-112.38,-60.93L-117.79,-60.63L-126.71,-54.22L-129.80,-50.72L-132.68,-45.38L-134.90,-38.84L-135.22,-33.10L-134.40,-23.36L-129.54,-3.08L-122.87,10.76L-114.96,31.56L-113.28,46.54L-113.05,79.11L-111.99,87.48L-109.97,94.60L-102.11,106.51L-96.57,112.01L-91.19,119.94L-87.37,129.06L-82.21,133.74L-72.86,137.00L-56.54,138.68L-40.26,139.17L-30.66,138.11L-25.87,137.04L-19.01,133.64L-12.58,131.89L2.92,122.70L5.81,119.83L9.91,112.35L13.98,107.09L26.62,78.36L28.38,69.41L29.12,56.42L33.08,41.42L32.95,31.78L27.22,23.16L21.69,18.56L8.52,2.16L1.79,-3.21L-2.29,-8.58L-33.23,-21.21L-50.03,-23.46L-58.13,-27.38L-67.18,-34.29L-81.47,-52.31L-90.85,-59.69L-99.10,-60.50L-104.93,-57.46L-108.47,-57.05L-119.22,-59.66L-120.74,-57.91" />
        <path d="M-139.03,-41.07L-140.62,-29.28L-142.35,7.75L-154.51,41.92L-161.40,55.11L-164.80,71.58L-166.09,82.35L-166.15,87.28L-164.49,98.44L-162.42,106.37L-156.98,115.46L-149.11,123.69L-129.81,134.28L-112.21,140.63L-95.57,143.47L-84.27,143.09L-75.66,140.10L-62.08,138.33L-40.93,138.03L-37.06,136.55L-31.31,132.63L-24.51,129.80L-19.13,125.35L-7.19,117.68L-0.93,111.47L5.29,107.68L10.09,101.13L16.98,96.61L19.95,89.21L24.72,81.47L28.02,80.16L32.90,76.38L35.74,71.54L38.69,63.52L48.09,48.32L52.84,26.17L59.30,2.99L59.78,-4.33L57.58,-10.21L49.64,-19.18L33.12,-30.16L27.00,-35.40L21.33,-40.71L16.69,-47.66L10.08,-54.52L-11.73,-64.63L-47.46,-74.10L-57.59,-74.81L-81.71,-72.93L-94.81,-72.80L-108.14,-66.03L-119.89,-56.61L-124.17,-54.88L-126.91,-55.03L-135.98,-49.40L-137.62,-43.19L-139.03,-41.07" />
        <path d="M-139.03,-41.07L-139.03,-41.07" />
        <path d="M-139.00,-46.09L-140.20,-34.04L-138.71,-31.20" />
        <path d="M18.42,91.24L18.95,102.64L17.45,111.37L15.61,114.96L13.23,116.63L2.23,121.10L-8.68,123.92" />
        <path d="M80.40,-59.48L80.42,-60.19L80.40,-59.48" />
        <path d="M93.32,-39.30L94.93,-34.84" />
      </g>
      <g id="f4" transform="translate(63.07 -13.20)" style="--index:4; opacity:0;" class="frame">
        <path d="M-155.66,-2.76L-157.45,-8.84L-157.65,-20.50L-155.34,-31.36L-152.90,-38.38L-145.53,-52.67L-142.04,-57.04L-124.15,-73.26L-104.41,-83.58L-88.85,-88.42L-70.91,-89.02L-58.72,-87.43L-42.63,-87.24L-32.45,-85.71L-8.60,-78.56L17.49,-72.13L31.39,-64.39L39.01,-58.30L41.27,-55.52L56.15,-33.55L62.66,-15.81L66.55,3.67L67.16,11.73L66.76,23.72L64.24,37.49L59.59,53.04L56.95,58.27L39.68,84.09L17.09,104.62L4.32,111.90L-5.36,119.24L-28.60,134.14L-44.04,141.63L-49.85,143.68L-74.88,148.97L-100.19,149.90L-117.66,147.05L-128.59,143.14L-144.08,133.61L-148.12,130.10L-168.33,108.99L-174.28,98.32L-176.47,91.84L-177.00,82.31L-172.63,58.27L-165.67,36.50L-157.85,18.43L-155.87,9.29L-154.08,-8.45" />
      </g>
      <g id="f5" transform="translate(63.07 -13.20)" style="--index:5; opacity:0;" class="frame">
        <path d="M-159.00,25.96L-161.09,37.35L-165.79,54.03L-164.74,63.31L-164.68,76.28L-169.84,97.80L-170.17,105.74L-168.78,110.58L-163.35,118.78L-147.99,130.70L-126.28,140.70L-109.44,145.93L-100.72,147.25L-94.94,147.11L-80.71,145.33L-74.43,143.61L-66.48,143.21L-52.64,136.59L-39.13,127.59L-32.63,124.41L-20.72,120.77L-17.02,120.37L-6.61,116.93L5.25,111.84L15.23,109.32L29.21,103.49L36.89,101.97L42.40,95.75L45.69,90.05L53.64,81.12L59.67,70.92L63.51,60.13L66.55,39.08L66.63,17.70L63.38,-13.41L62.13,-19.18L58.34,-29.58L54.44,-34.93L45.84,-43.80L40.54,-54.06L32.85,-59.37L16.76,-64.00L9.15,-65.51L-15.49,-65.12L-25.82,-68.69L-33.43,-70.41L-41.50,-74.32L-53.16,-78.35L-57.21,-81.01L-61.71,-85.44L-65.35,-87.16L-79.05,-86.97L-96.54,-82.26L-101.70,-79.55L-126.00,-59.10L-132.09,-50.36L-141.89,-41.16L-146.34,-34.67L-155.14,-17.19L-161.17,-0.84L-162.02,5.05L-159.84,13.92L-159.00,25.96" />
        <path d="M-156.67,20.87L-159.18,26.57L-162.22,42.91L-167.93,63.24L-169.64,71.25L-169.91,78.00" />
      </g>
      <g id="f6" transform="translate(63.07 -13.20)" style="--index:6; opacity:0;" class="frame">
        <path d="M-160.97,20.72L-161.72,34.49L-164.50,54.34L-165.85,61.05L-168.97,69.51L-170.37,90.81L-169.77,93.88L-162.98,104.71L-155.68,109.65L-151.08,117.13L-141.46,126.54L-112.55,138.97L-101.78,142.17L-94.75,143.11L-58.74,144.28L-53.70,143.57L-39.36,139.44L-30.74,134.05L-17.33,127.50L-12.17,123.48L5.10,112.70L12.68,109.53L23.58,107.21L33.53,102.44L42.07,96.43L55.91,83.96L65.46,70.23L67.89,65.44L73.69,49.11L75.91,40.73L76.31,32.72L73.76,8.87L68.70,-7.60L60.05,-18.83L50.99,-26.58L47.78,-35.07L39.74,-46.92L32.93,-51.47L29.49,-54.97L23.16,-56.58L19.08,-58.62L12.21,-67.05L8.60,-70.21L-23.77,-77.89L-35.40,-78.49L-57.63,-77.69L-80.25,-80.61L-89.61,-80.85L-97.57,-79.09L-103.96,-76.00L-131.49,-57.11L-138.34,-49.63L-141.68,-42.58L-148.37,-32.29L-154.33,-15.56L-158.06,-7.80L-159.71,-1.34L-159.95,4.33L-158.52,10.38L-157.91,28.83L-162.05,42.00L-162.05,46.87L-161.12,48.57" />
        <path d="M-23.33,51.47" />
      </g>
      <g id="f7" transform="translate(63.07 -13.20)" style="--index:7; opacity:0;" class="frame">
        <path d="M-150.79,-34.59L-154.01,-24.32L-157.93,-16.87L-162.47,-0.86L-164.48,26.61L-162.52,36.50L-161.64,48.06L-165.29,61.62L-166.75,79.59L-165.26,87.73L-160.09,103.52L-155.14,114.06L-151.87,117.62L-146.58,120.05L-135.29,127.10L-123.81,132.27L-117.90,133.38L-109.40,132.26L-101.71,129.91L-91.41,129.73L-87.50,130.61L-83.27,133.06L-73.41,136.74L-64.02,138.26L-53.44,137.84L-39.43,134.57L-20.36,126.32L-10.82,119.92L-3.50,117.09L20.59,103.66L37.53,99.15L46.26,95.72L50.55,92.00L58.09,87.28L66.83,77.11L70.22,71.06L74.49,57.98L75.13,50.60L73.49,39.31L68.25,21.22L61.89,9.40L57.15,-2.11L52.87,-8.99L46.17,-37.43L42.93,-42.68L37.56,-47.83L27.93,-54.65L8.47,-65.21L-21.33,-78.13L-30.91,-81.62L-41.42,-83.77L-67.33,-84.64L-88.29,-81.57L-98.32,-79.04L-108.27,-74.55L-116.60,-67.19L-120.20,-60.12L-125.75,-52.45L-131.57,-47.70L-140.68,-43.19L-148.96,-40.63L-150.22,-38.50L-150.79,-34.59" />
        <path d="M-150.08,-35.59L-152.31,-28.75L-152.43,-17.11L-153.43,-11.86L-152.84,-10.16" />
      </g>
      <g id="f8" transform="translate(63.07 -13.20)" style="--index:8; opacity:0;" class="frame">
        <path d="M-144.98,-40.01L-142.90,-40.70L-133.98,-47.27L-117.89,-63.59L-112.80,-67.27L-94.51,-75.48L-76.15,-78.38L-51.66,-78.23L-20.50,-70.87L-10.49,-65.95L13.24,-51.87L21.41,-48.19L29.51,-46.08L38.40,-40.61L46.74,-32.68L49.14,-29.43L52.76,-17.94L52.44,0.65L57.87,11.16L62.96,18.93L68.85,24.28L70.80,28.47L72.37,34.58L71.68,46.45L67.05,68.20L58.18,79.17L47.58,86.74L40.77,90.38L31.92,97.01L14.76,113.54L-2.39,124.45L-15.26,130.51L-27.95,132.95L-41.57,132.35L-62.57,137.44L-73.52,137.70L-82.84,137.13L-90.08,135.21L-98.30,130.85L-106.31,128.92L-114.02,129.15L-124.55,131.48L-131.53,131.32L-146.97,124.44L-151.29,121.78L-158.52,114.53L-158.96,99.76L-161.52,91.61L-164.08,76.90L-166.53,72.61L-173.25,65.09L-175.85,59.06L-175.69,56.72L-168.09,37.83L-165.86,28.64L-156.87,3.36L-155.48,-11.06L-157.25,-21.16L-156.83,-25.62L-150.65,-36.85L-144.98,-40.01" />
        <path d="M-146.54,-40.02L-143.10,-40.55L-133.92,-43.90L-111.80,-60.58" />
      </g>
      <g id="f9" transform="translate(63.07 -13.20)" style="--index:9; opacity:0;" class="frame">
        <path d="M-157.70,-21.29L-155.85,-18.96L-154.78,-14.91L-154.68,-0.28L-155.56,5.10L-165.69,32.70L-175.24,51.11L-177.13,60.21L-177.41,67.32L-176.03,71.75L-173.15,76.04L-164.66,82.25L-162.09,86.67L-148.68,100.49L-148.57,104.86L-154.98,127.04L-152.79,130.17L-146.91,133.05L-133.68,136.20L-121.32,137.81L-105.46,138.92L-86.85,137.92L-81.23,140.49L-76.90,141.48L-62.13,132.52L-52.45,133.83L-44.64,136.25L-37.10,136.52L-16.87,131.66L-7.79,126.09L0.30,118.85L8.77,113.05L17.92,109.57L26.50,109.58L31.75,107.12L36.38,101.93L41.61,92.36L51.14,81.97L64.51,69.34L68.17,63.41L69.65,54.77L69.27,46.69L61.63,21.59L58.36,4.50L59.29,-18.73L57.19,-26.12L51.70,-37.86L49.26,-40.75L42.70,-44.95L37.15,-47.43L21.67,-52.12L4.56,-61.08L-3.41,-67.12L-17.64,-73.85L-28.60,-76.49L-46.66,-77.17L-67.21,-74.21L-82.85,-70.08L-88.97,-70.10L-100.36,-71.59L-111.50,-68.25L-118.98,-66.92L-139.58,-60.04L-147.76,-56.26L-151.68,-52.16L-167.17,-43.09L-169.44,-40.20L-171.52,-32.51L-170.23,-27.74L-166.75,-23.87L-162.35,-22.07L-157.70,-21.29" />
        <path d="M-167.35,-29.87L-166.71,-27.42L-164.28,-25.51L-157.70,-21.29L-151.19,-20.06L-147.28,-15.89L-145.54,-8.07L-145.94,-2.14L-147.64,2.01L-147.24,4.23" />
      </g>
      <g id="f10" transform="translate(63.07 -13.20)" style="--index:10; opacity:0;" class="frame">
        <path d="M-139.67,-61.26L-146.04,-59.88L-149.56,-58.20L-164.49,-47.88L-166.84,-43.84L-166.87,-38.88L-160.15,-35.94L-150.66,-33.33L-142.80,-16.53L-141.73,-8.49L-142.88,-4.11L-147.62,6.06L-149.39,18.85L-153.15,29.38L-156.55,36.62L-166.12,51.03L-168.17,55.27L-171.18,67.44L-171.53,72.95L-170.53,76.34L-163.32,84.52L-144.01,99.64L-135.49,107.78L-133.93,112.59L-133.74,117.58L-138.77,127.91L-139.07,130.39L-138.28,131.72L-132.08,135.51L-124.56,137.03L-103.69,137.20L-84.74,134.97L-53.93,137.57L-38.62,135.18L-24.73,129.54L-5.99,126.53L2.17,124.00L15.43,122.41L23.49,116.88L26.87,111.95L30.81,97.77L47.51,79.16L51.53,69.50L49.96,51.60L51.85,32.29L47.37,8.26L46.96,-19.77L44.94,-30.00L40.63,-36.39L38.64,-38.23L35.42,-39.54L10.09,-41.85L2.43,-44.12L-6.42,-48.15L-9.16,-50.08L-15.88,-57.59L-21.82,-67.10L-29.22,-73.57L-32.09,-75.21L-42.41,-77.12L-58.13,-77.32L-65.84,-75.75L-91.22,-64.69L-100.98,-62.25L-119.39,-61.59L-136.77,-63.45L-139.67,-61.26" />
        <path d="M-139.52,-61.29L-150.44,-53.19L-154.50,-51.50" />
      </g>
      <g id="f11" transform="translate(63.07 -13.20)" style="--index:11; opacity:0;" class="frame">
        <path d="M-147.71,-57.48L-152.49,-55.36L-156.73,-52.13L-159.14,-48.52L-159.48,-45.57L-157.34,-43.22L-151.16,-41.11L-145.98,-38.20L-139.27,-33.05L-137.82,-30.97L-137.47,-11.06L-140.60,9.34L-139.75,22.02L-141.21,26.86L-145.91,36.41L-159.48,59.68L-161.71,68.24L-162.37,76.99L-160.08,83.40L-152.29,95.21L-143.02,103.00L-137.25,105.01L-121.51,106.02L-115.20,108.57L-108.12,113.66L-105.78,117.17L-105.17,121.51L-109.67,132.16L-109.76,135.09L-108.82,136.45L-106.54,137.93L-102.71,138.31L-85.22,137.43L-65.83,134.58L-43.81,128.72L-23.39,118.19L-10.82,113.37L9.55,113.50L16.61,114.45L20.14,112.36L27.14,110.37L30.29,108.68L33.18,106.09L35.59,101.98L37.34,93.78L36.55,86.18L32.33,76.28L31.60,64.07L35.81,57.41L46.69,46.29L54.04,32.33L55.19,23.75L48.13,11.39L40.46,2.07L38.09,-3.87L33.53,-11.04L32.12,-17.36L28.52,-22.82L24.97,-24.89L17.73,-26.65L1.01,-28.36L-8.60,-31.41L-17.60,-37.88L-28.03,-48.50L-37.69,-65.84L-40.61,-68.04L-43.97,-69.04L-53.12,-69.81L-65.15,-67.53L-82.68,-59.44L-91.75,-56.40L-97.85,-55.70L-104.40,-55.76L-109.06,-56.94L-116.55,-61.82L-120.92,-66.71L-125.59,-67.26L-128.85,-66.30L-135.99,-61.79L-141.53,-55.99L-151.35,-53.09L-153.66,-53.19" />
        <path d="M10.11,178.87L12.42,185.79L10.11,178.87" />
        <path d="M12.35,177.26L11.63,177.38L12.35,177.26" />
      </g>
    </g>
    <g id="t2" transform="translate(19.91 -46.84) scale(0.38 0.38) rotate(-272.49)" class="thread">
      <g id="f0" transform="translate(135.68 140.24)" style="--index:0; opacity:1;" class="frame">
        <path d="M-149.99,-46.16L-150.23,-40.96L-149.35,-40.11L-144.29,-38.54L-136.07,-37.45L-132.65,-35.36L-129.55,-28.91L-126.70,-16.04L-126.27,-6.39L-126.92,3.86L-130.90,25.84L-135.29,35.80L-140.41,42.09L-144.70,50.22L-148.24,58.92L-148.99,63.90L-148.90,67.42L-146.20,74.77L-141.18,85.19L-135.46,92.72L-133.49,100.58L-131.52,104.09L-125.82,105.97L-103.64,107.82L-96.32,111.58L-92.56,114.61L-88.49,120.27L-82.46,136.76L-76.50,139.87L-73.27,140.58L-64.73,140.96L-55.50,139.64L-44.64,136.22L-40.62,133.24L-35.00,131.23L-29.47,127.62L-17.37,126.53L8.02,126.70L21.29,124.36L31.79,123.62L36.10,121.46L37.42,117.92L35.00,112.36L30.56,107.75L29.14,104.88L26.49,96.63L24.60,82.40L25.50,72.91L34.90,52.59L38.61,36.31L43.35,25.05L43.42,17.54L41.66,8.58L36.15,-4.22L34.72,-10.82L35.22,-18.74L38.28,-27.41L37.79,-29.70L33.97,-30.55L24.98,-30.72L17.87,-27.24L10.03,-22.08L4.70,-22.05L-0.38,-24.09L-6.66,-28.72L-10.23,-36.28L-13.40,-40.05L-21.11,-45.28L-28.35,-48.16L-32.66,-48.05L-43.56,-44.08L-53.30,-43.95L-58.28,-46.22L-63.32,-54.93L-66.75,-57.49L-69.16,-58.28L-72.26,-57.56L-80.51,-52.48L-89.78,-49.87L-95.51,-49.42L-111.93,-50.29L-118.82,-52.23L-124.21,-57.82L-130.48,-62.58L-133.85,-64.40L-137.30,-65.08L-140.08,-64.88L-147.10,-61.74L-152.35,-57.66L-153.45,-54.28L-153.29,-49.72L-149.99,-46.16" />
        <path d="M-149.04,-51.30L-151.22,-50.25L-151.43,-48.79L-148.33,-44.23L-148.98,-41.44" />
      </g>
      <g id="f1" transform="translate(135.68 140.24)" style="--index:1; opacity:0;" class="frame">
        <path d="M-138.57,-37.60L-131.21,-32.12L-125.11,-24.59L-118.26,1.18L-120.22,10.69L-123.13,19.62L-130.85,33.32L-136.29,53.62L-136.28,56.99L-134.90,61.82L-131.78,82.93L-121.56,100.59L-108.90,112.53L-101.79,121.21L-72.03,139.45L-58.45,143.92L-54.80,144.17L-44.36,142.81L-37.18,141.04L-25.86,136.88L-5.77,133.49L5.25,129.64L13.34,122.87L16.63,118.72L23.60,104.16L25.44,97.70L27.26,82.14L28.76,75.68L36.76,60.08L38.59,53.69L39.19,42.22L35.40,29.36L35.29,25.06L39.41,13.50L40.16,3.78L38.43,-3.61L36.82,-6.26L26.76,-15.37L11.80,-19.86L7.08,-22.51L2.47,-28.34L-2.19,-32.17L-12.90,-33.87L-22.80,-31.40L-25.30,-31.51L-29.41,-33.40L-43.37,-44.36L-51.43,-45.50L-73.98,-45.46L-79.75,-47.66L-89.39,-56.14L-94.14,-58.94L-122.63,-65.31L-129.05,-65.64L-137.06,-63.24L-146.06,-57.39L-149.52,-53.87L-150.12,-50.35L-147.86,-41.08L-144.00,-38.85L-138.57,-37.60" />
        <path d="M-144.91,-42.02L-141.66,-40.55L-138.57,-37.60L-135.18,-36.81" />
        <path d="M-139.84,-39.24L-135.75,-31.43L-131.05,-17.18L-130.37,-10.43L-131.07,10.02L-133.06,16.44L-138.47,22.08L-140.22,26.00L-150.43,67.36L-151.45,77.17L-149.30,92.15L-143.46,108.41L-140.75,113.71L-133.56,121.26L-129.96,123.86L-121.79,127.41L-91.02,134.16L-71.40,134.13L-60.24,132.81L-38.35,135.12L-26.03,132.39L-14.29,128.43L-9.78,125.84L3.80,120.35L7.29,117.67L13.73,108.37L18.36,96.54L21.22,85.34L24.24,79.15L26.64,60.51L33.58,50.10L38.14,38.33L39.38,24.98L36.42,8.27L36.55,-1.78L34.05,-7.19L30.25,-10.22L23.73,-13.62L9.22,-18.82L-9.87,-33.65L-18.75,-38.00L-27.43,-37.98L-33.54,-35.75L-38.76,-35.38L-61.77,-46.16L-84.49,-51.21L-87.88,-53.11L-91.55,-57.14L-95.71,-60.12L-103.37,-62.73L-109.20,-62.78L-117.43,-61.62L-127.62,-58.76L-131.88,-56.22" />
        <path d="M-117.13,-55.72L-115.16,-57.84L-111.17,-59.13L-98.18,-62.98L-87.63,-64.81L-75.83,-61.93L-49.85,-57.86L-31.72,-53.53L-18.62,-49.97L-5.38,-45.17L2.51,-40.06L10.02,-36.40L24.20,-25.62L40.30,-15.90L42.60,-11.80L43.55,2.25L42.83,15.87L43.56,23.43L42.42,32.90L38.52,49.54L35.14,56.90L30.85,60.66L20.93,72.26" />
        <path d="M18.66,98.51L18.81,95.62L19.56,95.32L22.97,103.24L24.98,114.01L24.51,117.65L12.25,124.10L3.70,127.40" />
      </g>
      <g id="f2" transform="translate(135.68 140.24)" style="--index:2; opacity:0;" class="frame">
        <path d="M-124.89,-63.90L-129.69,-61.54L-139.39,-49.93L-141.16,-45.63L-141.72,-40.62L-138.63,-32.20L-130.64,-17.67L-127.30,-6.13L-123.18,17.18L-122.92,24.64L-124.35,38.00L-125.26,61.37L-120.40,75.06L-114.93,82.97L-110.85,96.74L-100.50,115.34L-90.67,125.03L-81.64,130.78L-77.33,132.67L-60.51,137.14L-41.92,139.30L-32.78,141.34L-15.95,137.60L15.71,117.67L25.28,108.31L29.70,97.10L30.36,89.97L28.32,74.30L28.15,66.13L30.11,55.31L32.56,47.71L33.98,33.36L29.30,20.23L21.91,8.05L18.83,-0.68L16.53,-4.33L5.53,-15.05L-8.39,-21.21L-13.96,-28.46L-15.88,-29.90L-19.98,-30.47L-29.42,-27.93L-36.14,-28.81L-48.32,-36.50L-71.11,-47.78L-81.26,-48.87L-91.98,-47.76L-97.40,-48.15L-110.35,-63.27L-115.24,-66.88L-120.52,-68.01L-124.89,-63.90" />
        <path d="M-128.35,-59.05L-128.35,-59.05" />
        <path d="M-121.37,-64.35L-124.89,-63.90L-127.01,-59.71L-128.30,-59.05" />
        <path d="M-117.80,-63.50L-102.94,-67.50L-91.45,-67.50L-55.80,-70.48L-38.90,-69.54L-21.17,-65.43L-0.59,-56.28L9.24,-48.02L34.83,-23.27L46.12,-4.53L50.48,5.23L49.73,15.69L50.84,26.47L50.87,36.17L50.40,40.06L46.18,53.18L37.75,70.55L30.94,79.22L27.20,90.25L18.14,97.85L8.83,103.57L3.64,107.71L-16.00,118.17L-32.64,125.47L-51.07,131.67L-55.83,134.14L-67.79,137.91L-83.81,140.79L-94.61,140.74L-100.43,138.45L-111.72,133.03L-117.36,128.93L-131.61,122.46L-141.93,115.18L-150.86,105.57L-152.77,97.45L-152.85,89.93L-152.21,77.71L-149.68,61.07L-142.61,38.09L-131.13,-4.98L-130.33,-14.30L-130.81,-19.92L-132.95,-25.82L-138.24,-34.82L-138.86,-38.32L-138.36,-40.49" />
        <path d="M17.37,110.78L18.89,112.68L19.50,117.15L15.77,122.60L13.12,124.51L6.83,126.86L-4.45,129.83L-6.45,129.83L-4.88,129.23" />
        <path d="M20.78,103.76L24.05,105.79L27.45,110.66L27.93,116.75L26.65,118.66L22.69,121.49L15.10,125.09L5.49,127.21L-2.08,127.88" />
      </g>
      <g id="f3" transform="translate(135.68 140.24)" style="--index:3; opacity:0;" class="frame">
        <path d="M-109.85,-59.51L-112.38,-60.93L-117.79,-60.63L-126.71,-54.22L-129.80,-50.72L-132.68,-45.38L-134.90,-38.84L-135.22,-33.10L-134.40,-23.36L-129.54,-3.08L-122.87,10.76L-114.96,31.56L-113.28,46.54L-113.05,79.11L-111.99,87.48L-109.97,94.60L-102.11,106.51L-96.57,112.01L-91.19,119.94L-87.37,129.06L-82.21,133.74L-72.86,137.00L-56.54,138.68L-40.26,139.17L-30.66,138.11L-25.87,137.04L-19.01,133.64L-12.58,131.89L2.92,122.70L5.81,119.83L9.91,112.35L13.98,107.09L26.62,78.36L28.38,69.41L29.12,56.42L33.08,41.42L32.95,31.78L27.22,23.16L21.69,18.56L8.52,2.16L1.79,-3.21L-2.29,-8.58L-33.23,-21.21L-50.03,-23.46L-58.13,-27.38L-67.18,-34.29L-81.47,-52.31L-90.85,-59.69L-99.10,-60.50L-104.93,-57.46L-108.47,-57.05L-119.22,-59.66L-120.74,-57.91" />
        <path d="M-139.03,-41.07L-140.62,-29.28L-142.35,7.75L-154.51,41.92L-161.40,55.11L-164.80,71.58L-166.09,82.35L-166.15,87.28L-164.49,98.44L-162.42,106.37L-156.98,115.46L-149.11,123.69L-129.81,134.28L-112.21,140.63L-95.57,143.47L-84.27,143.09L-75.66,140.10L-62.08,138.33L-40.93,138.03L-37.06,136.55L-31.31,132.63L-24.51,129.80L-19.13,125.35L-7.19,117.68L-0.93,111.47L5.29,107.68L10.09,101.13L16.98,96.61L19.95,89.21L24.72,81.47L28.02,80.16L32.90,76.38L35.74,71.54L38.69,63.52L48.09,48.32L52.84,26.17L59.30,2.99L59.78,-4.33L57.58,-10.21L49.64,-19.18L33.12,-30.16L27.00,-35.40L21.33,-40.71L16.69,-47.66L10.08,-54.52L-11.73,-64.63L-47.46,-74.10L-57.59,-74.81L-81.71,-72.93L-94.81,-72.80L-108.14,-66.03L-119.89,-56.61L-124.17,-54.88L-126.91,-55.03L-135.98,-49.40L-137.62,-43.19L-139.03,-41.07" />
        <path d="M-139.03,-41.07L-139.03,-41.07" />
        <path d="M-139.00,-46.09L-140.20,-34.04L-138.71,-31.20" />
        <path d="M-162.16,82.18L-162.63,74.71L-161.39,59.76L-147.54,15.32L-144.14,-1.58L-143.26,-8.30L-142.80,-31.75L-141.59,-39.49L-137.68,-49.84L-127.51,-59.44L-116.45,-67.28L-107.81,-72.08L-96.68,-76.80L-86.87,-78.92L-70.10,-79.70L-50.14,-77.89L-39.97,-76.01L-18.06,-69.42L-0.17,-65.13L18.23,-56.43L29.38,-47.23L31.66,-43.82L34.30,-36.57L40.02,-25.23L45.42,-10.75L51.93,14.39L52.72,19.11L52.22,30.93L49.28,49.49L46.07,58.01L35.68,77.65L25.80,92.04L15.47,102.29L9.71,106.52L2.34,116.89L-13.34,124.58L-49.40,134.10L-60.20,138.96" />
        <path d="M18.42,91.24L18.95,102.64L17.45,111.37L15.61,114.96L13.23,116.63L2.23,121.10L-8.68,123.92" />
      </g>
      <g id="f4" transform="translate(135.68 140.24)" style="--index:4; opacity:0;" class="frame">
        <path d="M-155.66,-2.76L-157.45,-8.84L-157.65,-20.50L-155.34,-31.36L-152.90,-38.38L-145.53,-52.67L-142.04,-57.04L-124.15,-73.26L-104.41,-83.58L-88.85,-88.42L-70.91,-89.02L-58.72,-87.43L-42.63,-87.24L-32.45,-85.71L-8.60,-78.56L17.49,-72.13L31.39,-64.39L39.01,-58.30L41.27,-55.52L56.15,-33.55L62.66,-15.81L66.55,3.67L67.16,11.73L66.76,23.72L64.24,37.49L59.59,53.04L56.95,58.27L39.68,84.09L17.09,104.62L4.32,111.90L-5.36,119.24L-28.60,134.14L-44.04,141.63L-49.85,143.68L-74.88,148.97L-100.19,149.90L-117.66,147.05L-128.59,143.14L-144.08,133.61L-148.12,130.10L-168.33,108.99L-174.28,98.32L-176.47,91.84L-177.00,82.31L-172.63,58.27L-165.67,36.50L-157.85,18.43L-155.87,9.29L-154.08,-8.45" />
      </g>
      <g id="f5" transform="translate(135.68 140.24)" style="--index:5; opacity:0;" class="frame">
        <path d="M-159.00,25.96L-161.09,37.35L-165.79,54.03L-164.74,63.31L-164.68,76.28L-169.84,97.80L-170.17,105.74L-168.78,110.58L-163.35,118.78L-147.99,130.70L-126.28,140.70L-109.44,145.93L-100.72,147.25L-94.94,147.11L-80.71,145.33L-74.43,143.61L-66.48,143.21L-52.64,136.59L-39.13,127.59L-32.63,124.41L-20.72,120.77L-17.02,120.37L-6.61,116.93L5.25,111.84L15.23,109.32L29.21,103.49L36.89,101.97L42.40,95.75L45.69,90.05L53.64,81.12L59.67,70.92L63.51,60.13L66.55,39.08L66.63,17.70L63.38,-13.41L62.13,-19.18L58.34,-29.58L54.44,-34.93L45.84,-43.80L40.54,-54.06L32.85,-59.37L16.76,-64.00L9.15,-65.51L-15.49,-65.12L-25.82,-68.69L-33.43,-70.41L-41.50,-74.32L-53.16,-78.35L-57.21,-81.01L-61.71,-85.44L-65.35,-87.16L-79.05,-86.97L-96.54,-82.26L-101.70,-79.55L-126.00,-59.10L-132.09,-50.36L-141.89,-41.16L-146.34,-34.67L-155.14,-17.19L-161.17,-0.84L-162.02,5.05L-159.84,13.92L-159.00,25.96" />
        <path d="M-156.67,20.87L-159.18,26.57L-162.22,42.91L-167.93,63.24L-169.64,71.25L-169.91,78.00" />
      </g>
      <g id="f6" transform="translate(135.68 140.24)" style="--index:6; opacity:0;" class="frame">
        <path d="M-160.97,20.72L-161.72,34.49L-164.50,54.34L-165.85,61.05L-168.97,69.51L-170.37,90.81L-169.77,93.88L-162.98,104.71L-155.68,109.65L-151.08,117.13L-141.46,126.54L-112.55,138.97L-101.78,142.17L-94.75,143.11L-58.74,144.28L-53.70,143.57L-39.36,139.44L-30.74,134.05L-17.33,127.50L-12.17,123.48L5.10,112.70L12.68,109.53L23.58,107.21L33.53,102.44L42.07,96.43L55.91,83.96L65.46,70.23L67.89,65.44L73.69,49.11L75.91,40.73L76.31,32.72L73.76,8.87L68.70,-7.60L60.05,-18.83L50.99,-26.58L47.78,-35.07L39.74,-46.92L32.93,-51.47L29.49,-54.97L23.16,-56.58L19.08,-58.62L12.21,-67.05L8.60,-70.21L-23.77,-77.89L-35.40,-78.49L-57.63,-77.69L-80.25,-80.61L-89.61,-80.85L-97.57,-79.09L-103.96,-76.00L-131.49,-57.11L-138.34,-49.63L-141.68,-42.58L-148.37,-32.29L-154.33,-15.56L-158.06,-7.80L-159.71,-1.34L-159.95,4.33L-158.52,10.38L-157.91,28.83L-162.05,42.00L-162.05,46.87L-161.12,48.57" />
      </g>
      <g id="f7" transform="translate(135.68 140.24)" style="--index:7; opacity:0;" class="frame">
        <path d="M-150.79,-34.59L-154.01,-24.32L-157.93,-16.87L-162.47,-0.86L-164.48,26.61L-162.52,36.50L-161.64,48.06L-165.29,61.62L-166.75,79.59L-165.26,87.73L-160.09,103.52L-155.14,114.06L-151.87,117.62L-146.58,120.05L-135.29,127.10L-123.81,132.27L-117.90,133.38L-109.40,132.26L-101.71,129.91L-91.41,129.73L-87.50,130.61L-83.27,133.06L-73.41,136.74L-64.02,138.26L-53.44,137.84L-39.43,134.57L-20.36,126.32L-10.82,119.92L-3.50,117.09L20.59,103.66L37.53,99.15L46.26,95.72L50.55,92.00L58.09,87.28L66.83,77.11L70.22,71.06L74.49,57.98L75.13,50.60L73.49,39.31L68.25,21.22L61.89,9.40L57.15,-2.11L52.87,-8.99L46.17,-37.43L42.93,-42.68L37.56,-47.83L27.93,-54.65L8.47,-65.21L-21.33,-78.13L-30.91,-81.62L-41.42,-83.77L-67.33,-84.64L-88.29,-81.57L-98.32,-79.04L-108.27,-74.55L-116.60,-67.19L-120.20,-60.12L-125.75,-52.45L-131.57,-47.70L-140.68,-43.19L-148.96,-40.63L-150.22,-38.50L-150.79,-34.59" />
        <path d="M-150.08,-35.59L-152.31,-28.75L-152.43,-17.11L-153.43,-11.86L-152.84,-10.16" />
      </g>
      <g id="f8" transform="translate(135.68 140.24)" style="--index:8; opacity:0;" class="frame">
        <path d="M-144.98,-40.01L-142.90,-40.70L-133.98,-47.27L-117.89,-63.59L-112.80,-67.27L-94.51,-75.48L-76.15,-78.38L-51.66,-78.23L-20.50,-70.87L-10.49,-65.95L13.24,-51.87L21.41,-48.19L29.51,-46.08L38.40,-40.61L46.74,-32.68L49.14,-29.43L52.76,-17.94L52.44,0.65L57.87,11.16L62.96,18.93L68.85,24.28L70.80,28.47L72.37,34.58L71.68,46.45L67.05,68.20L58.18,79.17L47.58,86.74L40.77,90.38L31.92,97.01L14.76,113.54L-2.39,124.45L-15.26,130.51L-27.95,132.95L-41.57,132.35L-62.57,137.44L-73.52,137.70L-82.84,137.13L-90.08,135.21L-98.30,130.85L-106.31,128.92L-114.02,129.15L-124.55,131.48L-131.53,131.32L-146.97,124.44L-151.29,121.78L-158.52,114.53L-158.96,99.76L-161.52,91.61L-164.08,76.90L-166.53,72.61L-173.25,65.09L-175.85,59.06L-175.69,56.72L-168.09,37.83L-165.86,28.64L-156.87,3.36L-155.48,-11.06L-157.25,-21.16L-156.83,-25.62L-150.65,-36.85L-144.98,-40.01" />
        <path d="M-146.54,-40.02L-143.10,-40.55L-133.92,-43.90L-111.80,-60.58" />
      </g>
      <g id="f9" transform="translate(135.68 140.24)" style="--index:9; opacity:0;" class="frame">
        <path d="M-157.70,-21.29L-155.85,-18.96L-154.78,-14.91L-154.68,-0.28L-155.56,5.10L-165.69,32.70L-175.24,51.11L-177.13,60.21L-177.41,67.32L-176.03,71.75L-173.15,76.04L-164.66,82.25L-162.09,86.67L-148.68,100.49L-148.57,104.86L-154.98,127.04L-152.79,130.17L-146.91,133.05L-133.68,136.20L-121.32,137.81L-105.46,138.92L-86.85,137.92L-81.23,140.49L-76.90,141.48L-62.13,132.52L-52.45,133.83L-44.64,136.25L-37.10,136.52L-16.87,131.66L-7.79,126.09L0.30,118.85L8.77,113.05L17.92,109.57L26.50,109.58L31.75,107.12L36.38,101.93L41.61,92.36L51.14,81.97L64.51,69.34L68.17,63.41L69.65,54.77L69.27,46.69L61.63,21.59L58.36,4.50L59.29,-18.73L57.19,-26.12L51.70,-37.86L49.26,-40.75L42.70,-44.95L37.15,-47.43L21.67,-52.12L4.56,-61.08L-3.41,-67.12L-17.64,-73.85L-28.60,-76.49L-46.66,-77.17L-67.21,-74.21L-82.85,-70.08L-88.97,-70.10L-100.36,-71.59L-111.50,-68.25L-118.98,-66.92L-139.58,-60.04L-147.76,-56.26L-151.68,-52.16L-167.17,-43.09L-169.44,-40.20L-171.52,-32.51L-170.23,-27.74L-166.75,-23.87L-162.35,-22.07L-157.70,-21.29" />
        <path d="M-167.35,-29.87L-166.71,-27.42L-164.28,-25.51L-157.70,-21.29L-151.19,-20.06L-147.28,-15.89L-145.54,-8.07L-145.94,-2.14L-147.64,2.01L-147.24,4.23" />
      </g>
      <g id="f10" transform="translate(135.68 140.24)" style="--index:10; opacity:0;" class="frame">
        <path d="M-139.67,-61.26L-146.04,-59.88L-149.56,-58.20L-164.49,-47.88L-166.84,-43.84L-166.87,-38.88L-160.15,-35.94L-150.66,-33.33L-142.80,-16.53L-141.73,-8.49L-142.88,-4.11L-147.62,6.06L-149.39,18.85L-153.15,29.38L-156.55,36.62L-166.12,51.03L-168.17,55.27L-171.18,67.44L-171.53,72.95L-170.53,76.34L-163.32,84.52L-144.01,99.64L-135.49,107.78L-133.93,112.59L-133.74,117.58L-138.77,127.91L-139.07,130.39L-138.28,131.72L-132.08,135.51L-124.56,137.03L-103.69,137.20L-84.74,134.97L-53.93,137.57L-38.62,135.18L-24.73,129.54L-5.99,126.53L2.17,124.00L15.43,122.41L23.49,116.88L26.87,111.95L30.81,97.77L47.51,79.16L51.53,69.50L49.96,51.60L51.85,32.29L47.37,8.26L46.96,-19.77L44.94,-30.00L40.63,-36.39L38.64,-38.23L35.42,-39.54L10.09,-41.85L2.43,-44.12L-6.42,-48.15L-9.16,-50.08L-15.88,-57.59L-21.82,-67.10L-29.22,-73.57L-32.09,-75.21L-42.41,-77.12L-58.13,-77.32L-65.84,-75.75L-91.22,-64.69L-100.98,-62.25L-119.39,-61.59L-136.77,-63.45L-139.67,-61.26" />
        <path d="M-139.52,-61.29L-150.44,-53.19L-154.50,-51.50" />
      </g>
      <g id="f11" transform="translate(135.68 140.24)" style="--index:11; opacity:0;" class="frame">
        <path d="M-147.71,-57.48L-152.49,-55.36L-156.73,-52.13L-159.14,-48.52L-159.48,-45.57L-157.34,-43.22L-151.16,-41.11L-145.98,-38.20L-139.27,-33.05L-137.82,-30.97L-137.47,-11.06L-140.60,9.34L-139.75,22.02L-141.21,26.86L-145.91,36.41L-159.48,59.68L-161.71,68.24L-162.37,76.99L-160.08,83.40L-152.29,95.21L-143.02,103.00L-137.25,105.01L-121.51,106.02L-115.20,108.57L-108.12,113.66L-105.78,117.17L-105.17,121.51L-109.67,132.16L-109.76,135.09L-108.82,136.45L-106.54,137.93L-102.71,138.31L-85.22,137.43L-65.83,134.58L-43.81,128.72L-23.39,118.19L-10.82,113.37L9.55,113.50L16.61,114.45L20.14,112.36L27.14,110.37L30.29,108.68L33.18,106.09L35.59,101.98L37.34,93.78L36.55,86.18L32.33,76.28L31.60,64.07L35.81,57.41L46.69,46.29L54.04,32.33L55.19,23.75L48.13,11.39L40.46,2.07L38.09,-3.87L33.53,-11.04L32.12,-17.36L28.52,-22.82L24.97,-24.89L17.73,-26.65L1.01,-28.36L-8.60,-31.41L-17.60,-37.88L-28.03,-48.50L-37.69,-65.84L-40.61,-68.04L-43.97,-69.04L-53.12,-69.81L-65.15,-67.53L-82.68,-59.44L-91.75,-56.40L-97.85,-55.70L-104.40,-55.76L-109.06,-56.94L-116.55,-61.82L-120.92,-66.71L-125.59,-67.26L-128.85,-66.30L-135.99,-61.79L-141.53,-55.99L-151.35,-53.09L-153.66,-53.19" />
      </g>
    </g>
  </g>
</svg>