<?xml version="1.0" encoding="utf-8"?>
<svg width="1194" height="834" viewBox="-597 -417 1194 834" xmlns="http://www.w3.org/2000/svg">
  <style>
svg { background-color:#FFBFED; }

#looom { --version:2; }

#t0 {
--visible:1; --timeOffset:10; --speed:12; --bookmarkIndex:-1; --latched:0; --playMode:0; --masked:0; --blendMode:0; 
fill:#FFFE53; stroke-opacity:0; fill-opacity:1; stroke-width:10; stroke-linecap:round; stroke-linejoin:round;
}
@keyframes t0 { 0% { opacity: 1; } 8.333333% { opacity: 0; } }
#t0 .frame { animation:t0 1s calc(var(--index) * 0.08333334s) steps(1) infinite; }

#t1 {
--visible:1; --timeOffset:38.4; --speed:10; --bookmarkIndex:-1; --latched:0; --playMode:0; --masked:0; --blendMode:0; 
fill:#FF7782; stroke-opacity:0; fill-opacity:0.08708605; stroke-width:10; stroke-linecap:round; stroke-linejoin:round;
}
@keyframes t1 { 0% { opacity: 1; } 8.333333% { opacity: 0; } }
#t1 .frame { animation:t1 1.2s calc(var(--index) * 0.1s) steps(1) infinite; }

#t2 {
--visible:1; --timeOffset:37.2; --speed:10; --bookmarkIndex:-1; --latched:0; --playMode:0; --masked:0; --blendMode:0; 
fill:#7788FF; stroke-opacity:0; fill-opacity:0.08368167; stroke-width:10; stroke-linecap:round; stroke-linejoin:round;
}
@keyframes t2 { 0% { opacity: 1; } 8.333333% { opacity: 0; } }
#t2 .frame { animation:t2 1.2s calc(var(--index) * 0.1s) steps(1) infinite; }

#t3 {
--visible:1; --timeOffset:38.4; --speed:10; --bookmarkIndex:-1; --latched:0; --playMode:0; --masked:0; --blendMode:0; 
fill:#FF8E97; stroke-opacity:0; fill-opacity:1; stroke-width:10; stroke-linecap:round; stroke-linejoin:round;
}
@keyframes t3 { 0% { opacity: 1; } 8.333333% { opacity: 0; } }
#t3 .frame { animation:t3 1.2s calc(var(--index) * 0.1s) steps(1) infinite; }

#t4 {
--visible:1; --timeOffset:37.2; --speed:10; --bookmarkIndex:-1; --latched:0; --playMode:0; --masked:0; --blendMode:0; 
fill:#8292FF; stroke-opacity:0; fill-opacity:1; stroke-width:10; stroke-linecap:round; stroke-linejoin:round;
}
@keyframes t4 { 0% { opacity: 1; } 8.333333% { opacity: 0; } }
#t4 .frame { animation:t4 1.2s calc(var(--index) * 0.1s) steps(1) infinite; }

</style>
  <g id="w0" transform="translate(186.25 -47.00) scale(1.39 1.39) rotate(-342.19)" class="weave">
    <g id="t0" transform="translate(152.71 -12.68) scale(1.28 1.28) rotate(-355.78)" class="thread">
      <g id="f0" transform="translate(-70.20 -6.58)" style="--index:0; opacity:1;" class="frame">
        <path d="M-307.13,5.17L-312.46,12.25L-314.91,17.23L-317.52,28.35L-321.27,38.75L-322.33,45.50L-324.48,94.69L-321.76,128.26L-316.41,150.20L-314.31,163.85L-302.47,199.94L-290.70,222.94L-282.21,242.12L-277.41,247.86L-268.25,256.34L-260.01,267.24L-256.98,270.10L-250.46,273.29L-225.09,281.39L-205.02,285.06L-197.87,284.48L-183.80,285.01L-151.71,280.56L-129.12,279.87L-111.93,278.08L-98.38,275.33L-83.23,273.33L-74.17,270.83L-64.09,266.71L-46.50,257.68L-30.15,248.17L-1.02,228.27L8.72,222.48L26.54,208.61L34.82,198.72L43.43,185.25L48.53,166.39L53.10,154.56L59.90,132.03L65.10,102.58L66.23,79.96L66.08,48.61L64.65,35.06L56.04,-0.04L49.68,-10.20L43.53,-23.22L31.63,-40.73L26.81,-46.08L16.22,-53.65L9.16,-60.12L-2.67,-65.92L-11.69,-72.52L-23.53,-77.12L-31.88,-82.05L-43.09,-84.14L-55.70,-88.03L-72.07,-89.77L-81.75,-93.32L-104.48,-93.29L-130.50,-95.59L-163.94,-96.01L-179.94,-95.10L-193.89,-93.02L-207.80,-89.22L-217.72,-84.80L-236.26,-72.85L-257.62,-60.82L-268.77,-52.42L-283.45,-38.48L-293.52,-23.79L-297.46,-15.59L-304.50,-5.36L-311.64,8.48" />
      </g>
      <g id="f1" transform="translate(-70.20 -6.58)" style="--index:1; opacity:0;" class="frame">
        <path d="M-307.58,0.71L-306.15,-2.40L-297.66,-14.19L-293.07,-22.54L-280.24,-38.02L-264.47,-52.82L-252.18,-62.43L-233.55,-73.21L-223.05,-77.64L-206.32,-86.56L-187.72,-92.75L-175.19,-95.49L-158.30,-97.17L-135.66,-97.11L-113.85,-98.45L-107.56,-97.56L-71.18,-88.47L-58.72,-82.90L-33.46,-75.18L-14.20,-64.15L-5.13,-56.16L8.16,-46.88L22.78,-33.14L44.30,0.25L52.39,14.67L58.53,28.70L64.64,49.03L70.16,74.68L71.53,88.03L71.57,103.61L69.20,120.73L63.38,146.14L60.64,155.11L51.02,179.21L38.49,201.56L32.25,210.54L26.98,215.81L13.76,224.32L6.34,231.33L-3.10,238.15L-7.06,240.52L-30.44,249.79L-44.58,256.53L-51.43,258.92L-75.72,264.88L-104.71,277.97L-148.54,287.51L-180.41,288.42L-203.87,282.75L-218.66,280.54L-230.23,276.53L-243.65,274.11L-250.17,272.08L-256.67,267.96L-262.47,261.54L-271.93,253.68L-275.22,249.16L-285.67,226.11L-300.10,206.09L-306.24,193.99L-315.95,171.71L-320.99,153.87L-322.85,142.24L-324.55,90.79L-323.65,70.89L-321.30,57.87L-321.40,31.87L-318.60,23.22L-312.74,16.18L-309.51,10.93L-307.58,0.71" />
        <path d="M-310.88,11.85L-307.56,0.62" />
      </g>
      <g id="f2" transform="translate(-70.20 -6.58)" style="--index:2; opacity:0;" class="frame">
        <path d="M-320.21,26.29L-319.01,22.76L-310.26,10.32L-303.52,-1.29L-296.39,-9.32L-289.51,-19.94L-262.35,-51.83L-255.05,-56.66L-248.25,-62.70L-233.90,-69.16L-217.63,-78.20L-196.83,-86.39L-173.59,-91.97L-169.98,-93.59L-154.21,-96.88L-148.30,-96.94L-135.49,-98.81L-100.78,-95.53L-86.98,-95.71L-49.85,-87.94L-44.19,-84.52L-33.61,-79.83L-26.75,-74.37L-16.64,-71.25L9.45,-51.87L18.40,-39.45L26.06,-30.92L42.28,4.84L52.17,17.99L60.39,35.28L65.31,59.23L66.55,75.54L66.17,82.50L63.54,92.09L60.56,98.35L55.11,121.55L53.47,142.99L50.47,157.33L48.77,162.44L46.13,166.60L44.48,173.42L42.16,176.77L37.10,191.56L25.99,210.47L19.86,216.04L12.26,218.74L5.54,226.32L-3.98,229.65L-12.82,235.16L-22.13,237.38L-30.78,242.70L-40.80,246.78L-52.53,252.96L-61.45,255.21L-73.12,260.24L-83.33,263.05L-95.94,269.13L-100.26,270.45L-120.57,274.35L-131.52,274.73L-141.13,276.25L-154.44,280.04L-165.33,282.13L-174.59,280.64L-185.11,281.03L-212.36,276.86L-221.94,274.08L-226.97,273.92L-238.33,269.59L-240.63,268.05L-251.33,256.02L-266.33,244.22L-277.25,228.80L-282.08,224.62L-285.51,218.55L-300.40,204.21L-304.78,196.29L-309.48,178.27L-315.03,167.03L-324.93,150.97L-328.16,143.68L-332.95,121.87L-333.47,111.59L-335.33,98.52L-335.91,77.55L-335.46,62.25L-332.75,44.42L-320.21,26.29" />
        <path d="M-320.42,26.89L-312.87,17.76" />
      </g>
      <g id="f3" transform="translate(-70.20 -6.58)" style="--index:3; opacity:0;" class="frame">
        <path d="M-294.86,-15.05L-306.50,1.37L-311.81,11.27L-320.21,24.38L-330.36,45.42L-332.67,52.41L-334.35,67.25L-334.83,88.79L-333.00,116.82L-328.94,142.17L-321.44,157.99L-307.82,181.28L-292.74,195.96L-282.31,211.06L-268.26,224.60L-260.92,234.31L-252.49,240.92L-241.46,256.38L-221.56,270.99L-215.60,273.72L-203.20,276.45L-175.93,279.33L-167.25,281.38L-158.83,280.99L-151.77,279.37L-139.19,274.85L-125.99,268.56L-103.71,260.57L-71.71,251.91L-52.83,240.43L-28.72,229.94L-11.76,221.31L-2.75,214.79L21.06,201.04L31.84,192.73L46.57,168.39L59.10,128.85L60.88,111.84L63.10,100.98L62.31,86.46L51.52,17.15L29.97,-22.26L13.46,-44.46L9.55,-48.60L0.83,-55.32L-14.14,-65.02L-32.57,-75.56L-43.66,-79.83L-53.21,-85.04L-62.19,-87.56L-71.79,-91.64L-88.04,-95.61L-113.19,-97.77L-125.79,-97.88L-168.50,-92.04L-185.61,-90.42L-200.73,-86.61L-215.40,-81.48L-233.61,-72.12L-247.71,-62.11L-261.67,-50.77L-271.00,-40.33L-280.16,-33.09L-289.89,-18.53L-296.22,-3.66" />
      </g>
      <g id="f4" transform="translate(-70.20 -6.58)" style="--index:4; opacity:0;" class="frame">
        <path d="M-267.08,-48.76L-270.93,-46.68L-280.06,-39.07L-284.77,-31.07L-292.91,-20.85L-299.04,-10.76L-307.12,-1.84L-320.16,17.61L-328.96,40.90L-330.98,50.05L-332.11,69.88L-330.54,96.31L-328.25,109.62L-326.30,136.61L-324.11,152.81L-320.85,163.84L-308.01,186.15L-302.55,193.87L-281.01,217.63L-268.58,228.04L-261.26,238.94L-247.81,249.37L-240.68,258.22L-236.95,261.37L-221.18,269.04L-213.07,270.12L-201.33,273.30L-184.61,275.24L-174.16,275.07L-148.72,271.69L-121.78,265.60L-102.53,257.77L-58.23,245.61L-40.35,238.47L-15.55,225.96L-8.01,221.29L2.61,213.01L14.82,206.05L23.70,199.88L25.79,197.92L29.27,191.07L35.12,183.18L39.68,173.32L47.02,163.96L58.03,136.20L60.66,126.62L62.22,114.33L66.59,100.64L68.41,87.49L67.40,68.50L66.05,59.79L61.06,48.86L54.90,32.20L45.36,21.99L29.79,-1.96L17.99,-16.62L6.23,-38.99L-4.67,-50.38L-17.05,-68.39L-30.67,-80.50L-36.37,-83.33L-49.65,-86.69L-62.70,-87.68L-69.95,-90.16L-81.93,-92.06L-93.02,-95.52L-109.24,-96.76L-131.13,-94.87L-141.11,-93.06L-176.41,-82.84L-197.30,-78.72L-215.61,-72.79L-237.81,-63.20L-257.19,-56.58L-263.02,-53.63L-265.71,-51.07" />
      </g>
      <g id="f5" transform="translate(-70.20 -6.58)" style="--index:5; opacity:0;" class="frame">
        <path d="M-273.86,-43.16L-280.73,-36.74L-285.08,-29.45L-293.08,-19.50L-297.95,-10.29L-303.55,-3.08L-309.32,7.27L-314.52,14.37L-325.13,34.70L-332.62,56.06L-333.93,61.94L-334.89,75.88L-334.36,83.38L-330.47,106.00L-329.09,121.96L-325.62,135.55L-319.03,150.31L-312.09,161.49L-307.05,177.48L-296.04,199.23L-293.25,203.14L-283.20,212.49L-276.94,219.54L-259.84,231.57L-250.79,240.62L-233.93,254.69L-230.98,256.59L-222.69,259.28L-213.19,264.45L-209.41,265.64L-200.06,266.04L-173.78,270.49L-162.27,269.98L-148.56,267.57L-122.84,260.98L-105.98,254.81L-81.53,247.74L-54.16,236.78L-22.46,219.68L2.71,204.30L28.15,182.50L35.83,173.13L48.00,153.42L55.51,135.40L57.36,128.14L64.11,78.94L63.68,53.97L60.69,29.86L58.78,23.54L52.61,13.66L51.13,8.69L50.05,-0.53L47.65,-9.08L39.81,-23.00L27.77,-39.63L16.39,-51.05L7.80,-61.80L-15.89,-82.85L-34.81,-90.05L-45.42,-92.26L-51.88,-94.92L-77.52,-99.85L-83.44,-101.83L-115.32,-105.01L-127.93,-105.46L-151.57,-110.96L-168.22,-109.91L-183.92,-106.74L-217.59,-95.45L-231.91,-89.22L-243.47,-79.32L-249.73,-70.45L-269.42,-49.18L-273.86,-43.16" />
        <path d="M-269.70,-47.09L-282.26,-34.00" />
      </g>
      <g id="f6" transform="translate(-70.20 -6.58)" style="--index:6; opacity:0;" class="frame">
        <path d="M-252.99,-56.01L-256.75,-53.70L-261.33,-48.75L-269.46,-43.52L-278.64,-35.09L-291.98,-20.45L-303.07,-3.46L-307.66,8.12L-313.93,18.97L-317.69,28.98L-322.01,37.40L-331.50,64.04L-333.54,76.81L-331.46,101.86L-324.77,151.52L-323.25,157.52L-318.98,166.22L-315.26,176.79L-307.45,193.70L-295.75,208.63L-285.50,220.71L-275.76,228.62L-264.32,240.38L-253.63,247.87L-243.13,257.53L-238.08,259.08L-224.30,268.24L-210.17,272.44L-192.50,273.16L-168.36,270.01L-146.79,269.96L-115.06,261.20L-101.07,256.00L-87.49,252.11L-33.46,229.62L3.26,212.89L31.13,193.93L35.21,189.82L44.54,177.31L53.11,162.82L55.74,157.25L62.97,136.56L63.95,129.19L63.93,116.63L65.76,104.51L65.15,83.06L64.06,76.16L59.96,62.60L55.57,41.46L52.35,30.25L47.56,15.61L39.32,-0.60L30.17,-10.40L11.24,-36.95L-4.48,-50.32L-16.78,-59.61L-20.78,-63.57L-28.86,-74.12L-35.99,-77.92L-60.51,-84.58L-72.85,-85.12L-84.40,-87.01L-93.10,-86.48L-98.97,-88.78L-105.64,-88.04L-112.91,-89.09L-121.86,-88.59L-130.32,-90.87L-137.63,-91.18L-150.32,-89.12L-167.50,-84.97L-189.75,-83.05L-214.45,-76.85L-238.18,-65.51L-250.67,-54.96L-254.80,-52.20L-255.94,-52.26" />
      </g>
      <g id="f7" transform="translate(-70.20 -6.58)" style="--index:7; opacity:0;" class="frame">
        <path d="M-265.64,-44.08L-269.15,-42.97L-273.77,-39.19L-284.66,-24.95L-291.55,-17.43L-295.81,-10.37L-303.51,-0.19L-307.32,9.30L-312.73,18.52L-316.56,29.49L-321.64,39.35L-331.53,62.92L-332.38,67.34L-332.53,78.59L-334.85,94.87L-334.79,116.47L-334.09,122.81L-322.44,161.17L-313.61,180.30L-305.18,190.70L-296.65,204.12L-287.94,220.09L-263.06,249.79L-252.05,258.18L-244.00,262.25L-226.66,268.38L-208.28,274.20L-193.13,277.03L-175.37,278.60L-158.62,274.49L-147.67,272.92L-133.90,269.01L-102.16,262.65L-88.97,258.96L-62.78,248.20L-57.76,244.26L-46.31,239.10L-32.91,230.54L-19.82,224.09L-4.29,213.48L16.82,201.43L27.23,194.37L30.07,191.09L34.01,181.86L40.32,172.73L44.70,161.79L50.28,151.74L51.88,145.88L52.73,133.45L54.60,122.99L56.08,92.01L57.68,75.83L57.98,58.75L55.73,36.75L52.42,19.37L47.17,3.29L39.13,-11.20L27.81,-27.01L25.29,-33.36L14.72,-43.69L-3.20,-57.31L-9.58,-66.19L-22.70,-72.99L-32.10,-80.07L-47.43,-86.57L-58.73,-88.98L-83.09,-95.79L-113.65,-98.66L-141.95,-97.31L-163.82,-100.91L-181.33,-100.26L-191.79,-98.39L-200.83,-95.30L-216.37,-87.25L-242.08,-72.26L-257.49,-61.55L-269.04,-49.24L-273.10,-40.61" />
      </g>
      <g id="f8" transform="translate(-70.20 -6.58)" style="--index:8; opacity:0;" class="frame">
        <path d="M-280.44,-34.03L-290.37,-18.60L-295.16,-8.97L-302.20,0.61L-306.46,9.20L-313.15,19.28L-316.72,29.44L-322.06,39.76L-331.09,67.71L-335.03,96.79L-334.66,117.76L-330.43,142.58L-326.99,154.76L-315.65,183.14L-302.68,211.69L-298.33,218.65L-278.75,241.32L-261.99,253.31L-246.28,261.14L-226.27,265.81L-186.87,268.85L-161.72,267.47L-149.15,267.79L-133.92,265.88L-96.40,254.66L-76.04,249.56L-65.84,245.40L-48.12,234.37L-34.90,227.87L-17.44,217.65L4.35,207.96L21.61,196.37L27.91,189.40L38.20,174.57L50.72,139.23L52.94,130.39L57.19,120.72L58.43,107.55L58.40,95.67L59.91,88.25L62.41,61.36L61.11,39.87L57.45,25.59L45.14,-5.81L36.71,-20.48L31.31,-32.79L24.11,-42.80L18.67,-47.87L5.92,-56.20L-4.70,-61.16L-29.10,-76.85L-34.24,-79.36L-52.75,-85.43L-67.75,-89.58L-81.67,-94.62L-99.66,-98.20L-116.79,-100.71L-140.82,-102.11L-149.80,-103.42L-162.72,-103.73L-179.16,-101.96L-192.84,-98.78L-206.72,-93.71L-227.37,-84.49L-245.48,-74.37L-258.65,-63.91L-268.24,-53.99L-275.64,-43.31L-280.69,-37.64L-283.21,-32.70" />
      </g>
      <g id="f9" transform="translate(-70.20 -6.58)" style="--index:9; opacity:0;" class="frame">
        <path d="M-278.59,-48.43L-281.77,-46.52L-283.50,-44.16L-298.60,-13.94L-305.00,-4.19L-315.32,15.33L-319.37,26.07L-323.71,34.74L-330.82,67.28L-332.42,80.03L-336.91,101.21L-337.16,108.36L-334.82,128.71L-331.51,143.63L-323.83,168.88L-320.09,177.74L-307.13,201.86L-298.24,213.12L-292.07,223.33L-282.77,234.13L-263.11,253.88L-244.58,263.30L-238.31,265.63L-217.55,269.29L-206.12,273.33L-182.34,274.86L-177.50,274.95L-162.41,273.12L-148.92,269.74L-131.63,267.67L-101.28,260.93L-93.11,258.24L-71.15,247.95L-58.62,240.09L-41.16,231.24L-31.74,225.34L-18.61,220.06L-9.46,215.31L8.17,203.62L21.15,187.95L27.33,182.06L33.61,171.76L40.73,162.64L50.92,143.21L55.71,123.41L57.26,112.90L59.16,78.45L55.62,51.91L53.08,41.88L48.26,11.18L45.27,-2.99L37.36,-20.42L31.54,-29.91L28.86,-32.96L17.12,-42.66L0.69,-52.34L-11.14,-63.59L-31.64,-76.61L-45.51,-81.97L-50.83,-85.60L-64.54,-91.78L-78.49,-95.88L-91.40,-96.84L-118.55,-101.72L-145.29,-102.79L-158.65,-102.74L-175.43,-100.43L-207.40,-91.30L-216.78,-87.83L-225.23,-84.26L-235.09,-78.89L-245.71,-75.29L-262.91,-65.88L-271.51,-59.04L-278.59,-48.43" />
        <path d="M-277.54,-49.06L-281.44,-45.19L-285.73,-36.35" />
      </g>
      <g id="f10" transform="translate(-70.20 -6.58)" style="--index:10; opacity:0;" class="frame">
        <path d="M-284.42,-50.07L-293.75,-33.99L-298.09,-23.26L-304.53,-11.79L-314.76,10.40L-325.28,35.93L-332.42,67.54L-334.50,97.97L-334.28,108.32L-335.64,134.89L-331.63,164.45L-328.44,176.40L-306.89,229.70L-297.41,245.45L-290.47,252.36L-275.82,261.61L-269.77,263.51L-257.06,265.55L-234.52,265.47L-222.83,266.34L-178.98,266.03L-157.22,261.56L-143.65,260.71L-130.19,257.93L-117.21,257.29L-108.02,255.05L-92.62,253.43L-73.02,247.22L-59.91,241.04L-46.48,236.50L-23.48,225.38L-10.91,217.45L14.38,195.50L29.35,177.79L41.24,161.90L51.24,143.31L54.98,131.67L59.17,122.66L61.51,109.07L64.95,96.04L65.84,86.85L65.70,74.71L63.23,47.07L57.33,29.95L54.03,23.09L47.80,15.09L40.44,7.58L37.34,-0.61L22.82,-21.25L8.33,-45.20L0.49,-55.77L-10.51,-67.55L-30.89,-77.96L-72.95,-92.12L-80.07,-96.56L-89.81,-100.89L-105.52,-104.78L-123.59,-106.61L-132.90,-108.76L-165.41,-109.00L-201.84,-101.20L-231.62,-87.69L-256.74,-74.33L-273.50,-60.68L-284.42,-50.07" />
        <path d="M-280.14,-53.33L-284.66,-49.76L-291.09,-40.80L-292.25,-36.83" />
      </g>
      <g id="f11" transform="translate(-70.20 -6.58)" style="--index:11; opacity:0;" class="frame">
        <path d="M-308.30,171.25L-308.30,171.25" />
        <path d="M-308.30,171.25L-308.30,171.25" />
        <path d="M-311.75,164.55L-308.30,171.25L-310.85,169.73L-311.75,164.55" />
        <path d="M-323.77,100.95L-321.60,123.35L-316.49,148.06L-311.75,164.55L-314.04,149.72L-319.45,125.38L-323.77,100.95" />
        <path d="M-326.90,78.20L-325.71,105.12L-325.67,132.96L-321.53,150.49L-315.76,169.76L-299.44,196.66L-294.36,210.93L-280.80,237.45L-262.60,258.55L-254.50,262.32L-239.63,271.61L-225.41,278.04L-221.47,279.07L-200.35,280.57L-188.12,283.30L-175.87,284.59L-167.89,283.78L-150.76,279.60L-132.20,277.52L-110.84,270.25L-76.47,266.57L-69.48,264.87L-55.80,258.98L-38.53,249.65L-33.21,247.77L-19.93,239.98L-9.24,235.93L5.19,227.86L13.70,220.16L23.47,213.62L32.18,206.31L35.62,202.57L45.18,188.63L46.84,184.27L48.55,175.03L52.20,164.26L60.34,112.01L66.19,93.72L67.24,85.86L67.37,71.62L66.53,56.05L59.95,30.32L49.87,2.62L43.24,-11.79L28.88,-33.86L12.37,-48.28L7.43,-58.30L4.88,-61.84L-6.32,-70.76L-13.44,-78.44L-17.37,-81.00L-31.52,-85.10L-58.49,-89.88L-80.00,-95.99L-93.06,-98.18L-99.81,-100.12L-124.92,-102.50L-155.81,-101.25L-178.59,-97.95L-197.45,-92.73L-217.10,-84.34L-256.47,-60.41L-281.63,-38.85L-294.46,-23.81L-303.55,-7.21L-308.19,6.46L-313.13,17.85L-315.01,31.65L-320.02,53.23L-321.64,71.18L-324.05,83.72L-323.77,100.95L-325.64,89.48L-326.36,79.76L-326.16,77.54L-325.54,76.77L-325.75,78.61" />
        <path d="M-294.18,-7.24L-299.33,-2.77L-302.75,1.75L-306.06,9.93L-311.69,18.91L-318.46,37.60L-322.00,48.73L-324.84,65.18L-328.96,81.29L-329.92,88.06L-329.95,96.02L-324.86,116.12L-315.26,141.03L-302.41,161.31L-293.72,171.19L-290.33,177.54L-284.00,194.24L-277.76,207.78L-275.12,212.53L-271.55,216.57L-257.85,227.32L-247.45,236.86L-236.87,243.60L-228.14,254.46L-221.00,259.13L-216.09,263.43L-203.35,267.92L-190.46,274.30L-183.00,275.98L-174.00,282.00L-168.85,282.33L-160.80,285.53L-148.76,288.31L-145.05,288.03L-120.78,281.36L-109.45,277.32L-102.06,272.75L-96.42,268.12L-88.29,264.61L-63.83,249.68L-55.50,240.36L-49.47,235.30" />
      </g>
    </g>
    <g id="t1" transform="translate(341.17 -297.24) scale(1.05 1.05) rotate(-346.06)" class="thread">
      <g id="f0" transform="translate(-181.53 505.84)" style="--index:0; opacity:1;" class="frame">
        <path d="M-245.36,86.76L-253.47,76.59L-262.30,68.00L-266.47,65.04L-278.57,64.55L-278.76,68.61L-276.46,73.92L-270.02,79.73L-257.96,80.40L-254.64,81.65L-246.65,87.47L-245.07,87.18" />
        <path d="M-30.89,-190.98L-31.64,-184.79L-29.28,-171.20L-25.86,-155.23L-22.67,-148.23L-15.65,-139.16L-8.48,-136.56L-5.38,-138.04L-4.19,-146.50L-6.63,-154.38L-15.05,-168.42L-24.38,-175.20L-29.74,-181.41" />
      </g>
      <g id="f1" transform="translate(-181.53 505.84)" style="--index:1; opacity:0;" class="frame">
        <path d="M-192.73,92.26L-205.83,73.59L-212.33,67.54L-217.49,64.15L-222.55,62.97L-230.23,63.53L-237.47,62.66L-240.15,63.29L-243.11,65.47L-243.26,67.60L-240.56,72.58L-227.51,85.10L-222.82,86.95L-192.73,92.26" />
        <path d="M-192.19,93.14L-192.73,92.26L-188.44,93.97" />
        <path d="M-217.62,72.01L-222.11,67.44L-232.34,67.57L-239.19,66.79L-243.57,67.69L-246.15,69.05L-249.34,72.34L-251.25,76.06L-250.47,80.08L-247.01,84.74L-242.80,86.48L-231.69,87.97L-210.17,88.54L-201.32,91.36L-191.32,92.34L-189.38,93.37" />
        <path d="M-102.53,-210.09L-100.59,-205.60L-96.84,-203.92L-83.48,-202.48L-73.67,-199.06L-62.55,-196.65L-50.93,-195.56L-33.45,-188.15L-27.07,-184.16L-21.14,-178.67L-17.65,-171.81L-17.44,-166.52L-15.12,-161.86L-9.83,-158.81L-6.85,-158.24L-3.60,-159.72L-3.00,-161.50L-3.14,-166.76L-5.77,-173.05L-31.33,-202.41L-34.11,-204.57L-38.77,-206.36L-55.05,-207.98L-62.93,-209.53L-67.10,-209.78L-66.98,-209.00" />
        <path d="M-19.42,-188.89L-19.42,-188.89" />
        <path d="M-19.40,-188.81L-19.40,-188.81" />
        <path d="M-101.26,-204.13L-87.84,-186.17L-78.27,-181.79L-71.98,-176.41L-58.52,-171.61L-54.12,-168.19L-46.84,-169.27L-39.11,-174.69L-37.69,-176.81L-27.65,-180.46L-23.83,-184.07L-21.42,-190.08L-20.40,-190.03L-19.40,-188.81L-18.52,-183.52L-13.96,-169.81L-6.09,-155.14L-2.26,-153.29L4.25,-154.19L5.60,-154.93L7.66,-160.49" />
      </g>
      <g id="f2" transform="translate(-181.53 505.84)" style="--index:2; opacity:0;" class="frame">
        <path d="M-152.02,84.56L-166.28,75.62L-192.31,70.55L-200.74,72.41L-207.85,75.39L-211.68,81.98L-210.64,86.78L-208.94,90.19L-198.42,92.91L-185.26,91.96L-174.49,93.34L-165.96,91.92L-160.56,91.94L-155.11,90.64L-149.36,90.62" />
        <path d="M-127.83,-215.38L-120.95,-208.72L-112.06,-205.57L-104.02,-204.53L-87.11,-205.36L-81.19,-207.02L-74.17,-210.45L-69.13,-217.01L-68.67,-218.94L-70.80,-222.35L-72.35,-222.93L-77.59,-222.45" />
      </g>
      <g id="f3" transform="translate(-181.53 505.84)" style="--index:3; opacity:0;" class="frame">
        <path d="M-126.44,82.75L-136.61,81.43L-139.83,82.26L-140.94,83.72L-141.04,89.09L-139.22,96.14L-136.72,99.87L-133.43,101.49L-123.78,102.08L-107.37,98.24L-101.65,97.73L-91.00,94.05L-91.39,91.27L-94.28,86.60L-97.62,84.16L-111.09,81.63L-120.83,78.03L-128.23,77.90L-129.47,76.66" />
        <path d="M-160.23,-214.58L-149.69,-208.26L-140.12,-204.58L-134.58,-204.00L-117.52,-204.69L-103.45,-209.08L-94.06,-213.75L-87.88,-217.46L-82.97,-222.82L-82.48,-224.42L-84.09,-228.52L-91.07,-231.56L-97.50,-232.19L-96.89,-230.86" />
      </g>
      <g id="f4" transform="translate(-181.53 505.84)" style="--index:4; opacity:0;" class="frame">
        <path d="M-242.04,-207.91L-247.23,-208.80L-250.79,-202.69L-250.79,-200.71L-248.44,-195.70L-245.91,-195.18L-235.54,-196.45L-214.46,-202.05L-204.72,-202.85L-191.65,-206.25L-187.97,-205.45L-180.67,-206.02L-173.29,-204.88L-168.42,-205.38L-153.70,-210.03L-143.56,-211.09L-135.52,-215.45L-133.19,-218.89L-130.79,-225.76L-130.93,-230.59L-133.73,-234.52L-141.85,-235.31" />
        <path d="M-77.73,67.93L-83.62,67.81L-86.98,69.48L-93.40,74.67L-97.42,80.57L-98.05,86.43L-95.82,89.07L-87.97,88.44L-77.52,81.88L-74.34,77.88" />
      </g>
      <g id="f5" transform="translate(-181.53 505.84)" style="--index:5; opacity:0;" class="frame">
        <path d="M-275.53,-188.52L-270.91,-186.35L-267.24,-186.82L-257.04,-191.28L-254.25,-193.52L-247.12,-205.45L-242.97,-220.64L-244.18,-225.08L-248.33,-229.69L-252.79,-232.08L-255.37,-232.28L-260.83,-231.83L-272.83,-226.99L-277.25,-222.16L-278.12,-220.24L-277.36,-219.41" />
        <path d="M-67.14,56.69L-72.32,58.99L-73.69,60.52L-74.32,63.53L-73.99,69.75L-70.09,70.02L-66.90,69.28L-62.01,66.71L-60.51,63.33" />
      </g>
      <g id="f6" transform="translate(-181.53 505.84)" style="--index:6; opacity:0;" class="frame">
        <path d="M-305.74,-158.65L-300.89,-155.46L-299.24,-155.28L-279.96,-158.35L-265.18,-163.73L-263.30,-167.93L-263.28,-174.75L-266.64,-184.64L-272.44,-190.71L-277.40,-193.84L-279.34,-194.43L-287.37,-193.62L-293.01,-191.81L-298.62,-188.95L-301.75,-184.69" />
        <path d="M-33.54,-16.12L-31.75,-20.91L-32.19,-22.82L-35.47,-16.43L-45.67,-2.55L-55.52,7.88L-59.03,14.97L-65.32,24.13L-73.37,42.05L-73.60,57.72L-71.78,63.33L-60.94,58.58L-50.95,48.99L-47.42,41.55L-44.70,27.21L-39.98,13.00L-37.94,-1.85L-35.23,-10.09" />
      </g>
      <g id="f7" transform="translate(-181.53 505.84)" style="--index:7; opacity:0;" class="frame">
        <path d="M-321.07,-147.67L-315.28,-154.54L-310.35,-157.91L-305.11,-160.09L-292.64,-160.56L-285.36,-159.35L-279.65,-156.16L-274.15,-150.95L-270.21,-143.91L-270.02,-142.08L-270.05,-138.30L-272.70,-133.65L-286.55,-127.53L-298.80,-123.62L-300.57,-122.74L-301.09,-121.35" />
        <path d="M-33.97,-47.49L-32.99,-42.65L-31.63,-40.21L-26.26,-35.42L-22.60,-34.34L-7.64,-38.67L0.05,-42.50L1.58,-46.25" />
        <path d="M-31.44,-44.84L-35.01,-40.86L-34.21,-38.71L-26.48,-26.45L-24.41,-24.15L-21.05,-22.41L-13.93,-23.05L0.89,-29.50L5.25,-34.16L6.35,-38.67" />
      </g>
      <g id="f8" transform="translate(-181.53 505.84)" style="--index:8; opacity:0;" class="frame">
        <path d="M-304.10,-72.08L-298.44,-69.44L-289.05,-72.97L-284.96,-76.72L-279.31,-85.78L-277.79,-93.98L-278.78,-101.23L-281.48,-107.77L-286.50,-112.30L-291.60,-114.57L-306.60,-117.47L-315.14,-116.77L-321.57,-114.14L-326.43,-109.08L-328.59,-105.31L-328.89,-99.63L-327.89,-89.76" />
        <path d="M-20.64,-73.90L-13.40,-67.61L-7.68,-65.27L-6.09,-65.06L-3.99,-65.97L-6.42,-70.86L-14.00,-77.53L-16.84,-78.09L-19.00,-77.17L-20.64,-73.90" />
        <path d="M-21.05,-74.30L-21.27,-68.15L-19.36,-64.48L-15.99,-62.26L-7.45,-63.68L-4.05,-63.11L-1.80,-64.43L-0.75,-66.44L-1.94,-71.54L-5.28,-73.70L-12.72,-76.24L-13.33,-72.18" />
      </g>
      <g id="f9" transform="translate(-181.53 505.84)" style="--index:9; opacity:0;" class="frame">
        <path d="M-293.68,-64.50L-293.17,-67.24L-294.49,-71.19L-296.36,-74.94L-299.45,-77.59L-303.11,-78.54L-310.62,-78.78L-314.97,-76.82L-316.88,-74.38L-317.74,-67.99L-316.00,-63.18L-308.46,-59.20L-304.25,-59.02L-293.68,-64.50" />
        <path d="M-294.06,-62.47L-293.68,-64.50L-291.51,-66.07L-290.91,-68.71L-292.73,-73.49L-295.06,-76.87L-293.48,-78.30L-293.94,-79.49L-299.35,-82.25L-305.89,-82.98L-317.69,-79.30L-321.68,-77.31L-323.14,-74.81L-319.82,-65.03L-308.63,-61.38L-305.51,-62.09" />
        <path d="M-10.95,-103.57L-5.81,-97.99L-2.23,-96.38L-0.44,-96.63L0.67,-97.53L1.22,-101.14L0.06,-108.87L-3.08,-113.49L-15.15,-120.18L-17.79,-120.64L-18.34,-120.01L-17.63,-111.77L-16.57,-106.77L-14.81,-103.66L-10.95,-103.57" />
        <path d="M-14.68,-111.26L-13.38,-106.37L-10.54,-103.52" />
      </g>
      <g id="f10" transform="translate(-181.53 505.84)" style="--index:10; opacity:0;" class="frame">
        <path d="M-309.26,-43.12L-306.87,-46.85L-308.97,-52.21L-312.65,-53.63L-318.90,-52.93L-318.16,-48.69L-316.53,-45.31L-314.12,-44.03L-309.26,-43.12" />
        <path d="M-311.44,-40.67L-309.26,-43.12L-307.10,-43.05" />
        <path d="M0.72,-124.54L-1.59,-119.76L0.14,-116.72L5.44,-116.30L7.13,-117.07L7.27,-118.78L5.87,-122.47L1.51,-126.35L0.15,-129.36" />
      </g>
      <g id="f11" transform="translate(-181.53 505.84)" style="--index:11; opacity:0;" class="frame">
        <path d="M-269.40,81.13L-264.96,77.92L-263.28,73.89L-262.86,70.56L-262.59,60.27L-264.49,38.94L-265.85,31.66L-280.90,-7.55L-291.08,-22.85L-296.01,-32.32L-296.89,-30.67L-298.42,-30.77L-301.07,-39.38L-303.85,-44.10L-304.85,-35.66L-302.31,-20.45L-295.24,2.43L-282.73,32.55L-280.62,39.50L-278.59,50.99L-277.02,55.11" />
        <path d="M-1.89,-146.72L-3.59,-140.70L-1.74,-136.02L0.93,-134.93L6.10,-134.95L-0.55,-148.60" />
      </g>
    </g>
    <g id="t2" transform="translate(321.74 -198.50) scale(0.97 0.97) rotate(-132.88)" class="thread">
      <g id="f0" transform="translate(224.14 -449.65)" style="--index:0; opacity:1;" class="frame">
        <path d="M-240.35,-187.69L-245.57,-190.43L-250.86,-190.56L-266.30,-186.38L-269.80,-181.90L-270.39,-173.42L-268.83,-168.56L-265.78,-167.16L-249.98,-164.24L-244.56,-164.10L-238.16,-166.83L-235.37,-169.99L-233.24,-175.32L-233.63,-178.31L-238.53,-185.22L-245.65,-188.38" />
        <path d="M-63.89,-0.25L-58.52,-2.93L-53.29,-8.45L-48.90,-14.57L-45.25,-22.74L-42.52,-33.19L-42.23,-37.98L-43.20,-48.51L-41.04,-61.40L-41.12,-67.53L-42.79,-67.44L-47.04,-60.34L-54.09,-43.64L-60.11,-34.26L-63.70,-25.18L-65.54,-15.43L-66.14,-3.23L-65.17,-0.56L-60.85,0.61" />
      </g>
      <g id="f1" transform="translate(224.14 -449.65)" style="--index:1; opacity:0;" class="frame">
        <path d="M-256.50,-157.24L-261.45,-160.03L-264.47,-160.05L-271.91,-158.08L-276.34,-155.05L-278.35,-150.33L-278.61,-145.88L-276.60,-141.80L-271.12,-135.95L-265.85,-133.96L-258.58,-132.79L-253.35,-132.80L-247.07,-134.11L-241.49,-137.80L-239.42,-140.54L-237.84,-144.95L-238.17,-148.69L-242.61,-153.49L-248.83,-156.72L-256.18,-158.66" />
        <path d="M-35.07,-102.53L-40.34,-101.15L-42.72,-99.75L-48.68,-91.06L-49.49,-85.69L-44.79,-78.12L-41.31,-75.85L-37.29,-74.51L-26.56,-73.56L-21.57,-75.99L-19.20,-80.77L-17.77,-90.56L-19.91,-96.69L-21.93,-98.91L-24.71,-100.43L-34.86,-102.52L-36.30,-103.53" />
      </g>
      <g id="f2" transform="translate(224.14 -449.65)" style="--index:2; opacity:0;" class="frame">
        <path d="M-260.45,-122.97L-263.82,-125.36L-270.67,-125.88L-277.09,-124.58L-279.62,-122.79L-282.33,-118.80L-283.80,-114.23L-284.33,-108.09L-283.25,-102.44L-281.01,-98.55L-278.67,-96.79L-263.75,-91.24L-257.14,-90.54L-249.60,-91.96L-245.25,-94.10L-241.80,-98.64L-240.17,-105.54L-241.00,-110.75L-242.75,-114.11L-245.62,-116.88L-260.45,-122.97" />
        <path d="M-258.94,-121.89L-261.90,-123.49" />
        <path d="M-15.24,-120.12L-18.76,-124.25L-26.12,-125.23L-32.11,-124.10L-35.02,-121.16L-36.00,-114.63L-34.33,-111.41L-30.88,-108.74L-23.11,-105.33L-16.04,-105.00L-14.01,-107.25L-12.85,-110.73L-12.53,-114.89L-13.26,-117.09L-16.04,-119.50L-19.98,-120.90L-19.59,-121.63" />
      </g>
      <g id="f3" transform="translate(224.14 -449.65)" style="--index:3; opacity:0;" class="frame">
        <path d="M-260.19,-91.05L-265.35,-93.79L-270.55,-94.04L-275.82,-92.72L-279.77,-89.59L-281.20,-83.45L-279.36,-78.83L-275.94,-75.82L-268.75,-73.55L-258.94,-72.53L-253.38,-73.20L-250.49,-75.18L-248.85,-79.25L-249.39,-83.00L-254.00,-87.55L-261.65,-91.71L-266.08,-92.39L-269.35,-91.75" />
        <path d="M-20.31,-149.73L-28.40,-146.57L-29.74,-143.44L-29.88,-141.66L-28.96,-140.02L-25.62,-137.00L-20.84,-134.85L-11.84,-133.82L-9.40,-134.38L-5.75,-137.96L-4.85,-144.36L-7.65,-147.32L-11.26,-149.51L-18.95,-150.45" />
      </g>
      <g id="f4" transform="translate(224.14 -449.65)" style="--index:4; opacity:0;" class="frame">
        <path d="M-263.10,-79.23L-267.64,-80.89L-270.77,-80.51L-271.77,-76.40L-270.09,-73.18L-268.52,-72.09L-264.69,-71.80L-259.67,-73.54L-259.10,-76.52L-263.10,-79.23" />
        <path d="M-261.63,-78.65L-265.29,-80.24L-265.61,-79.51" />
        <path d="M-12.50,-146.35L-16.96,-145.07L-17.63,-141.75L-16.36,-140.22L-12.70,-139.59L-11.69,-140.27L-10.95,-143.71L-12.50,-146.35" />
        <path d="M-11.83,-146.54L-12.50,-146.35L-14.25,-148.02" />
        <path d="M-19.81,-150.22L-23.80,-155.60L-34.36,-165.93L-47.48,-177.08L-62.28,-185.91L-73.57,-189.38L-68.55,-182.99L-49.65,-167.57L-26.74,-152.41L-19.81,-150.22" />
        <path d="M-18.44,-146.39L-19.81,-150.22L-15.86,-148.56" />
      </g>
      <g id="f5" transform="translate(224.14 -449.65)" style="--index:5; opacity:0;" class="frame">
        <path d="M-266.76,-64.46L-267.99,-56.59L-268.41,-45.00L-266.57,-20.31L-265.15,-15.60L-254.73,2.65L-250.75,8.32L-248.10,10.52L-245.04,15.50L-239.37,18.55L-232.10,19.65L-229.91,18.10L-228.86,15.91L-230.22,6.74L-233.35,-1.75L-237.73,-10.00L-241.26,-23.19L-243.54,-35.74L-247.97,-48.73L-256.79,-61.02L-266.48,-68.22L-265.97,-68.67" />
        <path d="M-34.03,-162.12L-34.03,-162.12" />
        <path d="M-63.59,-184.55L-73.24,-189.31L-83.10,-191.30L-90.69,-191.53L-99.95,-190.50L-107.74,-191.23L-119.09,-190.05L-135.53,-186.58L-152.59,-179.17L-160.67,-177.94L-175.13,-171.68L-184.26,-165.59L-186.21,-163.11L-182.94,-161.45L-176.95,-160.85L-159.61,-162.48L-140.24,-165.55L-120.49,-165.33L-109.10,-168.47L-101.00,-169.12L-87.70,-173.83L-72.94,-173.61L-65.32,-177.05L-61.22,-176.50L-42.45,-164.77L-38.70,-163.42L-37.24,-163.89L-34.18,-162.21" />
      </g>
      <g id="f6" transform="translate(224.14 -449.65)" style="--index:6; opacity:0;" class="frame">
        <path d="M-233.14,19.92L-229.73,23.82L-223.47,27.33L-213.30,29.14L-209.98,28.09L-207.90,24.40L-207.70,21.73L-208.95,18.27L-213.46,14.27L-220.37,11.06L-225.63,10.53L-229.26,12.31L-231.87,14.99L-232.46,19.90L-230.95,21.73L-223.75,25.59L-218.77,26.25L-215.79,24.89" />
        <path d="M-224.74,16.11L-227.79,17.06L-229.12,19.90L-228.49,21.93L-226.40,24.39L-221.53,26.39L-216.62,25.28L-213.81,25.58L-211.79,24.68" />
        <path d="M-225.41,15.30L-230.56,16.59L-233.61,19.32L-233.60,22.11L-230.72,24.80L-222.14,27.27L-210.22,26.51" />
        <path d="M-186.74,-166.86L-191.91,-164.86L-200.09,-163.12L-207.09,-159.39L-220.13,-154.36L-226.16,-150.06L-240.49,-144.65L-245.38,-141.11L-247.76,-138.45L-245.63,-136.65L-243.63,-136.35L-232.95,-138.72L-214.40,-141.15L-209.38,-143.73L-197.24,-154.42L-189.31,-158.59L-183.47,-166.07L-177.21,-167.61L-171.75,-170.00" />
      </g>
      <g id="f7" transform="translate(224.14 -449.65)" style="--index:7; opacity:0;" class="frame">
        <path d="M-188.67,16.66L-198.71,15.61L-202.45,18.62L-203.45,21.91L-203.46,26.46L-201.82,29.19L-198.75,31.42L-189.31,35.66L-180.86,36.65L-172.63,35.89L-165.89,33.46L-163.51,31.02L-161.49,27.06L-161.55,25.20L-163.36,23.54L-167.91,21.00L-171.14,20.13L-184.20,18.30L-184.27,19.26" />
      </g>
      <g id="f8" transform="translate(224.14 -449.65)" style="--index:8; opacity:0;" class="frame">
        <path d="M-147.22,18.60L-154.62,18.24L-157.77,19.72L-159.27,21.32L-162.70,28.55L-163.34,33.17L-162.49,35.72L-159.19,38.31L-155.69,39.26L-139.98,40.73L-126.68,36.74L-122.36,34.24L-121.12,32.28L-120.54,28.54L-121.86,25.90L-125.40,22.80L-140.16,17.08L-147.06,16.61L-149.15,17.63L-147.79,17.93" />
        <path d="M-243.29,-141.38L-248.17,-135.21L-249.34,-130.35L-248.75,-125.22L-247.03,-121.47L-245.57,-119.73L-244.32,-119.73L-238.36,-128.57L-239.13,-138.93L-240.90,-143.64" />
      </g>
      <g id="f9" transform="translate(224.14 -449.65)" style="--index:9; opacity:0;" class="frame">
        <path d="M-94.00,16.62L-100.71,14.67L-108.71,14.87L-112.63,16.63L-116.78,22.37L-116.77,26.64L-114.80,29.88L-112.65,31.49L-107.90,33.09L-97.04,34.12L-89.26,31.15L-88.05,28.90L-87.45,23.80L-88.35,20.21L-89.73,18.47L-91.79,17.41L-97.08,16.60" />
        <path d="M-245.19,-131.90L-246.42,-126.95L-249.46,-119.89L-254.34,-99.84L-256.29,-84.98L-255.55,-73.00L-257.00,-61.34L-257.58,-46.28L-256.69,-39.10L-251.11,-19.68L-245.29,-8.52L-241.94,0.74L-239.62,2.60L-238.97,1.49L-237.16,-42.00L-238.96,-53.14L-238.93,-65.47L-241.49,-78.07L-243.43,-107.69L-247.47,-123.90" />
      </g>
      <g id="f10" transform="translate(224.14 -449.65)" style="--index:10; opacity:0;" class="frame">
        <path d="M-73.90,4.69L-80.14,3.66L-83.80,3.86L-87.14,8.83L-87.53,12.24L-84.48,17.35L-71.11,19.75L-67.52,15.77L-65.96,10.73L-71.22,7.50L-76.78,6.54L-75.43,5.95" />
        <path d="M-178.99,44.38L-178.99,44.38" />
        <path d="M-178.94,44.41L-178.94,44.41" />
        <path d="M-178.88,44.40L-178.88,44.40" />
        <path d="M-178.88,44.40L-178.88,44.40" />
        <path d="M-178.75,44.41L-178.75,44.41" />
        <path d="M-178.70,44.43L-178.70,44.43" />
        <path d="M-244.64,-10.88L-232.34,11.19L-220.12,23.56L-207.10,32.02L-198.86,35.81L-186.44,43.07L-178.53,45.10L-176.44,45.15L-178.70,44.43" />
      </g>
      <g id="f11" transform="translate(224.14 -449.65)" style="--index:11; opacity:0;" class="frame">
        <path d="M-230.33,-220.48L-235.09,-223.04L-240.07,-222.67L-244.68,-220.81L-248.28,-216.83L-251.29,-209.85L-252.83,-198.89L-251.57,-194.54L-249.36,-192.10L-242.69,-189.31L-235.04,-188.60L-229.19,-191.31L-221.01,-199.61L-218.85,-204.34L-218.40,-209.18L-220.11,-212.13L-228.97,-219.41" />
        <path d="M-67.48,-1.83L-73.40,-1.81L-74.21,-1.10L-75.38,5.27L-73.34,6.52L-68.92,7.20L-65.09,5.50L-63.50,3.77L-63.20,1.59L-67.56,-0.74L-67.51,-1.42" />
        <path d="M-177.68,45.34L-168.02,46.18L-149.18,46.24L-141.09,44.45L-131.94,40.35L-123.21,39.27L-104.85,29.02L-98.99,24.78L-97.15,22.82L-97.16,21.88L-114.94,23.82L-125.83,23.82L-135.75,25.22L-162.91,25.63L-176.20,27.90L-186.40,28.62L-199.02,31.55L-209.62,29.43L-218.79,25.64L-224.44,22.44L-226.61,18.60L-227.82,17.90" />
      </g>
    </g>
    <g id="t3" transform="translate(-25.15 -18.96) scale(1.36 1.36) rotate(-345.17)" class="thread">
      <g id="f0" transform="translate(94.47 174.52)" style="--index:0; opacity:1;" class="frame">
        <path d="M-233.14,19.92L-229.73,23.82L-223.47,27.33L-213.30,29.14L-209.98,28.09L-207.90,24.40L-207.70,21.73L-208.95,18.27L-213.46,14.27L-220.37,11.06L-225.63,10.53L-229.26,12.31L-231.87,14.99L-232.46,19.90L-230.95,21.73L-223.75,25.59L-218.77,26.25L-215.79,24.89" />
        <path d="M-224.74,16.11L-227.79,17.06L-229.12,19.90L-228.49,21.93L-226.40,24.39L-221.53,26.39L-216.62,25.28L-213.81,25.58L-211.79,24.68" />
        <path d="M-225.41,15.30L-230.56,16.59L-233.61,19.32L-233.60,22.11L-230.72,24.80L-222.14,27.27L-210.22,26.51" />
        <path d="M-21.23,-162.16L-28.08,-166.93L-44.31,-187.20L-48.40,-194.07L-48.28,-196.66L-47.12,-198.49L-44.51,-198.75L-35.93,-196.11L-29.56,-192.63L-25.91,-189.20L-20.06,-179.79L-16.40,-171.67L-16.08,-166.79L-17.44,-163.34L-18.73,-163.53" />
        <path d="M-214.84,17.63L-226.11,5.69L-234.54,0.86L-241.22,-0.06L-238.46,5.60L-221.49,20.52" />
        <path d="M-229.74,22.35L-233.46,20.73L-241.06,5.06L-242.00,0.46L-231.28,11.13L-223.85,16.59L-217.37,19.49" />
        <path d="M-20.35,-159.67" />
        <path d="M-35.00,-179.00" />
      </g>
      <g id="f1" transform="translate(94.47 174.52)" style="--index:1; opacity:0;" class="frame">
        <path d="M-188.67,16.66L-198.71,15.61L-202.45,18.62L-203.45,21.91L-203.46,26.46L-201.82,29.19L-198.75,31.42L-189.31,35.66L-180.86,36.65L-172.63,35.89L-165.89,33.46L-163.51,31.02L-161.49,27.06L-161.55,25.20L-163.36,23.54L-167.91,21.00L-171.14,20.13L-184.20,18.30L-184.27,19.26" />
        <path d="M-51.83,-198.81L-55.52,-198.91L-65.61,-202.26L-90.31,-205.61L-94.91,-207.14L-105.02,-212.91L-106.47,-215.94L-105.90,-218.81L-104.89,-219.69L-100.28,-218.79L-73.56,-218.86L-55.64,-214.10L-49.34,-209.86L-36.40,-202.93L-28.48,-195.21L-24.86,-189.28L-20.43,-179.18L-21.36,-175.41L-23.54,-172.14L-25.02,-171.37L-30.12,-173.23L-33.95,-176.18L-48.60,-192.53L-50.81,-196.24L-54.20,-198.74" />
        <path d="M-198.01,20.09L-212.26,13.64L-218.41,12.11L-217.92,13.52L-200.45,24.35L-192.70,30.24L-190.16,33.31" />
        <path d="M-197.54,29.33L-204.42,25.90L-209.25,21.81L-213.25,16.97L-214.78,13.89L-214.81,12.13L-204.60,15.15L-197.88,19.04L-191.46,20.64L-186.05,20.71L-178.56,23.32" />
      </g>
      <g id="f2" transform="translate(94.47 174.52)" style="--index:2; opacity:0;" class="frame">
        <path d="M-147.22,18.60L-154.62,18.24L-157.77,19.72L-159.27,21.32L-162.70,28.55L-163.34,33.17L-162.49,35.72L-159.19,38.31L-155.69,39.26L-139.98,40.73L-126.68,36.74L-122.36,34.24L-121.12,32.28L-120.54,28.54L-121.86,25.90L-125.40,22.80L-140.16,17.08L-147.06,16.61L-149.15,17.63L-147.79,17.93" />
        <path d="M-115.72,-212.74L-128.73,-217.47L-133.54,-222.45L-130.31,-224.28L-121.80,-226.01L-111.14,-226.83L-102.00,-226.09L-90.01,-222.87L-87.03,-220.79L-85.61,-217.60L-86.68,-215.30L-88.78,-213.31L-96.63,-209.70L-107.58,-207.78L-115.29,-209.59L-115.88,-210.32" />
        <path d="M-153.28,32.88L-160.10,33.64L-166.30,32.87L-180.25,24.75L-180.81,24.09L-180.21,23.78L-176.07,23.42L-165.29,19.22L-153.31,17.11L-143.18,17.96L-138.81,20.30L-129.41,22.30" />
      </g>
      <g id="f3" transform="translate(94.47 174.52)" style="--index:3; opacity:0;" class="frame">
        <path d="M-94.00,16.62L-100.71,14.67L-108.71,14.87L-112.63,16.63L-116.78,22.37L-116.77,26.64L-114.80,29.88L-112.65,31.49L-107.90,33.09L-97.04,34.12L-89.26,31.15L-88.05,28.90L-87.45,23.80L-88.35,20.21L-89.73,18.47L-91.79,17.41L-97.08,16.60" />
        <path d="M-114.05,-208.69L-123.49,-209.31L-132.02,-211.35L-143.12,-212.09L-152.46,-213.83L-158.27,-213.76L-161.64,-214.84L-163.54,-217.84L-155.89,-224.23L-143.77,-228.74L-125.71,-229.27L-113.43,-228.01L-106.41,-224.84L-102.75,-218.53L-102.60,-216.88L-104.77,-212.99L-114.05,-208.69" />
        <path d="M-113.29,-208.66L-119.49,-208.21" />
        <path d="M-103.74,30.26L-116.59,30.50L-122.18,26.85L-124.47,23.72L-112.01,18.88L-106.68,18.83L-99.77,16.86" />
      </g>
      <g id="f4" transform="translate(94.47 174.52)" style="--index:4; opacity:0;" class="frame">
        <path d="M-73.90,4.69L-80.14,3.66L-83.80,3.86L-87.14,8.83L-87.53,12.24L-84.48,17.35L-71.11,19.75L-67.52,15.77L-65.96,10.73L-71.22,7.50L-76.78,6.54L-75.43,5.95" />
        <path d="M-141.44,-210.14L-146.96,-210.44L-160.57,-209.14L-172.46,-206.60L-191.76,-206.10L-201.64,-203.74L-213.55,-202.50L-219.02,-202.82L-221.79,-204.05L-222.51,-206.29L-219.48,-209.80L-210.39,-215.98L-173.40,-234.42L-163.15,-237.87L-157.29,-238.02L-143.05,-236.19L-135.76,-232.05L-132.43,-228.89L-131.04,-224.40L-133.74,-220.63L-145.76,-212.18L-147.80,-211.66" />
        <path d="M-82.89,13.00L-87.30,14.84L-89.72,16.81L-93.37,22.07L-92.31,25.18L-85.90,24.08L-80.38,21.38L-70.42,19.22L-68.80,18.05L-68.13,15.49L-71.03,8.96L-73.89,6.63L-81.79,3.23L-83.47,3.72L-84.27,6.35L-89.80,14.08L-90.27,16.37L-91.79,18.16" />
      </g>
      <g id="f5" transform="translate(94.47 174.52)" style="--index:5; opacity:0;" class="frame">
        <path d="M-230.33,-220.48L-235.09,-223.04L-240.07,-222.67L-244.68,-220.81L-248.28,-216.83L-251.29,-209.85L-252.83,-198.89L-251.57,-194.54L-249.36,-192.10L-242.69,-189.31L-235.04,-188.60L-229.19,-191.31L-221.01,-199.61L-218.85,-204.34L-218.40,-209.18L-220.11,-212.13L-228.97,-219.41" />
        <path d="M-67.48,-1.83L-73.40,-1.81L-74.21,-1.10L-75.38,5.27L-73.34,6.52L-68.92,7.20L-65.09,5.50L-63.50,3.77L-63.20,1.59L-67.56,-0.74L-67.51,-1.42" />
        <path d="M-223.02,-198.99L-212.71,-205.27L-206.15,-211.88L-201.15,-220.83L-200.99,-222.14L-202.47,-224.14L-206.23,-225.51L-209.61,-225.20L-212.21,-224.13L-218.68,-218.96L-227.85,-216.04L-232.06,-218.07L-235.18,-217.89L-240.91,-215.15L-240.21,-214.46" />
        <path d="M-70.31,3.93L-75.53,6.75L-74.60,10.92L-66.50,9.67L-65.01,9.00L-63.88,1.78" />
      </g>
      <g id="f6" transform="translate(94.47 174.52)" style="--index:6; opacity:0;" class="frame">
        <path d="M-240.35,-187.69L-245.57,-190.43L-250.86,-190.56L-266.30,-186.38L-269.80,-181.90L-270.39,-173.42L-268.83,-168.56L-265.78,-167.16L-249.98,-164.24L-244.56,-164.10L-238.16,-166.83L-235.37,-169.99L-233.24,-175.32L-233.63,-178.31L-238.53,-185.22L-245.65,-188.38" />
        <path d="M-63.89,-0.25L-58.52,-2.93L-53.29,-8.45L-48.90,-14.57L-45.25,-22.74L-42.52,-33.19L-42.23,-37.98L-43.20,-48.51L-41.04,-61.40L-41.12,-67.53L-42.79,-67.44L-47.04,-60.34L-54.09,-43.64L-60.11,-34.26L-63.70,-25.18L-65.54,-15.43L-66.14,-3.23L-65.17,-0.56L-60.85,0.61" />
        <path d="M-241.09,-175.18L-237.86,-179.74L-236.35,-187.94L-238.02,-192.23L-242.75,-194.31L-252.04,-195.04L-255.21,-193.90L-265.01,-180.41" />
      </g>
      <g id="f7" transform="translate(94.47 174.52)" style="--index:7; opacity:0;" class="frame">
        <path d="M-256.50,-157.24L-261.45,-160.03L-264.47,-160.05L-271.91,-158.08L-276.34,-155.05L-278.35,-150.33L-278.61,-145.88L-276.60,-141.80L-271.12,-135.95L-265.85,-133.96L-258.58,-132.79L-253.35,-132.80L-247.07,-134.11L-241.49,-137.80L-239.42,-140.54L-237.84,-144.95L-238.17,-148.69L-242.61,-153.49L-248.83,-156.72L-256.18,-158.66" />
        <path d="M-35.07,-102.53L-40.34,-101.15L-42.72,-99.75L-48.68,-91.06L-49.49,-85.69L-44.79,-78.12L-41.31,-75.85L-37.29,-74.51L-26.56,-73.56L-21.57,-75.99L-19.20,-80.77L-17.77,-90.56L-19.91,-96.69L-21.93,-98.91L-24.71,-100.43L-34.86,-102.52L-36.30,-103.53" />
        <path d="M-240.51,-146.64L-241.44,-152.30L-243.26,-156.35L-246.28,-158.89L-250.62,-160.95L-254.60,-160.83L-269.21,-152.66" />
        <path d="M-269.89,-154.30L-261.88,-160.77L-258.69,-165.19L-256.90,-169.66L-253.24,-172.22L-248.08,-166.64L-243.93,-159.26L-242.41,-155.46L-241.76,-150.37L-240.07,-146.65" />
        <path d="M-41.11,-59.24L-41.11,-59.24" />
        <path d="M-47.31,-81.88L-41.79,-69.07L-41.11,-59.24L-39.49,-63.56L-32.98,-66.49L-30.58,-69.99L-28.06,-71.63L-27.46,-75.83L-24.93,-79.62L-25.01,-88.55L-23.63,-88.76" />
      </g>
      <g id="f8" transform="translate(94.47 174.52)" style="--index:8; opacity:0;" class="frame">
        <path d="M-260.45,-122.97L-263.82,-125.36L-270.67,-125.88L-277.09,-124.58L-279.62,-122.79L-282.33,-118.80L-283.80,-114.23L-284.33,-108.09L-283.25,-102.44L-281.01,-98.55L-278.67,-96.79L-263.75,-91.24L-257.14,-90.54L-249.60,-91.96L-245.25,-94.10L-241.80,-98.64L-240.17,-105.54L-241.00,-110.75L-242.75,-114.11L-245.62,-116.88L-260.45,-122.97" />
        <path d="M-258.94,-121.89L-261.90,-123.49" />
        <path d="M-15.24,-120.12L-18.76,-124.25L-26.12,-125.23L-32.11,-124.10L-35.02,-121.16L-36.00,-114.63L-34.33,-111.41L-30.88,-108.74L-23.11,-105.33L-16.04,-105.00L-14.01,-107.25L-12.85,-110.73L-12.53,-114.89L-13.26,-117.09L-16.04,-119.50L-19.98,-120.90L-19.59,-121.63" />
        <path d="M-271.76,-122.72L-272.14,-126.78L-271.56,-127.36L-261.66,-132.20L-258.01,-132.00L-248.58,-128.13L-245.16,-124.08L-241.73,-116.06L-244.39,-107.93L-244.25,-103.80" />
        <path d="M-274.41,-124.83L-277.43,-122.22L-278.85,-121.98L-271.29,-132.93L-263.79,-141.13L-256.80,-154.27L-255.30,-154.05L-250.38,-146.13L-243.22,-130.29L-241.47,-122.06L-242.79,-105.82L-240.52,-98.74" />
        <path d="M-33.98,-114.08L-26.71,-99.96L-22.55,-99.07L-21.23,-99.53L-18.81,-109.31L-15.77,-114.32" />
      </g>
      <g id="f9" transform="translate(94.47 174.52)" style="--index:9; opacity:0;" class="frame">
        <path d="M-260.19,-91.05L-265.35,-93.79L-270.55,-94.04L-275.82,-92.72L-279.77,-89.59L-281.20,-83.45L-279.36,-78.83L-275.94,-75.82L-268.75,-73.55L-258.94,-72.53L-253.38,-73.20L-250.49,-75.18L-248.85,-79.25L-249.39,-83.00L-254.00,-87.55L-261.65,-91.71L-266.08,-92.39L-269.35,-91.75" />
        <path d="M-20.31,-149.73L-28.40,-146.57L-29.74,-143.44L-29.88,-141.66L-28.96,-140.02L-25.62,-137.00L-20.84,-134.85L-11.84,-133.82L-9.40,-134.38L-5.75,-137.96L-4.85,-144.36L-7.65,-147.32L-11.26,-149.51L-18.95,-150.45" />
        <path d="M-272.20,-89.44L-274.37,-93.84L-273.85,-98.28L-267.14,-106.73L-263.02,-113.95L-261.42,-114.72L-257.74,-114.14L-257.10,-121.56L-256.19,-123.24L-250.26,-113.58L-248.74,-107.89L-248.92,-96.45L-253.53,-81.27L-254.68,-80.29L-254.40,-79.44" />
        <path d="M-24.49,-141.14L-22.90,-136.98L-16.45,-127.42L-14.38,-125.77L-12.02,-126.77L-11.14,-128.51L-9.81,-134.40L-9.71,-141.15L-8.44,-142.31" />
      </g>
      <g id="f10" transform="translate(94.47 174.52)" style="--index:10; opacity:0;" class="frame">
        <path d="M-263.10,-79.23L-267.64,-80.89L-270.77,-80.51L-271.77,-76.40L-270.09,-73.18L-268.52,-72.09L-264.69,-71.80L-259.67,-73.54L-259.10,-76.52L-263.10,-79.23" />
        <path d="M-261.63,-78.65L-265.29,-80.24L-265.61,-79.51" />
        <path d="M-12.50,-146.35L-16.96,-145.07L-17.63,-141.75L-16.36,-140.22L-12.70,-139.59L-11.69,-140.27L-10.95,-143.71L-12.50,-146.35" />
        <path d="M-11.83,-146.54L-12.50,-146.35L-14.25,-148.02" />
        <path d="M-268.46,-78.69L-267.23,-82.20L-261.96,-84.32L-259.29,-89.20L-257.29,-88.02L-255.90,-85.25L-255.69,-78.94L-260.09,-71.29L-262.85,-68.25L-264.73,-68.28L-267.56,-71.47L-269.68,-76.13L-268.30,-78.05" />
        <path d="M-270.41,-71.32L-274.23,-76.15L-274.12,-80.08L-272.58,-83.65L-261.44,-90.80L-256.99,-91.94L-253.90,-90.77L-253.90,-95.59L-252.35,-93.34L-252.24,-89.58L-253.92,-76.59L-257.40,-72.30L-264.03,-69.47L-268.50,-70.20L-272.14,-74.35L-270.33,-78.45" />
        <path d="M-13.17,-141.74L-10.54,-137.40L-9.10,-136.31L-12.46,-146.26" />
        <path d="M-17.79,-148.21L-19.17,-147.66L-20.24,-145.12L-20.48,-140.34L-19.78,-137.38L-19.10,-136.18L-17.67,-135.86L-12.26,-136.45L-11.24,-137.03L-10.65,-138.78L-10.32,-143.82L-15.16,-148.58L-17.79,-148.21" />
        <path d="M-14.75,-145.85L-17.79,-148.21L-18.59,-143.97" />
      </g>
      <g id="f11" transform="translate(94.47 174.52)" style="--index:11; opacity:0;" class="frame">
        <path d="M-266.76,-64.46L-267.99,-56.59L-268.41,-45.00L-266.57,-20.31L-265.15,-15.60L-254.73,2.65L-250.75,8.32L-248.10,10.52L-245.04,15.50L-239.37,18.55L-232.10,19.65L-229.91,18.10L-228.86,15.91L-230.22,6.74L-233.35,-1.75L-237.73,-10.00L-241.26,-23.19L-243.54,-35.74L-247.97,-48.73L-256.79,-61.02L-266.48,-68.22L-265.97,-68.67" />
        <path d="M-15.25,-152.53L-18.72,-155.86L-21.07,-161.66L-19.93,-163.03L-17.50,-163.75L-13.36,-161.47L-12.37,-158.69L-13.03,-154.73L-15.13,-153.26" />
        <path d="M-19.04,-155.64L-16.17,-149.04L-14.40,-147.74L-12.01,-148.60L-12.58,-156.43L-13.69,-158.91" />
        <path d="M-18.75,-161.61L-21.27,-156.43L-20.52,-150.06L-18.44,-147.54L-13.97,-145.64L-11.94,-146.30L-9.31,-150.22L-8.59,-155.02L-9.38,-159.04L-11.58,-163.16L-16.10,-165.36L-20.40,-164.57L-20.35,-159.67" />
      </g>
    </g>
    <g id="t4" transform="translate(283.96 179.83) scale(1.09 1.09) rotate(-131.79)" class="thread">
      <g id="f0" transform="translate(442.52 -135.55)" style="--index:0; opacity:1;" class="frame">
        <path d="M-240.35,-187.69L-245.57,-190.43L-250.86,-190.56L-266.30,-186.38L-269.80,-181.90L-270.39,-173.42L-268.83,-168.56L-265.78,-167.16L-249.98,-164.24L-244.56,-164.10L-238.16,-166.83L-235.37,-169.99L-233.24,-175.32L-233.63,-178.31L-238.53,-185.22L-245.65,-188.38" />
        <path d="M-63.89,-0.25L-58.52,-2.93L-53.29,-8.45L-48.90,-14.57L-45.25,-22.74L-42.52,-33.19L-42.23,-37.98L-43.20,-48.51L-41.04,-61.40L-41.12,-67.53L-42.79,-67.44L-47.04,-60.34L-54.09,-43.64L-60.11,-34.26L-63.70,-25.18L-65.54,-15.43L-66.14,-3.23L-65.17,-0.56L-60.85,0.61" />
        <path d="M-58.55,-5.00L-58.32,-13.06L-60.21,-16.73L-63.10,-17.71L-68.00,-11.73L-65.75,-12.36L-63.00,-11.11L-60.84,-9.05L-58.55,-5.00" />
        <path d="M-61.72,1.06L-58.55,-5.00L-58.82,-2.23L-60.09,0.02L-61.72,1.06" />
        <path d="M-62.82,1.26L-63.23,-0.27L-68.81,-5.37L-72.08,-5.44L-74.16,-4.49L-90.54,13.34L-91.77,17.15L-89.39,22.08L-87.39,23.41L-83.02,23.25L-76.45,17.93L-73.92,16.81L-67.00,9.58L-61.72,1.06L-62.82,1.26" />
        <path d="M-74.49,11.28L-69.57,11.66L-64.39,4.56L-62.88,1.61L-63.35,1.07" />
        <path d="M-57.36,-6.62L-59.34,0.57L-63.28,7.72L-70.74,16.14L-77.38,21.34L-84.74,23.56L-89.05,21.98L-89.44,16.77L-79.99,-0.87L-77.07,-4.58L-72.73,-8.05L-63.46,-13.05" />
      </g>
      <g id="f1" transform="translate(442.52 -135.55)" style="--index:1; opacity:0;" class="frame">
        <path d="M-256.50,-157.24L-261.45,-160.03L-264.47,-160.05L-271.91,-158.08L-276.34,-155.05L-278.35,-150.33L-278.61,-145.88L-276.60,-141.80L-271.12,-135.95L-265.85,-133.96L-258.58,-132.79L-253.35,-132.80L-247.07,-134.11L-241.49,-137.80L-239.42,-140.54L-237.84,-144.95L-238.17,-148.69L-242.61,-153.49L-248.83,-156.72L-256.18,-158.66" />
        <path d="M-35.07,-102.53L-40.34,-101.15L-42.72,-99.75L-48.68,-91.06L-49.49,-85.69L-44.79,-78.12L-41.31,-75.85L-37.29,-74.51L-26.56,-73.56L-21.57,-75.99L-19.20,-80.77L-17.77,-90.56L-19.91,-96.69L-21.93,-98.91L-24.71,-100.43L-34.86,-102.52L-36.30,-103.53" />
        <path d="M-45.07,-87.94L-45.07,-87.94" />
        <path d="M-45.07,-87.94L-45.07,-87.94" />
        <path d="M-47.50,-64.12L-42.54,-77.02L-43.24,-81.92L-42.72,-85.35L-45.09,-86.89L-45.07,-87.94L-45.68,-86.23L-45.82,-74.43L-47.50,-64.12" />
        <path d="M-48.60,-57.16L-47.50,-64.12L-48.60,-57.16" />
        <path d="M-49.90,-50.01L-48.60,-57.16L-49.90,-50.01" />
        <path d="M-28.00,-76.48L-33.84,-64.91L-36.96,-53.85L-41.44,-46.72L-45.29,-42.47L-50.50,-39.84L-51.35,-40.82L-49.84,-49.40" />
        <path d="M-45.00,-87.69L-47.84,-83.51L-48.72,-58.06L-50.07,-43.12L-48.47,-36.80L-45.08,-34.56L-40.85,-50.40L-24.64,-80.72L-24.57,-85.89L-26.12,-87.87" />
        <path d="M-20.22,-89.00L-20.98,-80.22L-25.44,-69.13L-38.72,-50.83L-45.06,-44.53L-48.12,-39.57L-48.99,-35.62" />
      </g>
      <g id="f2" transform="translate(442.52 -135.55)" style="--index:2; opacity:0;" class="frame">
        <path d="M-260.45,-122.97L-263.82,-125.36L-270.67,-125.88L-277.09,-124.58L-279.62,-122.79L-282.33,-118.80L-283.80,-114.23L-284.33,-108.09L-283.25,-102.44L-281.01,-98.55L-278.67,-96.79L-263.75,-91.24L-257.14,-90.54L-249.60,-91.96L-245.25,-94.10L-241.80,-98.64L-240.17,-105.54L-241.00,-110.75L-242.75,-114.11L-245.62,-116.88L-260.45,-122.97" />
        <path d="M-258.94,-121.89L-261.90,-123.49" />
        <path d="M-15.24,-120.12L-18.76,-124.25L-26.12,-125.23L-32.11,-124.10L-35.02,-121.16L-36.00,-114.63L-34.33,-111.41L-30.88,-108.74L-23.11,-105.33L-16.04,-105.00L-14.01,-107.25L-12.85,-110.73L-12.53,-114.89L-13.26,-117.09L-16.04,-119.50L-19.98,-120.90L-19.59,-121.63" />
        <path d="M-15.98,-111.38L-15.54,-106.64L-21.60,-91.81L-24.04,-88.82L-27.70,-88.82L-29.22,-89.62L-34.86,-101.90L-33.03,-115.59L-33.53,-116.43" />
      </g>
      <g id="f3" transform="translate(442.52 -135.55)" style="--index:3; opacity:0;" class="frame">
        <path d="M-260.19,-91.05L-265.35,-93.79L-270.55,-94.04L-275.82,-92.72L-279.77,-89.59L-281.20,-83.45L-279.36,-78.83L-275.94,-75.82L-268.75,-73.55L-258.94,-72.53L-253.38,-73.20L-250.49,-75.18L-248.85,-79.25L-249.39,-83.00L-254.00,-87.55L-261.65,-91.71L-266.08,-92.39L-269.35,-91.75" />
        <path d="M-20.31,-149.73L-28.40,-146.57L-29.74,-143.44L-29.88,-141.66L-28.96,-140.02L-25.62,-137.00L-20.84,-134.85L-11.84,-133.82L-9.40,-134.38L-5.75,-137.96L-4.85,-144.36L-7.65,-147.32L-11.26,-149.51L-18.95,-150.45" />
        <path d="M-10.94,-139.58L-9.09,-135.10L-10.68,-129.87L-12.00,-127.65L-13.52,-126.95L-17.09,-128.61L-24.72,-135.07L-29.79,-141.84" />
      </g>
      <g id="f4" transform="translate(442.52 -135.55)" style="--index:4; opacity:0;" class="frame">
        <path d="M-263.10,-79.23L-267.64,-80.89L-270.77,-80.51L-271.77,-76.40L-270.09,-73.18L-268.52,-72.09L-264.69,-71.80L-259.67,-73.54L-259.10,-76.52L-263.10,-79.23" />
        <path d="M-261.63,-78.65L-265.29,-80.24L-265.61,-79.51" />
        <path d="M-12.50,-146.35L-16.96,-145.07L-17.63,-141.75L-16.36,-140.22L-12.70,-139.59L-11.69,-140.27L-10.95,-143.71L-12.50,-146.35" />
        <path d="M-11.83,-146.54L-12.50,-146.35L-14.25,-148.02" />
        <path d="M-19.81,-150.22L-23.80,-155.60L-34.36,-165.93L-47.48,-177.08L-62.28,-185.91L-73.57,-189.38L-68.55,-182.99L-49.65,-167.57L-26.74,-152.41L-19.81,-150.22" />
        <path d="M-18.44,-146.39L-19.81,-150.22L-15.86,-148.56" />
      </g>
      <g id="f5" transform="translate(442.52 -135.55)" style="--index:5; opacity:0;" class="frame">
        <path d="M-266.76,-64.46L-267.99,-56.59L-268.41,-45.00L-266.57,-20.31L-265.15,-15.60L-254.73,2.65L-250.75,8.32L-248.10,10.52L-245.04,15.50L-239.37,18.55L-232.10,19.65L-229.91,18.10L-228.86,15.91L-230.22,6.74L-233.35,-1.75L-237.73,-10.00L-241.26,-23.19L-243.54,-35.74L-247.97,-48.73L-256.79,-61.02L-266.48,-68.22L-265.97,-68.67" />
        <path d="M-34.03,-162.12L-34.03,-162.12" />
        <path d="M-63.59,-184.55L-73.24,-189.31L-83.10,-191.30L-90.69,-191.53L-99.95,-190.50L-107.74,-191.23L-119.09,-190.05L-135.53,-186.58L-152.59,-179.17L-160.67,-177.94L-175.13,-171.68L-184.26,-165.59L-186.21,-163.11L-182.94,-161.45L-176.95,-160.85L-159.61,-162.48L-140.24,-165.55L-120.49,-165.33L-109.10,-168.47L-101.00,-169.12L-87.70,-173.83L-72.94,-173.61L-65.32,-177.05L-61.22,-176.50L-42.45,-164.77L-38.70,-163.42L-37.24,-163.89L-34.18,-162.21" />
      </g>
      <g id="f6" transform="translate(442.52 -135.55)" style="--index:6; opacity:0;" class="frame">
        <path d="M-233.14,19.92L-229.73,23.82L-223.47,27.33L-213.30,29.14L-209.98,28.09L-207.90,24.40L-207.70,21.73L-208.95,18.27L-213.46,14.27L-220.37,11.06L-225.63,10.53L-229.26,12.31L-231.87,14.99L-232.46,19.90L-230.95,21.73L-223.75,25.59L-218.77,26.25L-215.79,24.89" />
        <path d="M-224.74,16.11L-227.79,17.06L-229.12,19.90L-228.49,21.93L-226.40,24.39L-221.53,26.39L-216.62,25.28L-213.81,25.58L-211.79,24.68" />
        <path d="M-225.41,15.30L-230.56,16.59L-233.61,19.32L-233.60,22.11L-230.72,24.80L-222.14,27.27L-210.22,26.51" />
        <path d="M-186.74,-166.86L-191.91,-164.86L-200.09,-163.12L-207.09,-159.39L-220.13,-154.36L-226.16,-150.06L-240.49,-144.65L-245.38,-141.11L-247.76,-138.45L-245.63,-136.65L-243.63,-136.35L-232.95,-138.72L-214.40,-141.15L-209.38,-143.73L-197.24,-154.42L-189.31,-158.59L-183.47,-166.07L-177.21,-167.61L-171.75,-170.00" />
      </g>
      <g id="f7" transform="translate(442.52 -135.55)" style="--index:7; opacity:0;" class="frame">
        <path d="M-188.67,16.66L-198.71,15.61L-202.45,18.62L-203.45,21.91L-203.46,26.46L-201.82,29.19L-198.75,31.42L-189.31,35.66L-180.86,36.65L-172.63,35.89L-165.89,33.46L-163.51,31.02L-161.49,27.06L-161.55,25.20L-163.36,23.54L-167.91,21.00L-171.14,20.13L-184.20,18.30L-184.27,19.26" />
        <path d="M-247.62,-139.35L-243.92,-143.04L-242.02,-142.83L-239.24,-140.85L-245.15,-128.06L-252.00,-116.97L-255.34,-108.22L-257.76,-105.92L-262.72,-106.10L-264.08,-106.93L-265.44,-109.79L-266.31,-114.01L-263.62,-121.45L-261.94,-124.44L-258.07,-128.60L-253.05,-131.77L-244.94,-139.11L-244.03,-140.86" />
      </g>
      <g id="f8" transform="translate(442.52 -135.55)" style="--index:8; opacity:0;" class="frame">
        <path d="M-147.22,18.60L-154.62,18.24L-157.77,19.72L-159.27,21.32L-162.70,28.55L-163.34,33.17L-162.49,35.72L-159.19,38.31L-155.69,39.26L-139.98,40.73L-126.68,36.74L-122.36,34.24L-121.12,32.28L-120.54,28.54L-121.86,25.90L-125.40,22.80L-140.16,17.08L-147.06,16.61L-149.15,17.63L-147.79,17.93" />
        <path d="M-243.29,-141.38L-248.17,-135.21L-249.34,-130.35L-248.75,-125.22L-247.03,-121.47L-245.57,-119.73L-244.32,-119.73L-238.36,-128.57L-239.13,-138.93L-240.90,-143.64" />
        <path d="M-255.73,-126.24L-258.42,-118.81L-257.79,-115.15L-255.12,-111.89L-253.05,-110.81L-247.57,-109.42L-244.62,-110.04L-242.44,-111.54L-235.46,-119.38L-229.88,-126.82L-229.05,-133.94L-230.28,-139.41L-235.26,-143.83L-239.11,-142.96L-255.73,-126.24" />
        <path d="M-249.74,-134.69L-253.26,-130.76L-259.44,-120.36L-261.23,-112.29L-260.76,-110.62L-258.83,-108.78L-254.27,-107.75L-245.00,-109.74L-243.07,-111.68L-243.21,-115.84" />
      </g>
      <g id="f9" transform="translate(442.52 -135.55)" style="--index:9; opacity:0;" class="frame">
        <path d="M-94.00,16.62L-100.71,14.67L-108.71,14.87L-112.63,16.63L-116.78,22.37L-116.77,26.64L-114.80,29.88L-112.65,31.49L-107.90,33.09L-97.04,34.12L-89.26,31.15L-88.05,28.90L-87.45,23.80L-88.35,20.21L-89.73,18.47L-91.79,17.41L-97.08,16.60" />
        <path d="M-245.19,-131.90L-246.42,-126.95L-249.46,-119.89L-254.34,-99.84L-256.29,-84.98L-255.55,-73.00L-257.00,-61.34L-257.58,-46.28L-256.69,-39.10L-251.11,-19.68L-245.29,-8.52L-241.94,0.74L-239.62,2.60L-238.97,1.49L-237.16,-42.00L-238.96,-53.14L-238.93,-65.47L-241.49,-78.07L-243.43,-107.69L-247.47,-123.90" />
      </g>
      <g id="f10" transform="translate(442.52 -135.55)" style="--index:10; opacity:0;" class="frame">
        <path d="M-73.90,4.69L-80.14,3.66L-83.80,3.86L-87.14,8.83L-87.53,12.24L-84.48,17.35L-71.11,19.75L-67.52,15.77L-65.96,10.73L-71.22,7.50L-76.78,6.54L-75.43,5.95" />
        <path d="M-178.99,44.38L-178.99,44.38" />
        <path d="M-178.94,44.41L-178.94,44.41" />
        <path d="M-178.88,44.40L-178.88,44.40" />
        <path d="M-178.88,44.40L-178.88,44.40" />
        <path d="M-178.75,44.41L-178.75,44.41" />
        <path d="M-178.70,44.43L-178.70,44.43" />
        <path d="M-244.64,-10.88L-232.34,11.19L-220.12,23.56L-207.10,32.02L-198.86,35.81L-186.44,43.07L-178.53,45.10L-176.44,45.15L-178.70,44.43" />
      </g>
      <g id="f11" transform="translate(442.52 -135.55)" style="--index:11; opacity:0;" class="frame">
        <path d="M-230.33,-220.48L-235.09,-223.04L-240.07,-222.67L-244.68,-220.81L-248.28,-216.83L-251.29,-209.85L-252.83,-198.89L-251.57,-194.54L-249.36,-192.10L-242.69,-189.31L-235.04,-188.60L-229.19,-191.31L-221.01,-199.61L-218.85,-204.34L-218.40,-209.18L-220.11,-212.13L-228.97,-219.41" />
        <path d="M-67.48,-1.83L-73.40,-1.81L-74.21,-1.10L-75.38,5.27L-73.34,6.52L-68.92,7.20L-65.09,5.50L-63.50,3.77L-63.20,1.59L-67.56,-0.74L-67.51,-1.42" />
        <path d="M-177.68,45.34L-168.02,46.18L-149.18,46.24L-141.09,44.45L-131.94,40.35L-123.21,39.27L-104.85,29.02L-98.99,24.78L-97.15,22.82L-97.16,21.88L-114.94,23.82L-125.83,23.82L-135.75,25.22L-162.91,25.63L-176.20,27.90L-186.40,28.62L-199.02,31.55L-209.62,29.43L-218.79,25.64L-224.44,22.44L-226.61,18.60L-227.82,17.90" />
        <path d="M-181.59,34.78L-190.07,29.20L-199.20,26.68L-204.64,23.84L-212.34,22.77L-218.09,24.75L-219.23,26.65L-218.93,27.51L-209.00,34.99L-191.70,44.81L-183.97,46.69L-172.38,46.08" />
      </g>
    </g>
  </g>
</svg>