<?xml version="1.0" encoding="utf-8"?>
<svg width="1194" height="834" viewBox="-597 -417 1194 834" xmlns="http://www.w3.org/2000/svg">
  <style>
svg { background-color:#FFB763; }

#looom { --version:2; }

#t0 {
--visible:1; --timeOffset:16.80003; --speed:10; --bookmarkIndex:-1; --latched:0; --playMode:1; --masked:0; --blendMode:0; 
fill:#799CFF; stroke-opacity:0; fill-opacity:1; stroke-width:10; stroke-linecap:round; stroke-linejoin:round;
}
@keyframes t0 { 0% { opacity: 1; } 8.333333% { opacity: 0; } }
#t0 .frame { animation:t0 1.2s calc(var(--index) * 0.1s) steps(1) infinite; }

#t1 {
--visible:1; --timeOffset:-7.763505E-06; --speed:1; --bookmarkIndex:-1; --latched:0; --playMode:0; --masked:0; --blendMode:0; 
stroke:#D6FF79; stroke-opacity:0; fill-opacity:0; stroke-width:10; stroke-linecap:round; stroke-linejoin:round;
}
@keyframes t1 { 0% { opacity: 1; } 100% { opacity: 0; } }
#t1 .frame { animation:t1 1s calc(var(--index) * 1s) steps(1) infinite; }

#t2 {
--visible:1; --timeOffset:12.59999; --speed:10; --bookmarkIndex:13; --latched:0; --playMode:2; --masked:0; --blendMode:0; 
fill:#FFD9DA; stroke-opacity:0; fill-opacity:0.3057579; stroke-width:2.145843; stroke-linecap:round; stroke-linejoin:round;
}
@keyframes t2 { 0% { opacity: 1; } 7.142857% { opacity: 0; } }
#t2 .frame { animation:t2 1.4s calc(var(--index) * 0.1s) steps(1) infinite; }

#t3 {
--visible:1; --timeOffset:12.59999; --speed:10; --bookmarkIndex:13; --latched:0; --playMode:2; --masked:0; --blendMode:0; 
fill:#FF797F; stroke-opacity:0; fill-opacity:1; stroke-width:2.145843; stroke-linecap:round; stroke-linejoin:round;
}
@keyframes t3 { 0% { opacity: 1; } 7.142857% { opacity: 0; } }
#t3 .frame { animation:t3 1.4s calc(var(--index) * 0.1s) steps(1) infinite; }

</style>
  <g id="w0" transform="translate(283.25 17.25) scale(1.02 1.02) rotate(-22.50)" class="weave">
    <g id="t0" transform="translate(237.18 324.05) scale(1.18 1.18) rotate(-359.67)" class="thread">
      <g id="f0" transform="translate(-336.64 -346.03)" style="--index:0; opacity:1;" class="frame">
        <path d="M-243.76,43.97L-247.01,42.56L-250.88,39.12L-268.49,17.49L-274.47,8.16L-286.93,-8.46L-294.87,-23.81L-307.17,-39.54L-315.57,-55.88L-323.57,-65.26L-326.42,-71.14L-329.97,-84.43L-336.96,-100.67L-337.12,-115.56L-333.78,-147.34L-328.34,-171.60L-320.85,-194.37L-310.99,-210.47L-302.48,-219.50L-287.43,-228.05L-268.67,-235.84L-239.41,-244.44L-181.30,-250.10L-103.39,-247.95L-79.25,-245.34L-24.26,-234.77L20.52,-222.40L64.45,-213.23L110.53,-202.56L134.42,-195.12L146.14,-188.44L159.16,-178.40L166.05,-171.65L176.11,-158.67L188.04,-137.82L197.54,-126.79L206.23,-114.31L221.44,-98.93L231.85,-84.91L241.61,-74.20L260.65,-49.92L271.56,-30.09L274.03,-19.76L274.90,-6.06L270.44,10.91L261.54,31.22L254.82,43.59L248.04,54.03L238.56,65.01L221.96,81.35L188.14,99.54L155.99,110.67L138.72,113.45L122.54,117.08L98.81,120.85L54.52,123.40L36.33,126.98L1.45,130.99L-22.96,136.91L-55.01,143.17L-102.10,147.36L-121.27,147.09L-161.26,150.50L-197.84,150.85L-221.86,152.33L-276.11,149.00L-297.84,148.60L-318.84,146.14L-348.69,145.77L-370.06,142.85L-397.05,144.39L-402.68,144.05L-397.89,140.09L-391.16,136.22L-370.28,130.55L-356.96,125.32L-307.79,110.06L-298.25,105.76L-280.43,99.70L-268.02,94.11L-251.15,88.24L-235.01,79.70L-212.30,73.58L-192.57,63.32L-190.51,59.76L-191.74,58.60L-205.68,54.17L-214.44,53.50L-232.75,49.28L-239.42,46.90L-243.76,43.97" />
        <path d="M-231.85,47.20L-243.76,43.97L-269.60,26.84L-273.40,22.86L-279.61,13.45L-290.94,1.24L-297.57,-10.57L-305.86,-29.34L-308.34,-38.80L-309.29,-48.82" />
        <path d="M-269.60,27.34L-275.20,19.75L-292.50,5.64L-301.90,-3.01L-306.97,-8.84L-311.24,-16.95L-317.21,-39.61L-322.38,-49.35L-324.73,-56.59L-328.30,-71.58L-327.54,-86.44L-323.71,-110.71L-320.12,-125.52L-316.27,-147.42L-301.91,-188.34L-290.42,-204.52L-275.12,-221.10L-258.33,-231.97L-240.91,-245.33L-236.69,-247.45L-225.10,-252.04L-209.63,-259.78L-203.98,-261.61L-178.78,-265.49L-153.95,-266.88L-126.25,-266.11L-87.16,-260.77L-71.03,-257.07L-45.58,-249.74L-25.45,-243.00L2.61,-237.53L28.62,-235.69L56.41,-228.54L65.10,-225.86L75.89,-219.47L89.59,-213.68L93.00,-211.93L107.15,-201.18L137.60,-180.44L175.57,-142.13L181.59,-134.47L190.20,-118.32L219.16,-78.48L227.18,-68.42L246.02,-48.25" />
        <path d="M116.00,-181.24L120.28,-185.94L122.02,-186.07L143.97,-183.73L151.17,-181.10L158.61,-174.78L182.09,-159.72L189.66,-150.57L200.46,-143.42L206.11,-137.30L222.34,-116.37L228.42,-102.03L234.88,-93.65L235.87,-91.22L239.28,-66.08L237.60,-44.84L235.57,-38.48L229.31,-27.05" />
        <path d="M-109.38,-238.45L-97.43,-245.71L-76.46,-253.31L-45.36,-259.71L-15.63,-258.19L34.97,-246.58L52.11,-240.53L59.96,-236.01L70.59,-232.55L77.07,-227.12L86.37,-222.13L89.94,-219.31L114.12,-185.13L125.56,-163.76L126.04,-158.38" />
        <path d="M-218.71,27.41L-213.12,37.46L-204.89,62.27L-202.31,67.66L-189.57,86.55L-184.34,91.67L-177.40,94.74L-168.71,97.16L-139.91,96.35L-117.11,93.90" />
        <path d="M-224.59,33.13L-225.33,39.99L-221.57,45.40L-202.53,67.33L-196.13,72.40L-188.72,76.44L-172.07,81.99L-158.21,89.09L-152.64,90.96L-140.79,91.67L-129.54,90.03L-110.68,89.09" />
      </g>
      <g id="f1" transform="translate(-336.64 -346.03)" style="--index:1; opacity:0;" class="frame">
        <path d="M-425.06,124.17L-431.66,126.56L-436.86,126.17L-433.68,126.26L-425.06,124.17" />
        <path d="M-340.37,115.07L-346.00,112.02L-351.98,110.96L-365.95,116.40L-381.21,120.06L-398.79,129.68L-417.19,135.46L-421.69,137.92L-424.04,140.29L-412.05,135.83L-374.39,130.17L-357.73,126.35L-301.02,123.53L-281.02,124.32L-238.76,129.48L-182.84,133.42L-164.88,132.96L-82.69,134.89L-56.34,134.07L-13.48,134.10L23.29,131.10L39.36,130.97L114.00,123.99L122.44,122.45L146.45,113.04L155.06,107.50L161.63,101.15L188.10,71.25L192.93,64.00L202.46,46.53L208.91,28.67L210.21,20.05L209.52,-8.03L214.78,-45.85L214.55,-66.09L212.71,-75.21L205.11,-91.12L199.67,-105.85L194.06,-114.72L185.92,-123.39L174.32,-137.63L138.82,-170.18L83.45,-208.46L58.03,-221.44L41.56,-231.23L17.20,-240.67L-4.83,-247.59L-29.88,-252.68L-65.76,-256.40L-104.07,-262.01L-124.41,-263.65L-152.70,-263.87L-182.77,-261.70L-205.78,-258.89L-240.65,-249.29L-262.72,-239.94L-272.59,-234.90L-303.68,-213.81L-308.79,-208.43L-319.74,-191.74L-324.35,-182.06L-329.52,-167.92L-334.49,-152.28L-340.06,-109.49L-339.68,-93.42L-335.43,-66.16L-331.61,-49.76L-328.23,-41.85L-314.58,-16.75L-311.59,-12.66L-294.30,5.75L-272.20,24.93L-227.20,51.21L-213.20,58.37L-207.02,61.00L-181.32,69.17L-178.17,71.44L-178.46,73.97L-184.59,79.96L-188.89,81.79L-207.40,84.76L-226.14,89.79L-248.83,93.46L-266.96,95.03L-283.24,97.62L-306.45,99.70L-324.92,100.16L-362.39,107.83L-377.45,107.92L-383.06,108.85L-397.92,114.67L-417.88,120.90L-425.06,124.17L-416.43,124.91L-404.61,121.91L-403.33,120.80L-402.73,118.71" />
        <path d="M187.48,-60.86L195.40,-62.39L201.66,-60.91L204.50,-58.15L213.18,-45.85L214.93,-42.08L219.97,-20.23L221.98,-5.58L222.79,10.21L225.59,30.92L224.68,48.61L223.16,60.03L220.33,70.02L210.34,92.92L195.21,111.57L181.20,123.50L173.40,128.36L167.63,130.58L156.34,132.13L146.05,135.27L139.78,136.14L99.69,134.54L71.76,129.96L50.73,124.64L38.81,124.23L7.02,118.50L-15.72,117.26L-39.86,111.45L-53.40,109.17L-102.55,106.54L-119.80,106.88" />
        <path d="M-70.96,-243.20L-64.25,-244.95L-50.23,-246.32L-40.58,-245.62L-16.15,-241.14L24.77,-231.25L50.58,-220.59L74.32,-212.63L110.25,-191.08L121.70,-182.46L133.84,-177.09L151.81,-166.39L165.92,-157.43L177.18,-149.03L204.91,-123.42L211.14,-113.51L219.71,-106.22L228.04,-95.82L236.29,-88.30L244.72,-74.99L252.19,-59.20L265.02,-19.83L272.76,-0.92L273.10,2.24L270.87,24.15L268.69,31.81L251.28,65.84L244.81,74.51L227.30,87.34L214.56,97.97L196.10,106.37L181.64,114.44L175.49,116.53L148.60,118.28L141.96,117.60L131.99,115.27L109.62,116.61L88.37,116.00" />
        <path d="M-403.30,133.21L-397.24,131.68L-373.34,130.58L-336.86,126.31L-321.53,128.57L-303.38,127.51L-289.31,129.96L-277.62,130.38L-263.12,132.04L-248.82,130.60L-228.50,130.39L-204.98,132.89L-175.05,132.28L-161.44,130.10L-146.96,128.88L-132.19,129.70L-120.29,129.17L-106.71,130.79L-68.77,125.88L-51.10,122.40L-27.06,115.02L-14.32,112.06L9.39,101.78L26.07,95.78L34.99,90.60L57.04,80.39L89.32,58.00L99.01,50.09" />
        <path d="M-373.74,138.99L-362.50,136.90L-341.86,138.90L-305.58,135.25L-266.70,135.04L-247.73,133.30L-233.18,133.20L-195.67,126.99L-147.73,121.46L-125.18,116.64L-92.85,112.92L-72.88,108.28L-33.65,103.30L-19.95,98.20L-5.33,94.15L-0.26,91.80L10.48,84.25L15.86,79.29L24.40,68.07L29.15,60.30L39.28,33.55L41.46,29.61" />
        <path d="M-288.26,149.80L-283.16,144.07L-280.54,143.80L-262.10,146.36L-246.11,147.57L-218.37,147.19L-160.86,140.17L-152.79,138.17L-142.94,134.29L-121.49,129.72L-110.72,125.38L-91.54,120.51L-73.39,114.12L-60.05,107.22L-48.69,99.61L-27.63,88.08L-11.23,75.82L1.37,67.84L14.84,57.52L34.15,47.29L39.39,42.20L49.81,29.06L54.86,25.69L71.73,18.56L77.63,14.85L90.44,-0.98" />
        <path d="M-96.18,69.48L-128.61,78.84L-150.38,82.80L-171.32,88.64L-230.88,100.17L-238.75,101.04L-258.38,105.95L-277.07,108.78L-298.82,110.48L-336.64,118.45L-359.32,118.33L-375.03,120.77L-383.14,122.91L-393.31,127.79L-407.33,130.24L-414.17,134.23L-414.51,135.31L-413.14,135.74L-387.53,134.60L-346.99,137.19L-332.09,136.52L-292.78,138.74L-264.74,138.45L-224.78,134.10L-208.46,133.47L-193.74,130.72L-175.44,129.19L-159.32,126.56L-143.39,125.63L-121.80,125.65L-110.48,123.51L-94.67,122.38L-82.81,120.15L-60.57,118.12L-52.88,116.01L-38.82,113.73L1.90,102.45L22.73,98.61L48.00,87.06" />
        <path d="M-109.25,89.13L-115.97,87.17L-125.02,86.91L-151.48,90.22L-236.63,105.27L-275.04,113.99L-319.81,126.09L-350.32,131.23L-376.04,134.04L-387.37,134.39L-399.74,136.12L-399.94,137.75L-398.65,140.93L-393.49,143.26L-345.84,145.57L-306.08,143.19L-285.28,144.40L-261.95,148.02L-244.56,149.33L-228.84,148.76L-211.15,149.40L-200.68,148.60L-184.42,150.05L-162.67,148.79L-140.96,143.20L-130.42,141.91L-117.49,138.93L-102.27,137.02L-82.24,131.06L-67.27,129.41L-46.00,125.71L-39.58,123.27L-28.08,117.14L-10.49,110.66L1.06,103.27L15.56,97.50L22.87,93.33" />
        <path d="M-298.86,105.57L-354.00,105.93L-381.78,108.84L-407.65,115.54L-436.54,128.89L-443.13,130.77L-448.69,133.64L-447.97,133.79L-422.79,132.41L-414.09,131.04L-382.38,128.47L-341.44,130.94L-312.97,131.38L-285.64,130.62L-247.85,125.93L-233.20,125.00L-190.18,116.66L-176.07,115.24" />
      </g>
      <g id="f2" transform="translate(-336.64 -346.03)" style="--index:2; opacity:0;" class="frame">
        <path d="M-418.20,149.32L-418.64,149.60L-418.20,149.32" />
        <path d="M-282.01,89.00L-288.97,90.66L-307.39,99.22L-322.94,105.09L-341.41,115.42L-358.58,121.35L-370.63,128.99L-385.66,136.46L-398.82,144.09L-415.12,148.11L-418.20,149.32L-416.64,149.65L-400.46,148.47L-363.08,142.96L-326.93,142.04L-308.00,139.12L-250.50,133.26L-223.69,132.00L-184.34,133.29L-168.93,132.62L-122.72,133.29L-108.59,132.98L-87.61,130.19L-58.78,128.21L-17.49,128.18L4.45,127.39L40.58,128.24L79.30,123.77L119.01,122.87L153.42,117.70L160.65,114.34L181.29,101.74L187.70,96.18L212.59,53.46L221.82,32.68L226.76,15.77L227.53,5.38L225.25,-7.33L224.37,-21.29L222.77,-26.94L209.81,-59.16L197.77,-80.54L187.52,-102.70L175.49,-120.12L154.02,-146.03L133.51,-166.47L114.21,-183.07L88.28,-201.10L67.52,-210.91L25.73,-227.41L-11.98,-246.06L-31.95,-253.08L-43.87,-255.94L-69.87,-258.89L-99.01,-259.37L-119.10,-258.59L-126.65,-258.20L-154.04,-254.09L-180.30,-249.02L-215.47,-237.67L-221.37,-235.07L-234.84,-228.04L-248.50,-222.26L-274.11,-207.02L-282.84,-200.76L-299.94,-181.81L-310.06,-167.74L-317.06,-159.82L-327.90,-145.37L-338.99,-125.11L-347.77,-99.62L-350.96,-75.49L-350.32,-66.09L-348.46,-58.65L-343.47,-47.02L-334.17,-29.80L-322.32,-16.07L-314.49,-9.37L-299.80,0.45L-279.02,17.44L-263.41,28.04L-247.02,41.29L-208.66,58.20L-191.69,63.26L-184.17,68.26L-184.96,69.70L-189.17,71.49L-204.72,73.72L-228.10,78.44L-247.23,85.77L-282.01,89.00" />
        <path d="M-442.27,151.36L-450.03,155.91L-453.00,155.99L-450.33,153.12L-447.51,151.99L-442.27,151.36" />
        <path d="M-197.80,64.95L-203.83,67.17L-213.91,73.91L-230.53,77.08L-252.79,82.82L-262.59,84.18L-282.01,89.00L-290.94,89.93L-304.35,94.20L-323.37,96.67L-377.79,112.21L-398.01,123.00L-409.88,127.08L-420.11,135.38L-426.78,145.17L-428.74,145.80L-432.11,144.98L-438.10,149.50L-442.27,151.36L-434.00,151.73L-426.58,150.97L-407.18,145.41L-390.18,139.49L-384.44,138.70L-347.48,137.72L-309.10,134.63L-264.34,135.37L-250.81,133.42L-228.62,132.38L-210.76,133.32" />
        <path d="M-115.29,115.06L-103.10,116.23L-83.63,121.41L-61.16,125.02L-20.25,133.13L-12.03,133.88L0.74,133.72L29.89,137.16L45.62,137.60L54.34,138.79L69.81,142.44L84.05,144.43L115.12,145.78L148.25,142.73L169.16,137.47L183.79,131.84L197.95,128.15L206.20,124.78L218.76,113.99L222.58,108.04L225.22,100.52L229.22,80.78L231.11,59.43L230.55,43.73L229.04,37.00L222.75,23.11L217.48,6.23L207.72,-10.11L202.46,-22.00L198.47,-28.00L178.93,-52.02" />
        <path d="M-116.42,90.99L-125.64,94.72L-143.70,100.29L-160.45,103.32L-197.89,114.63L-233.12,123.94L-274.40,128.71L-294.81,132.93L-310.81,134.17L-320.99,133.22L-318.62,134.82L-311.90,136.78L-286.73,140.48L-250.31,144.55L-212.25,152.35L-195.16,151.70L-161.39,148.77L-155.83,147.75L-143.44,143.25L-125.34,139.21L-115.96,135.44L-100.56,131.32L-75.74,122.32L-66.97,117.09L-52.21,105.66L-47.65,102.99L-42.02,101.22L-31.99,99.69L-24.89,97.31" />
        <path d="M-325.77,-115.41L-334.68,-112.59L-337.32,-113.86L-337.98,-116.01L-330.70,-151.42L-326.52,-164.85L-320.42,-177.68L-316.24,-184.38L-308.79,-192.48L-275.76,-220.12L-255.46,-230.64L-241.02,-239.37L-224.04,-245.80L-210.74,-253.88L-206.15,-255.88L-183.97,-262.16L-166.00,-264.56L-155.54,-267.14L-148.61,-267.47L-128.72,-265.20L-101.78,-264.99L-93.28,-263.30L-61.43,-252.49L-33.07,-244.24L-22.39,-239.33L-12.04,-235.78L40.66,-220.13L78.04,-206.80L112.17,-196.29L132.52,-187.03L159.87,-171.59L182.14,-152.43L205.31,-131.07L216.91,-118.94L223.87,-110.31L235.34,-93.50L244.81,-76.31L247.88,-66.30L253.60,-52.16L258.35,-33.10L258.99,-14.66L262.01,-0.28L262.04,5.97L255.54,28.55L253.20,33.29L241.54,44.95L223.66,69.64L215.61,76.62L199.36,86.31L189.10,93.60L166.20,99.81L155.07,104.55L144.51,107.44L129.12,113.43" />
      </g>
      <g id="f3" transform="translate(-336.64 -346.03)" style="--index:3; opacity:0;" class="frame">
        <path d="M-414.65,141.00L-417.63,141.91L-414.65,141.00" />
        <path d="M-213.62,71.74L-219.44,73.76L-235.24,77.27L-285.13,91.88L-292.12,94.46L-307.54,102.31L-318.24,106.24L-336.15,114.81L-354.16,119.64L-359.47,121.75L-369.73,128.01L-378.41,131.92L-392.98,136.33L-405.28,138.40L-414.65,141.00L-379.43,137.84L-364.12,135.04L-332.81,131.40L-317.13,130.65L-277.30,124.84L-229.85,124.56L-190.95,122.24L-154.55,123.77L-88.35,124.56L-21.31,127.97L60.26,137.20L96.11,142.87L113.76,144.42L146.43,145.27L161.70,144.22L171.70,142.25L179.03,138.58L192.91,128.07L211.11,103.29L216.85,93.98L222.85,77.23L225.38,64.46L225.78,56.05L223.73,41.22L218.76,24.79L216.65,6.73L211.11,-19.68L208.54,-43.45L206.58,-49.80L196.55,-66.83L191.31,-79.56L188.21,-84.42L164.63,-110.07L147.04,-125.37L133.98,-135.01L116.24,-149.85L101.28,-163.38L89.41,-172.21L58.67,-192.63L8.57,-222.82L-9.31,-231.88L-28.80,-240.43L-55.98,-249.17L-78.06,-252.71L-94.50,-253.90L-109.69,-253.91L-122.42,-253.16L-160.60,-246.47L-184.52,-239.48L-219.21,-224.60L-254.43,-202.53L-285.22,-177.13L-293.67,-167.49L-299.73,-158.29L-304.67,-149.39L-310.03,-136.49L-313.08,-126.92L-314.68,-116.02L-315.15,-98.62L-313.57,-86.04L-304.58,-50.10L-291.68,-21.87L-285.79,-5.40L-268.01,20.52L-252.26,38.68L-227.46,60.50L-218.41,66.58L-213.62,71.74" />
        <path d="M-421.78,146.12L-421.78,146.12" />
        <path d="M-191.53,58.75L-197.09,63.73L-213.62,71.74L-208.13,79.39L-206.53,82.84L-206.21,87.17L-207.94,89.40L-223.61,94.04L-240.74,95.61L-264.22,99.61L-281.98,106.38L-301.78,111.31L-319.54,118.58L-340.46,123.82L-355.09,126.60L-372.19,131.79L-389.63,134.86L-395.92,136.82L-421.31,145.80L-409.87,145.40" />
        <path d="M-273.42,18.37L-289.08,3.43L-301.80,-18.75L-309.09,-29.00L-312.59,-36.62L-315.38,-47.47L-320.49,-58.45L-322.98,-66.84L-324.23,-72.98L-325.65,-90.06L-326.22,-107.12L-328.64,-116.24L-330.97,-132.00L-327.81,-148.31L-321.64,-163.98L-308.94,-180.03L-292.84,-194.58L-279.20,-210.67L-275.29,-213.39L-252.27,-225.23L-244.87,-231.57L-239.15,-235.16L-210.83,-242.18L-201.04,-242.95L-189.34,-245.57L-174.48,-247.17L-159.03,-250.10L-128.08,-253.69L-113.48,-252.59L-98.02,-252.91L-64.35,-248.87L-36.56,-246.79L-22.16,-246.93L-11.65,-245.20L-7.28,-243.81L-1.57,-240.30L0.77,-236.77L5.20,-233.17L12.22,-230.26L17.46,-227.09L21.41,-222.28L25.14,-221.01L34.14,-215.36L55.14,-207.33L92.00,-189.71L108.63,-178.52L115.84,-171.16L119.22,-166.37L125.27,-161.32L136.43,-149.93L145.56,-138.25L153.41,-131.62L158.29,-124.67L169.77,-115.11L176.24,-104.94L191.07,-85.97L196.21,-67.36L204.86,-47.31L207.61,-33.36L210.69,-23.69L211.43,-18.05L209.85,-9.09L212.59,2.48L213.23,10.04L212.28,14.04L209.91,16.74" />
        <path d="M-129.82,114.50L-116.21,119.49L-98.19,121.77L-66.74,128.55L-43.97,131.23L-23.58,135.11L-16.55,135.57L-3.04,133.20L14.82,132.47L33.66,129.26L42.27,125.83L54.77,117.05L67.06,112.10" />
        <path d="M-144.67,121.41L-137.86,121.47L-122.36,124.81L-104.14,126.97L-87.06,131.38L-64.97,138.40L-35.43,143.67L-18.12,144.77L5.44,142.90L11.88,141.74L20.90,137.25L36.03,134.81L55.15,129.08L69.07,120.67L85.28,107.61L106.00,99.25" />
        <path d="M-55.78,-215.84L-53.43,-222.95L-50.35,-224.16L-28.98,-226.56L-0.13,-228.12L39.21,-225.65L57.12,-220.72L68.41,-216.61L90.09,-203.57L148.52,-152.92L168.51,-130.53L181.46,-110.97L184.54,-97.58L191.37,-80.05L193.19,-61.07L200.02,-38.23L201.25,-28.80L202.33,-3.47L199.42,6.49L189.74,30.51L187.16,34.67" />
        <path d="M30.13,-168.70L26.63,-175.80L27.81,-181.33L30.85,-184.25L36.78,-187.76L44.88,-190.67L66.73,-194.61L79.62,-194.83L99.53,-191.03L115.99,-185.46L142.46,-169.95L152.02,-161.51L166.34,-147.07L179.57,-138.49L202.41,-117.39L213.49,-104.49L223.11,-96.46L230.73,-85.43L242.20,-72.84L244.87,-65.32L258.45,-40.08L261.74,-13.02L258.23,-0.90L257.51,20.22L252.87,39.86L252.56,45.66L254.04,59.05L248.31,75.46L238.61,83.69L223.19,94.73L211.02,106.97L206.07,110.56L194.41,115.97L184.07,118.49L176.89,119.00L156.55,117.67L130.23,117.58" />
        <path d="M-354.70,133.55L-363.35,131.31L-373.49,131.05" />
        <path d="M-379.95,128.58L-355.44,125.56L-338.99,124.55L-304.22,125.64L-285.97,127.99L-261.47,132.98L-248.07,133.79L-228.64,136.67L-215.61,137.10L-183.38,136.12L-167.15,132.84L-152.47,133.96L-136.73,133.32L-123.43,134.51L-110.63,134.36L-97.12,133.00L-86.52,128.09L-69.00,121.85L-52.60,110.09L-35.29,100.49L-27.41,94.06L-7.76,67.55L-4.25,61.33L3.20,39.48L10.02,29.15L10.93,26.06" />
        <path d="M-284.84,-1.73L-290.55,1.12L-291.59,0.44L-297.25,-8.36L-310.74,-19.06L-312.58,-21.51L-317.01,-31.19L-324.98,-41.99L-327.37,-46.88L-328.04,-55.45L-325.98,-77.84L-326.80,-95.23L-325.28,-116.44L-324.12,-124.84L-319.85,-140.38L-317.89,-152.67L-314.85,-162.25L-303.38,-182.91L-290.65,-201.98L-279.40,-213.77L-268.43,-221.67L-239.05,-236.81L-229.87,-239.96L-215.52,-243.67L-198.98,-246.01L-186.05,-248.98L-169.78,-250.24" />
      </g>
      <g id="f4" transform="translate(-336.64 -346.03)" style="--index:4; opacity:0;" class="frame">
        <path d="M-234.62,76.82L-250.66,85.18L-279.80,97.11L-333.38,116.45L-361.27,121.34L-387.11,128.23L-401.32,133.93L-413.89,137.35L-414.47,139.20L-405.41,142.26L-391.52,141.61L-370.43,141.89L-348.46,140.52L-312.14,136.46L-262.01,135.69L-227.15,133.09L-185.07,134.58L-128.20,133.32L-98.73,132.22L-84.62,130.88L-30.11,130.16L1.75,130.32L38.60,132.34L61.72,132.10L95.19,129.32L121.74,125.95L127.21,124.47L144.13,117.20L150.83,113.08L156.70,106.59L176.65,78.83L204.08,48.39L215.84,28.34L222.11,11.84L223.64,-3.36L222.70,-13.12L215.27,-33.28L211.61,-48.88L203.71,-72.41L193.25,-94.13L188.86,-100.51L174.07,-114.33L160.12,-125.69L138.92,-146.09L120.60,-165.67L108.97,-181.18L103.20,-187.15L84.27,-203.90L65.94,-216.31L35.82,-229.60L6.13,-239.54L-1.28,-240.63L-73.30,-246.22L-116.63,-246.92L-139.20,-248.19L-155.47,-248.30L-182.99,-246.92L-216.98,-243.03L-235.85,-238.67L-245.51,-234.81L-268.70,-221.33L-282.45,-208.41L-314.33,-166.80L-325.34,-149.21L-329.67,-140.63L-335.33,-125.46L-338.24,-116.00L-339.83,-105.45L-339.37,-93.58L-329.95,-48.63L-326.96,-41.02L-312.41,-12.18L-292.98,7.94L-271.86,23.85L-213.98,58.70L-203.08,66.14L-200.94,68.68L-201.05,70.93L-213.98,74.65L-234.62,76.82" />
        <path d="M-207.99,73.10L-213.55,70.65L-234.62,76.82L-262.37,81.89L-273.47,85.45L-292.23,90.04L-304.83,94.90L-323.13,97.43L-336.67,102.33L-350.97,105.88L-379.60,116.02L-396.98,127.12L-407.84,132.87L-421.69,133.70" />
        <path d="M-135.07,122.54L-129.23,124.63L-111.89,127.45L-83.86,129.28L-66.38,134.57L-53.83,137.05L-40.29,137.99L-18.58,143.78L-9.30,142.52L22.90,143.21L30.21,142.00L47.00,134.85L69.04,130.04L82.74,122.23L120.18,103.84L124.25,100.83" />
        <path d="M173.07,-79.03L177.87,-84.26L178.16,-85.77L179.23,-97.32L177.75,-112.82L176.81,-117.33L170.37,-133.74L166.37,-141.34L161.10,-146.81L154.50,-155.50L141.73,-167.65L126.93,-178.94L115.78,-189.32L98.09,-199.50L86.54,-209.42L81.14,-212.91L64.69,-221.93L56.03,-225.45L47.61,-228.21L4.85,-235.23L-38.19,-233.47L-59.18,-233.56L-87.91,-235.84L-106.34,-238.42L-120.61,-239.49L-137.12,-242.21L-159.00,-243.01L-172.40,-240.93L-186.77,-235.03L-193.01,-231.11L-216.06,-213.55" />
        <path d="M-264.38,-203.08L-263.49,-209.89L-251.61,-223.59L-246.14,-228.60L-233.97,-236.04L-214.45,-245.94L-207.53,-248.64L-185.22,-254.81L-166.42,-257.61L-151.07,-261.32L-129.57,-259.89L-103.55,-256.78L-82.13,-251.90L-59.82,-248.78L-41.07,-243.24L-6.15,-235.68L29.49,-233.38L50.35,-230.97L58.52,-228.53L84.54,-216.13L92.28,-210.47L99.84,-202.66L120.52,-189.34L146.02,-166.29L164.47,-146.74L176.44,-136.11L184.06,-123.38L196.63,-108.50L203.92,-92.94L211.16,-80.42L212.98,-74.44L216.79,-54.59L222.50,-39.60L225.07,-27.21L227.43,19.78L226.84,37.06L223.84,48.60L221.83,52.52L218.88,55.96L205.40,66.80L192.14,81.40" />
        <path d="M-276.78,-199.43L-273.56,-205.24L-260.47,-215.68L-253.43,-222.90L-244.28,-235.76L-238.67,-242.01L-229.63,-248.16L-209.59,-258.08L-197.22,-259.80L-163.11,-261.36L-151.49,-263.15L-124.71,-264.01L-68.36,-262.55L-56.56,-261.16L-21.42,-254.89L7.90,-247.50L35.90,-242.65L56.19,-238.23L76.52,-232.85L93.46,-226.38L102.69,-220.92L119.42,-208.75L146.87,-178.75L159.97,-168.18L180.88,-148.96L198.27,-130.09L202.90,-123.98L217.36,-96.69L222.66,-77.27L227.11,-64.97L230.02,-51.05L231.64,-22.17L235.42,0.80L234.97,32.48L231.34,47.01L228.19,53.28L224.20,58.60L216.77,65.01L181.44,89.56L151.36,102.95L132.28,108.53L110.85,110.84L92.35,114.07L65.48,114.63L44.93,114.77L4.00,111.05L-13.86,110.60" />
        <path d="M149.52,-120.70L159.22,-121.24L182.68,-114.80L201.00,-107.11L209.13,-101.65L221.24,-87.94L226.99,-78.68L238.61,-65.87L240.77,-61.47L243.15,-53.54L249.07,-44.32L253.47,-35.31L254.79,-27.48L254.90,-17.23L251.32,6.02L247.77,44.72L245.95,53.95L244.08,59.26L241.66,63.21L232.59,73.42L221.38,87.91L214.26,101.85L196.13,115.84L189.14,119.78L179.13,127.06L155.55,134.91L143.02,136.33L95.03,135.09L69.28,131.12L45.76,124.15L8.26,123.37L-20.87,116.72L-39.33,115.33L-53.53,113.01L-56.93,113.11L-58.42,114.57" />
        <path d="M-448.03,145.41L-455.33,149.00L-454.62,147.78L-448.03,145.41" />
        <path d="M-198.35,79.38L-217.06,84.90L-250.93,90.76L-285.01,91.74L-292.42,92.76L-312.40,100.67L-332.62,104.20L-363.34,115.36L-380.25,118.34L-397.43,125.13L-414.28,128.71L-426.30,134.67L-432.64,139.50L-448.03,145.41L-429.58,143.09L-412.72,139.25L-370.92,134.14L-355.84,131.08L-312.11,129.20L-279.27,124.37L-262.90,123.07L-246.06,118.98L-222.16,115.78L-202.85,115.09L-170.49,111.52L-131.83,105.41L-116.04,104.10L-95.65,99.45L-80.16,97.71L-78.34,98.11" />
      </g>
      <g id="f5" transform="translate(-336.64 -346.03)" style="--index:5; opacity:0;" class="frame">
        <path d="M-221.75,60.71L-227.28,55.40L-235.55,45.02L-246.18,35.73L-257.41,24.05L-288.54,-2.80L-293.25,-7.94L-308.52,-28.15L-326.16,-62.37L-327.85,-69.57L-331.18,-97.89L-330.91,-120.00L-327.76,-141.29L-321.31,-163.20L-315.48,-175.10L-308.37,-184.75L-282.25,-211.38L-274.09,-218.49L-252.37,-231.58L-242.74,-238.49L-235.57,-241.69L-211.33,-248.59L-182.52,-254.03L-138.87,-256.36L-125.33,-258.04L-103.98,-257.24L-19.84,-248.14L33.27,-234.37L65.81,-224.37L85.69,-215.52L96.09,-209.42L139.23,-176.22L154.61,-160.87L177.26,-136.27L196.53,-103.13L201.09,-87.26L207.69,-69.21L220.08,2.00L220.07,8.16L217.44,31.04L212.25,47.87L207.20,55.80L196.38,65.94L175.18,80.55L161.41,92.30L150.30,98.31L129.66,107.70L115.75,112.73L97.06,122.14L76.28,127.95L61.04,134.25L48.66,137.30L29.41,143.43L1.16,148.63L-17.16,149.72L-56.38,147.98L-71.78,146.03L-93.31,141.98L-143.52,135.54L-165.38,134.51L-225.34,134.85L-261.87,136.57L-330.37,137.75L-350.71,139.64L-386.53,140.75L-402.52,143.76L-412.92,143.83L-400.45,142.57L-376.51,134.21L-367.40,130.54L-354.30,123.82L-340.10,119.55L-322.03,110.70L-316.33,108.71L-280.45,98.93L-265.80,93.71L-246.75,88.80L-228.85,76.85L-225.57,73.68L-222.60,69.38L-220.54,64.21L-221.75,60.71" />
        <path d="M-207.89,65.36L-215.08,65.10L-218.74,63.10L-221.75,60.71L-226.15,55.34L-252.47,36.93L-270.55,17.84L-285.21,-1.58L-289.41,-8.32L-298.53,-33.25" />
        <path d="M195.86,-77.43L202.08,-73.10L207.63,-66.60L211.66,-60.44L216.57,-47.47L220.36,-40.54L225.91,-22.99L228.57,-3.14L229.14,7.24L228.12,19.23L225.65,28.33L225.39,37.10L224.31,41.82L218.11,46.20L207.21,61.63L200.42,69.17L196.43,71.86L173.79,80.45L158.52,89.19L142.60,96.21L126.91,107.08L111.42,113.55L97.35,121.23L87.52,123.42L75.53,124.25L68.30,123.89" />
        <path d="M-423.88,149.12L-418.20,152.45L-409.73,152.61L-404.36,151.45L-389.86,143.83L-363.74,136.77L-337.72,134.07L-324.81,135.38L-318.78,134.77L-299.16,126.15L-275.28,118.47L-255.55,114.36L-244.37,109.72L-230.80,105.78L-212.14,95.66L-200.65,92.48L-185.56,86.14" />
        <path d="M-422.86,148.86L-422.86,148.86" />
        <path d="M-305.22,123.46L-310.74,127.28L-329.10,128.70L-344.82,133.82L-363.35,136.05L-398.50,149.44L-417.90,149.68L-422.86,148.86" />
        <path d="M-411.62,153.52L-404.43,151.67L-380.13,151.72L-371.64,151.04L-338.31,142.06L-322.69,139.69L-286.71,131.13L-276.23,125.50L-256.58,117.83L-241.09,109.50L-224.64,105.03L-219.08,102.15L-214.34,98.34L-203.08,86.81L-187.52,78.26L-174.68,67.32L-152.68,53.89L-133.40,34.95L-119.54,31.17" />
        <path d="M-319.87,-142.23L-316.99,-148.07L-303.51,-169.77L-286.91,-208.98L-276.85,-227.64L-267.60,-236.77L-258.93,-242.29L-250.82,-246.03L-240.76,-248.74L-204.29,-252.68L-164.47,-254.96L-121.37,-261.00L-97.02,-262.12L-82.82,-261.92L-62.86,-263.41L-22.52,-260.97L-9.22,-258.18L10.53,-251.56L32.42,-240.47L79.20,-220.03L98.93,-212.23L118.06,-200.75L133.13,-188.95L162.58,-155.70L180.42,-139.56L188.34,-122.02L198.33,-106.19L199.70,-101.20L201.84,-83.47L205.12,-72.80L207.34,-61.47L212.14,-49.22L220.10,-33.86L225.38,-17.59L224.44,-3.45L224.64,11.04L221.32,24.68L216.04,32.53L205.36,52.01L199.84,59.29L192.25,67.76L170.71,86.65" />
        <path d="M115.28,-152.68L122.78,-154.51L130.03,-154.50L142.37,-152.93L148.70,-151.34L155.43,-148.61L163.33,-141.54L170.38,-136.69L173.99,-132.91L181.01,-120.74L192.11,-109.70L197.04,-103.15L202.19,-90.10L212.71,-73.60L215.96,-65.98L221.65,-35.31L222.37,-24.87L219.98,1.80L214.66,28.89L212.49,35.96L205.39,43.66L201.22,46.21L172.38,56.97L163.14,59.51" />
        <path d="M-88.41,132.73L-81.82,130.85L-26.61,125.28L13.34,124.65L53.09,120.74L79.39,122.69L92.92,121.85L106.44,119.64L126.01,120.80L139.72,123.05L152.82,123.84L167.17,121.73L181.01,116.93L195.20,107.87L207.88,102.78L212.43,99.91L230.10,78.53L237.77,59.54L239.59,52.18L240.23,42.42L243.39,22.92L242.33,2.16L240.74,-3.51L234.06,-17.27L230.19,-33.52L221.10,-45.79L217.69,-52.36L214.92,-63.02L214.46,-79.11L211.80,-87.99L199.35,-108.06L174.14,-131.28L153.85,-145.99L141.35,-152.91L133.26,-155.90L118.79,-157.65L107.07,-157.90L37.55,-153.01L2.01,-146.15" />
      </g>
      <g id="f6" transform="translate(-336.64 -346.03)" style="--index:6; opacity:0;" class="frame">
        <path d="M-223.50,71.50L-231.07,60.96L-237.70,49.65L-268.80,19.76L-287.96,-2.80L-294.63,-21.95L-306.30,-41.79L-318.23,-70.07L-320.73,-81.57L-321.91,-96.21L-324.30,-111.57L-324.74,-123.70L-322.12,-145.74L-315.00,-166.52L-307.30,-180.94L-297.46,-195.97L-292.47,-202.90L-279.24,-217.93L-271.96,-224.90L-242.11,-243.69L-212.60,-253.13L-205.04,-254.86L-151.84,-257.01L-124.13,-256.05L-76.66,-251.35L-21.31,-241.42L17.26,-233.13L56.30,-221.57L68.31,-216.32L111.73,-191.71L156.83,-157.79L173.94,-142.05L181.59,-133.45L195.32,-109.42L197.16,-104.62L201.98,-83.68L216.28,-49.77L225.69,-30.49L236.90,10.98L237.38,18.22L236.59,26.06L233.30,37.43L230.50,41.68L221.98,52.07L208.38,63.27L196.77,75.10L191.06,79.46L175.08,88.30L163.85,93.08L145.02,99.50L131.54,105.51L126.65,107.08L111.36,109.81L92.92,116.53L68.28,121.26L51.16,121.99L33.18,124.71L15.16,126.15L-9.70,126.52L-46.08,129.90L-84.89,130.13L-99.91,131.69L-123.67,132.65L-164.34,130.95L-221.92,134.67L-280.12,139.04L-302.10,141.76L-324.21,145.78L-360.47,149.36L-382.52,154.42L-401.03,156.38L-425.60,156.08L-424.69,154.61L-421.54,152.65L-408.06,148.16L-387.18,137.75L-372.75,132.97L-358.94,125.12L-336.68,117.27L-321.14,109.29L-304.80,103.00L-291.20,96.36L-262.48,85.66L-247.00,81.04L-223.50,71.50" />
        <path d="M-211.41,68.98L-219.29,74.91L-221.42,74.66L-223.50,71.50L-215.56,67.40L-213.03,64.99L-210.26,61.41L-209.72,59.72L-210.29,58.27L-217.62,52.40L-230.15,46.89L-243.85,38.24L-248.41,34.26L-257.59,20.62" />
        <path d="M-310.25,-145.08L-315.12,-149.42L-312.52,-164.54L-312.25,-176.27L-309.47,-185.52L-298.07,-201.73L-282.45,-217.19L-269.46,-231.96L-262.80,-237.77L-257.01,-241.68L-245.61,-247.50L-237.91,-253.16L-215.49,-262.32L-192.60,-261.53L-173.96,-265.75L-159.75,-265.35L-145.48,-268.24L-130.56,-267.38L-118.63,-268.24L-105.50,-266.00L-94.07,-267.76L-82.28,-266.05L-72.07,-267.60L-66.52,-267.54L-56.27,-265.29L-43.38,-264.40L6.60,-254.84L51.13,-239.84L62.80,-237.48L79.03,-231.98L106.95,-216.77L137.97,-201.26L145.25,-196.24L153.99,-186.03L175.50,-167.64L181.29,-161.74L189.54,-148.90L199.02,-137.29L208.06,-122.18L218.25,-108.56L223.23,-91.27L223.35,-87.69L225.78,-82.86L226.59,-75.01L231.34,-66.07L234.17,-54.02L239.32,-20.25L238.54,-8.00L239.49,6.06L238.60,8.56L229.96,16.87L223.13,29.90L215.34,38.97L208.43,49.02L205.30,52.49L197.34,57.89" />
        <path d="M-297.48,-38.99L-297.28,-32.17L-295.48,-25.61L-295.05,-11.04L-291.84,12.10L-290.25,15.05L-282.91,21.94L-276.44,25.77L-271.93,30.42L-258.10,41.64L-251.32,45.23L-238.20,49.92L-230.19,59.29L-220.56,66.41L-168.40,83.74L-156.28,85.66L-154.86,87.62" />
        <path d="M-166.04,115.56L-152.98,118.61L-133.32,126.04L-98.83,132.53L-61.10,133.90L-28.29,137.74L-5.43,137.00L12.32,138.50L28.19,135.87L64.53,132.83L77.71,128.48L97.21,126.41L121.73,121.55L134.41,117.22L154.08,112.93L192.76,100.42L200.31,95.81L215.19,78.25L216.57,74.39L219.02,61.07L224.11,46.66L223.67,38.77L221.17,28.09L218.47,6.04L215.13,-5.82L206.73,-27.40L203.58,-44.09L201.73,-47.31" />
      </g>
      <g id="f7" transform="translate(-336.64 -346.03)" style="--index:7; opacity:0;" class="frame">
        <path d="M-273.07,-3.41L-277.24,-11.04L-285.92,-21.13L-290.76,-29.08L-311.35,-68.63L-316.87,-82.63L-318.13,-92.47L-318.44,-122.03L-312.68,-163.75L-308.06,-179.07L-304.23,-186.39L-294.64,-199.79L-279.76,-215.57L-273.60,-220.54L-254.99,-229.47L-241.25,-238.43L-213.58,-246.35L-185.16,-252.08L-153.33,-254.45L-130.15,-252.74L-73.71,-246.53L-45.20,-242.19L-32.88,-239.29L51.77,-213.97L95.40,-196.38L108.14,-189.98L118.75,-183.23L134.43,-171.50L154.11,-151.06L173.34,-121.31L191.80,-88.77L202.94,-66.24L213.92,-40.72L226.22,-18.33L233.30,4.27L234.54,12.84L234.21,18.40L231.88,30.47L228.53,41.82L225.78,47.27L219.77,55.08L195.60,74.23L161.41,91.20L143.73,96.39L123.79,104.40L109.91,107.93L93.18,113.58L72.48,118.12L54.43,120.24L34.96,123.85L8.78,126.57L-68.65,130.32L-82.93,130.08L-125.48,133.01L-164.82,132.48L-245.88,133.55L-275.72,135.28L-327.64,140.65L-365.88,142.49L-402.04,150.00L-419.87,151.66L-431.40,154.16L-432.10,153.94L-431.75,153.13L-419.23,145.62L-374.43,126.86L-359.21,118.28L-335.98,109.22L-325.81,103.25L-307.25,95.56L-290.13,87.16L-271.22,82.12L-255.06,75.11L-243.64,71.55L-222.98,63.43L-215.68,59.01L-213.24,55.06L-221.11,43.94L-234.60,30.12L-248.54,18.43L-265.54,5.59L-273.07,-3.41" />
        <path d="M-224.79,55.02L-231.40,55.36L-232.79,54.67L-236.17,47.27L-244.55,39.12L-247.98,34.74L-254.26,21.01L-265.49,10.67L-268.78,6.43L-273.07,-3.41L-285.88,-21.54L-288.55,-32.01L-289.34,-43.83" />
        <path d="M-206.93,54.36L-213.20,57.86L-212.27,55.45" />
        <path d="M-214.91,80.26L-219.01,75.34L-220.28,60.76L-229.57,47.76L-234.60,43.63L-248.59,35.13L-256.43,26.81L-264.44,21.47L-271.91,14.13L-281.97,-3.00L-296.97,-18.32L-300.78,-25.69L-301.55,-28.81L-307.84,-39.07L-309.18,-50.48L-319.70,-70.27L-321.69,-104.07L-323.14,-112.80L-322.39,-131.89L-319.26,-157.14L-316.66,-168.47L-306.11,-200.91L-296.83,-217.12L-287.54,-226.66L-267.27,-238.85L-255.33,-249.08L-238.76,-255.03L-221.12,-257.60L-211.72,-259.86L-198.98,-258.50L-187.95,-258.71L-166.19,-262.85L-154.53,-266.06L-141.60,-266.42L-122.84,-269.40L-112.46,-269.90L-79.07,-261.23L-68.00,-261.85L-41.96,-259.31L-26.93,-255.28L-14.63,-253.66L34.90,-237.91L48.96,-231.41L65.04,-225.96L101.68,-210.59L118.77,-199.52L124.23,-194.41L160.61,-174.72L171.02,-166.02L185.65,-156.30L191.78,-149.29L204.95,-136.58L207.21,-132.49L211.24,-118.38L221.09,-104.70L223.52,-100.13L227.53,-81.72L231.85,-75.95L233.91,-70.74L238.64,-63.25L247.98,-39.51L250.07,-30.15L250.54,-12.28L246.93,19.83L244.53,31.04L242.32,37.77L228.46,60.37L222.35,67.11L217.79,70.06L201.65,74.89L167.58,92.24L141.28,102.19L133.18,107.29L116.02,110.79L112.06,111.04L95.05,109.01L80.52,105.33L66.77,108.47L51.51,107.66L37.49,105.31L3.32,97.50" />
        <path d="M-141.27,127.15L-110.70,130.36L-83.82,137.64L-78.76,138.15L-69.81,137.62L-59.20,135.59L-40.83,136.79L-9.79,132.06L10.47,130.24L37.59,124.85L52.85,119.07L79.76,114.87L101.21,114.10L127.39,107.40L144.31,98.01L170.86,92.01L185.02,89.69L207.29,82.33L213.92,77.69L224.84,64.53L233.35,50.28L236.79,41.57L236.29,22.77L230.65,7.04L229.33,-5.03" />
      </g>
      <g id="f8" transform="translate(-336.64 -346.03)" style="--index:8; opacity:0;" class="frame">
        <path d="M-257.37,43.20L-263.38,33.56L-289.89,3.26L-292.52,-1.46L-296.90,-15.60L-300.74,-24.50L-307.19,-35.24L-322.51,-65.08L-324.55,-75.69L-326.76,-128.72L-326.50,-139.70L-324.21,-157.79L-321.75,-170.27L-316.05,-188.70L-308.32,-203.46L-302.46,-211.31L-271.89,-241.85L-262.33,-249.11L-245.92,-255.87L-235.13,-261.39L-227.98,-263.66L-208.66,-267.66L-147.03,-273.22L-68.06,-269.62L-26.90,-260.43L7.16,-254.74L18.17,-251.92L67.27,-235.89L98.73,-222.26L122.78,-209.21L140.52,-198.08L156.95,-186.27L191.15,-165.36L199.24,-158.14L205.50,-151.01L213.67,-134.48L223.56,-116.99L238.13,-78.68L241.51,-67.82L247.45,-38.42L247.99,-31.07L245.82,-7.80L243.84,2.14L239.20,16.53L231.94,28.98L226.51,36.20L214.28,48.35L192.77,65.90L176.16,74.54L163.06,82.87L139.97,93.08L129.58,99.48L102.03,109.12L70.16,116.64L37.66,120.91L-4.21,124.39L-39.08,129.67L-81.39,131.91L-102.70,134.93L-142.76,137.47L-193.34,143.26L-237.08,144.96L-265.65,144.23L-309.44,141.54L-351.59,142.90L-389.00,142.65L-410.67,143.88L-419.33,145.42L-420.94,144.65L-421.35,143.01L-420.03,138.35L-417.69,136.24L-413.02,133.83L-387.71,126.69L-370.23,123.21L-356.43,118.32L-339.09,113.45L-326.17,108.11L-303.76,102.41L-251.84,84.65L-234.73,78.02L-216.65,73.48L-202.55,65.79L-197.84,65.86L-233.42,54.55L-248.50,48.65L-257.37,43.20" />
        <path d="M-236.37,63.31L-250.20,53.69L-253.21,50.45L-257.37,43.20L-270.99,35.94L-278.02,31.01L-287.74,21.49L-294.19,13.88L-298.16,6.71L-301.39,-5.12L-301.73,-14.93L-300.83,-28.16" />
        <path d="M234.24,-89.53" />
        <path d="M-289.29,-190.84L-294.78,-186.08L-301.27,-177.34L-315.81,-155.20L-324.45,-140.31L-325.91,-135.72L-326.37,-128.43L-325.29,-116.10L-330.08,-89.36L-326.53,-63.33L-326.53,-52.44L-325.13,-47.36L-315.42,-31.43L-310.45,-15.43L-291.94,0.15L-279.83,7.72L-268.46,16.07L-259.57,21.01L-250.28,24.71L-206.35,38.43L-146.37,68.89L-136.91,72.82L-116.28,79.38L-100.93,86.63L-90.64,90.06" />
        <path d="M-266.19,20.84L-261.51,30.60L-258.68,41.88L-255.67,48.32L-249.16,55.45L-234.49,69.07L-217.37,77.13L-177.92,91.10L-167.93,92.34L-157.24,91.60L-148.14,92.21L-113.63,91.71L-100.75,89.98L-82.81,89.10L-56.19,84.48" />
        <path d="M-463.42,155.13L-470.72,155.16L-467.09,156.23L-463.42,155.13" />
        <path d="M-457.36,153.48L-463.42,155.13L-457.36,153.48" />
        <path d="M-401.85,136.62L-409.72,138.78L-433.60,140.63L-442.83,142.33L-448.98,145.96L-457.36,153.48L-443.11,147.14L-436.40,145.48L-406.39,140.00L-388.59,135.53L-370.53,135.03L-357.15,129.06L-335.90,122.48" />
        <path d="M-154.74,128.09L-147.30,130.46L-129.57,130.45L-108.98,128.88L-57.73,130.75L-22.91,137.26L6.25,138.76L21.99,135.41L36.73,133.69L48.82,130.95L66.18,128.95L78.50,125.78L97.75,123.38L150.26,111.72L156.05,110.18L168.76,104.76L187.76,99.92L201.56,94.02L209.71,88.25L218.78,78.05L228.37,64.39L234.85,50.58L238.71,36.62L239.36,28.21L243.65,6.19L244.12,-0.33L248.29,-15.79L250.40,-31.99L251.38,-51.00L249.89,-57.22L247.58,-59.81" />
      </g>
      <g id="f9" transform="translate(-336.64 -346.03)" style="--index:9; opacity:0;" class="frame">
        <path d="M-425.44,146.73L-434.05,147.07L-431.91,147.49L-425.44,146.73" />
        <path d="M-217.09,62.64L-229.93,49.41L-248.99,39.30L-275.96,18.91L-295.30,8.38L-306.84,0.32L-314.46,-6.24L-319.74,-13.32L-329.93,-33.78L-331.63,-40.72L-331.68,-45.81L-330.16,-56.73L-323.51,-86.43L-317.89,-140.18L-314.12,-152.05L-306.03,-165.01L-288.66,-186.16L-272.10,-200.56L-258.95,-215.12L-252.23,-220.32L-234.96,-225.55L-215.96,-234.61L-199.14,-238.04L-184.77,-242.93L-157.92,-248.24L-127.34,-252.52L-90.58,-252.65L-64.83,-255.60L-42.52,-254.83L-22.69,-253.01L-11.15,-250.78L18.45,-241.69L53.94,-234.31L67.07,-230.21L87.41,-221.72L106.68,-215.43L116.03,-210.77L136.46,-194.39L169.51,-173.76L185.39,-160.52L198.60,-146.54L226.39,-122.18L229.94,-117.92L244.56,-94.37L247.10,-87.73L250.05,-72.11L257.10,-53.58L258.60,-41.88L258.66,-30.37L249.71,8.38L247.99,23.86L248.45,45.80L247.62,56.16L244.09,69.38L240.86,75.02L232.71,82.82L215.24,93.71L188.30,103.04L158.40,117.68L151.03,120.40L135.93,122.53L120.63,126.02L114.37,126.56L75.81,126.27L43.52,131.71L25.91,132.94L9.87,137.46L-0.77,139.06L-16.90,139.09L-33.45,138.05L-77.07,140.29L-119.77,137.61L-136.54,137.25L-158.94,139.17L-178.68,138.88L-196.41,136.79L-216.95,135.49L-251.34,131.06L-307.29,129.14L-333.29,132.09L-345.42,134.39L-364.93,135.78L-383.82,139.66L-399.44,145.24L-407.31,147.14L-425.44,146.73L-406.02,142.56L-388.31,135.44L-367.47,129.15L-355.57,123.07L-341.35,117.63L-322.68,107.20L-303.71,100.65L-293.55,96.03L-267.87,87.49L-236.86,68.56L-226.44,67.66L-217.09,62.64" />
        <path d="M-206.99,64.64L-214.94,64.14L-222.17,57.45L-225.78,55.71L-228.25,52.90L-230.00,52.26L-230.41,52.82" />
        <path d="M-318.54,-42.81L-323.73,-46.15L-329.17,-52.70L-331.00,-58.84L-336.02,-69.05L-340.09,-83.16L-342.36,-96.98L-338.83,-110.20L-332.40,-126.98L-328.65,-133.98L-321.37,-144.66L-303.69,-167.90L-288.27,-185.86L-255.36,-210.76L-247.24,-214.77L-234.95,-219.14L-224.62,-221.68L-190.59,-235.50L-183.59,-237.58" />
        <path d="M-266.05,14.05L-255.07,22.26L-250.62,26.89L-238.39,53.73L-236.80,63.86L-235.43,67.51L-227.93,77.91L-216.10,87.74L-195.55,93.68L-181.13,91.85L-163.32,90.86L-157.31,89.47L-131.54,80.11L-121.77,78.32" />
        <path d="M-257.23,18.96L-247.78,35.72L-240.15,53.94L-236.03,73.13L-234.79,90.99L-233.18,97.33L-230.73,101.82L-224.98,105.50L-213.69,109.09L-204.05,109.30L-186.85,107.50L-159.51,107.50" />
        <path d="M-397.72,147.81L-392.85,142.35L-387.40,140.05L-369.59,138.44L-338.60,133.11L-332.69,133.14L-314.92,136.42L-292.19,136.90L-277.54,135.47L-255.27,134.96L-239.55,132.28L-207.51,125.24L-193.50,120.17L-174.30,115.81L-158.89,109.06L-141.93,103.72L-128.60,97.66L-109.06,90.63L-55.80,67.05L-35.13,56.15L-17.68,50.65L-6.20,45.68L15.74,39.06L28.85,32.10L45.87,26.63" />
        <path d="M-330.40,-110.13L-332.27,-116.73L-331.35,-123.85L-322.00,-162.84L-317.18,-176.99L-309.88,-187.16L-274.31,-225.48L-268.98,-229.53L-241.43,-244.74L-225.79,-249.05L-206.52,-256.84L-189.44,-260.61L-176.26,-264.95L-164.17,-267.10L-150.94,-271.00L-146.91,-271.49L-125.33,-271.64L-98.11,-270.40L-71.29,-267.45L-41.66,-261.57L-23.15,-256.61L-5.09,-250.71L9.97,-243.65L20.70,-237.87L40.58,-223.61L67.59,-196.79L117.35,-157.08L127.71,-146.62L130.80,-141.50L133.88,-132.59" />
      </g>
      <g id="f10" transform="translate(-336.64 -346.03)" style="--index:10; opacity:0;" class="frame">
        <path d="M-246.14,65.61L-241.73,70.89" />
        <path d="M-233.90,62.41L-235.39,56.20L-234.78,55.89" />
        <path d="M-234.67,55.90L-232.70,49.64L-236.67,44.32L-241.58,41.49L-253.90,38.00L-272.99,29.23L-275.82,27.23L-299.50,2.73L-309.06,-8.40L-313.03,-15.57L-317.64,-28.68L-329.45,-46.78L-332.30,-53.43L-342.33,-79.24L-345.08,-89.73L-345.54,-94.36L-344.21,-109.22L-338.14,-128.30L-329.61,-145.25L-317.91,-162.72L-282.92,-199.18L-278.29,-202.87L-262.10,-212.65L-252.39,-220.12L-242.20,-225.06L-212.84,-235.06L-184.85,-240.85L-163.40,-242.71L-141.36,-242.71L-102.38,-245.84L-78.94,-244.90L-48.74,-241.12L-26.40,-237.90L44.05,-224.96L72.82,-217.50L114.63,-204.55L162.66,-185.38L170.89,-181.34L189.83,-168.65L211.20,-152.49L228.51,-128.33L232.21,-121.92L236.70,-104.20L242.48,-87.01L246.42,-59.09L252.76,-39.43L255.11,-29.57L255.87,-4.34L251.26,15.20L248.62,34.11L239.72,63.19L231.54,73.50L220.79,83.42L202.95,91.25L184.61,101.37L157.67,109.60L142.02,110.02L126.02,112.28L110.40,112.54L95.28,116.77L77.26,119.82L56.56,120.92L38.09,125.17L4.17,127.98L-4.35,129.57L-17.70,133.86L-34.52,135.26L-44.74,137.16L-60.46,137.72L-74.00,140.51L-102.46,140.24L-125.68,138.17L-138.28,137.97L-153.59,140.19L-171.48,139.90L-209.40,143.88L-242.15,145.71L-279.65,143.92L-320.53,145.60L-362.02,142.54L-387.72,142.14L-420.22,145.30L-447.40,149.75L-458.14,152.49L-471.40,153.59L-473.01,153.08L-460.76,151.15L-446.66,145.59L-427.28,141.71L-410.97,134.75L-358.43,116.92L-336.02,113.08L-324.10,108.25L-303.36,103.80L-284.73,96.99L-266.83,86.63L-251.37,81.76L-234.21,72.44L-231.39,68.11L-230.81,65.68L-231.74,60.65L-234.67,55.90" />
        <path d="M-249.41,71.16L-243.90,68.35L-236.77,59.73L-234.67,55.90L-246.94,37.60L-251.23,34.87L-255.71,30.41L-268.96,25.62L-271.60,22.24L-270.02,20.46" />
        <path d="M-231.00,93.38L-239.74,71.78L-247.76,56.92L-256.60,26.84L-256.71,20.55L-254.08,4.52L-249.99,-12.00L-237.56,-27.19L-225.68,-35.40L-209.01,-41.59L-196.94,-45.08L-179.20,-46.96L-173.57,-48.46L-146.26,-71.43" />
        <path d="M-246.94,97.35L-254.07,76.77L-255.54,69.97L-254.72,44.83L-258.75,26.67L-264.10,-6.10L-263.61,-16.99L-261.67,-27.86L-256.90,-43.38L-252.61,-51.31L-247.77,-58.87L-241.93,-64.95L-217.32,-82.37L-204.11,-93.70L-187.58,-104.47L-172.03,-116.50L-158.42,-124.24L-134.38,-141.17L-110.76,-154.17L-101.26,-158.56" />
        <path d="M-324.28,-144.48L-311.19,-187.58L-300.48,-202.41L-296.05,-207.07L-274.47,-225.78L-269.47,-228.50L-254.29,-233.22L-241.19,-240.44L-236.30,-242.00L-213.25,-245.98L-196.40,-246.45L-183.61,-247.87L-142.15,-247.94L-130.63,-249.42L-113.94,-250.12L-93.45,-252.97L-65.05,-252.80L-47.73,-254.38L-33.41,-252.46L-13.30,-251.47L10.80,-244.13L23.75,-241.03L44.15,-231.42L61.55,-221.33L73.76,-212.46L89.56,-203.22L112.03,-184.18L119.84,-174.19L135.33,-156.77L150.81,-140.96L161.72,-127.19L170.32,-118.97" />
      </g>
      <g id="f11" transform="translate(-336.64 -346.03)" style="--index:11; opacity:0;" class="frame">
        <path d="M-218.71,69.07L-220.76,63.30L-237.01,46.48L-250.30,37.79L-268.60,24.20L-289.97,5.94L-293.13,3.07L-308.42,-15.45L-310.61,-18.94L-327.98,-58.56L-331.79,-74.70L-334.44,-99.02L-333.69,-128.49L-329.28,-154.26L-320.38,-184.68L-316.00,-194.51L-310.20,-204.48L-302.74,-212.83L-274.19,-231.69L-243.58,-243.81L-237.43,-245.41L-223.31,-247.59L-209.87,-251.07L-179.16,-255.83L-150.81,-257.62L-83.33,-259.29L-66.34,-261.24L-42.25,-262.35L-17.13,-259.59L13.04,-252.29L41.04,-243.71L71.32,-228.68L88.31,-218.14L97.01,-210.73L122.37,-184.27L153.72,-160.20L164.62,-147.80L183.52,-135.29L202.23,-120.56L209.54,-113.01L221.56,-102.44L237.31,-81.65L250.84,-58.61L255.27,-46.81L257.12,-37.21L257.80,-27.45L257.45,-4.26L256.49,5.39L253.75,16.92L247.09,37.59L239.50,51.39L217.73,78.73L193.25,100.48L187.58,104.50L180.62,107.77L151.63,118.82L137.56,120.33L119.70,124.70L98.28,126.25L81.63,126.01L24.47,127.92L8.61,129.73L-15.37,130.54L-29.96,130.20L-45.88,131.99L-98.53,134.23L-119.50,132.55L-143.91,128.08L-159.34,126.13L-192.29,124.35L-237.96,128.89L-273.67,130.96L-291.42,133.16L-332.67,134.91L-344.26,136.87L-363.97,138.80L-388.80,143.64L-406.88,148.20L-416.32,149.25L-417.19,149.06L-416.88,148.31L-415.41,147.17L-402.39,142.54L-387.99,135.54L-368.54,129.07L-356.28,123.69L-339.68,118.75L-323.47,111.59L-306.55,106.66L-267.99,91.08L-250.14,85.35L-224.98,73.44L-220.64,71.19L-218.71,69.07" />
        <path d="M-219.46,75.96L-217.98,67.05L-218.47,63.86L-221.44,55.15L-226.01,45.34L-226.39,40.92" />
        <path d="M72.92,-187.26L79.51,-190.22L96.76,-195.11L105.22,-195.63L130.33,-188.91L150.98,-182.43L156.33,-178.80L169.65,-166.55L179.14,-152.55L191.53,-137.90L199.30,-125.38L208.07,-105.97L217.26,-93.76L223.67,-82.85L238.29,-66.15L247.07,-51.03L265.71,-29.15L266.91,-24.98" />
        <path d="M-373.44,135.95L-344.79,137.21L-331.21,136.46L-320.24,137.00L-265.94,144.64L-239.10,146.77L-199.98,147.21L-185.61,148.49L-181.04,148.43L-156.62,144.89L-116.44,136.13L-99.57,134.06L-84.94,128.17L-68.49,124.20L-51.80,115.83L-36.10,110.20L-20.62,103.22L0.92,95.47L41.72,72.57L72.49,59.73L99.08,50.38L115.03,45.66L135.12,37.19L148.74,33.66" />
      </g>
    </g>
    <g id="t1" transform="translate(-158.33 -175.71)" class="thread">
      <g id="f0" style="--index:0; opacity:1;" class="frame">
        <path d="M132.06,211.57L130.77,201.78L116.95,178.01L113.54,173.85L90.10,154.38L76.73,144.97L51.69,131.33L36.15,125.47L13.64,119.58L8.76,119.00L-25.34,119.77L-41.07,118.98L-59.02,121.04L-74.17,120.98L-95.28,123.81L-107.32,123.10L-118.22,119.77L-133.68,112.74L-142.97,106.63L-178.78,79.14L-198.77,67.11L-208.01,62.40L-213.63,61.09L-233.85,59.81L-249.95,62.12L-264.78,62.82L-276.32,65.30L-282.59,64.94L-296.40,60.21L-314.23,50.76L-330.63,47.75L-337.84,43.80" />
        <path d="M-352.86,-117.00L-346.11,-123.20L-324.77,-134.88L-306.93,-139.72L-289.29,-142.62L-271.31,-142.85L-262.70,-142.03L-250.88,-138.70L-241.05,-133.56L-235.61,-131.85" />
        <path d="M-237.55,-129.06L-227.52,-126.27L-216.39,-119.51L-186.73,-105.23L-172.39,-100.71L-160.49,-98.54L-125.47,-94.62L-76.80,-97.64L-53.90,-100.28L-40.86,-100.27L-9.91,-97.69L0.39,-95.79L42.39,-82.78L65.55,-77.61L82.07,-72.74L95.78,-66.52L112.30,-55.57L122.96,-49.61L137.03,-39.70L147.73,-36.10L169.44,-31.60L174.71,-29.54" />
        <path d="M169.67,-27.95L176.18,-29.45L186.77,-29.88" />
        <path d="M-106.14,121.58L-108.05,111.60L-112.83,95.79L-115.81,75.37L-119.65,65.46L-119.71,56.85" />
      </g>
    </g>
    <g id="t2" transform="translate(-105.65 -0.60) scale(0.75 0.75) rotate(-346.06)" class="thread">
      <g id="f0" transform="translate(-126.85 -130.53)" style="--index:0; opacity:1;" class="frame">
        <path d="M-36.95,-8.75L-41.36,1.24L-47.76,8.48L-49.82,8.74L-48.02,3.18L-36.95,-8.75" />
        <path d="M-124.90,117.81L-127.75,109.67L-133.47,98.26L-137.42,83.73L-142.87,70.88L-143.84,62.32L-148.59,51.65L-151.15,40.28L-151.55,15.08L-147.54,-7.70L-144.20,-19.34L-139.99,-27.90L-130.51,-38.48L-115.44,-51.46L-109.81,-54.58L-90.98,-60.09L-81.29,-60.61L-56.14,-56.39L-41.40,-50.55L-38.31,-47.79L-32.32,-39.55L-30.81,-32.36L-31.68,-25.06L-36.95,-8.75L-31.46,-14.60L-23.90,-20.66L-14.55,-25.55L-6.44,-27.06L5.36,-24.74L13.44,-21.12L19.00,-17.30L29.58,-5.07L34.80,2.81L38.05,17.01L38.34,23.20L37.69,27.49L34.27,35.99L28.55,43.49L14.61,54.30L-1.67,64.73L-14.81,74.89L-23.01,79.75L-45.10,90.85L-55.12,94.36L-70.31,101.99L-118.69,118.74L-126.73,122.65L-127.61,122.19L-128.24,119.68L-127.87,117.49" />
      </g>
      <g id="f1" transform="translate(-126.85 -130.53)" style="--index:1; opacity:0;" class="frame">
        <path d="M-127.02,121.68L-120.53,118.54L-88.55,109.58L-52.32,97.76L-24.95,85.58L-1.69,71.82L14.62,61.13L24.79,52.31L35.95,37.14L38.06,28.95L37.27,5.02L32.10,-4.35L30.57,-8.97L27.18,-12.93L19.19,-18.18L7.16,-22.70L-7.24,-26.52L-22.04,-21.17L-26.51,-16.73L-32.94,-12.77L-40.83,-6.16L-36.11,-14.98L-33.02,-26.43L-30.80,-31.30L-29.84,-36.95L-31.30,-39.61L-46.58,-49.10L-64.32,-54.69L-96.78,-56.61L-112.92,-53.99L-118.60,-51.69L-123.69,-47.37L-142.29,-24.09L-145.98,-11.44L-150.36,-0.27L-153.73,14.41L-154.28,25.40L-152.66,33.72L-152.03,42.66L-150.82,49.35L-147.19,59.79L-145.58,75.94L-143.47,81.67L-138.07,90.13L-133.48,95.12L-131.56,98.41L-131.81,99.56" />
        <path d="M-122.91,-36.00L-120.29,-37.63L-118.82,-43.79L-115.16,-48.44L-105.42,-53.73L-99.16,-58.48L-89.88,-62.04L-75.70,-63.10L-61.50,-59.78L-40.84,-48.33L-33.84,-39.48L-32.76,-35.15L-33.60,-29.53" />
      </g>
      <g id="f2" transform="translate(-126.85 -130.53)" style="--index:2; opacity:0;" class="frame">
        <path d="M-35.60,-11.05L-36.40,-7.91L-35.60,-11.05" />
        <path d="M-126.13,121.41L-126.04,117.69L-132.50,95.51L-134.48,84.77L-138.27,73.87L-142.55,65.11L-146.90,49.38L-149.44,36.85L-155.10,24.82L-156.94,6.80L-154.98,-4.86L-149.11,-19.70L-141.55,-31.82L-126.88,-46.25L-111.46,-55.26L-101.05,-57.64L-87.62,-59.40L-81.61,-59.29L-62.94,-54.35L-59.86,-52.40L-52.74,-44.55L-49.22,-39.20L-42.61,-32.56L-36.72,-22.43L-35.60,-11.05L-31.72,-15.18L-19.30,-22.43L-4.79,-25.63L12.12,-25.21L24.59,-22.84L38.63,-16.51L42.58,-13.13L51.11,5.20L51.90,13.20L50.90,19.03L47.92,26.58L38.64,41.00L24.57,52.53L13.90,59.25L4.89,62.14L-2.92,66.32L-36.93,79.69L-55.45,84.25L-62.41,87.24L-68.95,88.70L-74.77,91.29L-83.10,93.55L-95.06,100.75L-108.78,112.78L-122.20,117.91" />
        <path d="M-123.99,119.66L-120.47,117.62L-85.04,105.70L-72.06,99.70L-63.68,97.54L-50.82,92.27L-14.47,71.60L-10.18,67.43L-4.91,57.25L-4.18,46.95L-2.78,42.27L-3.96,36.42L-9.48,33.21L-10.08,31.71" />
      </g>
      <g id="f3" transform="translate(-126.85 -130.53)" style="--index:3; opacity:0;" class="frame">
        <path d="M-40.98,-2.38L-50.32,12.61L-47.92,6.32L-40.98,-2.38" />
        <path d="M-128.44,124.50L-126.29,104.81L-121.49,90.16L-121.27,87.15L-123.65,81.27L-123.68,72.91L-126.25,60.51L-136.14,41.58L-140.11,37.06L-144.05,27.84L-144.84,20.19L-148.18,8.10L-148.48,-1.14L-147.57,-6.69L-143.93,-15.77L-142.62,-24.21L-140.73,-29.38L-132.32,-39.18L-120.99,-47.95L-114.29,-54.29L-91.21,-61.31L-85.99,-62.03L-72.00,-59.46L-62.46,-55.81L-60.43,-54.72L-56.97,-50.99L-50.93,-39.39L-46.21,-32.19L-36.43,-25.30L-33.66,-21.65L-34.42,-14.79L-40.98,-2.38L-26.07,-17.51L-26.43,-16.46L-21.58,-16.36L-15.90,-13.92L-16.09,-17.15L-15.34,-19.19L-7.16,-18.64L3.17,-15.27L6.80,-15.11L14.24,-11.81L17.34,-7.03L21.55,2.07L28.96,10.02L27.36,11.37L25.31,10.68" />
        <path d="M-9.81,-17.34L-1.34,-16.25L6.95,-16.55L20.08,-12.10L28.82,-4.65L33.29,3.95L35.44,11.94L34.32,24.62L29.42,35.42L13.54,55.84L4.43,64.71L-2.73,67.77L-14.87,77.20L-28.30,83.37L-36.72,88.80L-40.30,89.85L-47.10,93.54L-61.67,96.94L-67.17,99.75L-88.27,105.39L-103.30,111.36L-107.15,114.69L-116.13,117.64L-122.13,120.68L-126.42,124.02L-129.25,124.89" />
      </g>
      <g id="f4" transform="translate(-126.85 -130.53)" style="--index:4; opacity:0;" class="frame">
        <path d="M-127.44,120.70L-127.44,120.70" />
        <path d="M-127.20,120.20L-127.44,120.70L-127.20,120.20" />
        <path d="M-127.20,120.20L-127.20,120.20" />
        <path d="M-144.44,4.13L-128.22,20.26L-124.95,28.57L-120.85,33.99L-108.65,53.87L-105.39,66.05L-105.58,70.09L-109.02,81.10L-120.75,101.90L-127.20,120.20L-120.62,113.10L-115.43,110.94L-112.69,108.36L-106.28,104.59L-93.14,91.63L-87.79,89.11L-85.11,86.64L-78.13,85.12L-73.95,85.25L-70.66,84.02L-63.55,85.66L-60.20,85.64L-40.42,79.56L-29.48,72.60L-19.73,68.09L-8.87,61.46L14.86,45.09L18.52,41.63L23.22,36.17L24.88,32.82L27.80,25.31L28.76,18.23L31.54,8.93L31.07,3.20L28.22,-3.10L21.98,-7.61L18.64,-9.03L6.59,-11.02L-0.96,-13.84L-14.18,-13.73L-35.11,-2.12L-42.95,3.96L-39.67,-6.93L-42.21,-23.30L-44.31,-28.96L-48.35,-35.76L-52.48,-40.29L-58.68,-49.57L-60.66,-51.35L-65.93,-53.28L-76.85,-51.92L-81.23,-49.86L-88.92,-43.72L-100.37,-39.88L-105.72,-39.63L-114.36,-42.28L-118.28,-42.61L-124.52,-40.20L-131.28,-33.58L-140.66,-20.65L-147.12,-3.71L-147.17,7.18" />
      </g>
      <g id="f5" transform="translate(-126.85 -130.53)" style="--index:5; opacity:0;" class="frame">
        <path d="M-6.71,-10.20L-3.36,-7.38L5.87,6.65L10.04,13.58L13.51,21.84L22.26,30.01L20.74,34.56L11.73,46.68L6.31,51.60L-5.63,59.44L-28.36,69.74L-34.47,71.48L-57.32,75.49L-61.34,76.91L-66.09,77.03L-75.09,79.14L-83.25,78.95L-87.20,81.29L-97.12,90.09L-98.89,90.46L-100.88,86.71L-102.33,80.78L-103.99,68.45L-103.88,61.87L-111.57,45.29L-118.48,22.69L-123.51,12.14L-133.14,4.83L-134.40,1.94L-134.09,-4.85L-131.99,-11.02L-123.78,-23.87L-119.54,-28.18L-113.81,-36.76L-102.46,-35.74L-96.56,-37.27L-83.29,-34.55L-73.74,-33.95L-70.72,-34.68L-69.47,-36.35L-65.46,-37.94L-62.10,-38.25L-52.69,-35.01L-46.91,-30.68L-41.23,-23.04L-37.97,-14.56L-37.92,-1.18L-36.00,0.16L-27.47,-0.10L-23.71,-1.33L-20.25,-2.90L-13.10,-8.41L-6.61,-11.14L-6.71,-10.20" />
        <path d="M-6.91,-10.36L-7.04,-9.11" />
        <path d="M-87.85,18.18L-86.23,12.31L-82.69,8.56L-79.09,6.98L-74.25,7.42L-70.38,8.99L-68.24,12.86L-67.11,17.59L-67.65,23.29L-70.79,33.69L-75.07,39.48L-77.54,39.54L-86.09,35.74L-91.90,30.74L-94.38,25.48L-92.30,19.02L-89.20,14.13L-86.74,12.41" />
      </g>
      <g id="f6" transform="translate(-126.85 -130.53)" style="--index:6; opacity:0;" class="frame">
        <path d="M-103.72,54.12L-86.82,60.51L-71.12,71.21L-67.11,72.88L-60.97,72.88L-55.00,74.12L-48.63,72.61L-44.41,72.93L-34.21,69.27L-29.79,65.73L-27.26,64.74L-20.16,57.37L-11.84,47.77L4.04,22.40L3.20,17.07L-1.16,6.60L-4.44,1.99L-8.28,-1.29L-14.53,-3.79L-18.07,-3.73L-25.14,0.32L-28.51,1.34L-39.18,-1.91L-43.59,-5.17L-48.31,-12.20L-50.65,-28.91L-54.45,-32.30L-61.50,-34.74L-67.53,-35.35L-72.54,-33.06L-78.04,-32.10L-85.65,-29.27L-93.76,-27.89L-98.60,-28.76L-101.31,-28.25L-108.93,-24.78L-114.59,-20.65L-120.62,-12.02L-123.54,-9.58L-124.62,-7.26L-121.62,8.34L-119.31,31.72L-117.87,38.01L-114.42,44.47L-108.78,49.77L-104.76,55.09L-104.36,57.10" />
      </g>
      <g id="f7" transform="translate(-126.85 -130.53)" style="--index:7; opacity:0;" class="frame">
        <path d="M-115.31,29.75L-114.68,24.57L-109.19,8.64L-101.23,-1.75L-92.03,-11.29L-80.45,-18.06L-70.67,-26.97L-67.83,-27.83L-64.12,-27.23L-58.24,-24.70L-55.60,-22.00L-46.62,-1.99L-36.22,3.35L-23.14,3.02L-20.90,2.15L-14.53,2.78L-10.22,4.46L-6.06,10.78L-5.32,14.41L-6.19,26.65L-8.55,33.31L-11.35,38.54L-24.45,56.11L-27.05,60.65L-34.65,65.34L-40.91,66.42L-48.22,69.84L-53.98,69.93L-58.21,68.40L-73.52,58.22L-83.62,54.41L-87.37,52.25L-95.54,49.02L-105.20,48.24L-107.79,47.23L-112.11,44.24L-115.62,32.68L-113.41,26.38L-111.82,24.14L-110.45,23.65" />
      </g>
      <g id="f8" transform="translate(-126.85 -130.53)" style="--index:8; opacity:0;" class="frame">
        <path d="M-96.71,-2.62L-94.24,-6.24L-90.59,-8.23L-73.02,-11.84L-67.26,-11.63L-58.59,-9.69L-47.05,-2.40L-42.01,4.74L-40.38,5.91L-30.10,8.00L-26.75,8.17L-23.07,6.68L-19.07,7.88L-15.39,12.10L-13.83,16.82L-15.33,27.75L-20.23,40.94L-26.40,52.86L-28.83,55.73L-35.89,61.15L-44.89,65.29L-51.62,66.49L-57.28,65.54L-60.96,64.11L-68.26,54.06L-81.04,47.01L-93.74,41.60L-102.57,41.14L-107.05,40.07L-109.48,38.52L-110.67,36.04L-111.37,30.33L-110.48,20.36L-109.08,14.47L-105.70,6.36L-101.55,3.37L-98.75,0.18L-97.49,0.60" />
      </g>
      <g id="f9" transform="translate(-126.85 -130.53)" style="--index:9; opacity:0;" class="frame">
        <path d="M-94.96,10.05L-91.04,6.57L-85.81,3.53L-76.65,-0.36L-69.88,-1.68L-62.86,-1.93L-57.60,-0.60L-50.13,2.78L-39.64,12.16L-27.90,17.86L-25.71,22.23L-24.59,30.71L-25.54,36.07L-28.72,44.56L-39.64,55.28L-44.66,59.00L-46.92,60.09L-51.60,60.30L-66.25,54.25L-78.91,45.81L-92.62,39.83L-98.29,36.13L-99.82,29.64L-98.93,15.79L-98.08,13.49L-94.09,10.74L-92.90,12.46" />
      </g>
      <g id="f10" transform="translate(-126.85 -130.53)" style="--index:10; opacity:0;" class="frame">
        <path d="M-80.61,13.02L-79.11,10.25L-75.78,8.44L-60.57,7.97L-55.07,9.03L-45.02,13.12L-37.88,19.29L-35.69,23.96L-35.13,30.97L-38.35,39.85L-41.06,40.24L-44.69,45.27L-49.96,47.75L-57.29,48.07L-70.96,45.92L-79.97,42.42L-82.96,40.42L-85.26,37.44L-87.26,32.90L-88.10,24.64L-87.54,21.52L-84.62,15.08L-80.61,13.02" />
        <path d="M-81.44,15.49L-80.61,13.02L-78.09,13.03" />
      </g>
      <g id="f11" transform="translate(-126.85 -130.53)" style="--index:11; opacity:0;" class="frame">
        <path d="M-68.70,24.30L-68.37,21.76L-66.29,21.01L-55.80,24.13L-53.43,26.78L-52.34,29.35L-54.16,36.64L-56.38,38.52L-59.94,39.82L-68.12,38.49L-71.47,37.13L-73.65,34.14L-73.72,31.85L-71.54,26.55L-68.70,24.30" />
        <path d="M-68.92,25.96L-68.70,24.30L-65.27,24.09" />
      </g>
      <g id="f12" transform="translate(-126.85 -130.53)" style="--index:12; opacity:0;" class="frame">
        <path d="M-66.83,31.90L-64.12,28.48L-62.99,28.49L-60.16,29.48L-60.17,33.53L-60.69,34.58L-62.04,34.95L-64.79,34.36L-64.70,32.72L-63.26,32.09" />
      </g>
      <g id="f13" transform="translate(-126.85 -130.53)" style="--index:13; opacity:0;" class="frame">
        <path d="M-63.22,31.84" />
      </g>
    </g>
    <g id="t3" transform="translate(-158.33 -175.71)" class="thread">
      <g id="f0" style="--index:0; opacity:1;" class="frame">
        <path d="M-36.95,-8.75L-41.36,1.24L-47.76,8.48L-49.82,8.74L-48.02,3.18L-36.95,-8.75" />
        <path d="M-124.90,117.81L-127.75,109.67L-133.47,98.26L-137.42,83.73L-142.87,70.88L-143.84,62.32L-148.59,51.65L-151.15,40.28L-151.55,15.08L-147.54,-7.70L-144.20,-19.34L-139.99,-27.90L-130.51,-38.48L-115.44,-51.46L-109.81,-54.58L-90.98,-60.09L-81.29,-60.61L-56.14,-56.39L-41.40,-50.55L-38.31,-47.79L-32.32,-39.55L-30.81,-32.36L-31.68,-25.06L-36.95,-8.75L-31.46,-14.60L-23.90,-20.66L-14.55,-25.55L-6.44,-27.06L5.36,-24.74L13.44,-21.12L19.00,-17.30L29.58,-5.07L34.80,2.81L38.05,17.01L38.34,23.20L37.69,27.49L34.27,35.99L28.55,43.49L14.61,54.30L-1.67,64.73L-14.81,74.89L-23.01,79.75L-45.10,90.85L-55.12,94.36L-70.31,101.99L-118.69,118.74L-126.73,122.65L-127.61,122.19L-128.24,119.68L-127.87,117.49" />
      </g>
      <g id="f1" style="--index:1; opacity:0;" class="frame">
        <path d="M-127.02,121.68L-120.53,118.54L-88.55,109.58L-52.32,97.76L-24.95,85.58L-1.69,71.82L14.62,61.13L24.79,52.31L35.95,37.14L38.06,28.95L37.27,5.02L32.10,-4.35L30.57,-8.97L27.18,-12.93L19.19,-18.18L7.16,-22.70L-7.24,-26.52L-22.04,-21.17L-26.51,-16.73L-32.94,-12.77L-40.83,-6.16L-36.11,-14.98L-33.02,-26.43L-30.80,-31.30L-29.84,-36.95L-31.30,-39.61L-46.58,-49.10L-64.32,-54.69L-96.78,-56.61L-112.92,-53.99L-118.60,-51.69L-123.69,-47.37L-142.29,-24.09L-145.98,-11.44L-150.36,-0.27L-153.73,14.41L-154.28,25.40L-152.66,33.72L-152.03,42.66L-150.82,49.35L-147.19,59.79L-145.58,75.94L-143.47,81.67L-138.07,90.13L-133.48,95.12L-131.56,98.41L-131.81,99.56" />
        <path d="M-122.91,-36.00L-120.29,-37.63L-118.82,-43.79L-115.16,-48.44L-105.42,-53.73L-99.16,-58.48L-89.88,-62.04L-75.70,-63.10L-61.50,-59.78L-40.84,-48.33L-33.84,-39.48L-32.76,-35.15L-33.60,-29.53" />
      </g>
      <g id="f2" style="--index:2; opacity:0;" class="frame">
        <path d="M-35.60,-11.05L-36.40,-7.91L-35.60,-11.05" />
        <path d="M-126.13,121.41L-126.04,117.69L-132.50,95.51L-134.48,84.77L-138.27,73.87L-142.55,65.11L-146.90,49.38L-149.44,36.85L-155.10,24.82L-156.94,6.80L-154.98,-4.86L-149.11,-19.70L-141.55,-31.82L-126.88,-46.25L-111.46,-55.26L-101.05,-57.64L-87.62,-59.40L-81.61,-59.29L-62.94,-54.35L-59.86,-52.40L-52.74,-44.55L-49.22,-39.20L-42.61,-32.56L-36.72,-22.43L-35.60,-11.05L-31.72,-15.18L-19.30,-22.43L-4.79,-25.63L12.12,-25.21L24.59,-22.84L38.63,-16.51L42.58,-13.13L51.11,5.20L51.90,13.20L50.90,19.03L47.92,26.58L38.64,41.00L24.57,52.53L13.90,59.25L4.89,62.14L-2.92,66.32L-36.93,79.69L-55.45,84.25L-62.41,87.24L-68.95,88.70L-74.77,91.29L-83.10,93.55L-95.06,100.75L-108.78,112.78L-122.20,117.91" />
        <path d="M-123.99,119.66L-120.47,117.62L-85.04,105.70L-72.06,99.70L-63.68,97.54L-50.82,92.27L-14.47,71.60L-10.18,67.43L-4.91,57.25L-4.18,46.95L-2.78,42.27L-3.96,36.42L-9.48,33.21L-10.08,31.71" />
      </g>
      <g id="f3" style="--index:3; opacity:0;" class="frame">
        <path d="M-40.98,-2.38L-50.32,12.61L-47.92,6.32L-40.98,-2.38" />
        <path d="M-128.44,124.50L-126.29,104.81L-121.49,90.16L-121.27,87.15L-123.65,81.27L-123.68,72.91L-126.25,60.51L-136.14,41.58L-140.11,37.06L-144.05,27.84L-144.84,20.19L-148.18,8.10L-148.48,-1.14L-147.57,-6.69L-143.93,-15.77L-142.62,-24.21L-140.73,-29.38L-132.32,-39.18L-120.99,-47.95L-114.29,-54.29L-91.21,-61.31L-85.99,-62.03L-72.00,-59.46L-62.46,-55.81L-60.43,-54.72L-56.97,-50.99L-50.93,-39.39L-46.21,-32.19L-36.43,-25.30L-33.66,-21.65L-34.42,-14.79L-40.98,-2.38L-26.07,-17.51L-26.43,-16.46L-21.58,-16.36L-15.90,-13.92L-16.09,-17.15L-15.34,-19.19L-7.16,-18.64L3.17,-15.27L6.80,-15.11L14.24,-11.81L17.34,-7.03L21.55,2.07L28.96,10.02L27.36,11.37L25.31,10.68" />
        <path d="M-9.81,-17.34L-1.34,-16.25L6.95,-16.55L20.08,-12.10L28.82,-4.65L33.29,3.95L35.44,11.94L34.32,24.62L29.42,35.42L13.54,55.84L4.43,64.71L-2.73,67.77L-14.87,77.20L-28.30,83.37L-36.72,88.80L-40.30,89.85L-47.10,93.54L-61.67,96.94L-67.17,99.75L-88.27,105.39L-103.30,111.36L-107.15,114.69L-116.13,117.64L-122.13,120.68L-126.42,124.02L-129.25,124.89" />
      </g>
      <g id="f4" style="--index:4; opacity:0;" class="frame">
        <path d="M-127.44,120.70L-127.44,120.70" />
        <path d="M-127.20,120.20L-127.44,120.70L-127.20,120.20" />
        <path d="M-127.20,120.20L-127.20,120.20" />
        <path d="M-144.44,4.13L-128.22,20.26L-124.95,28.57L-120.85,33.99L-108.65,53.87L-105.39,66.05L-105.58,70.09L-109.02,81.10L-120.75,101.90L-127.20,120.20L-120.62,113.10L-115.43,110.94L-112.69,108.36L-106.28,104.59L-93.14,91.63L-87.79,89.11L-85.11,86.64L-78.13,85.12L-73.95,85.25L-70.66,84.02L-63.55,85.66L-60.20,85.64L-40.42,79.56L-29.48,72.60L-19.73,68.09L-8.87,61.46L14.86,45.09L18.52,41.63L23.22,36.17L24.88,32.82L27.80,25.31L28.76,18.23L31.54,8.93L31.07,3.20L28.22,-3.10L21.98,-7.61L18.64,-9.03L6.59,-11.02L-0.96,-13.84L-14.18,-13.73L-35.11,-2.12L-42.95,3.96L-39.67,-6.93L-42.21,-23.30L-44.31,-28.96L-48.35,-35.76L-52.48,-40.29L-58.68,-49.57L-60.66,-51.35L-65.93,-53.28L-76.85,-51.92L-81.23,-49.86L-88.92,-43.72L-100.37,-39.88L-105.72,-39.63L-114.36,-42.28L-118.28,-42.61L-124.52,-40.20L-131.28,-33.58L-140.66,-20.65L-147.12,-3.71L-147.17,7.18" />
      </g>
      <g id="f5" style="--index:5; opacity:0;" class="frame">
        <path d="M-6.71,-10.20L-3.36,-7.38L5.87,6.65L10.04,13.58L13.51,21.84L22.26,30.01L20.74,34.56L11.73,46.68L6.31,51.60L-5.63,59.44L-28.36,69.74L-34.47,71.48L-57.32,75.49L-61.34,76.91L-66.09,77.03L-75.09,79.14L-83.25,78.95L-87.20,81.29L-97.12,90.09L-98.89,90.46L-100.88,86.71L-102.33,80.78L-103.99,68.45L-103.88,61.87L-111.57,45.29L-118.48,22.69L-123.51,12.14L-133.14,4.83L-134.40,1.94L-134.09,-4.85L-131.99,-11.02L-123.78,-23.87L-119.54,-28.18L-113.81,-36.76L-102.46,-35.74L-96.56,-37.27L-83.29,-34.55L-73.74,-33.95L-70.72,-34.68L-69.47,-36.35L-65.46,-37.94L-62.10,-38.25L-52.69,-35.01L-46.91,-30.68L-41.23,-23.04L-37.97,-14.56L-37.92,-1.18L-36.00,0.16L-27.47,-0.10L-23.71,-1.33L-20.25,-2.90L-13.10,-8.41L-6.61,-11.14L-6.71,-10.20" />
        <path d="M-6.91,-10.36L-7.04,-9.11" />
        <path d="M-87.85,18.18L-86.23,12.31L-82.69,8.56L-79.09,6.98L-74.25,7.42L-70.38,8.99L-68.24,12.86L-67.11,17.59L-67.65,23.29L-70.79,33.69L-75.07,39.48L-77.54,39.54L-86.09,35.74L-91.90,30.74L-94.38,25.48L-92.30,19.02L-89.20,14.13L-86.74,12.41" />
      </g>
      <g id="f6" style="--index:6; opacity:0;" class="frame">
        <path d="M-103.72,54.12L-86.82,60.51L-71.12,71.21L-67.11,72.88L-60.97,72.88L-55.00,74.12L-48.63,72.61L-44.41,72.93L-34.21,69.27L-29.79,65.73L-27.26,64.74L-20.16,57.37L-11.84,47.77L4.04,22.40L3.20,17.07L-1.16,6.60L-4.44,1.99L-8.28,-1.29L-14.53,-3.79L-18.07,-3.73L-25.14,0.32L-28.51,1.34L-39.18,-1.91L-43.59,-5.17L-48.31,-12.20L-50.65,-28.91L-54.45,-32.30L-61.50,-34.74L-67.53,-35.35L-72.54,-33.06L-78.04,-32.10L-85.65,-29.27L-93.76,-27.89L-98.60,-28.76L-101.31,-28.25L-108.93,-24.78L-114.59,-20.65L-120.62,-12.02L-123.54,-9.58L-124.62,-7.26L-121.62,8.34L-119.31,31.72L-117.87,38.01L-114.42,44.47L-108.78,49.77L-104.76,55.09L-104.36,57.10" />
      </g>
      <g id="f7" style="--index:7; opacity:0;" class="frame">
        <path d="M-115.31,29.75L-114.68,24.57L-109.19,8.64L-101.23,-1.75L-92.03,-11.29L-80.45,-18.06L-70.67,-26.97L-67.83,-27.83L-64.12,-27.23L-58.24,-24.70L-55.60,-22.00L-46.62,-1.99L-36.22,3.35L-23.14,3.02L-20.90,2.15L-14.53,2.78L-10.22,4.46L-6.06,10.78L-5.32,14.41L-6.19,26.65L-8.55,33.31L-11.35,38.54L-24.45,56.11L-27.05,60.65L-34.65,65.34L-40.91,66.42L-48.22,69.84L-53.98,69.93L-58.21,68.40L-73.52,58.22L-83.62,54.41L-87.37,52.25L-95.54,49.02L-105.20,48.24L-107.79,47.23L-112.11,44.24L-115.62,32.68L-113.41,26.38L-111.82,24.14L-110.45,23.65" />
      </g>
      <g id="f8" style="--index:8; opacity:0;" class="frame">
        <path d="M-96.71,-2.62L-94.24,-6.24L-90.59,-8.23L-73.02,-11.84L-67.26,-11.63L-58.59,-9.69L-47.05,-2.40L-42.01,4.74L-40.38,5.91L-30.10,8.00L-26.75,8.17L-23.07,6.68L-19.07,7.88L-15.39,12.10L-13.83,16.82L-15.33,27.75L-20.23,40.94L-26.40,52.86L-28.83,55.73L-35.89,61.15L-44.89,65.29L-51.62,66.49L-57.28,65.54L-60.96,64.11L-68.26,54.06L-81.04,47.01L-93.74,41.60L-102.57,41.14L-107.05,40.07L-109.48,38.52L-110.67,36.04L-111.37,30.33L-110.48,20.36L-109.08,14.47L-105.70,6.36L-101.55,3.37L-98.75,0.18L-97.49,0.60" />
      </g>
      <g id="f9" style="--index:9; opacity:0;" class="frame">
        <path d="M-94.96,10.05L-91.04,6.57L-85.81,3.53L-76.65,-0.36L-69.88,-1.68L-62.86,-1.93L-57.60,-0.60L-50.13,2.78L-39.64,12.16L-27.90,17.86L-25.71,22.23L-24.59,30.71L-25.54,36.07L-28.72,44.56L-39.64,55.28L-44.66,59.00L-46.92,60.09L-51.60,60.30L-66.25,54.25L-78.91,45.81L-92.62,39.83L-98.29,36.13L-99.82,29.64L-98.93,15.79L-98.08,13.49L-94.09,10.74L-92.90,12.46" />
      </g>
      <g id="f10" style="--index:10; opacity:0;" class="frame">
        <path d="M-80.61,13.02L-79.11,10.25L-75.78,8.44L-60.57,7.97L-55.07,9.03L-45.02,13.12L-37.88,19.29L-35.69,23.96L-35.13,30.97L-38.35,39.85L-41.06,40.24L-44.69,45.27L-49.96,47.75L-57.29,48.07L-70.96,45.92L-79.97,42.42L-82.96,40.42L-85.26,37.44L-87.26,32.90L-88.10,24.64L-87.54,21.52L-84.62,15.08L-80.61,13.02" />
        <path d="M-81.44,15.49L-80.61,13.02L-78.09,13.03" />
      </g>
      <g id="f11" style="--index:11; opacity:0;" class="frame">
        <path d="M-68.70,24.30L-68.37,21.76L-66.29,21.01L-55.80,24.13L-53.43,26.78L-52.34,29.35L-54.16,36.64L-56.38,38.52L-59.94,39.82L-68.12,38.49L-71.47,37.13L-73.65,34.14L-73.72,31.85L-71.54,26.55L-68.70,24.30" />
        <path d="M-68.92,25.96L-68.70,24.30L-65.27,24.09" />
      </g>
      <g id="f12" style="--index:12; opacity:0;" class="frame">
        <path d="M-66.83,31.90L-64.12,28.48L-62.99,28.49L-60.16,29.48L-60.17,33.53L-60.69,34.58L-62.04,34.95L-64.79,34.36L-64.70,32.72L-63.26,32.09" />
      </g>
      <g id="f13" style="--index:13; opacity:0;" class="frame">
        <path d="M-63.22,31.84" />
      </g>
    </g>
  </g>
</svg>