<?xml version="1.0" encoding="utf-8"?>
<svg width="1194" height="834" viewBox="-597 -417 1194 834" xmlns="http://www.w3.org/2000/svg">
  <style>
svg { background-color:#926EAE; }

#looom { --version:2; }

#t0 {
--visible:1; --timeOffset:47; --speed:4; --bookmarkIndex:-1; --latched:0; --playMode:0; --masked:0; --blendMode:2; 
fill:#F3DE77; stroke-opacity:0; fill-opacity:0.5209081; stroke-width:10; stroke-linecap:round; stroke-linejoin:round;
}
@keyframes t0 { 0% { opacity: 1; } 25% { opacity: 0; } }
#t0 .frame { animation:t0 1s calc(var(--index) * 0.25s) steps(1) infinite; }

#t1 {
--visible:1; --timeOffset:47; --speed:4; --bookmarkIndex:-1; --latched:0; --playMode:0; --masked:0; --blendMode:0; 
fill:#F3DE77; stroke-opacity:0; fill-opacity:1; stroke-width:10; stroke-linecap:round; stroke-linejoin:round;
}
@keyframes t1 { 0% { opacity: 1; } 25% { opacity: 0; } }
#t1 .frame { animation:t1 1s calc(var(--index) * 0.25s) steps(1) infinite; }

#t2 {
--visible:1; --timeOffset:9; --speed:8; --bookmarkIndex:-1; --latched:0; --playMode:1; --masked:0; --blendMode:0; 
stroke:#FFF2FE; stroke-opacity:0.7229642; fill-opacity:0; stroke-width:5.410697; stroke-linecap:round; stroke-linejoin:round;
}
@keyframes t2 { 0% { opacity: 1; } 8.333333% { opacity: 0; } }
#t2 .frame { animation:t2 1.5s calc(var(--index) * 0.125s) steps(1) infinite; }

#t3 {
--visible:1; --timeOffset:9; --speed:8; --bookmarkIndex:-1; --latched:0; --playMode:1; --masked:0; --blendMode:0; 
stroke:#FF71F5; stroke-opacity:1; fill-opacity:0; stroke-width:5.410697; stroke-linecap:round; stroke-linejoin:round;
}
@keyframes t3 { 0% { opacity: 1; } 8.333333% { opacity: 0; } }
#t3 .frame { animation:t3 1.5s calc(var(--index) * 0.125s) steps(1) infinite; }

</style>
  <g id="w0" transform="translate(457.25 7.75) scale(2.08 2.08) rotate(-357.07)" class="weave">
    <g id="t0" transform="translate(-105.57 -97.07) scale(1.14 1.14) rotate(-0.33)" class="thread">
      <g id="f0" transform="translate(-134.53 96.15)" style="--index:0; opacity:1;" class="frame">
        <path d="M-52.05,-111.30L-11.05,-117.12L11.18,-118.40L39.12,-121.41L72.60,-123.10L141.62,-122.46L143.69,-121.18L145.33,-118.45L147.06,-112.72L154.12,-75.67L157.71,-36.28L158.32,-17.12L157.94,3.32L154.56,28.89L154.33,40.68L155.47,49.66L161.84,69.51L169.25,99.50L169.72,109.82L168.82,121.26L170.45,123.38L171.13,127.22L164.73,128.68L146.85,127.43L125.50,130.72L75.57,133.29L55.58,135.50L17.02,136.58L0.06,138.80L-9.12,136.75L-15.91,136.18L-20.76,133.52L-29.87,132.89L-36.99,133.65L-37.47,129.51L-35.91,125.24L-35.27,119.62L-35.55,91.15L-37.22,85.88L-44.20,72.69L-49.00,55.88L-49.32,30.48L-50.51,11.66L-52.53,3.66L-56.77,-7.27L-58.86,-17.72L-59.48,-40.28L-53.93,-61.69L-53.37,-67.51L-54.84,-81.21L-54.35,-94.30L-56.07,-99.90L-56.49,-109.81L-57.52,-110.86" />
      </g>
      <g id="f1" transform="translate(-134.53 96.15)" style="--index:1; opacity:0;" class="frame">
        <path d="M-56.95,-111.34L-49.24,-115.27L-27.62,-118.73L30.58,-122.80L84.69,-121.29L105.25,-122.07L129.64,-119.99L137.36,-120.15L139.13,-119.45L144.26,-119.87L145.73,-119.37L146.13,-114.94L151.01,-106.10L154.41,-91.78L154.57,-85.35L153.01,-71.95L156.60,-56.64L157.36,-49.89L155.59,-23.32L156.31,7.92L158.15,40.34L159.83,48.10L159.09,66.05L159.83,89.86L164.18,106.94L168.52,116.25L171.69,128.08L158.21,130.34L130.20,132.64L107.75,133.08L99.02,134.63L88.70,135.11L38.64,135.86L10.62,134.62L-3.28,131.70L-25.92,131.45L-31.12,132.79L-35.30,130.16L-35.72,127.97L-33.01,117.48L-31.98,97.53L-33.98,87.58L-37.71,77.92L-42.87,70.91L-45.07,63.25L-48.89,35.65L-48.80,28.10L-46.09,4.00L-46.34,-5.67L-49.68,-17.79L-55.46,-30.55L-53.39,-51.98L-48.99,-66.66L-47.49,-76.22L-49.29,-93.02L-53.09,-110.03" />
      </g>
      <g id="f2" transform="translate(-134.53 96.15)" style="--index:2; opacity:0;" class="frame">
        <path d="M-56.98,-115.86L-38.86,-116.95L20.39,-125.19L51.00,-126.48L106.38,-125.58L144.91,-121.88L148.72,-119.24L155.75,-102.77L156.71,-84.62L154.38,-73.76L154.02,-58.36L156.20,-48.07L161.45,-31.27L163.32,-14.67L162.22,-10.82L144.41,21.63L141.36,32.26L141.44,43.46L142.81,48.12L145.38,52.75L147.64,55.18L152.49,58.21L154.15,69.25L157.92,81.82L165.72,97.68L169.19,106.97L170.90,118.30L173.48,128.57L168.24,131.28L155.20,132.94L123.07,131.57L105.05,131.70L94.93,131.96L77.14,134.45L65.31,134.76L17.45,131.84L9.28,132.21L-2.70,134.55L-10.51,134.84L-23.88,134.60L-28.93,133.65L-37.68,134.21L-37.22,127.67L-31.87,111.43L-30.89,94.47L-34.96,85.03L-43.25,74.12L-48.42,57.52L-48.92,47.24L-50.48,41.55L-50.89,33.96L-49.61,11.01L-46.25,1.01L-45.75,-8.59L-47.56,-17.72L-54.60,-28.42L-55.42,-30.84L-56.33,-42.36L-55.92,-50.30L-57.05,-55.75L-56.36,-74.24L-54.84,-77.52L-54.21,-83.97L-55.05,-87.47L-55.02,-93.16L-56.72,-102.25L-60.28,-107.22L-64.97,-116.44L-62.64,-118.12L-59.14,-119.09" />
        <path d="M151.52,-40.94L156.87,-20.32L157.26,-7.09L155.73,1.46L155.83,16.57L156.68,20.54L157.41,38.03L159.84,51.42L160.95,65.26L159.34,73.97L154.74,84.43L151.47,95.60L146.74,99.28L144.60,98.35L143.90,96.66L140.98,75.28L138.48,63.59L136.14,56.80L132.56,49.92L131.08,42.65L126.76,30.85L125.62,15.77L126.11,12.48L127.67,9.86" />
      </g>
      <g id="f3" transform="translate(-134.53 96.15)" style="--index:3; opacity:0;" class="frame">
        <path d="M-61.89,-117.74L-48.04,-122.02L-14.32,-127.92L-0.15,-129.19L22.31,-127.73L80.67,-128.66L128.00,-124.31L145.89,-121.41L147.62,-120.21L150.15,-113.75L149.31,-95.10L151.84,-81.91L152.39,-57.27L156.62,-38.20L158.94,-30.59L162.81,-21.92L164.53,-8.19L164.63,-1.05L160.75,23.75L159.46,52.80L164.90,77.19L170.39,83.65L171.36,86.07L171.63,92.08L169.60,109.78L169.71,117.38L178.20,134.43L175.72,135.99L171.06,136.15L162.70,138.40L141.99,140.63L121.54,141.32L103.08,143.63L90.97,142.53L76.32,143.07L65.76,141.01L51.08,141.31L23.67,136.70L9.82,131.20L2.83,130.13L-3.32,130.13L-12.87,133.24L-27.96,135.99L-30.73,136.10L-35.24,133.69L-35.55,129.55L-32.40,113.61L-32.26,106.01L-35.45,94.92L-40.07,83.08L-47.01,58.94L-49.56,43.81L-49.01,35.66L-45.40,21.00L-43.58,8.00L-43.61,-4.49L-40.39,-19.65L-40.29,-27.08L-41.42,-30.62L-47.81,-40.00L-49.07,-55.54L-55.55,-82.44L-56.36,-103.01L-57.26,-107.38L-56.24,-113.06L-58.53,-116.24L-61.89,-117.74" />
        <path d="M-63.97,-114.65L-61.89,-117.74L-65.04,-119.30L-65.15,-120.59" />
        <path d="M-50.17,-88.39L-50.41,-83.23L-56.34,-63.57L-56.62,-57.83L-52.95,-49.50L-49.31,-35.49L-46.56,-20.32L-39.70,3.62L-36.09,24.78L-31.94,31.48L-26.96,34.51L-26.32,38.15L-21.52,40.93L-20.38,39.91" />
        <path d="M-47.62,41.48L-50.50,34.29L-51.77,26.93L-51.41,11.85L-49.55,5.16L-47.54,-8.63L-48.26,-18.87L-50.16,-26.74L-51.53,-44.60L-54.07,-49.52L-54.10,-50.51L-52.52,-52.30L-53.66,-58.04L-53.65,-68.50L-51.86,-78.22L-50.48,-81.03L-47.05,-84.69L-36.53,-87.66L-29.32,-81.78L-24.48,-71.36L-23.86,-71.26L-23.22,-73.89" />
        <path d="M83.97,14.19L76.65,15.49L76.32,17.20" />
      </g>
    </g>
    <g id="t1" transform="translate(-128.28 -145.83) scale(1.18 1.18) rotate(-0.06)" class="thread">
      <g id="f0" transform="translate(-127.50 115.19)" style="--index:0; opacity:1;" class="frame">
        <path d="M-52.05,-111.30L-11.05,-117.12L11.18,-118.40L39.12,-121.41L72.60,-123.10L141.62,-122.46L143.69,-121.18L145.33,-118.45L147.06,-112.72L154.12,-75.67L157.71,-36.28L158.32,-17.12L157.94,3.32L154.56,28.89L154.33,40.68L155.47,49.66L161.84,69.51L169.25,99.50L169.72,109.82L168.82,121.26L170.45,123.38L171.13,127.22L164.73,128.68L146.85,127.43L125.50,130.72L75.57,133.29L55.58,135.50L17.02,136.58L0.06,138.80L-9.12,136.75L-15.91,136.18L-20.76,133.52L-29.87,132.89L-36.99,133.65L-37.47,129.51L-35.91,125.24L-35.27,119.62L-35.55,91.15L-37.22,85.88L-44.20,72.69L-49.00,55.88L-49.32,30.48L-50.51,11.66L-52.53,3.66L-56.77,-7.27L-58.86,-17.72L-59.48,-40.28L-53.93,-61.69L-53.37,-67.51L-54.84,-81.21L-54.35,-94.30L-56.07,-99.90L-56.49,-109.81L-57.52,-110.86" />
        <path d="M274.44,-166.93L278.84,-166.22" />
      </g>
      <g id="f1" transform="translate(-127.50 115.19)" style="--index:1; opacity:0;" class="frame">
        <path d="M-56.95,-111.34L-49.24,-115.27L-27.62,-118.73L30.58,-122.80L84.69,-121.29L105.25,-122.07L129.64,-119.99L137.36,-120.15L139.13,-119.45L144.26,-119.87L145.73,-119.37L146.13,-114.94L151.01,-106.10L154.41,-91.78L154.57,-85.35L153.01,-71.95L156.60,-56.64L157.36,-49.89L155.59,-23.32L156.31,7.92L158.15,40.34L159.83,48.10L159.09,66.05L159.83,89.86L164.18,106.94L168.52,116.25L171.69,128.08L158.21,130.34L130.20,132.64L107.75,133.08L99.02,134.63L88.70,135.11L38.64,135.86L10.62,134.62L-3.28,131.70L-25.92,131.45L-31.12,132.79L-35.30,130.16L-35.72,127.97L-33.01,117.48L-31.98,97.53L-33.98,87.58L-37.71,77.92L-42.87,70.91L-45.07,63.25L-48.89,35.65L-48.80,28.10L-46.09,4.00L-46.34,-5.67L-49.68,-17.79L-55.46,-30.55L-53.39,-51.98L-48.99,-66.66L-47.49,-76.22L-49.29,-93.02L-53.09,-110.03" />
      </g>
      <g id="f2" transform="translate(-127.50 115.19)" style="--index:2; opacity:0;" class="frame">
        <path d="M-56.98,-115.86L-38.86,-116.95L20.39,-125.19L51.00,-126.48L106.38,-125.58L144.91,-121.88L148.72,-119.24L155.75,-102.77L156.71,-84.62L154.38,-73.76L154.02,-58.36L156.20,-48.07L161.45,-31.27L163.32,-14.67L162.22,-10.82L144.41,21.63L141.36,32.26L141.44,43.46L142.81,48.12L145.38,52.75L147.64,55.18L152.49,58.21L154.15,69.25L157.92,81.82L165.72,97.68L169.19,106.97L170.90,118.30L173.48,128.57L168.24,131.28L155.20,132.94L123.07,131.57L105.05,131.70L94.93,131.96L77.14,134.45L65.31,134.76L17.45,131.84L9.28,132.21L-2.70,134.55L-10.51,134.84L-23.88,134.60L-28.93,133.65L-37.68,134.21L-37.22,127.67L-31.87,111.43L-30.89,94.47L-34.96,85.03L-43.25,74.12L-48.42,57.52L-48.92,47.24L-50.48,41.55L-50.89,33.96L-49.61,11.01L-46.25,1.01L-45.75,-8.59L-47.56,-17.72L-54.60,-28.42L-55.42,-30.84L-56.33,-42.36L-55.92,-50.30L-57.05,-55.75L-56.36,-74.24L-54.84,-77.52L-54.21,-83.97L-55.05,-87.47L-55.02,-93.16L-56.72,-102.25L-60.28,-107.22L-64.97,-116.44L-62.64,-118.12L-59.14,-119.09" />
        <path d="M151.52,-40.94L156.87,-20.32L157.26,-7.09L155.73,1.46L155.83,16.57L156.68,20.54L157.41,38.03L159.84,51.42L160.95,65.26L159.34,73.97L154.74,84.43L151.47,95.60L146.74,99.28L144.60,98.35L143.90,96.66L140.98,75.28L138.48,63.59L136.14,56.80L132.56,49.92L131.08,42.65L126.76,30.85L125.62,15.77L126.11,12.48L127.67,9.86" />
      </g>
      <g id="f3" transform="translate(-127.50 115.19)" style="--index:3; opacity:0;" class="frame">
        <path d="M-61.89,-117.74L-48.04,-122.02L-14.32,-127.92L-0.15,-129.19L22.31,-127.73L80.67,-128.66L128.00,-124.31L145.89,-121.41L147.62,-120.21L150.15,-113.75L149.31,-95.10L151.84,-81.91L152.39,-57.27L156.62,-38.20L158.94,-30.59L162.81,-21.92L164.53,-8.19L164.63,-1.05L160.75,23.75L159.46,52.80L164.90,77.19L170.39,83.65L171.36,86.07L171.63,92.08L169.60,109.78L169.71,117.38L178.20,134.43L175.72,135.99L171.06,136.15L162.70,138.40L141.99,140.63L121.54,141.32L103.08,143.63L90.97,142.53L76.32,143.07L65.76,141.01L51.08,141.31L23.67,136.70L9.82,131.20L2.83,130.13L-3.32,130.13L-12.87,133.24L-27.96,135.99L-30.73,136.10L-35.24,133.69L-35.55,129.55L-32.40,113.61L-32.26,106.01L-35.45,94.92L-40.07,83.08L-47.01,58.94L-49.56,43.81L-49.01,35.66L-45.40,21.00L-43.58,8.00L-43.61,-4.49L-40.39,-19.65L-40.29,-27.08L-41.42,-30.62L-47.81,-40.00L-49.07,-55.54L-55.55,-82.44L-56.36,-103.01L-57.26,-107.38L-56.24,-113.06L-58.53,-116.24L-61.89,-117.74" />
        <path d="M-63.97,-114.65L-61.89,-117.74L-65.04,-119.30L-65.15,-120.59" />
        <path d="M-50.17,-88.39L-50.41,-83.23L-56.34,-63.57L-56.62,-57.83L-52.95,-49.50L-49.31,-35.49L-46.56,-20.32L-39.70,3.62L-36.09,24.78L-31.94,31.48L-26.96,34.51L-26.32,38.15L-21.52,40.93L-20.38,39.91" />
        <path d="M-47.62,41.48L-50.50,34.29L-51.77,26.93L-51.41,11.85L-49.55,5.16L-47.54,-8.63L-48.26,-18.87L-50.16,-26.74L-51.53,-44.60L-54.07,-49.52L-54.10,-50.51L-52.52,-52.30L-53.66,-58.04L-53.65,-68.50L-51.86,-78.22L-50.48,-81.03L-47.05,-84.69L-36.53,-87.66L-29.32,-81.78L-24.48,-71.36L-23.86,-71.26L-23.22,-73.89" />
        <path d="M83.97,14.19L76.65,15.49L76.32,17.20" />
      </g>
    </g>
    <g id="t2" transform="translate(-125.02 -127.92) scale(0.94 0.94) rotate(-0.44)" class="thread">
      <g id="f0" transform="translate(-44.15 64.89)" style="--index:0; opacity:1;" class="frame">
        <path d="M-51.01,112.54L-51.01,112.54" />
        <path d="M-123.99,118.44L-118.35,116.43L-108.28,115.30L-51.85,112.27" />
        <path d="M-4.27,97.80L34.50,96.97" />
        <path d="M-119.54,139.54L-87.05,136.84" />
        <path d="M-116.56,161.67L-113.05,159.80L-87.27,155.85L-23.99,149.53L-0.55,148.52L-1.56,147.80" />
        <path d="M-49.59,134.30L2.47,128.55" />
        <path d="M-119.04,-36.36L-116.14,-38.26L-105.74,-40.85L-75.04,-46.58L-25.06,-51.94L6.70,-53.83L14.28,-53.36" />
        <path d="M-122.39,1.17L-90.23,-1.07L-77.49,-3.38" />
        <path d="M-36.07,-5.86L1.56,-9.86L23.00,-10.87" />
        <path d="M-111.37,37.33L-55.58,30.50L-19.68,24.64L25.23,19.21" />
        <path d="M-72.36,68.79L-57.03,69.15L-6.42,65.60" />
      </g>
      <g id="f1" transform="translate(-44.15 64.89)" style="--index:1; opacity:0;" class="frame">
        <path d="M-129.82,99.83" />
        <path d="M-131.85,100.13L-79.54,96.75L-39.87,95.57" />
        <path d="M-128.52,116.32L-123.74,116.56L-101.29,114.33L-90.68,114.01" />
        <path d="M-45.80,116.59L-38.71,116.54L-15.48,113.99L0.20,114.79" />
        <path d="M-8.91,96.39L25.21,95.97L34.39,94.57" />
        <path d="M-123.40,137.85L-85.22,135.50L-33.85,135.76L-4.84,135.09" />
        <path d="M-120.46,170.15L-79.59,167.16L-69.08,167.34" />
        <path d="M-24.04,166.89L-5.60,167.04L29.45,165.47L35.73,165.98" />
        <path d="M-121.38,-27.08L-90.88,-29.61" />
        <path d="M-28.78,-36.89L-25.35,-37.69L10.35,-39.31L29.77,-41.56" />
        <path d="M-119.55,8.53L-65.78,1.75L-7.21,-2.00L31.56,-5.90" />
        <path d="M-80.30,50.53L-56.38,48.92L1.66,47.34" />
      </g>
      <g id="f2" transform="translate(-44.15 64.89)" style="--index:2; opacity:0;" class="frame">
        <path d="M-129.82,99.83L-100.23,99.40L-47.63,101.99L-39.59,101.54" />
        <path d="M7.44,97.67L10.49,98.46L32.14,98.73L39.05,99.84L41.54,100.94" />
        <path d="M-127.54,120.94L-86.43,120.84" />
        <path d="M-45.08,125.55L-30.61,124.55L-13.24,125.18L-10.48,125.98" />
        <path d="M-6.41,146.88L-6.41,146.88" />
        <path d="M-124.68,148.14L-96.17,145.71L-78.33,145.12L-7.32,146.90" />
        <path d="M-121.49,175.29L-96.55,173.19L-67.70,174.11" />
        <path d="M-37.20,176.65L-16.48,176.82L21.94,175.42" />
        <path d="M-121.16,-53.95L-114.13,-54.00L-96.51,-56.45L-78.64,-57.16" />
        <path d="M-23.35,-63.18L27.34,-65.24" />
        <path d="M-110.81,-18.06L-107.74,-16.97L-99.99,-17.13L-14.14,-26.27L23.96,-28.41L34.54,-27.32" />
        <path d="M-83.88,32.52L-80.29,33.05L-54.23,29.80L0.32,27.28" />
        <path d="M-13.58,27.72L-13.31,28.55" />
      </g>
      <g id="f3" transform="translate(-44.15 64.89)" style="--index:3; opacity:0;" class="frame">
        <path d="M-132.91,81.14L-127.19,79.25L-104.95,76.81L-31.19,74.21" />
        <path d="M-5.34,73.75L36.92,70.18" />
        <path d="M-137.32,105.25L-113.83,101.62L-83.39,98.34" />
        <path d="M-44.62,96.31L-38.76,96.90L-11.85,96.34L-4.99,97.20" />
        <path d="M-127.28,123.09L-124.13,124.13L-103.16,122.51L-34.23,120.82L5.47,121.13" />
        <path d="M-126.61,158.28L-85.99,156.03L-70.01,158.73" />
        <path d="M-38.22,156.38L-32.88,157.61L-26.68,157.86L13.45,155.30L23.75,156.86" />
        <path d="M-119.12,196.32L-90.88,194.97L-66.56,196.17L-29.22,196.29L-8.42,197.96L18.01,197.36L40.21,201.44" />
        <path d="M-121.51,-46.72L-114.12,-46.95L-78.28,-53.02" />
        <path d="M-118.77,-14.37L-91.36,-17.52L-37.57,-20.15L19.48,-22.16L36.52,-21.26" />
        <path d="M-77.56,29.65L-53.36,27.91L-17.72,26.87L-13.58,27.72" />
      </g>
      <g id="f4" transform="translate(-44.15 64.89)" style="--index:4; opacity:0;" class="frame">
        <path d="M-132.81,54.53L-114.61,51.91L-94.48,50.18L-37.15,49.54" />
        <path d="M-11.19,44.85L18.55,41.88" />
        <path d="M-123.50,72.64L-79.80,68.82" />
        <path d="M-47.96,68.08L-7.26,68.41" />
        <path d="M-125.07,98.67L-116.27,98.65L-87.25,95.20L-23.27,93.48L-1.29,92.20" />
        <path d="M-118.17,134.57L-99.91,132.72L-84.11,132.15L-65.72,133.30" />
        <path d="M-30.65,130.86L0.35,128.90L14.20,129.38L16.80,130.63" />
        <path d="M-117.98,164.90L-99.18,161.10" />
        <path d="M-116.50,193.46L-96.25,189.46L-54.62,188.59L-14.76,183.75L5.28,183.28L25.24,184.18" />
        <path d="M-109.53,-36.32L-76.27,-39.70L-41.30,-41.10L-15.20,-43.14L33.39,-43.06" />
        <path d="M-85.93,2.93L-34.89,6.40L-19.57,6.54" />
      </g>
      <g id="f5" transform="translate(-44.15 64.89)" style="--index:5; opacity:0;" class="frame">
        <path d="M-141.09,31.50L-119.19,26.91L-101.49,24.59L-76.89,23.79L-68.41,23.94L-61.15,25.17L-54.69,24.54" />
        <path d="M-12.90,12.06L12.48,10.99L21.34,9.89" />
        <path d="M-132.00,45.92L-116.94,42.09L-93.21,39.52" />
        <path d="M-41.56,42.64L-35.63,42.07L-6.88,42.74" />
        <path d="M-126.03,63.12L-10.35,59.60" />
        <path d="M-129.54,102.60L-122.62,100.56L-103.61,98.28L-82.50,97.61L-75.45,98.80" />
        <path d="M17.81,94.14L17.81,94.14" />
        <path d="M-36.81,94.74L-20.97,95.33L9.90,94.57L13.27,95.11L17.69,94.17" />
        <path d="M-124.57,144.32L-127.21,141.69L-107.59,140.73" />
        <path d="M-121.20,168.93L-101.50,164.48L-87.99,163.43L-62.46,163.27L-40.55,164.57L14.14,164.54L29.74,163.76" />
        <path d="M-116.16,-47.14L-105.83,-47.49L-80.60,-51.21L-29.55,-56.97L2.47,-58.25L32.50,-56.49" />
        <path d="M-86.30,-19.44L-82.97,-20.81L-75.43,-21.42L-42.73,-20.77" />
      </g>
      <g id="f6" transform="translate(-44.15 64.89)" style="--index:6; opacity:0;" class="frame">
        <path d="M-140.36,3.46L-133.17,1.78L-111.12,0.42L-38.89,-0.52" />
        <path d="M-10.50,-9.22L32.04,-9.98" />
        <path d="M-132.72,22.61L-99.50,21.05L-85.38,21.14" />
        <path d="M-40.59,12.85L-22.81,14.67L-9.94,14.30" />
        <path d="M-128.65,43.30L-101.57,40.57L3.26,38.45" />
        <path d="M-127.80,68.44L-107.63,66.59L-76.51,65.54" />
        <path d="M-40.53,64.82L-4.87,64.65L10.71,63.34" />
        <path d="M-131.94,117.48L-112.32,115.11L-107.04,115.26" />
        <path d="M-123.18,153.25L-101.83,148.42L-83.95,146.34L-8.02,140.78L15.08,140.85L27.57,140.53L24.97,140.06" />
        <path d="M-128.99,101.14L-90.43,97.98" />
        <path d="M-59.18,187.14L-54.32,185.93L-23.21,184.88L-2.88,185.52" />
      </g>
      <g id="f7" transform="translate(-44.15 64.89)" style="--index:7; opacity:0;" class="frame">
        <path d="M-131.72,-35.45L-98.87,-36.67L-79.09,-35.93L-61.11,-36.36L-45.68,-37.00L-33.84,-38.59" />
        <path d="M-8.50,-41.24L27.82,-43.38" />
        <path d="M-127.97,-0.72L-79.35,-5.62" />
        <path d="M-51.77,-6.95L-23.77,-10.00L-12.30,-9.51" />
        <path d="M-127.91,23.93L-33.35,19.52L6.01,19.33" />
        <path d="M-122.81,51.25L-84.65,49.39" />
        <path d="M-46.18,47.11L-42.02,47.21L-19.57,43.57L1.29,41.20" />
        <path d="M-132.11,81.54L-126.72,79.95L-114.83,78.68L-89.23,78.15L-86.44,78.46L-85.55,79.30" />
        <path d="M-130.78,102.80L-125.70,103.41L-108.72,103.07L-104.10,103.90" />
        <path d="M-123.45,128.10L-102.48,124.74L-71.50,123.02L-27.57,121.44L19.05,121.16" />
        <path d="M-117.94,158.22L-86.32,153.96L-76.63,153.50" />
        <path d="M-35.69,151.29L15.33,147.65L30.94,145.88" />
        <path d="M-63.67,187.21L-27.06,185.32L-11.56,183.63" />
      </g>
      <g id="f8" transform="translate(-44.15 64.89)" style="--index:8; opacity:0;" class="frame">
        <path d="M-114.58,203.29L-89.80,199.71L-48.71,198.86L-37.82,199.62" />
        <path d="M-134.90,-58.82L-130.91,-60.34L-108.35,-63.45L-61.13,-64.62L-45.71,-67.05" />
        <path d="M-3.36,-70.46L10.09,-72.18L36.15,-73.02" />
        <path d="M-127.65,-28.75L-120.25,-28.52L-82.29,-31.41" />
        <path d="M-53.72,-31.35L-50.35,-32.60L-23.14,-35.59L-11.77,-36.05" />
        <path d="M-122.43,-3.52L-112.43,-3.61L-82.97,-6.32L-12.72,-7.84L-0.98,-8.72" />
        <path d="M-131.52,37.07L-111.85,36.47L-78.52,32.84" />
        <path d="M-132.12,54.14L-123.54,55.17L-101.80,54.11" />
        <path d="M-122.94,105.92L-103.27,102.30L-79.87,99.83L29.68,95.23" />
        <path d="M-122.04,136.07L-103.75,133.28L-85.80,132.74" />
        <path d="M-39.49,132.79L-17.70,129.41L19.26,127.83L35.95,126.24" />
        <path d="M-65.26,169.07L-30.55,167.18L-9.70,167.43" />
      </g>
      <g id="f9" transform="translate(-44.15 64.89)" style="--index:9; opacity:0;" class="frame">
        <path d="M-119.78,181.72L-99.61,178.42L-40.94,178.08" />
        <path d="M2.93,169.22L11.32,167.56L39.52,164.55" />
        <path d="M-128.37,-50.69L-105.04,-53.91L-87.58,-54.72" />
        <path d="M-47.57,-60.12L-42.59,-62.03L-38.54,-62.63L-13.61,-64.06L-2.27,-65.60" />
        <path d="M-117.07,-27.23L-76.55,-29.15L-27.57,-28.95L-8.08,-30.87" />
        <path d="M-130.25,-2.36L-121.36,-2.26L-94.99,-5.51L-82.76,-6.20" />
        <path d="M-132.66,23.43L-99.15,20.04" />
        <path d="M-124.36,64.98L-114.19,62.02L-90.74,58.18L13.84,49.35L20.62,47.93" />
        <path d="M-122.03,97.68L-118.16,96.58L-101.67,94.67L-80.97,94.09" />
        <path d="M-111.12,134.26L-91.23,131.22L-62.61,128.65L-31.45,127.52L-11.49,125.30L31.71,122.70" />
        <path d="M-39.59,91.74L-31.20,91.86L0.22,89.55L25.63,89.81L29.76,88.88" />
        <path d="M-66.75,151.63L-33.22,152.39L-19.46,151.21" />
      </g>
      <g id="f10" transform="translate(-44.15 64.89)" style="--index:10; opacity:0;" class="frame">
        <path d="M-123.75,159.78L-111.48,157.68L-98.42,156.84L-77.32,156.97L-60.02,158.30L-39.94,157.63" />
        <path d="M-1.75,142.20L18.94,142.83L31.65,141.30" />
        <path d="M-118.35,177.74L-97.26,177.24L-82.77,174.42" />
        <path d="M-119.48,-48.59L-93.51,-51.34L-15.72,-55.16L-4.34,-57.12" />
        <path d="M-56.94,-24.29L-11.06,-26.18L0.28,-25.77" />
        <path d="M-131.51,-9.72L-123.14,-10.27L-105.23,-14.47L-96.65,-15.22" />
        <path d="M-124.57,35.85L-104.91,30.11L-75.27,24.78L-37.85,20.71L4.35,17.92L21.86,16.01" />
        <path d="M-120.09,64.96L-112.08,64.92L-79.25,60.75" />
        <path d="M-34.90,59.49L-31.09,57.56L14.17,52.70L21.90,51.30L24.11,50.13" />
        <path d="M-126.31,103.93L-117.22,102.16L-103.26,100.76L-54.51,99.05L18.06,92.70" />
        <path d="M-68.37,125.81L-26.93,125.41" />
      </g>
      <g id="f11" transform="translate(-44.15 64.89)" style="--index:11; opacity:0;" class="frame">
        <path d="M-124.52,137.92L-113.75,135.57L-102.86,134.33L-47.62,134.70" />
        <path d="M1.41,121.86L12.06,122.38L21.30,124.63L39.27,124.21" />
        <path d="M-120.19,156.00L-84.88,151.85" />
        <path d="M-52.16,156.95L-31.89,155.59L4.93,154.98" />
        <path d="M-122.33,-1.36L-104.72,-5.92L-66.94,-11.05L-24.79,-15.78L9.32,-18.28L25.34,-20.23" />
        <path d="M-122.97,33.73L-92.41,30.24L-80.07,27.44" />
        <path d="M-32.39,24.59L-28.68,23.46L-7.85,22.76L29.18,19.48" />
        <path d="M-118.86,67.50L-95.46,65.44L-4.77,60.45L21.91,57.90L33.27,57.57" />
        <path d="M-68.55,104.23L-54.10,104.06L-27.66,101.97L-9.74,103.17" />
      </g>
    </g>
    <g id="t3" transform="translate(-166.41 -67.13)" class="thread">
      <g id="f0" style="--index:0; opacity:1;" class="frame">
        <path d="M-51.01,112.54L-51.01,112.54" />
        <path d="M-123.99,118.44L-118.35,116.43L-108.28,115.30L-51.85,112.27" />
        <path d="M-4.27,97.80L34.50,96.97" />
        <path d="M-119.54,139.54L-87.05,136.84" />
        <path d="M-116.56,161.67L-113.05,159.80L-87.27,155.85L-23.99,149.53L-0.55,148.52L-1.56,147.80" />
        <path d="M-49.59,134.30L2.47,128.55" />
        <path d="M-119.04,-36.36L-116.14,-38.26L-105.74,-40.85L-75.04,-46.58L-25.06,-51.94L6.70,-53.83L14.28,-53.36" />
        <path d="M-122.39,1.17L-90.23,-1.07L-77.49,-3.38" />
        <path d="M-36.07,-5.86L1.56,-9.86L23.00,-10.87" />
        <path d="M-111.37,37.33L-55.58,30.50L-19.68,24.64L25.23,19.21" />
        <path d="M-72.36,68.79L-57.03,69.15L-6.42,65.60" />
      </g>
      <g id="f1" style="--index:1; opacity:0;" class="frame">
        <path d="M-129.82,99.83" />
        <path d="M-131.85,100.13L-79.54,96.75L-39.87,95.57" />
        <path d="M-128.52,116.32L-123.74,116.56L-101.29,114.33L-90.68,114.01" />
        <path d="M-45.80,116.59L-38.71,116.54L-15.48,113.99L0.20,114.79" />
        <path d="M-8.91,96.39L25.21,95.97L34.39,94.57" />
        <path d="M-123.40,137.85L-85.22,135.50L-33.85,135.76L-4.84,135.09" />
        <path d="M-120.46,170.15L-79.59,167.16L-69.08,167.34" />
        <path d="M-24.04,166.89L-5.60,167.04L29.45,165.47L35.73,165.98" />
        <path d="M-121.38,-27.08L-90.88,-29.61" />
        <path d="M-28.78,-36.89L-25.35,-37.69L10.35,-39.31L29.77,-41.56" />
        <path d="M-119.55,8.53L-65.78,1.75L-7.21,-2.00L31.56,-5.90" />
        <path d="M-80.30,50.53L-56.38,48.92L1.66,47.34" />
      </g>
      <g id="f2" style="--index:2; opacity:0;" class="frame">
        <path d="M-129.82,99.83L-100.23,99.40L-47.63,101.99L-39.59,101.54" />
        <path d="M7.44,97.67L10.49,98.46L32.14,98.73L39.05,99.84L41.54,100.94" />
        <path d="M-127.54,120.94L-86.43,120.84" />
        <path d="M-45.08,125.55L-30.61,124.55L-13.24,125.18L-10.48,125.98" />
        <path d="M-6.41,146.88L-6.41,146.88" />
        <path d="M-124.68,148.14L-96.17,145.71L-78.33,145.12L-7.32,146.90" />
        <path d="M-121.49,175.29L-96.55,173.19L-67.70,174.11" />
        <path d="M-37.20,176.65L-16.48,176.82L21.94,175.42" />
        <path d="M-121.16,-53.95L-114.13,-54.00L-96.51,-56.45L-78.64,-57.16" />
        <path d="M-23.35,-63.18L27.34,-65.24" />
        <path d="M-110.81,-18.06L-107.74,-16.97L-99.99,-17.13L-14.14,-26.27L23.96,-28.41L34.54,-27.32" />
        <path d="M-83.88,32.52L-80.29,33.05L-54.23,29.80L0.32,27.28" />
        <path d="M-13.58,27.72L-13.31,28.55" />
      </g>
      <g id="f3" style="--index:3; opacity:0;" class="frame">
        <path d="M-132.91,81.14L-127.19,79.25L-104.95,76.81L-31.19,74.21" />
        <path d="M-5.34,73.75L36.92,70.18" />
        <path d="M-137.32,105.25L-113.83,101.62L-83.39,98.34" />
        <path d="M-44.62,96.31L-38.76,96.90L-11.85,96.34L-4.99,97.20" />
        <path d="M-127.28,123.09L-124.13,124.13L-103.16,122.51L-34.23,120.82L5.47,121.13" />
        <path d="M-126.61,158.28L-85.99,156.03L-70.01,158.73" />
        <path d="M-38.22,156.38L-32.88,157.61L-26.68,157.86L13.45,155.30L23.75,156.86" />
        <path d="M-119.12,196.32L-90.88,194.97L-66.56,196.17L-29.22,196.29L-8.42,197.96L18.01,197.36L40.21,201.44" />
        <path d="M-121.51,-46.72L-114.12,-46.95L-78.28,-53.02" />
        <path d="M-118.77,-14.37L-91.36,-17.52L-37.57,-20.15L19.48,-22.16L36.52,-21.26" />
        <path d="M-77.56,29.65L-53.36,27.91L-17.72,26.87L-13.58,27.72" />
      </g>
      <g id="f4" style="--index:4; opacity:0;" class="frame">
        <path d="M-132.81,54.53L-114.61,51.91L-94.48,50.18L-37.15,49.54" />
        <path d="M-11.19,44.85L18.55,41.88" />
        <path d="M-123.50,72.64L-79.80,68.82" />
        <path d="M-47.96,68.08L-7.26,68.41" />
        <path d="M-125.07,98.67L-116.27,98.65L-87.25,95.20L-23.27,93.48L-1.29,92.20" />
        <path d="M-118.17,134.57L-99.91,132.72L-84.11,132.15L-65.72,133.30" />
        <path d="M-30.65,130.86L0.35,128.90L14.20,129.38L16.80,130.63" />
        <path d="M-117.98,164.90L-99.18,161.10" />
        <path d="M-116.50,193.46L-96.25,189.46L-54.62,188.59L-14.76,183.75L5.28,183.28L25.24,184.18" />
        <path d="M-109.53,-36.32L-76.27,-39.70L-41.30,-41.10L-15.20,-43.14L33.39,-43.06" />
        <path d="M-85.93,2.93L-34.89,6.40L-19.57,6.54" />
      </g>
      <g id="f5" style="--index:5; opacity:0;" class="frame">
        <path d="M-141.09,31.50L-119.19,26.91L-101.49,24.59L-76.89,23.79L-68.41,23.94L-61.15,25.17L-54.69,24.54" />
        <path d="M-12.90,12.06L12.48,10.99L21.34,9.89" />
        <path d="M-132.00,45.92L-116.94,42.09L-93.21,39.52" />
        <path d="M-41.56,42.64L-35.63,42.07L-6.88,42.74" />
        <path d="M-126.03,63.12L-10.35,59.60" />
        <path d="M-129.54,102.60L-122.62,100.56L-103.61,98.28L-82.50,97.61L-75.45,98.80" />
        <path d="M17.81,94.14L17.81,94.14" />
        <path d="M-36.81,94.74L-20.97,95.33L9.90,94.57L13.27,95.11L17.69,94.17" />
        <path d="M-124.57,144.32L-127.21,141.69L-107.59,140.73" />
        <path d="M-121.20,168.93L-101.50,164.48L-87.99,163.43L-62.46,163.27L-40.55,164.57L14.14,164.54L29.74,163.76" />
        <path d="M-116.16,-47.14L-105.83,-47.49L-80.60,-51.21L-29.55,-56.97L2.47,-58.25L32.50,-56.49" />
        <path d="M-86.30,-19.44L-82.97,-20.81L-75.43,-21.42L-42.73,-20.77" />
      </g>
      <g id="f6" style="--index:6; opacity:0;" class="frame">
        <path d="M-140.36,3.46L-133.17,1.78L-111.12,0.42L-38.89,-0.52" />
        <path d="M-10.50,-9.22L32.04,-9.98" />
        <path d="M-132.72,22.61L-99.50,21.05L-85.38,21.14" />
        <path d="M-40.59,12.85L-22.81,14.67L-9.94,14.30" />
        <path d="M-128.65,43.30L-101.57,40.57L3.26,38.45" />
        <path d="M-127.80,68.44L-107.63,66.59L-76.51,65.54" />
        <path d="M-40.53,64.82L-4.87,64.65L10.71,63.34" />
        <path d="M-131.94,117.48L-112.32,115.11L-107.04,115.26" />
        <path d="M-123.18,153.25L-101.83,148.42L-83.95,146.34L-8.02,140.78L15.08,140.85L27.57,140.53L24.97,140.06" />
        <path d="M-128.99,101.14L-90.43,97.98" />
        <path d="M-59.18,187.14L-54.32,185.93L-23.21,184.88L-2.88,185.52" />
      </g>
      <g id="f7" style="--index:7; opacity:0;" class="frame">
        <path d="M-131.72,-35.45L-98.87,-36.67L-79.09,-35.93L-61.11,-36.36L-45.68,-37.00L-33.84,-38.59" />
        <path d="M-8.50,-41.24L27.82,-43.38" />
        <path d="M-127.97,-0.72L-79.35,-5.62" />
        <path d="M-51.77,-6.95L-23.77,-10.00L-12.30,-9.51" />
        <path d="M-127.91,23.93L-33.35,19.52L6.01,19.33" />
        <path d="M-122.81,51.25L-84.65,49.39" />
        <path d="M-46.18,47.11L-42.02,47.21L-19.57,43.57L1.29,41.20" />
        <path d="M-132.11,81.54L-126.72,79.95L-114.83,78.68L-89.23,78.15L-86.44,78.46L-85.55,79.30" />
        <path d="M-130.78,102.80L-125.70,103.41L-108.72,103.07L-104.10,103.90" />
        <path d="M-123.45,128.10L-102.48,124.74L-71.50,123.02L-27.57,121.44L19.05,121.16" />
        <path d="M-117.94,158.22L-86.32,153.96L-76.63,153.50" />
        <path d="M-35.69,151.29L15.33,147.65L30.94,145.88" />
        <path d="M-63.67,187.21L-27.06,185.32L-11.56,183.63" />
      </g>
      <g id="f8" style="--index:8; opacity:0;" class="frame">
        <path d="M-114.58,203.29L-89.80,199.71L-48.71,198.86L-37.82,199.62" />
        <path d="M-134.90,-58.82L-130.91,-60.34L-108.35,-63.45L-61.13,-64.62L-45.71,-67.05" />
        <path d="M-3.36,-70.46L10.09,-72.18L36.15,-73.02" />
        <path d="M-127.65,-28.75L-120.25,-28.52L-82.29,-31.41" />
        <path d="M-53.72,-31.35L-50.35,-32.60L-23.14,-35.59L-11.77,-36.05" />
        <path d="M-122.43,-3.52L-112.43,-3.61L-82.97,-6.32L-12.72,-7.84L-0.98,-8.72" />
        <path d="M-131.52,37.07L-111.85,36.47L-78.52,32.84" />
        <path d="M-132.12,54.14L-123.54,55.17L-101.80,54.11" />
        <path d="M-122.94,105.92L-103.27,102.30L-79.87,99.83L29.68,95.23" />
        <path d="M-122.04,136.07L-103.75,133.28L-85.80,132.74" />
        <path d="M-39.49,132.79L-17.70,129.41L19.26,127.83L35.95,126.24" />
        <path d="M-65.26,169.07L-30.55,167.18L-9.70,167.43" />
      </g>
      <g id="f9" style="--index:9; opacity:0;" class="frame">
        <path d="M-119.78,181.72L-99.61,178.42L-40.94,178.08" />
        <path d="M2.93,169.22L11.32,167.56L39.52,164.55" />
        <path d="M-128.37,-50.69L-105.04,-53.91L-87.58,-54.72" />
        <path d="M-47.57,-60.12L-42.59,-62.03L-38.54,-62.63L-13.61,-64.06L-2.27,-65.60" />
        <path d="M-117.07,-27.23L-76.55,-29.15L-27.57,-28.95L-8.08,-30.87" />
        <path d="M-130.25,-2.36L-121.36,-2.26L-94.99,-5.51L-82.76,-6.20" />
        <path d="M-132.66,23.43L-99.15,20.04" />
        <path d="M-124.36,64.98L-114.19,62.02L-90.74,58.18L13.84,49.35L20.62,47.93" />
        <path d="M-122.03,97.68L-118.16,96.58L-101.67,94.67L-80.97,94.09" />
        <path d="M-111.12,134.26L-91.23,131.22L-62.61,128.65L-31.45,127.52L-11.49,125.30L31.71,122.70" />
        <path d="M-39.59,91.74L-31.20,91.86L0.22,89.55L25.63,89.81L29.76,88.88" />
        <path d="M-66.75,151.63L-33.22,152.39L-19.46,151.21" />
      </g>
      <g id="f10" style="--index:10; opacity:0;" class="frame">
        <path d="M-123.75,159.78L-111.48,157.68L-98.42,156.84L-77.32,156.97L-60.02,158.30L-39.94,157.63" />
        <path d="M-1.75,142.20L18.94,142.83L31.65,141.30" />
        <path d="M-118.35,177.74L-97.26,177.24L-82.77,174.42" />
        <path d="M-119.48,-48.59L-93.51,-51.34L-15.72,-55.16L-4.34,-57.12" />
        <path d="M-56.94,-24.29L-11.06,-26.18L0.28,-25.77" />
        <path d="M-131.51,-9.72L-123.14,-10.27L-105.23,-14.47L-96.65,-15.22" />
        <path d="M-124.57,35.85L-104.91,30.11L-75.27,24.78L-37.85,20.71L4.35,17.92L21.86,16.01" />
        <path d="M-120.09,64.96L-112.08,64.92L-79.25,60.75" />
        <path d="M-34.90,59.49L-31.09,57.56L14.17,52.70L21.90,51.30L24.11,50.13" />
        <path d="M-126.31,103.93L-117.22,102.16L-103.26,100.76L-54.51,99.05L18.06,92.70" />
        <path d="M-68.37,125.81L-26.93,125.41" />
      </g>
      <g id="f11" style="--index:11; opacity:0;" class="frame">
        <path d="M-124.52,137.92L-113.75,135.57L-102.86,134.33L-47.62,134.70" />
        <path d="M1.41,121.86L12.06,122.38L21.30,124.63L39.27,124.21" />
        <path d="M-120.19,156.00L-84.88,151.85" />
        <path d="M-52.16,156.95L-31.89,155.59L4.93,154.98" />
        <path d="M-122.33,-1.36L-104.72,-5.92L-66.94,-11.05L-24.79,-15.78L9.32,-18.28L25.34,-20.23" />
        <path d="M-122.97,33.73L-92.41,30.24L-80.07,27.44" />
        <path d="M-32.39,24.59L-28.68,23.46L-7.85,22.76L29.18,19.48" />
        <path d="M-118.86,67.50L-95.46,65.44L-4.77,60.45L21.91,57.90L33.27,57.57" />
        <path d="M-68.55,104.23L-54.10,104.06L-27.66,101.97L-9.74,103.17" />
      </g>
    </g>
  </g>
</svg>