<?xml version="1.0" encoding="utf-8"?>
<svg width="1194" height="834" viewBox="-597 -417 1194 834" xmlns="http://www.w3.org/2000/svg">
  <style>
svg { background-color:#DFC9BC; }

#looom { --version:2; }

#t0 {
--visible:1; --timeOffset:8.999998; --speed:12; --bookmarkIndex:-1; --latched:0; --playMode:0; --masked:0; --blendMode:0; 
fill:#5995A8; stroke-opacity:0; fill-opacity:1; stroke-width:9.108492; stroke-linecap:round; stroke-linejoin:round;
}
@keyframes t0 { 0% { opacity: 1; } 8.333333% { opacity: 0; } }
#t0 .frame { animation:t0 1s calc(var(--index) * 0.08333334s) steps(1) infinite; }

#t1 {
--visible:1; --timeOffset:2.999999; --speed:12; --bookmarkIndex:-1; --latched:0; --playMode:0; --masked:0; --blendMode:0; 
fill:#BA1700; stroke-opacity:0; fill-opacity:1; stroke-width:12.76653; stroke-linecap:round; stroke-linejoin:round;
}
@keyframes t1 { 0% { opacity: 1; } 8.333333% { opacity: 0; } }
#t1 .frame { animation:t1 1s calc(var(--index) * 0.08333334s) steps(1) infinite; }

</style>
  <g id="w0" transform="translate(171.50 -44.75) scale(1.20 1.20) rotate(-355.44)" class="weave">
    <g id="t0" transform="translate(-133.81 68.38)" class="thread">
      <g id="f0" style="--index:0; opacity:1;" class="frame">
        <path d="M9.60,-280.34L3.59,-282.12L-0.53,-280.40L-3.04,-277.76L-3.30,-270.40L-1.99,-264.24L-0.05,-261.01L6.43,-258.29L11.00,-257.50L20.28,-257.03L24.78,-258.88L28.95,-257.83L37.62,-258.22L40.59,-260.54L43.25,-264.18L51.72,-281.52L51.80,-289.46L50.87,-294.03L49.21,-296.29L43.25,-300.07L39.48,-301.33L34.91,-301.58L31.26,-303.77L26.96,-304.37L23.58,-304.37L16.49,-300.85L14.65,-299.20L11.73,-291.72L11.53,-283.38L10.53,-281.00L6.63,-277.76L0.47,-276.23" />
        <path d="M-27.29,-154.08L-33.83,-155.68L-39.06,-158.46L-47.53,-159.72L-51.98,-157.47L-60.12,-151.31L-67.14,-147.86L-100.44,-140.85L-113.49,-135.43L-134.62,-130.20L-144.28,-124.83L-147.72,-118.87L-149.38,-111.33L-151.69,-86.31L-151.11,-65.84L-154.68,-43.80L-158.32,-30.36L-165.34,-9.98L-176.80,33.25L-184.74,59.80L-186.60,70.39L-187.13,82.64L-186.40,100.32L-175.14,138.57L-169.78,169.03L-167.00,191.81L-161.37,215.23L-160.77,228.67L-157.27,240.00L-146.59,261.11L-142.49,265.21L-119.97,271.90L-91.84,275.81L-57.99,276.60L-37.60,278.79L-20.72,279.58L-5.88,281.56L3.92,281.77L39.34,275.34L68.34,265.55L73.04,264.69L85.83,264.36L110.66,267.13L121.52,267.40L135.30,265.62L138.79,264.29L142.44,260.58L155.15,235.56L157.61,229.13L159.25,219.60L161.51,195.84L162.11,171.94L160.46,146.12L154.17,97.86L148.27,42.19L148.19,7.97L152.97,-40.16L153.50,-73.53L145.23,-117.22L138.74,-137.87L133.44,-147.74L127.35,-154.09L117.40,-160.05L107.27,-164.55L102.37,-165.48L65.57,-166.61L36.62,-166.40L26.36,-165.02L4.17,-160.39L-4.76,-157.53L-15.23,-156.54L-27.29,-154.08" />
        <path d="M-26.42,-153.89L-38.33,-152.97" />
        <path d="M-19.06,-163.69L-20.06,-154.29" />
        <path d="M68.61,-169.12L70.85,-161.38" />
        <path d="M109.86,-168.39L112.12,-159.65" />
        <path d="M29.30,-341.04L34.82,-344.69" />
        <path d="M57.69,-345.01L61.01,-338.46" />
        <path d="M53.41,-316.38" />
      </g>
      <g id="f1" style="--index:1; opacity:0;" class="frame">
        <path d="M25.18,-299.14L17.89,-297.34L11.73,-290.46L10.53,-280.14L12.66,-277.29L14.85,-275.77L20.08,-274.12L22.32,-272.26L28.80,-271.66L38.41,-272.45L50.47,-277.76L51.52,-282.06L51.12,-299.07L53.05,-307.74L48.55,-310.45L38.88,-312.57L30.86,-309.20L27.42,-306.95L26.24,-305.30L24.30,-295.76L16.89,-291.65" />
        <path d="M-52.18,-151.38L-59.59,-149.59L-70.13,-150.38L-79.25,-149.78L-102.90,-140.39L-124.09,-130.92L-137.14,-122.45L-143.09,-115.36L-150.38,-103.32L-151.77,-97.95L-156.34,-91.67L-158.00,-86.70L-158.12,-84.18L-155.87,-75.78L-154.28,-60.36L-154.61,-44.26L-167.00,1.15L-173.41,30.87L-182.03,56.10L-183.16,65.49L-183.16,73.77L-180.77,90.38L-177.86,102.70L-166.47,137.39L-162.55,151.68L-158.38,176.38L-156.19,205.17L-150.51,227.81L-147.07,235.10L-144.68,238.08L-141.89,241.25L-135.28,245.42L-117.66,252.04L-104.41,258.13L-89.51,261.51L-76.61,266.55L-65.22,269.05L-10.71,270.71L13.97,270.25L47.28,264.62L74.90,263.55L85.63,261.24L91.99,260.72L95.76,261.17L107.35,267.27L111.65,268.12L114.89,267.27L120.52,262.56L124.76,260.25L133.04,258.67L137.68,256.75L142.97,250.38L147.21,239.73L146.76,236.94L144.17,233.04L134.57,223.32L129.72,214.51L123.64,194.78L122.71,184.72L123.03,173.20L126.15,154.39L130.39,132.82L137.94,105.68L140.32,86.74L144.17,70.20L144.17,62.78L140.65,44.24L133.71,16.24L132.38,0.88L132.58,-8.84L137.01,-32.29L142.38,-50.42L145.48,-64.99L146.61,-101.46L143.90,-110.93L141.38,-116.76L131.65,-129.46L126.48,-138.27L122.58,-142.98L107.80,-153.69L99.93,-156.67L76.76,-160.12L20.61,-159.25L-29.13,-160.91L-42.10,-158.26L-50.12,-154.89L-54.89,-151.64L-58.87,-151.04" />
        <path d="M37.12,-329.64" />
        <path d="M58.28,-323.41" />
        <path d="M58.00,-303.45L53.99,-296.99" />
      </g>
      <g id="f2" style="--index:2; opacity:0;" class="frame">
        <path d="M31.65,-318.40L31.65,-318.40" />
        <path d="M31.79,-311.32L26.89,-309.20L25.83,-307.94L24.38,-303.37L24.45,-297.34L27.02,-294.57L32.72,-291.86L38.48,-292.65L43.05,-290.13L45.57,-289.87L48.15,-291.72L49.87,-294.11L53.58,-309.27L55.97,-313.90L55.97,-315.43L54.11,-318.53L50.34,-320.64L39.01,-321.11L32.59,-318.40" />
        <path d="M23.98,-306.75L25.76,-311.58L30.13,-316.81L31.72,-317.60" />
        <path d="M6.63,-301.58L2.79,-298.33L2.79,-297.28" />
        <path d="M55.24,-340.24" />
        <path d="M81.26,-301.78" />
        <path d="M-142.16,-118.28L-136.94,-120.79L-124.35,-130.33L-116.20,-133.76L-108.39,-135.68L-85.16,-136.16L-69.32,-135.62L-39.99,-140.65L-15.23,-143.89L-0.73,-144.63L35.36,-143.97L66.68,-147.86L100.01,-149.99L107.15,-149.99L110.39,-149.06L124.16,-144.03L126.48,-142.11L133.04,-126.95L144.04,-109.94L146.28,-103.91L147.21,-98.28L147.48,-71.41L141.51,-31.62L137.81,14.65L137.41,29.08L140.05,59.34L141.65,97.26L145.48,133.81L146.15,156.45L149.40,207.89L151.18,218.35L151.26,222.91L149.65,228.34L144.17,232.52L134.17,248.60L127.73,256.61L119.86,262.64L106.02,271.37L99.66,274.22L93.50,275.67L60.14,278.79L48.08,278.72L33.58,275.94L23.45,275.15L-0.66,276.33L-59.32,276.80L-80.06,275.94L-101.12,272.36L-112.10,268.53L-121.50,264.03L-143.29,250.71L-148.25,246.22L-160.97,224.24L-166.34,211.86L-169.51,201.46L-175.87,169.96L-184.87,91.58L-185.07,-8.39L-184.27,-17.92L-176.85,-58.63L-174.81,-82.07L-172.35,-92.59L-170.90,-95.24L-168.78,-96.96L-155.61,-105.77L-144.81,-119.00L-138.79,-124.04" />
        <path d="M37.79,-324.04L44.25,-326.58L48.83,-326.66" />
        <path d="M59.78,-310.41L58.84,-298.78" />
        <path d="M965.39,-590.92L959.34,-561.82" />
      </g>
      <g id="f3" style="--index:3; opacity:0;" class="frame">
        <path d="M45.64,-317.08L40.46,-317.74L35.31,-315.16L32.92,-311.77L32.79,-306.62L36.95,-303.31L44.11,-303.23L49.87,-301.91L51.85,-302.90L52.58,-305.16L52.58,-308.01L50.07,-309.93L50.14,-315.16L44.04,-316.55" />
        <path d="M54.44,-333.95" />
        <path d="M20.86,-298.60" />
        <path d="M60.40,-305.75" />
        <path d="M-130.70,-144.63L-142.97,-138.93L-147.67,-133.10L-150.91,-125.69L-158.58,-102.06L-165.67,-87.57L-167.73,-80.08L-167.93,-76.57L-167.53,-69.56L-163.95,-57.11L-158.65,-20.23L-158.85,-3.36L-160.24,13.72L-163.08,30.14L-163.15,37.10L-162.95,39.48L-158.18,52.85L-155.81,72.25L-156.34,86.01L-164.68,141.69L-165.14,161.81L-158.53,201.13L-154.21,220.86L-151.36,246.15L-149.58,252.70L-145.01,261.98L-142.69,265.15L-137.54,269.05L-130.05,272.30L-123.76,273.68L-112.50,274.61L-95.21,274.68L-69.12,273.56L-43.31,276.60L-23.10,277.26L-1.46,277.07L65.17,273.68L138.01,273.35L153.82,271.84L165.16,268.59L169.00,264.69L170.13,261.98L176.14,241.78L177.02,229.46L172.17,196.50L165.96,166.84L165.28,160.36L165.16,149.36L166.74,131.03L166.14,117.79L163.83,107.73L155.28,79.33L153.24,66.15L152.64,48.41L149.27,11.40L150.05,-28.98L148.67,-52.07L149.27,-81.80L145.10,-102.13L141.38,-113.31L138.47,-118.42L131.00,-127.08L124.76,-139.65L120.67,-142.38L116.82,-143.77L97.29,-149.06L77.21,-150.32L44.31,-150.45L20.21,-151.64L-19.33,-152.18L-48.06,-150.65L-79.33,-150.65L-125.68,-148.87L-131.23,-147.28L-138.59,-143.64L-147.19,-137.48L-148.19,-135.16" />
        <path d="M39.21,-319.02L45.60,-317.99L50.79,-314.93" />
        <path d="M959.34,-561.82L948.21,-467.15L947.58,-425.78" />
      </g>
      <g id="f4" style="--index:4; opacity:0;" class="frame">
        <path d="M-89.92,-129.95L-100.19,-121.79L-103.69,-116.43L-107.27,-108.22L-120.70,-83.13L-123.29,-74.92L-124.29,-66.77L-124.35,-59.70L-123.29,-52.41L-120.90,-45.33L-110.65,-22.22L-103.16,-7.99L-92.10,3.73L-86.61,11.40L-75.81,30.94L-71.51,40.60L-70.25,47.09L-70.38,55.83L-72.69,63.77L-84.03,84.36L-93.10,103.22L-100.39,114.81L-105.22,126.79L-108.46,140.83L-113.69,180.48L-114.09,213.71L-112.76,224.37L-105.42,244.69L-101.57,250.45L-95.94,255.02L-86.67,260.25L-81.31,261.65L-53.09,261.90L-25.36,258.80L-10.99,258.13L31.52,258.80L63.38,264.03L77.74,267.79L92.92,272.90L107.62,275.67L117.35,276.27L122.38,274.49L134.57,265.21L141.18,258.67L165.03,226.15L170.26,214.64L178.80,184.72L179.19,174.98L176.54,156.72L167.80,127.32L164.36,112.96L157.14,94.10L155.56,85.62L155.56,74.03L157.87,63.64L163.83,49.40L175.49,27.03L185.69,11.07L190.72,0.48L192.70,-6.07L197.66,-30.63L198.39,-42.08L194.69,-58.11L187.48,-79.55L167.47,-106.76L143.84,-127.95L121.78,-141.72L99.80,-149.78L76.48,-157.41L69.87,-158.79L53.31,-160.78L42.12,-160.84L10.08,-155.82L-13.17,-151.11L-28.13,-146.21L-47.53,-141.31L-68.60,-134.36L-89.92,-129.95" />
        <path d="M-83.02,-135.16L-89.92,-129.95L-93.36,-129.66" />
        <path d="M44.64,-314.03L42.58,-309.46L43.25,-309.00L48.88,-307.94L51.00,-309.53L51.65,-311.77L47.48,-316.55L43.91,-316.94" />
        <path d="M51.78,-302.27L44.81,-302.01L43.61,-300.92" />
        <path d="M947.58,-425.78L948.45,-397.27L949.17,-391.66L953.42,-375.89" />
      </g>
      <g id="f5" style="--index:5; opacity:0;" class="frame">
        <path d="M-128.59,-68.63L-128.92,-62.74L-127.39,-45.93L-125.55,-37.78L-119.44,-31.36L-112.63,-21.89L-107.33,-16.14L-96.27,-1.50L-93.15,4.00L-90.06,20.15L-89.46,38.03L-87.27,50.73L-86.87,76.75L-90.31,102.97L-94.48,118.72L-103.10,140.43L-109.99,155.46L-114.62,168.70L-115.55,174.46L-115.60,181.80L-112.30,203.39L-110.32,227.74L-106.47,246.29L-105.09,249.59L-101.64,254.29L-98.86,256.15L-92.17,258.67L-83.17,264.03L-74.48,266.01L-58.47,266.55L-40.05,272.83L-29.13,275.08L-4.50,275.67L4.90,278.72L23.78,282.43L39.41,282.69L57.48,278.98L67.94,274.88L72.59,273.82L81.91,272.83L102.77,273.10L121.45,269.05L130.60,265.88L140.93,258.92L152.91,244.55L164.15,235.23L167.47,231.32L171.19,223.98L175.61,208.95L178.20,186.37L180.72,135.93L180.52,126.85L178.46,117.73L175.94,95.48L175.94,53.70L182.30,3.60L186.62,-15.67L189.33,-34.27L189.19,-59.76L187.60,-65.39L181.57,-78.35L165.41,-99.81L152.84,-108.95L145.35,-119.08L143.04,-121.00L133.64,-125.76L129.99,-128.67L117.28,-142.57L103.98,-159.06L99.13,-161.51L75.37,-166.07L34.96,-168.85L19.93,-167.66L6.36,-165.21L-14.30,-160.12L-19.86,-158.07L-26.55,-153.96L-41.50,-147.01L-54.75,-138.66L-68.67,-125.30L-87.34,-110.40L-106.14,-98.88L-125.93,-80.68L-127.86,-76.37L-129.25,-69.42L-132.23,-63.07L-132.36,-61.48L-131.56,-60.88" />
        <path d="M45.29,-311.98" />
        <path d="M47.82,-315.86L51.20,-307.36" />
        <path d="M953.42,-375.89L951.68,-377.24" />
      </g>
      <g id="f6" style="--index:6; opacity:0;" class="frame">
        <path d="M-1.71,-188.98L-6.01,-191.63L-15.41,-188.26L-20.51,-185.20L-35.22,-172.89L-49.99,-154.09L-59.07,-146.02L-69.85,-134.17L-104.16,-108.88L-121.18,-93.79L-133.82,-79.16L-138.65,-69.48L-139.58,-57.24L-133.95,-24.20L-126.66,-2.29L-117.66,10.88L-113.82,18.16L-111.43,26.50L-110.52,34.04L-110.24,46.42L-114.87,93.76L-123.69,133.67L-124.82,145.79L-124.87,158.50L-121.83,187.03L-116.80,210.40L-113.29,234.56L-109.72,247.14L-106.67,252.18L-101.44,258.07L-84.15,269.92L-78.65,272.23L-49.47,279.39L-38.13,280.65L-7.27,281.77L27.02,286.60L48.68,285.61L68.67,282.55L82.92,281.97L92.39,277.65L107.55,274.55L111.72,273.02L125.55,263.96L130.92,256.42L138.01,250.59L144.50,242.05L149.80,232.71L161.91,205.91L169.13,170.35L173.37,123.21L173.83,79.59L171.84,67.88L167.47,55.17L165.81,36.50L161.71,14.79L162.31,5.65L167.74,-10.77L171.24,-30.30L172.90,-56.71L169.40,-69.56L166.54,-74.46L156.01,-85.84L148.54,-97.29L140.60,-106.10L132.64,-119.93L126.62,-135.95L121.32,-145.55L112.90,-153.69L104.63,-163.63L97.55,-168.39L83.70,-175.15L60.27,-184.14L36.42,-190.51L21.01,-193.82L16.03,-194.07L8.95,-193.01L-1.38,-189.44L-1.59,-191.09L1.13,-196.99" />
        <path d="M42.20,-313.69" />
        <path d="M47.55,-312.22L42.19,-303.39" />
        <path d="M951.68,-377.24L951.62,-378.64" />
      </g>
      <g id="f7" style="--index:7; opacity:0;" class="frame">
        <path d="M18.95,-220.88L10.93,-221.61L3.72,-219.50L-3.70,-214.06L-13.70,-205.07L-17.34,-199.44L-20.99,-189.04L-27.93,-174.28L-37.80,-163.69L-48.06,-147.01L-63.82,-129.79L-78.27,-119.33L-87.60,-109.07L-102.96,-97.76L-112.63,-87.90L-125.48,-79.75L-134.48,-72.40L-144.41,-65.72L-148.12,-62.14L-151.36,-56.19L-151.84,-45.39L-150.91,-34.60L-150.38,-7.85L-145.53,14.98L-139.12,30.40L-134.48,44.24L-134.28,61.25L-137.06,102.63L-136.53,177.50L-127.33,228.14L-124.55,236.88L-121.23,243.64L-111.57,254.89L-104.29,259.00L-88.45,266.14L-80.51,272.03L-62.56,283.36L-56.73,285.47L-43.31,288.52L-37.08,289.31L-21.24,289.38L13.45,286.79L33.18,282.96L47.42,281.89L106.09,280.31L128.08,275.94L133.24,269.38L133.71,267.79L134.29,251.05L136.61,230.45L143.24,210.33L147.34,200.47L153.70,178.62L155.96,154.80L162.52,119.18L169.26,75.22L171.52,43.05L170.46,26.30L166.54,11.40L166.29,-3.22L166.54,-10.77L170.71,-38.31L170.79,-45.06L168.80,-56.05L166.94,-61.94L160.33,-76.37L142.84,-105.89L130.65,-121.58L125.37,-130.06L111.92,-148.40L99.00,-160.39L89.80,-166.47L77.54,-179.31L69.14,-184.74L62.25,-191.23L45.77,-202.75L40.99,-207.05L38.41,-208.31L23.78,-211.75L16.56,-216.32L13.85,-217.45L13.92,-216.46" />
        <path d="M36.95,-317.08" />
        <path d="M39.04,-312.56L32.00,-312.56" />
        <path d="M951.62,-378.64L952.27,-377.52" />
      </g>
      <g id="f8" style="--index:8; opacity:0;" class="frame">
        <path d="M2.79,-235.25L-2.24,-232.48L-6.69,-226.71L-14.36,-214.87L-17.07,-207.45L-15.96,-197.52L-14.63,-195.00L-8.67,-191.75L1.26,-188.71L16.11,-187.12L28.62,-188.05L34.91,-186.79L38.22,-187.00L41.47,-190.63L44.51,-197.72L46.82,-210.36L46.90,-214.60L45.29,-221.55L39.41,-230.68L30.33,-235.52L26.09,-239.88L18.95,-241.81L14.30,-241.93L4.90,-236.84L0.53,-235.79" />
        <path d="M-24.96,-166.14L-19.33,-167.27L-9.60,-166.14L3.97,-159.19L16.76,-159.25L22.59,-161.11L30.79,-162.23L49.99,-169.45L58.28,-174.22L63.11,-179.25L66.55,-185.86L68.49,-187.66" />
        <path d="M-27.20,-165.48L-33.36,-164.15L-43.63,-159.13L-49.52,-152.57L-55.81,-147.61L-59.12,-140.65L-60.71,-130.06L-62.97,-122.98L-65.22,-119.27L-70.18,-114.51L-90.71,-97.89L-109.72,-83.85L-123.56,-75.85L-133.75,-68.90L-161.77,-55.65L-165.21,-52.34L-167.00,-48.24L-166.80,-35.53L-155.41,8.63L-150.24,33.79L-144.48,52.58L-140.11,70.72L-131.76,93.03L-123.56,132.22L-122.03,145.13L-121.70,160.16L-126.48,228.07L-125.48,238.68L-123.09,248.46L-118.99,254.89L-103.16,271.37L-88.45,281.04L-83.95,283.36L-70.05,286.46L-57.01,291.42L-47.08,293.82L-8.93,290.70L12.32,284.95L40.06,279.65L63.77,271.90L83.17,270.52L96.62,266.55L117.60,266.14L122.58,264.09L128.66,258.32L133.16,248.79L137.15,242.38L139.47,234.63L143.11,209.80L145.88,173.33L148.67,150.75L149.47,128.32L152.84,99.19L153.30,88.39L153.50,63.97L148.74,23.99L148.40,0.36L150.45,-16.26L157.94,-49.24L157.87,-68.10L156.68,-74.65L154.30,-81.60L144.57,-103.32L124.89,-139.40L120.85,-143.89L109.13,-151.97L102.85,-159.46L90.00,-167.33L70.53,-184.54L70.13,-185.07L71.98,-184.95" />
        <path d="M-30.24,-178.27L-34.09,-174.35L-33.76,-173.35L-31.12,-173.56L-30.24,-178.27" />
        <path d="M-30.12,-178.39L-30.85,-179.97" />
        <path d="M0.07,-176.00L-2.77,-171.84L-2.92,-170.44L-2.57,-168.33L-0.38,-168.26L0.00,-171.70L-0.91,-174.35" />
        <path d="M33.32,-177.92L35.11,-172.83L37.35,-170.64L38.35,-171.84L38.08,-177.07" />
        <path d="M57.35,-196.65L59.80,-191.75L60.87,-190.90L61.98,-191.42L62.38,-197.98L60.92,-202.02L59.80,-203.08" />
        <path d="M27.42,-326.20" />
        <path d="M46.25,-334.68L48.01,-336.72" />
        <path d="M58.37,-327.91L61.99,-329.65" />
        <path d="M952.27,-377.52L953.41,-375.99L954.32,-384.66" />
      </g>
      <g id="f9" style="--index:9; opacity:0;" class="frame">
        <path d="M10.34,-258.80L7.09,-259.55L2.66,-259.02L-5.88,-247.70L-8.34,-241.27L-12.90,-233.33L-17.27,-222.14L-17.40,-216.12L-15.69,-211.42L-5.03,-202.28L-0.38,-200.76L12.66,-198.84L18.55,-199.05L34.58,-206.45L36.57,-206.52L39.13,-205.40L46.17,-205.79L48.48,-208.31L50.80,-212.88L52.00,-228.37L50.34,-244.72L45.17,-253.39L40.06,-258.95L26.62,-263.66L18.09,-264.11L10.34,-258.80" />
        <path d="M11.99,-258.43L10.34,-258.80L7.82,-256.63" />
        <path d="M-20.31,-190.10L-22.83,-185.07" />
        <path d="M23.98,-179.72L26.16,-172.89" />
        <path d="M63.24,-197.85" />
        <path d="M-20.51,-162.97L-36.35,-161.63L-39.99,-160.51L-41.98,-158.92L-45.15,-155.49L-47.93,-150.59L-55.22,-130.59L-68.67,-113.38L-95.21,-91.73L-117.93,-77.56L-125.75,-71.21L-137.26,-58.96L-145.53,-52.15L-155.08,-35.59L-156.27,-28.77L-156.19,-23.94L-155.28,-20.77L-146.94,-3.55L-137.19,8.82L-134.62,13.26L-131.76,23.52L-131.43,40.20L-141.44,78.80L-143.55,98.98L-141.36,135.07L-138.65,152.15L-138.45,180.75L-134.75,218.54L-132.29,230.66L-126.61,246.41L-123.49,252.11L-118.39,256.94L-105.22,266.21L-89.66,275.15L-82.37,278.32L-54.22,282.82L-42.38,283.42L-20.99,281.50L-3.24,281.37L17.95,283.36L43.05,279.39L74.97,277.46L83.90,275.87L96.02,271.64L115.62,266.88L123.31,262.43L135.75,252.11L139.07,248.00L142.71,238.74L147.61,211.93L148.60,203.45L148.80,189.74L147.54,150.09L146.15,130.43L145.48,85.75L151.06,50.73L159.33,25.77L161.39,6.58L161.31,-0.97L157.21,-12.62L154.70,-24.74L150.85,-37.85L148.27,-56.12L147.87,-72.93L149.93,-109.55L147.54,-121.52L143.31,-127.62L129.27,-140.65L113.91,-159.39L104.63,-167.07L99.33,-169.38L92.92,-170.97L86.61,-172.09L76.16,-171.90L57.96,-166.47L27.22,-161.57L19.20,-158.46L10.80,-157.20L1.07,-156.87L-9.78,-160.45L-22.70,-161.30" />
        <path d="M21.20,-341.24L20.24,-342.67L20.09,-344.88L21.43,-348.84" />
        <path d="M46.13,-349.36L50.76,-353.56" />
        <path d="M75.65,-341.15L78.66,-339.24" />
        <path d="M954.32,-384.66L956.12,-391.90" />
      </g>
      <g id="f10" style="--index:10; opacity:0;" class="frame">
        <path d="M-39.39,-156.61L-44.82,-156.27L-50.12,-150.32L-51.05,-147.67L-51.10,-143.83L-46.81,-136.35L-46.60,-130.72L-51.05,-123.51L-58.54,-116.35L-64.62,-108.15L-69.25,-104.38L-81.64,-96.77L-90.44,-89.68L-124.55,-74.32L-131.43,-66.91L-146.54,-55.52L-156.14,-40.62L-158.58,-35.26L-159.25,-23.68L-153.62,-8.78L-149.18,11.48L-148.65,37.16L-151.16,57.55L-152.90,65.16L-157.27,76.55L-165.21,90.58L-168.58,100.90L-169.97,110.77L-169.91,124.80L-166.07,145.73L-155.66,174.46L-151.36,189.49L-143.22,231.71L-141.51,236.94L-134.15,252.84L-127.46,260.32L-123.09,261.51L-112.89,262.50L-99.66,265.88L-86.47,267.40L-64.50,268.06L-42.05,267.27L1.86,270.58L52.73,271.76L90.99,267.00L102.57,263.30L110.66,259.00L122.05,254.56L136.68,243.77L144.04,234.90L147.34,229.40L151.84,207.89L153.70,170.49L154.10,146.32L152.71,114.55L148.74,77.08L147.61,42.33L151.58,5.98L159.93,-21.95L160.78,-35.93L159.65,-43.14L154.10,-63.80L141.45,-124.17L136.95,-136.88L130.27,-149.33L127.28,-153.03L119.59,-158.99L111.79,-161.57L90.13,-161.44L80.53,-159.39L69.87,-158.59L45.04,-155.01L25.31,-149.72L-0.58,-146.87L-16.67,-146.74L-30.72,-148.87L-39.72,-150.98L-41.38,-152.24L-42.43,-154.89" />
        <path d="M6.03,-271.33L0.53,-270.73L-4.83,-265.50L-8.27,-259.61L-9.00,-253.86L-7.74,-251.94L-2.84,-250.08L0.53,-246.50L3.92,-236.91L5.05,-229.49L8.14,-226.05L12.92,-222.93L23.38,-218.57L32.59,-217.45L34.91,-218.71L39.41,-222.54L44.91,-230.09L54.17,-239.16L59.67,-246.17L62.51,-252.47L63.04,-262.40L61.45,-266.30L55.77,-274.04L49.28,-278.48L44.84,-283.11L41.67,-284.44L33.51,-285.37L26.24,-284.04L21.06,-282.25L5.25,-279.68L1.53,-278.55L-0.98,-276.56" />
        <path d="M-15.41,-203.60L-17.95,-196.32L-18.07,-193.08L-17.07,-191.56" />
        <path d="M71.13,-209.10L77.94,-206.12L79.07,-203.41L78.62,-201.62" />
        <path d="M33.32,-189.17L35.11,-183.36L35.24,-180.05" />
        <path d="M21.58,-367.82L24.16,-373.84L25.68,-373.92" />
        <path d="M60.68,-366.59L66.48,-362.92L66.64,-361.48" />
        <path d="M65.51,-327.83L60.15,-322.40" />
      </g>
      <g id="f11" style="--index:11; opacity:0;" class="frame">
        <path d="M-48.86,-149.99L-39.52,-151.97L-21.92,-152.18L5.70,-149.00L17.69,-152.97L32.85,-153.36L47.62,-157.80L65.95,-157.47L90.46,-162.89L104.83,-163.76L110.13,-162.43L118.08,-158.86L130.52,-148.07L135.70,-142.24L135.22,-139.65L130.92,-135.89L126.95,-130.53L125.69,-126.55L125.55,-121.99L131.00,-107.56L137.88,-96.50L143.04,-83.72L144.62,-77.77L157.74,6.44L159.07,23.78L159.98,56.43L159.73,100.18L153.24,132.95L150.93,156.25L142.44,215.44L142.18,229.27L143.77,236.35L143.69,244.03L141.18,247.21L133.16,249.72L120.67,255.49L104.18,261.05L80.60,266.55L40.67,272.56L21.06,273.62L1.00,276.66L-7.80,277.20L-46.60,277.53L-62.97,275.48L-92.95,267.21L-106.60,264.81L-139.65,255.42L-144.95,252.97L-149.65,248.33L-162.10,231.19L-164.88,225.16L-166.87,211.33L-167.53,192.53L-165.34,176.78L-160.84,155.65L-158.91,138.97L-159.25,115.93L-163.03,94.76L-164.48,77.74L-164.81,46.03L-160.89,18.36L-149.25,-39.63L-146.21,-47.91L-140.83,-56.91L-123.82,-74.59L-110.72,-85.17L-88.07,-109.14L-79.98,-121.13L-67.14,-135.02L-62.64,-141.18L-57.86,-144.55L-46.93,-147.74" />
        <path d="M-22.90,-171.97L-23.70,-164.88" />
        <path d="M48.55,-171.84L51.12,-164.42" />
        <path d="M99.73,-180.30L103.90,-177.07L106.49,-172.09" />
        <path d="M15.38,-281.33L12.86,-285.89L11.20,-287.22L3.26,-288.41L-0.13,-288.34L-9.07,-282.91L-14.43,-276.43L-16.49,-269.34L-16.42,-265.04L-13.17,-261.86L-10.51,-256.57L-6.29,-252.80L-2.51,-247.97L5.17,-244.52L9.42,-241.08L10.93,-237.63L10.20,-229.30L15.03,-225.45L24.18,-222.41L29.68,-222.14L34.18,-223.53L40.54,-223.93L46.17,-226.45L53.58,-227.91L59.21,-232.54L62.25,-239.62L64.04,-247.24L64.64,-254.85L61.53,-262.85L56.22,-268.68L49.21,-269.14L44.96,-271.79L33.65,-269.74L30.01,-269.74L26.29,-271.33L22.72,-273.32L18.35,-277.16L17.69,-278.88L18.15,-282.78" />
        <path d="M30.34,-356.85L36.21,-359.55L37.57,-358.70" />
        <path d="M62.28,-351.20L60.50,-342.79" />
        <path d="M49.25,-324.62L36.67,-324.55" />
      </g>
    </g>
    <g id="t1" transform="translate(78.76 224.84) scale(0.85 0.85) rotate(-3.53)" class="thread">
      <g id="f0" transform="translate(-320.32 -335.82)" style="--index:0; opacity:1;" class="frame">
        <path d="M283.48,-1.39L275.83,-0.30L273.28,1.86L270.37,6.03L268.71,9.47L267.79,14.39L268.52,19.87L270.17,21.54L278.46,23.04L284.97,22.32L295.70,17.20L307.60,8.38L309.22,6.36L311.23,-2.80L310.86,-6.06L309.82,-7.50L305.67,-9.53L299.33,-10.03L291.81,-9.11L284.74,-4.94L284.46,-3.49" />
        <path d="M15.20,12.14L11.47,20.66" />
        <path d="M20.81,-189.93L20.33,-180.50" />
        <path d="M-22.50,-197.36L-33.60,-184.88L-36.46,-179.63L-36.12,-171.89L-34.00,-165.39L-30.76,-165.28L-28.91,-166.24L-6.09,-186.89L0.13,-194.01L15.40,-219.34L16.18,-221.72L15.67,-224.41L14.40,-225.66L12.04,-226.21L-2.31,-222.88L-16.56,-207.61L-19.57,-203.59L-22.50,-197.36" />
        <path d="M-17.01,-200.94L-22.03,-197.84L-22.59,-196.19" />
        <path d="M-127.51,3.60L-122.10,7.44L-120.79,7.27" />
        <path d="M-127.49,177.46L-126.86,184.61L-123.77,190.10" />
        <path d="M-124.12,467.53L-111.82,471.96" />
        <path d="M53.15,471.55L60.30,471.55L73.21,463.84L95.88,457.46L99.04,457.50L110.98,461.49L120.76,460.43L132.62,455.54L141.64,447.02L148.72,433.97L149.58,428.12L148.25,423.97L141.89,414.04L134.51,393.47L133.48,384.08L135.47,370.52L139.88,362.39L152.45,346.86L173.32,330.86L182.79,319.92L192.43,310.85L194.71,307.80L196.81,302.87L197.86,295.97L197.12,280.34L195.81,271.16L193.16,262.94L181.39,242.54L176.01,234.68L166.29,224.42L154.05,209.21L151.53,203.33L149.60,195.96L147.09,175.36L147.18,142.31L148.03,133.30L150.89,122.23L156.00,115.09L172.83,98.54L182.08,91.72L178.78,91.14L177.66,89.24L169.04,91.88L153.65,100.54L137.04,111.57L103.96,130.29L91.40,139.98L78.10,148.92L63.88,166.86L57.68,171.69L49.92,174.22L6.80,180.11L-4.37,180.10L-20.89,181.91L-23.07,182.76L-30.66,189.03L-34.84,193.61L-36.28,197.10L-34.30,208.40L-32.75,211.10L-29.03,214.78L-11.15,227.43L7.87,236.14L22.64,247.08L28.16,251.93L32.50,257.40L36.07,263.54L38.84,270.65L41.16,282.29L40.74,287.85L39.32,293.17L35.89,299.45L23.38,311.81L3.10,337.95L-10.04,369.35L-13.33,378.92L-14.32,384.95L-14.13,395.39L-12.01,411.31L-7.03,433.86L-3.17,444.04L2.51,453.04L8.83,458.50L14.03,460.32L34.24,460.77L39.48,461.73L47.29,466.58L51.82,473.47L53.18,474.22L53.89,478.38" />
      </g>
      <g id="f1" transform="translate(-320.32 -335.82)" style="--index:1; opacity:0;" class="frame">
        <path d="M-10.99,330.31L-14.66,338.19L-16.94,352.26L-16.71,362.94L-14.61,385.22L-15.69,419.12L-14.40,434.67L-11.60,452.25L-8.89,460.07L-5.82,464.29L-0.13,468.03L12.94,473.29L16.80,474.67L24.81,475.64L57.16,472.76L71.10,472.87L80.13,472.06L88.85,470.26L106.87,463.78L113.85,463.00L125.46,463.89L136.34,461.66L138.80,460.00L141.33,456.52L144.34,448.40L146.04,440.54L146.79,429.58L145.52,402.30L146.04,392.08L149.02,368.87L155.35,349.62L158.53,344.08L164.70,337.68L172.65,331.20L190.98,318.83L196.20,313.59L200.69,306.68L204.20,298.74L206.23,283.22L206.72,262.07L204.98,247.19L195.91,216.31L188.44,196.76L180.08,179.47L176.62,167.82L171.75,135.27L170.64,100.95L169.26,86.51L167.24,81.90L163.49,77.99L157.99,76.37L151.63,77.05L147.37,78.72L124.00,95.20L105.62,109.68L99.98,114.53L83.01,132.60L65.85,155.58L59.11,166.46L46.42,194.12L37.45,207.03L31.70,218.81L26.18,227.65L10.09,248.59L-4.34,258.46L-8.70,264.08L-12.30,273.76L-14.12,284.31L-14.99,298.43L-14.39,314.23L-15.48,327.28L-18.13,333.45L-24.41,338.31" />
        <path d="M306.87,-16.62L304.04,-10.58L304.19,-6.51L306.69,-5.02L310.46,-4.34L316.09,-5.26L318.88,-7.28L325.33,-15.61L326.29,-17.95L326.06,-20.20L321.67,-21.26L310.01,-21.36L308.02,-21.02L306.77,-19.67" />
        <path d="M291.58,221.43L291.06,235.26" />
        <path d="M31.35,6.37L32.21,17.59" />
        <path d="M-118.87,21.65L-114.50,30.26" />
        <path d="M-124.86,208.42L-123.05,215.50L-118.51,223.62" />
        <path d="M-118.37,490.13L-111.85,493.05L-103.37,493.96" />
        <path d="M16.00,-236.10L16.00,-236.10" />
        <path d="M16.00,-236.10L16.00,-236.10" />
        <path d="M17.61,-239.92L18.06,-240.62L17.61,-239.92" />
        <path d="M2.66,-227.54L-6.71,-216.94L-9.83,-210.70L-9.56,-207.59L-7.52,-206.38L-2.39,-205.79L2.76,-206.57L13.19,-211.65L21.77,-218.76L26.33,-224.72L33.88,-238.23L35.28,-242.04L35.16,-242.97L33.36,-243.91L28.80,-243.85L20.27,-237.68L16.00,-236.10L17.61,-239.92L4.84,-228.86L2.74,-225.76" />
        <path d="M28.48,-189.68L28.70,-183.19L27.23,-178.28" />
      </g>
      <g id="f2" transform="translate(-320.32 -335.82)" style="--index:2; opacity:0;" class="frame">
        <path d="M48.33,-242.76L48.68,-237.69L47.40,-231.85L43.05,-224.35L36.77,-218.96L23.79,-210.15L19.23,-208.28L15.14,-208.22L14.05,-211.76L14.65,-214.20L21.89,-225.55L27.66,-238.27L30.75,-242.93L36.17,-247.04L42.43,-250.31L53.85,-253.17L56.02,-251.18L51.07,-247.53L48.33,-242.76" />
        <path d="M47.80,-246.70L48.33,-242.76L38.63,-228.57" />
        <path d="M-122.01,51.41L-117.74,55.71" />
        <path d="M-129.23,231.26L-122.34,239.87L-117.29,244.62" />
        <path d="M-98.22,504.99L-90.39,508.20L-81.22,507.30" />
        <path d="M-2.09,474.58L-16.95,444.47L-22.22,418.49L-22.96,412.93L-22.13,380.17L-23.58,368.08L-28.48,349.08L-31.97,323.97L-36.03,273.92L-35.98,261.33L-34.29,248.60L-31.81,244.81L-20.56,232.84L-12.57,220.22L2.79,206.14L19.96,184.50L22.23,176.65L23.09,168.97L20.41,150.61L21.65,133.29L22.75,129.14L25.86,122.90L34.63,113.16L47.77,102.44L73.64,86.49L105.85,72.92L117.92,69.10L126.00,67.64L160.02,63.11L166.06,62.94L169.86,63.69L179.55,67.99L188.76,75.10L196.53,85.00L201.61,97.78L203.49,109.41L201.75,124.82L198.19,134.66L188.19,151.81L183.97,161.56L182.39,173.27L182.24,185.79L184.54,198.24L190.09,210.47L198.76,222.93L212.57,237.38L216.68,244.62L219.45,254.23L221.70,270.46L221.72,275.33L219.97,288.86L216.35,298.31L213.37,302.56L180.99,334.88L170.60,350.12L162.64,359.51L159.23,365.71L157.43,373.03L156.79,383.50L158.63,402.05L158.28,420.75L156.60,431.19L154.43,436.67L140.83,455.24L131.47,464.12L116.59,472.24L86.89,482.64L75.75,484.20L56.24,485.31L34.41,488.69L29.22,488.12L15.40,485.32L-2.93,483.58L-6.14,482.51L-31.42,466.52" />
        <path d="M308.03,226.25L304.32,240.89" />
        <path d="M331.29,-26.40L325.18,-24.48L323.58,-19.94L323.96,-16.46L325.01,-15.73L327.96,-15.34L333.99,-16.22L337.74,-18.83L342.36,-23.62L344.73,-28.90L347.78,-31.98L348.30,-33.46L335.38,-31.19L333.69,-29.71" />
        <path d="M359.10,-29.78L357.00,-20.69" />
        <path d="M464.66,-152.20L455.01,-155.65L454.54,-153.07" />
      </g>
      <g id="f3" transform="translate(-320.32 -335.82)" style="--index:3; opacity:0;" class="frame">
        <path d="M-43.70,47.35L-54.91,68.35L-57.07,73.92L-58.64,81.67L-58.98,98.64L-57.25,109.81L-52.77,118.73L-34.77,133.97L-27.80,138.94L-24.93,142.81L-20.28,153.51L-17.79,167.97L-17.39,175.86L-22.76,190.97L-28.54,204.96L-35.63,216.13L-38.43,222.25L-42.74,243.04L-43.07,253.08L-42.52,265.98L-40.72,280.68L-29.31,322.12L-24.88,341.28L-22.79,355.64L-21.34,389.67L-18.64,415.34L-16.41,423.78L-12.58,433.65L-7.83,440.89L-1.46,444.99L7.36,449.09L36.57,458.74L48.47,463.52L64.47,465.64L87.85,466.31L96.19,465.04L104.34,461.83L111.45,460.25L114.32,460.04L120.95,461.35L126.90,461.02L130.64,459.66L132.56,458.00L138.20,450.79L141.10,444.74L143.65,431.35L146.24,402.36L145.31,394.22L141.69,379.37L136.95,342.63L137.00,336.49L139.40,318.40L147.35,287.76L149.80,272.00L150.35,246.52L148.66,223.70L149.21,209.46L151.42,195.95L158.99,175.43L162.04,169.37L172.69,152.92L185.08,124.36L188.25,114.97L189.50,103.72L188.59,92.82L187.70,88.38L183.00,76.65L179.49,69.88L174.67,65.01L163.72,59.08L154.18,56.49L137.35,54.80L95.20,60.89L76.84,64.27L67.27,63.98L45.84,57.86L36.51,53.91L31.04,52.51L2.02,50.87L-7.41,49.13L-14.17,50.42L-19.40,47.19L-40.56,37.74" />
        <path d="M-123.04,73.81L-117.06,73.18L-113.59,74.98" />
        <path d="M-118.47,259.34L-113.34,266.67" />
        <path d="M-98.48,534.93L-81.92,527.46L-69.76,524.96" />
        <path d="M324.72,239.90L319.75,252.21" />
        <path d="M365.73,-25.20L369.63,-29.22L373.67,-35.66L370.51,-36.26L366.27,-35.62L360.04,-31.48L359.44,-30.15L359.94,-28.17L362.87,-25.72L365.73,-25.20" />
        <path d="M364.44,-23.96L370.39,-27.11L373.66,-32.12L373.59,-35.57L372.11,-36.16L361.13,-35.17L361.33,-34.33L363.24,-33.48L367.06,-33.28" />
        <path d="M390.49,-35.14L385.28,-21.62" />
        <path d="M54.91,-261.10L54.91,-261.10" />
        <path d="M57.58,-261.93L54.91,-261.10L57.58,-261.93" />
        <path d="M55.82,-257.51L46.85,-257.28L35.84,-245.50L34.41,-243.19L34.37,-239.95L39.40,-238.74L48.83,-240.15L58.86,-245.10L65.23,-249.33L68.10,-252.00L70.74,-256.43L71.41,-263.69L67.59,-263.50L67.47,-266.15L66.62,-266.03L57.58,-261.93L58.20,-261.93L58.27,-260.28L55.82,-257.51" />
        <path d="M58.32,-257.46L55.82,-257.51L54.70,-256.36" />
        <path d="M61.13,-217.48L53.41,-206.22" />
        <path d="M454.54,-153.07" />
      </g>
      <g id="f4" transform="translate(-320.32 -335.82)" style="--index:4; opacity:0;" class="frame">
        <path d="M14.67,458.60L-3.86,441.77L-24.36,418.38L-37.33,407.28L-46.07,393.04L-50.05,382.63L-51.86,370.20L-52.25,361.45L-51.64,351.22L-49.21,340.51L-44.71,332.98L-35.23,325.04L-16.95,302.62L-11.20,290.37L-8.41,281.03L-7.47,272.80L-7.48,263.28L-9.13,249.11L-15.19,219.55L-19.19,203.00L-23.69,188.74L-29.40,174.78L-47.47,141.31L-60.70,111.06L-79.43,55.57L-82.04,39.55L-81.69,30.93L-79.50,19.63L-78.56,17.69L-76.42,16.08L-73.63,15.71L-68.61,18.65L-31.01,50.47L-22.92,55.13L-11.94,63.12L-6.79,65.65L-1.55,70.07L12.41,79.29L47.94,105.02L73.47,118.85L93.98,125.71L148.57,150.31L169.07,169.53L178.41,185.35L182.89,198.85L184.56,209.71L184.33,219.74L181.61,228.90L178.75,233.93L169.20,244.95L162.09,255.97L158.11,260.36L146.23,270.51L138.03,280.50L124.94,293.88L121.04,300.06L116.53,312.23L115.21,321.13L116.72,333.14L119.94,340.25L129.10,353.43L132.69,361.53L134.51,368.05L135.04,372.07L134.33,378.61L132.05,385.69L127.99,392.91L109.50,414.88L104.65,419.31L72.91,441.55L59.41,448.31L41.44,453.37L20.90,456.34L14.67,458.60" />
        <path d="M15.49,459.42L14.67,458.60L7.65,462.67L6.05,463.03L5.81,462.35" />
        <path d="M72.32,-247.45L57.94,-245.54L51.33,-241.98L47.86,-237.98L43.11,-229.24L42.66,-223.21L43.49,-221.65L48.05,-218.80L50.82,-218.70L62.48,-229.14L64.35,-231.67L67.08,-232.51L69.06,-234.19L71.22,-237.31L73.99,-239.17L75.34,-242.03L75.29,-242.88L74.32,-243.15L61.88,-242.60L57.83,-240.49L52.94,-236.45" />
        <path d="M82.16,-228.54L78.92,-222.76" />
        <path d="M-121.81,94.26L-115.54,96.42" />
        <path d="M-111.26,284.57L-108.51,290.42" />
        <path d="M-77.74,543.57L-56.26,537.56" />
        <path d="M331.84,257.28" />
        <path d="M401.29,-24.32L392.05,-10.41" />
      </g>
      <g id="f5" transform="translate(-320.32 -335.82)" style="--index:5; opacity:0;" class="frame">
        <path d="M14.32,455.40L-3.37,437.15L-10.00,428.19L-17.74,413.10L-23.29,405.73L-34.07,388.69L-39.30,373.64L-41.80,358.24L-40.37,349.48L-38.78,343.20L-32.76,329.27L-27.98,314.86L-13.27,256.90L-11.02,241.42L-10.95,231.88L-11.77,223.26L-20.23,194.02L-23.12,187.80L-29.46,165.99L-34.55,153.84L-37.43,143.37L-45.21,127.57L-45.67,124.79L-42.24,123.86L-38.55,124.40L-31.23,123.74L-14.89,115.43L-7.72,108.97L6.22,90.04L10.26,82.65L13.19,80.46L23.02,87.41L40.23,94.87L46.62,96.85L60.33,99.35L80.16,106.46L89.49,113.80L103.25,121.33L118.17,123.51L127.66,127.44L141.75,131.63L152.15,140.00L157.30,149.70L161.88,156.32L167.98,168.50L171.96,191.88L169.23,200.27L165.27,208.42L159.07,228.53L152.53,239.31L144.82,249.85L140.62,262.05L125.54,294.82L121.97,309.30L121.50,314.71L122.34,321.53L126.16,330.21L128.88,339.92L130.85,358.31L131.68,391.24L130.68,397.82L127.28,407.09L113.89,421.15L84.80,445.62L76.94,449.90L56.21,459.11L43.05,461.42L33.86,460.83L19.62,457.93L16.74,456.50L14.23,454.08L6.91,442.79" />
        <path d="M-65.87,-14.48L-70.76,-20.00L-72.14,-26.26L-70.57,-35.76L-68.56,-39.56L-66.51,-41.26L-65.12,-31.45L-65.87,-14.48" />
        <path d="M-59.70,94.32L-55.30,98.47L-44.58,96.80L-32.06,91.04L-22.01,84.36L-19.85,81.55L-17.45,74.22L-16.30,64.48L-16.74,55.33L-17.85,48.79L-21.48,41.02L-36.85,21.35L-47.18,2.82L-59.34,-9.80L-65.87,-14.48L-67.02,3.42L-66.92,17.64L-68.74,40.78L-65.61,70.09L-66.04,77.00L-65.36,82.57L-62.86,91.44L-60.43,95.99L-59.86,100.33L-59.02,101.23" />
        <path d="M176.87,140.56L183.77,141.07L189.75,143.96L197.02,150.15L203.39,158.43L205.53,163.80L206.65,175.15L206.37,180.22L203.60,184.75" />
        <path d="M45.91,-190.52L36.51,-190.21L31.55,-189.08L27.02,-182.80L26.56,-179.20L27.13,-175.42L34.74,-169.83L50.64,-171.55L58.78,-178.85L59.72,-181.42L59.61,-183.84L44.71,-187.61L39.00,-188.10" />
        <path d="M68.36,-167.93L63.23,-163.15" />
        <path d="M-127.36,118.12L-120.56,123.13L-113.37,126.25" />
        <path d="M-124.41,314.09L-119.66,323.13" />
        <path d="M-80.76,559.87L-72.38,564.26L-68.69,565.34L-63.58,566.00L-51.81,565.15" />
        <path d="M351.40,263.57L348.06,272.76" />
        <path d="M387.00,-38.93L382.51,-34.79L382.47,-25.65L383.97,-23.81L387.32,-24.03L390.67,-28.48L391.62,-33.65L391.43,-41.09L389.85,-41.74L386.62,-40.53" />
        <path d="M409.16,-29.13" />
      </g>
      <g id="f6" transform="translate(-320.32 -335.82)" style="--index:6; opacity:0;" class="frame">
        <path d="M-74.20,-52.35L-79.60,-26.22L-82.07,0.30L-80.38,17.71L-76.74,28.47L-71.92,34.59L-63.26,41.55L-59.53,43.09L-52.66,44.46L-45.67,44.86L-36.79,43.60L-28.56,38.58L-26.31,35.52L-25.35,30.83L-25.81,26.25L-31.09,17.27L-36.08,6.31L-39.37,-4.04L-40.21,-18.17L-39.23,-24.99L-37.00,-32.44L-37.23,-37.76L-48.37,-58.69L-54.71,-66.12L-56.02,-70.10L-56.92,-76.84L-54.45,-95.57L-53.69,-98.66L-49.36,-107.57L-52.66,-101.63L-58.99,-82.31L-68.83,-62.89L-74.24,-54.39L-75.66,-48.47" />
        <path d="M-36.22,134.78L-26.44,145.12L-20.45,148.65L-6.56,150.19L-0.57,149.64L4.89,146.94L12.89,140.84L26.09,125.78L38.62,119.39L52.88,117.19L56.42,117.81L61.12,120.10L66.82,125.00L74.95,130.45L79.30,132.39L96.26,134.54L115.49,134.10L120.68,134.68L142.73,143.07L149.00,147.03L156.50,153.82L173.75,163.32L179.50,167.51L184.02,172.49L187.46,178.17L188.28,183.88L186.47,209.78L182.22,226.31L178.73,232.67L172.04,242.06L170.50,247.06L169.87,253.12L170.18,264.18L173.41,290.26L170.76,325.94L170.99,337.63L168.02,357.93L169.49,385.57L168.51,391.21L161.37,403.10L159.71,405.45L153.48,409.57L145.35,416.48L131.24,430.32L112.62,440.74L100.99,443.86L82.24,451.95L48.70,460.59L23.71,462.65L17.12,462.27L-0.20,456.94L-5.45,454.02L-9.56,450.32L-23.73,433.16L-27.22,428.29L-32.06,419.09L-47.05,381.60L-48.47,368.49L-47.09,356.42L-41.02,328.71L-33.36,305.20L-26.18,269.39L-23.30,231.32L-22.05,188.67L-23.87,168.47L-30.27,152.95L-35.70,146.43L-36.83,139.11L-37.92,137.46L-36.17,136.44" />
        <path d="M215.53,227.66L214.85,229.12L215.53,227.66" />
        <path d="M215.80,227.08L215.53,227.66L215.80,227.08" />
        <path d="M211.63,176.76L212.65,176.47L213.73,178.06L218.69,188.81L222.90,210.36L218.54,223.84L215.80,227.08L219.36,205.71L219.40,197.75L218.33,190.82L211.63,176.76" />
        <path d="M210.78,185.53L211.63,176.76L210.67,172.33" />
        <path d="M-81.13,357.49L-83.99,365.98L-85.34,372.93L-84.48,383.59L-79.13,398.93L-75.56,405.54L-74.06,406.91L-74.83,401.58L-78.60,389.90L-80.71,377.58L-81.76,366.79L-81.13,357.49" />
        <path d="M-74.77,350.67L-80.20,355.42L-81.13,357.49L-79.60,346.28" />
        <path d="M16.76,-158.15L11.78,-154.90L11.85,-153.73L12.86,-150.25L17.75,-147.83L32.02,-146.98L35.03,-147.45L32.00,-151.37L26.26,-156.11L20.08,-157.50" />
        <path d="M51.23,-146.93L52.32,-139.92" />
        <path d="M-120.03,129.42" />
        <path d="M-129.73,338.55L-125.70,347.08L-117.81,360.11" />
        <path d="M-67.83,560.58L-61.81,565.60L-44.66,569.70" />
        <path d="M364.75,277.45L361.45,289.46" />
        <path d="M413.16,-27.38L413.19,-17.72" />
      </g>
      <g id="f7" transform="translate(-320.32 -335.82)" style="--index:7; opacity:0;" class="frame">
        <path d="M-40.29,-141.08L-40.20,-142.70L-40.29,-141.08" />
        <path d="M-54.46,-123.97L-58.66,-116.48L-70.38,-86.92L-77.52,-72.05L-79.29,-53.32L-79.12,-39.66L-80.36,-21.16L-79.55,-16.87L-75.10,-11.25L-68.88,-7.19L-63.91,-5.73L-55.23,-6.72L-47.86,-9.91L-43.93,-15.39L-41.43,-20.84L-40.93,-27.05L-42.22,-38.03L-44.68,-45.74L-49.18,-66.07L-51.12,-79.97L-48.85,-103.71L-44.59,-120.72L-43.93,-128.76L-40.29,-141.08L-52.14,-124.91L-57.44,-112.64" />
        <path d="M-109.47,-31.21L-110.84,-21.43L-109.76,-12.68L-104.16,4.51L-101.94,8.77L-100.91,8.87L-101.55,2.27L-107.32,-15.68L-108.38,-24.75" />
        <path d="M-9.59,-149.23L-6.81,-143.77L-5.60,-138.81L-4.84,-132.62L-5.35,-126.82L-9.39,-136.50L-9.59,-149.23" />
        <path d="M-14.95,-155.20L-9.59,-149.23L-10.29,-152.19" />
        <path d="M-24.46,166.33L-18.64,167.62L-13.98,167.62L30.68,162.07L51.83,160.75L71.30,161.62L90.52,167.08L106.01,166.99L110.38,166.17L116.47,162.76L125.02,156.12L130.42,150.60L133.97,149.50L143.58,152.54L151.73,156.96L169.08,164.41L179.89,171.54L196.43,185.87L199.44,193.18L201.36,207.63L199.02,218.96L193.15,235.23L191.25,243.44L190.35,264.49L191.94,283.39L193.95,289.73L198.77,298.14L202.77,302.79L215.99,315.11L223.65,326.60L227.97,337.74L230.06,351.00L228.88,360.52L225.76,370.76L222.74,376.99L211.90,394.33L208.20,399.07L193.20,409.32L183.08,422.63L171.68,429.19L163.20,435.90L159.69,437.86L153.56,439.63L128.33,444.64L110.55,445.90L77.05,450.21L57.67,455.22L22.73,460.66L12.22,459.14L6.81,457.50L-3.68,452.53L-9.92,447.14L-18.71,433.68L-21.00,428.32L-24.84,414.29L-27.29,396.36L-29.28,371.29L-29.22,357.60L-27.99,345.55L-19.70,309.12L-20.68,292.34L-20.08,269.68L-24.26,237.12L-26.52,231.84L-32.03,223.68L-35.25,217.18L-36.92,211.82L-38.59,200.40L-38.30,194.93L-37.23,191.72L-24.46,166.33" />
        <path d="M-29.25,164.15L-24.46,166.33L-19.86,159.60" />
        <path d="M-106.75,365.15L-112.58,369.78L-115.15,376.04L-115.83,381.47L-114.42,392.77L-113.42,395.54L-110.40,401.68L-106.97,406.09L-110.48,396.97L-111.94,387.63L-111.39,380.56L-109.79,373.66" />
        <path d="M252.19,185.98L253.33,193.71L251.76,201.40L248.15,206.13L242.88,207.38L241.52,205.52L241.68,203.14L252.19,185.98" />
        <path d="M246.74,170.67L252.19,185.98L253.31,182.31" />
      </g>
      <g id="f8" transform="translate(-320.32 -335.82)" style="--index:8; opacity:0;" class="frame">
        <path d="M-65.90,-101.12L-70.95,-98.80L-74.23,-90.90L-75.81,-83.44L-76.85,-69.30L-76.63,-61.15L-75.95,-56.68L-71.57,-49.16L-65.73,-46.08L-60.30,-44.37L-50.50,-45.75L-45.84,-48.58L-38.45,-55.69L-33.05,-65.37L-31.50,-71.49L-31.49,-80.86L-36.61,-128.24L-37.02,-153.12L-37.73,-158.45L-40.19,-162.13L-43.85,-161.97L-45.62,-160.47L-53.09,-146.19L-58.52,-128.39L-60.33,-113.68L-61.78,-107.98L-65.90,-101.12" />
        <path d="M-64.93,-101.57L-66.92,-99.97L-70.83,-94.49L-70.15,-94.58" />
        <path d="M-110.12,-66.88L-109.39,-53.64L-108.27,-51.75L-106.91,-51.61L-107.37,-57.37L-110.12,-66.88" />
        <path d="M-105.17,-75.84L-109.40,-70.32L-110.12,-66.88L-110.47,-70.10" />
        <path d="M-14.63,-168.92L-13.80,-164.24L-14.46,-164.06L-14.63,-168.92" />
        <path d="M-14.63,-168.92L-14.63,-168.92" />
        <path d="M-15.09,-170.52L-14.63,-168.92L-15.09,-170.52" />
        <path d="M-21.20,-179.31L-18.36,-177.87L-15.09,-170.52L-21.20,-179.31" />
        <path d="M-24.61,-181.04L-21.20,-179.31L-22.33,-181.66" />
        <path d="M-14.11,-56.17L-22.56,-38.61" />
        <path d="M185.43,80.41L184.38,81.19L185.43,80.41" />
        <path d="M-22.11,170.51L-17.29,167.04L-7.25,165.00L-0.65,165.62L28.96,163.94L53.77,161.12L67.73,152.49L80.13,139.29L99.05,124.09L115.87,113.36L130.30,102.39L146.77,91.94L169.72,79.92L182.98,76.51L186.91,75.98L190.04,77.05L185.43,80.41L187.30,80.01L187.68,82.40L184.11,90.43L177.33,103.84L157.93,137.34L156.51,143.12L156.29,148.66L158.60,169.58L164.21,189.77L169.32,200.34L176.47,210.47L187.07,220.31L191.70,227.24L205.26,239.83L212.14,250.73L213.70,259.49L213.29,262.92L210.07,271.92L204.32,282.37L202.30,289.17L201.34,300.15L202.37,308.59L204.33,312.73L208.40,317.78L226.02,331.88L238.71,343.32L242.70,349.00L244.69,358.10L243.91,364.58L241.34,371.37L224.71,392.47L206.89,411.67L181.05,431.55L157.62,443.57L141.45,450.91L106.85,464.09L90.91,466.84L63.06,468.58L46.77,468.00L17.62,460.63L0.35,450.96L-3.60,447.33L-7.23,442.46L-10.24,437.58L-13.17,430.35L-15.62,414.24L-13.44,399.39L-3.54,373.29L0.08,356.06L-0.18,334.60L-2.91,310.51L-5.26,302.40L-13.61,288.18L-17.92,284.11L-26.35,279.33L-28.99,276.54L-31.43,271.90L-41.38,244.51L-47.25,221.70L-48.48,211.79L-47.33,197.39L-44.17,188.56L-39.14,180.80L-30.39,172.01L-22.93,166.13L-18.13,164.24L-7.42,162.57" />
        <path d="M249.67,176.26L256.33,183.01L261.80,196.29L263.10,205.62L261.50,208.83L258.98,209.48" />
        <path d="M-141.24,388.71L-141.45,395.42L-139.43,404.60L-136.19,409.43L-132.59,411.71L-128.14,412.61" />
        <path d="M-61.85,144.41L-67.53,147.92L-70.81,154.65L-73.00,170.60L-73.20,180.93" />
      </g>
      <g id="f9" transform="translate(-320.32 -335.82)" style="--index:9; opacity:0;" class="frame">
        <path d="M-57.98,-120.90L-60.33,-113.68L-61.75,-99.48L-61.36,-93.64L-59.23,-85.25L-56.74,-82.52L-51.62,-80.14L-41.77,-81.29L-37.96,-83.93L-35.27,-89.71L-33.85,-96.81L-33.30,-111.06L-35.48,-133.26L-33.78,-146.55L-29.11,-163.46L-28.78,-171.12L-29.40,-175.07L-31.45,-176.36L-33.04,-176.38L-40.26,-163.94L-46.06,-146.56L-58.74,-124.82L-61.03,-119.63L-61.99,-114.32" />
        <path d="M-7.21,-185.17L-3.16,-179.03L-1.94,-171.63L-2.61,-168.39" />
        <path d="M-118.13,-31.86" />
        <path d="M-127.66,-39.02L-122.34,-30.91L-116.92,-26.84" />
        <path d="M-7.65,-34.77L-17.00,-22.28" />
        <path d="M115.07,121.02" />
        <path d="M110.49,120.76L107.26,126.78L106.56,130.25L107.81,138.51L111.07,143.50L114.83,145.75L122.10,147.14L128.12,149.73L137.15,149.63L146.64,148.20L149.00,148.84L153.37,152.74L158.11,161.63L159.61,168.83L160.00,180.57L161.36,191.48L161.45,202.17L164.30,218.23L167.81,225.08L170.91,228.83L183.92,237.96L188.14,241.81L193.05,250.91L194.75,257.20L201.52,311.61L201.63,324.34L203.96,342.44L202.87,356.75L198.35,378.91L189.63,400.21L184.09,408.42L159.52,430.73L146.69,439.59L134.82,449.13L105.70,462.59L88.78,467.91L74.14,470.33L58.06,474.12L47.67,475.43L20.11,471.08L-5.51,463.07L-18.27,454.00L-21.48,450.10L-24.52,442.55L-25.28,437.47L-24.91,434.42L-19.14,420.36L-14.76,413.73L-1.45,400.15L2.42,393.12L5.27,384.46L6.14,377.98L5.99,371.00L5.13,364.58L1.78,355.35L0.14,342.98L2.90,328.29L4.56,305.81L5.52,304.19L13.31,297.64L20.60,288.49L33.98,274.37L36.67,269.20L38.99,259.93L38.09,249.11L35.44,239.79L33.13,234.98L15.57,215.30L5.86,206.75L-10.23,198.27L-12.08,191.52L-10.73,187.95L-7.56,183.99L6.93,171.05L23.56,162.39L32.44,160.50L67.60,147.47L73.43,143.94L87.50,132.00L104.08,121.07" />
        <path d="M158.71,81.78L154.28,86.22L152.82,90.67L153.57,97.48L156.45,102.06L161.07,104.66L169.67,106.04L175.23,105.30L185.54,101.10L192.76,95.65L197.58,89.90L206.94,72.76L214.04,63.48L235.92,49.24L241.66,40.29L241.20,38.61L232.31,33.35L227.62,33.10L222.75,34.23L217.56,37.21L186.88,59.77L176.96,65.66L165.31,76.33L159.14,78.97" />
        <path d="M261.38,199.64L261.49,206.55L258.04,211.82L252.27,217.61" />
        <path d="M-143.01,413.81L-139.00,420.82L-135.62,423.76L-127.18,426.34" />
        <path d="M-88.69,157.98L-82.48,152.04L-86.28,158.99L-88.54,166.85L-88.43,172.42L-87.18,173.51" />
      </g>
      <g id="f10" transform="translate(-320.32 -335.82)" style="--index:10; opacity:0;" class="frame">
        <path d="M-23.23,-186.18L-23.23,-186.18" />
        <path d="M-43.63,-157.59L-56.38,-136.07L-60.05,-126.37L-61.08,-120.02L-60.42,-111.92L-56.35,-108.07L-51.84,-108.51L-50.10,-109.53L-39.19,-119.79L-27.81,-141.84L-23.89,-153.84L-22.89,-160.51L-23.23,-186.18L-27.09,-183.78L-37.97,-170.38L-43.63,-157.59" />
        <path d="M-43.19,-158.20L-46.78,-150.79" />
        <path d="M4.25,-191.98L6.24,-182.88" />
        <path d="M-130.32,-18.84L-122.96,-14.95" />
        <path d="M3.49,-13.28L-3.14,-5.64" />
        <path d="M-99.54,153.36L-104.52,156.77L-104.82,163.98" />
        <path d="M-10.86,201.18L-1.12,202.73L10.70,209.41L28.00,214.66L31.96,216.57L36.24,221.59L43.70,235.15L45.27,244.47L43.87,252.35L40.86,260.46L40.81,267.79L35.41,276.77L24.62,285.67L21.55,290.41L20.22,299.33L20.72,311.37L21.58,317.16L25.60,321.98L28.49,323.56L39.04,326.01L46.09,331.04L49.52,339.72L50.98,348.25L49.38,355.71L42.79,367.20L27.71,383.37L14.07,393.14L7.19,401.84L-5.63,414.32L-10.61,421.83L-14.57,432.26L-15.19,441.24L-14.02,449.34L-8.40,459.69L-4.07,464.45L0.64,467.92L6.11,471.13L10.13,472.41L32.67,476.09L60.18,472.97L77.84,468.51L91.65,466.35L101.35,463.64L122.91,459.98L130.72,457.85L144.90,450.37L154.28,448.11L159.65,445.82L173.90,433.46L177.74,427.35L178.39,416.97L177.27,410.35L172.80,396.31L167.51,386.63L165.29,371.12L166.49,363.49L183.11,312.18L189.90,285.31L190.41,278.39L189.12,267.56L185.75,258.89L179.02,246.71L165.19,232.12L157.64,219.12L151.16,209.98L147.68,199.29L146.36,189.86L142.30,182.46L141.21,178.51L140.62,174.02L142.09,166.74L141.80,165.06L133.12,164.40L97.87,170.27L90.55,169.05L87.39,167.81L83.02,164.54L77.65,158.57L75.06,153.87L73.63,147.85L69.06,148.31L53.01,154.77L36.87,165.49L21.81,178.90L13.03,189.20L9.40,192.04L3.82,193.18L-7.62,191.16L-7.15,190.00" />
        <path d="M209.77,33.68L195.43,39.44L190.07,42.44L186.25,45.61L179.42,54.01L169.72,68.03L168.94,71.13L170.05,75.23L173.16,77.25L178.25,77.75L199.20,76.71L209.83,74.90L215.08,71.75L221.86,66.05L240.80,54.64L250.51,46.59L257.01,39.19L261.50,32.69L264.28,26.42L264.28,21.07L262.15,16.95L253.07,17.84L240.50,17.47L233.24,18.52L215.25,25.24L208.08,26.34L205.14,27.84" />
        <path d="M276.55,207.93L275.25,214.08L271.77,219.82" />
        <path d="M-138.10,427.62L-132.49,433.17L-123.05,438.37" />
      </g>
      <g id="f11" transform="translate(-320.32 -335.82)" style="--index:11; opacity:0;" class="frame">
        <path d="M246.65,15.50L243.68,15.95L233.36,19.92L227.95,27.25L212.01,39.28L208.62,43.42L205.21,49.70L202.24,59.85L203.27,63.57L205.47,64.15L213.60,63.07L220.65,59.92L234.00,56.10L254.76,42.41L263.81,38.84L275.60,32.24L279.59,28.56L282.94,23.47L285.21,14.67L284.91,10.61L283.09,5.27L281.97,4.48L276.35,3.10L272.29,3.32L246.65,15.50" />
        <path d="M253.54,15.57L246.65,15.50L245.73,16.54L245.81,17.78" />
        <path d="M-12.59,201.19L-7.62,204.85L31.17,208.34L39.02,211.69L40.20,213.59L38.89,228.00L37.04,236.50L37.45,246.60L38.43,248.13L48.01,255.66L49.34,259.80L47.96,273.69L44.89,285.42L45.51,294.78L46.80,299.08L56.59,318.32L58.41,327.91L64.11,335.25L67.38,351.57L67.04,355.48L64.73,362.86L58.52,374.79L57.38,378.56L58.27,385.91L62.40,403.93L63.21,410.04L62.91,414.95L54.95,427.18L51.10,437.30L47.40,444.31L45.98,449.70L47.40,460.91L50.60,466.07L53.85,468.48L59.29,470.51L68.45,471.80L80.88,470.69L89.26,467.92L95.78,460.13L108.03,455.20L112.04,454.59L121.71,456.38L133.33,456.79L145.73,455.93L149.17,451.06L153.14,448.34L154.46,446.35L155.00,443.44L154.58,438.47L150.94,432.42L142.98,413.97L141.57,408.73L140.74,399.55L142.30,388.88L145.80,384.40L153.31,369.72L157.79,350.87L157.89,343.93L152.86,336.26L149.58,332.92L136.65,329.14L130.63,324.75L127.50,319.66L126.87,315.42L130.00,305.25L134.68,295.49L143.58,286.69L149.60,276.36L158.36,265.19L162.01,254.88L161.78,246.65L158.79,241.23L154.43,236.30L143.92,231.24L135.89,224.69L132.19,222.97L127.81,221.91L124.44,222.12L118.76,226.18L114.41,227.16L109.42,230.50L105.51,231.17L95.70,228.39L90.25,224.23L87.06,219.15L85.70,212.48L87.83,204.73L87.84,200.79L89.92,196.90L95.63,189.53L97.97,182.84L97.02,176.84L94.61,174.71L92.12,173.71L78.79,171.16L59.17,172.75L44.27,177.97L31.26,184.17L24.70,189.37L5.62,196.63L-16.34,199.65L-18.18,199.33L-18.86,197.85" />
        <path d="M-30.23,-176.60L-36.22,-172.66L-39.22,-169.19L-47.94,-153.71L-50.05,-148.24L-51.09,-141.89L-50.50,-137.47L-45.03,-134.75L-41.03,-134.80L-33.69,-140.66L-26.09,-151.51L-20.63,-162.38L-14.28,-179.27L-5.23,-195.73L-3.15,-203.18L-3.30,-206.06L-5.71,-208.27L-8.27,-207.93L-14.76,-203.52L-18.24,-199.43L-35.60,-173.21" />
        <path d="M11.35,-191.82L9.66,-185.53" />
        <path d="M-124.01,-6.23" />
        <path d="M8.52,5.00L5.45,11.08" />
        <path d="M-116.25,163.14L-118.68,170.30L-118.20,178.74" />
        <path d="M-128.45,448.68L-124.73,454.88L-119.09,458.21" />
        <path d="M284.17,225.49L280.69,232.47" />
      </g>
    </g>
  </g>
</svg>