<?xml version="1.0" encoding="utf-8"?>
<svg width="1194" height="834" viewBox="-597 -417 1194 834" xmlns="http://www.w3.org/2000/svg">
  <style>
svg { background-color:#3FA1AB; }

#looom { --version:2; }

#t0 {
--visible:1; --timeOffset:-1; --speed:12; --bookmarkIndex:-1; --latched:0; --playMode:0; --masked:0; --blendMode:0; 
fill:#FFF9E2; stroke-opacity:0; fill-opacity:1; stroke-width:3.841801; stroke-linecap:round; stroke-linejoin:round;
}
@keyframes t0 { 0% { opacity: 1; } 8.333333% { opacity: 0; } }
#t0 .frame { animation:t0 1s calc(var(--index) * 0.08333334s) steps(1) infinite; }

#t1 {
--visible:1; --timeOffset:2; --speed:12; --bookmarkIndex:-1; --latched:0; --playMode:0; --masked:0; --blendMode:0; 
fill:#77DEFF; stroke-opacity:0; fill-opacity:1; stroke-width:10; stroke-linecap:round; stroke-linejoin:round;
}
@keyframes t1 { 0% { opacity: 1; } 8.333333% { opacity: 0; } }
#t1 .frame { animation:t1 1s calc(var(--index) * 0.08333334s) steps(1) infinite; }

#t2 {
--visible:1; --timeOffset:4.500001; --speed:12; --bookmarkIndex:-1; --latched:0; --playMode:0; --masked:0; --blendMode:0; 
stroke:#432DFF; stroke-opacity:1; fill-opacity:0; stroke-width:10; stroke-linecap:round; stroke-linejoin:round;
}
@keyframes t2 { 0% { opacity: 1; } 5.555555% { opacity: 0; } }
#t2 .frame { animation:t2 1.5s calc(var(--index) * 0.08333334s) steps(1) infinite; }

#t3 {
--visible:1; --timeOffset:4.500001; --speed:12; --bookmarkIndex:-1; --latched:0; --playMode:0; --masked:0; --blendMode:0; 
fill:#E2FEFF; stroke-opacity:0; fill-opacity:1; stroke-width:3.841801; stroke-linecap:round; stroke-linejoin:round;
}
@keyframes t3 { 0% { opacity: 1; } 5.555555% { opacity: 0; } }
#t3 .frame { animation:t3 1.5s calc(var(--index) * 0.08333334s) steps(1) infinite; }

#t4 {
--visible:1; --timeOffset:21.00001; --speed:12; --bookmarkIndex:-1; --latched:0; --playMode:0; --masked:0; --blendMode:0; 
stroke:#E47164; stroke-opacity:1; fill-opacity:0; stroke-width:8.956821; stroke-linecap:round; stroke-linejoin:round;
}
@keyframes t4 { 0% { opacity: 1; } 5.555555% { opacity: 0; } }
#t4 .frame { animation:t4 1.5s calc(var(--index) * 0.08333334s) steps(1) infinite; }

</style>
  <g id="w0" transform="translate(432.00 105.00) scale(2.48 2.48) rotate(-3.18)" class="weave">
    <g id="t0" transform="translate(-5.38 -7.74) scale(0.61 0.61) rotate(-353.64)" class="thread">
      <g id="f0" transform="translate(-93.00 -64.25)" style="--index:0; opacity:1;" class="frame">
        <path d="M-425.78,-5.80L-418.27,-8.68L-414.74,-11.10L-402.68,-21.21L-391.59,-28.94L-382.04,-37.27L-373.57,-42.16L-325.06,-76.29L-313.54,-83.55L-304.70,-91.64L-294.98,-98.74L-286.43,-107.67L-268.11,-121.37L-249.27,-133.35L-214.42,-147.81L-192.03,-152.33L-184.65,-152.59L-175.86,-150.59L-160.06,-149.62L-151.74,-148.21L-105.32,-132.41L-90.79,-123.43L-65.96,-117.42L-56.89,-113.52L-42.64,-109.29L-0.37,-94.64L75.27,-82.02L97.08,-79.84L115.84,-74.57L115.42,-72.56L111.84,-69.18L100.89,-54.55L97.40,-47.73L94.33,-38.41L90.25,-21.26L77.52,7.87L75.50,19.46L72.04,31.57L69.41,37.38L57.36,54.61L50.71,67.72L38.32,80.62L30.11,95.38L15.45,115.64L5.13,134.80L-2.30,159.66L-6.71,184.31L-14.24,204.55L-15.37,206.21L-19.26,208.57L-22.01,212.83L-23.28,203.61L-30.14,184.91L-35.42,179.48L-39.65,172.68L-48.99,161.94L-62.38,164.07L-79.98,162.33L-100.86,162.52L-113.12,163.65L-145.82,162.96L-153.93,159.95L-171.43,148.32L-181.57,143.58L-199.14,137.49L-207.83,137.09L-217.03,135.08L-230.52,133.83L-244.66,130.43L-268.90,127.52L-301.08,129.27L-360.48,128.21L-366.90,126.87L-376.56,121.77L-391.41,117.90L-396.50,113.29L-401.70,106.37L-406.81,94.58L-418.66,71.09L-419.88,67.17L-421.81,36.55L-425.66,20.41L-426.10,13.10L-422.72,2.42L-420.13,-1.91L-417.82,-3.98" />
        <path d="M-406.77,-2.32L-405.53,-11.05L-400.10,-28.09L-390.50,-43.91L-385.18,-51.50L-382.01,-54.69L-371.69,-62.19L-363.33,-70.00L-352.05,-77.20L-343.69,-84.23L-327.11,-95.68L-315.06,-101.15L-301.35,-108.87L-295.33,-110.74L-279.27,-113.57L-255.29,-116.61L-238.58,-117.31L-192.70,-126.00L-168.60,-128.44L-96.94,-129.28L-79.24,-126.04L-69.75,-122.31L-59.17,-120.66L-40.94,-115.46L-25.97,-113.01L-0.36,-106.46L12.39,-101.28L35.37,-93.50L64.86,-80.88L87.85,-76.31L92.23,-74.39" />
        <path d="M-380.91,112.06L-377.78,117.00L-376.49,121.35L-374.14,124.57L-366.01,128.96L-357.47,131.85L-319.26,136.50L-295.74,144.57L-273.45,146.76L-256.09,147.02L-228.72,153.46L-211.53,154.55L-188.92,151.45L-165.44,150.31L-144.77,145.96L-106.69,126.41L-94.35,118.98L-58.78,104.47" />
      </g>
      <g id="f1" transform="translate(-93.00 -64.25)" style="--index:1; opacity:0;" class="frame">
        <path d="M-425.67,-1.70L-403.87,-22.40L-395.58,-28.25L-372.59,-47.21L-362.79,-56.56L-352.48,-63.94L-345.72,-70.92L-334.92,-77.82L-321.78,-89.94L-307.16,-100.28L-275.74,-119.98L-267.67,-127.07L-256.99,-133.50L-247.16,-140.65L-233.39,-145.75L-208.81,-151.22L-191.67,-152.92L-164.57,-149.88L-140.33,-145.30L-127.52,-139.77L-117.19,-136.33L-99.10,-126.62L-87.58,-122.34L-78.99,-117.07L-74.77,-115.56L-54.17,-110.88L-31.46,-107.45L-19.24,-103.94L-7.70,-101.98L3.03,-98.36L48.51,-93.14L77.25,-86.53L110.29,-80.42L112.24,-78.57L112.64,-76.90L106.07,-70.88L97.00,-53.20L94.42,-46.21L81.97,7.89L69.07,32.74L62.77,41.86L54.96,60.78L52.59,70.23L43.55,81.95L36.62,88.10L29.98,98.18L25.89,106.83L22.06,111.93L17.91,120.42L13.52,132.04L11.14,143.32L0.88,164.80L-5.29,184.21L-11.09,193.63L-13.99,200.69L-17.51,204.77L-20.40,211.24L-20.22,200.66L-22.47,185.61L-27.09,170.31L-34.84,162.55L-36.33,161.87L-41.85,160.84L-45.02,162.79L-49.83,163.00L-54.90,164.82L-66.68,165.72L-75.83,164.30L-94.43,163.08L-122.26,163.18L-137.19,162.11L-160.88,154.92L-169.07,153.56L-175.84,150.56L-179.74,147.16L-190.43,141.82L-195.77,140.01L-201.87,136.05L-212.81,134.99L-233.01,130.01L-252.80,129.21L-277.24,130.04L-291.16,131.51L-311.56,131.00L-330.59,131.56L-347.12,133.02L-353.72,131.51L-363.52,131.76L-368.87,129.18L-377.53,126.64L-383.34,122.51L-390.60,111.06L-404.53,100.35L-407.60,96.41L-410.49,90.81L-413.17,80.70L-413.60,70.95L-415.57,61.54L-420.33,49.33L-422.82,34.70L-427.10,23.50L-427.07,17.79L-424.10,5.20L-420.74,-1.43" />
      </g>
      <g id="f2" transform="translate(-93.00 -64.25)" style="--index:2; opacity:0;" class="frame">
        <path d="M-427.89,2.39L-420.06,-8.04L-400.03,-29.09L-365.45,-60.56L-333.21,-85.96L-327.07,-91.88L-312.28,-100.90L-288.11,-118.79L-269.74,-129.46L-240.30,-144.13L-228.91,-148.05L-188.72,-149.46L-153.04,-149.23L-141.81,-147.92L-136.88,-146.30L-123.18,-139.27L-114.46,-132.51L-101.89,-128.12L-91.03,-122.95L-66.61,-117.96L-53.50,-113.97L-27.52,-109.86L-13.05,-104.92L12.46,-102.71L29.74,-99.60L53.23,-97.76L69.92,-94.95L89.04,-88.91L92.42,-86.87L95.85,-82.46L101.89,-79.57L106.83,-78.66L116.58,-78.37L111.78,-71.15L92.58,-35.80L84.62,-23.90L75.98,-8.78L73.39,-0.77L71.79,20.68L70.59,25.38L66.63,33.21L57.82,45.64L52.84,65.36L49.18,75.38L46.41,80.55L38.82,90.43L36.03,101.18L29.18,115.18L22.14,122.57L14.26,127.94L8.09,135.52L-2.06,157.29L-3.25,168.57L-7.31,186.87L-12.46,193.32L-17.64,204.18L-20.97,207.19L-21.92,192.39L-24.44,172.99L-27.48,162.64L-34.88,156.00L-37.85,155.93L-51.10,164.72L-59.96,166.34L-66.63,169.10L-80.55,168.62L-87.15,169.18L-112.81,165.20L-144.67,161.53L-161.48,157.83L-189.61,145.56L-199.15,139.40L-211.03,136.00L-217.90,132.23L-227.66,130.28L-238.45,126.18L-265.26,125.52L-292.71,131.45L-306.45,133.46L-328.34,133.78L-339.40,134.79L-353.91,134.42L-364.98,135.44L-368.54,135.18L-382.19,128.45L-387.34,124.51L-394.01,114.32L-404.55,105.17L-419.87,77.57L-424.04,64.83L-426.06,52.64L-426.34,35.75L-428.97,29.25L-430.89,18.66L-430.80,14.45L-426.78,5.85L-422.76,0.22L-410.35,-8.64" />
      </g>
      <g id="f3" transform="translate(-93.00 -64.25)" style="--index:3; opacity:0;" class="frame">
        <path d="M-425.87,2.60L-403.87,-23.35L-383.54,-45.18L-345.93,-74.96L-335.92,-81.52L-326.90,-89.32L-313.18,-98.29L-304.88,-105.02L-285.37,-118.13L-248.22,-139.76L-212.78,-150.59L-197.14,-154.02L-188.52,-154.46L-179.43,-153.64L-168.90,-151.45L-140.73,-147.51L-129.64,-144.89L-124.59,-142.14L-112.21,-130.79L-101.66,-124.61L-95.03,-118.51L-79.37,-111.60L-71.60,-109.24L-39.45,-102.49L-25.08,-100.35L21.14,-89.89L35.46,-88.21L51.75,-87.72L91.82,-88.53L107.09,-85.62L108.70,-83.64L109.54,-74.07L108.49,-67.42L93.57,-52.92L85.00,-40.78L80.25,-29.68L73.04,-4.34L69.75,13.42L64.32,29.69L57.17,43.86L49.79,71.34L47.14,76.91L39.42,88.48L32.75,103.84L27.41,111.18L19.80,126.42L16.43,145.19L12.88,152.96L10.22,161.93L3.58,170.63L-9.69,199.16L-18.79,209.04L-22.95,210.99L-24.16,190.59L-26.57,170.18L-32.16,158.75L-36.91,157.77L-41.95,154.72L-43.67,154.59L-49.88,160.51L-60.41,161.88L-69.72,168.56L-82.94,171.23L-88.11,171.44L-97.85,169.49L-109.04,169.13L-124.05,164.90L-137.20,163.54L-159.11,158.85L-180.94,158.63L-194.36,157.19L-211.24,156.70L-229.22,149.41L-238.55,146.58L-252.73,139.85L-265.93,138.54L-274.48,135.99L-290.05,135.62L-308.04,132.09L-314.82,129.86L-323.85,129.70L-331.29,128.64L-337.17,129.99L-362.10,131.76L-371.32,130.60L-374.52,129.33L-379.97,125.62L-385.00,120.96L-394.03,106.88L-403.73,96.14L-405.78,91.13L-408.86,74.48L-412.73,63.64L-416.46,59.22L-424.87,53.53L-427.22,50.02L-432.81,35.30L-433.20,30.42L-428.20,13.92L-425.87,2.60" />
        <path d="M-429.42,9.57L-422.69,-4.77" />
      </g>
      <g id="f4" transform="translate(-93.00 -64.25)" style="--index:4; opacity:0;" class="frame">
        <path d="M-440.23,8.76L-438.01,4.42L-430.00,-5.17L-420.66,-18.31L-408.84,-27.77L-402.68,-34.82L-373.01,-57.50L-359.70,-69.09L-345.68,-79.30L-327.48,-91.28L-315.39,-97.76L-305.36,-104.43L-268.09,-124.70L-239.14,-136.62L-228.65,-142.16L-207.51,-148.78L-167.83,-153.69L-158.91,-153.78L-150.89,-151.83L-139.01,-147.74L-131.00,-143.41L-112.33,-131.31L-100.73,-121.57L-95.10,-118.10L-72.01,-108.47L-37.39,-98.20L-10.11,-95.99L64.45,-84.80L75.28,-84.51L114.18,-87.07L114.34,-83.50L110.58,-79.83L108.77,-74.67L107.75,-59.27L100.95,-43.20L71.11,-11.54L58.47,7.60L55.77,15.67L48.58,51.30L43.04,65.66L32.08,107.23L24.77,128.64L2.50,184.42L0.10,189.69L-5.24,197.69L-13.52,215.43L-16.49,213.10L-19.15,212.85L-25.93,187.32L-26.95,177.38L-31.01,167.73L-31.34,162.25L-33.62,152.79L-35.69,150.94L-39.73,150.51L-44.63,156.19L-54.52,158.46L-62.56,163.23L-69.11,164.09L-76.73,166.38L-81.85,166.65L-90.12,168.52L-107.55,168.67L-121.64,170.02L-134.14,169.79L-152.55,168.16L-170.86,165.21L-197.52,157.71L-213.02,155.80L-229.59,151.55L-250.88,151.27L-260.50,148.61L-273.16,147.47L-289.61,142.28L-297.38,138.38L-302.06,137.12L-319.29,133.46L-341.06,132.94L-360.60,130.17L-374.74,126.78L-388.68,121.12L-393.19,117.05L-397.99,115.36L-401.32,112.91L-406.90,98.92L-408.40,91.18L-409.34,76.13L-412.33,54.60L-415.45,47.40L-424.12,34.40L-424.66,23.98L-427.44,19.87L-428.90,14.51L-433.27,7.48L-432.95,3.37L-426.84,-5.21" />
      </g>
      <g id="f5" transform="translate(-93.00 -64.25)" style="--index:5; opacity:0;" class="frame">
        <path d="M-428.42,-9.14L-421.36,-18.61L-410.14,-28.84L-404.35,-35.96L-392.81,-45.76L-381.88,-56.65L-338.37,-88.83L-327.81,-96.22L-315.48,-103.46L-306.35,-110.14L-270.33,-128.34L-247.82,-138.39L-212.63,-149.40L-197.63,-152.18L-175.19,-154.45L-166.45,-154.52L-158.26,-153.53L-141.21,-149.70L-104.30,-133.54L-93.57,-125.22L-58.65,-103.24L-38.49,-94.70L-21.26,-88.85L-1.30,-85.19L11.48,-84.95L23.38,-86.02L53.76,-86.82L83.98,-86.68L95.22,-87.92L110.75,-91.13L118.96,-91.15L106.80,-72.30L93.76,-56.61L85.67,-43.28L75.92,-30.89L66.66,-10.90L61.94,4.11L55.45,19.53L51.10,34.62L37.20,67.12L33.63,80.60L28.50,94.96L26.29,109.34L21.35,123.11L13.07,162.95L8.35,179.87L0.77,200.93L-1.62,213.76L-5.05,222.19L-9.71,226.15L-10.90,225.67L-14.55,219.11L-18.28,214.99L-20.87,208.56L-22.90,199.63L-24.33,186.61L-27.95,175.11L-29.64,164.95L-35.99,152.19L-36.48,143.38L-39.76,144.98L-42.86,144.85L-51.26,149.86L-62.27,151.11L-82.77,161.71L-98.13,164.55L-124.03,171.44L-148.59,171.26L-161.47,168.29L-174.62,167.92L-186.01,166.20L-206.53,166.28L-214.97,165.00L-229.07,164.34L-241.06,162.07L-256.05,161.23L-275.05,156.45L-292.40,154.40L-316.55,155.35L-341.93,153.26L-355.45,148.15L-365.62,145.89L-376.23,138.77L-387.32,133.90L-403.72,119.27L-408.63,111.80L-412.33,101.63L-419.24,92.79L-420.02,83.51L-422.53,73.75L-422.23,58.54L-425.45,38.25L-434.75,20.02L-433.14,4.33L-428.42,-9.14" />
        <path d="M-439.39,7.98L-439.07,2.93L-428.20,-9.73" />
      </g>
      <g id="f6" transform="translate(-93.00 -64.25)" style="--index:6; opacity:0;" class="frame">
        <path d="M124.94,-96.53L124.94,-96.53" />
        <path d="M-442.39,1.57L-423.44,-21.48L-405.64,-38.99L-394.36,-47.61L-384.79,-56.31L-372.87,-63.32L-363.07,-72.08L-344.16,-85.35L-305.87,-111.03L-287.38,-121.11L-273.13,-128.77L-255.67,-136.59L-231.22,-150.21L-214.86,-154.94L-192.90,-158.16L-183.79,-158.65L-178.39,-158.63L-156.76,-155.66L-147.08,-151.46L-128.97,-146.26L-118.83,-140.68L-102.91,-136.68L-94.02,-131.89L-83.04,-127.49L-68.45,-120.35L-56.64,-113.51L-31.82,-106.14L-18.35,-100.72L-3.97,-98.63L11.95,-94.34L53.01,-90.39L94.69,-89.78L109.92,-91.73L124.94,-96.53L117.65,-90.97L100.60,-68.88L95.68,-61.24L87.52,-44.39L79.12,-30.28L70.67,-18.62L56.05,4.32L47.85,28.65L40.93,45.21L36.38,66.65L33.86,93.32L26.82,112.07L19.67,125.29L11.46,151.41L9.55,168.52L6.73,182.24L-1.07,209.55L-4.41,237.23L-5.60,239.01L-13.49,218.94L-21.96,202.49L-24.02,196.89L-33.97,164.26L-34.66,148.51L-41.07,133.56L-42.69,134.03L-46.58,139.71L-54.50,143.48L-61.67,150.87L-68.51,152.75L-78.90,158.53L-88.48,160.32L-102.77,165.60L-109.68,167.11L-122.10,168.12L-135.50,170.43L-157.50,169.32L-186.21,169.95L-199.49,171.85L-210.48,171.91L-230.41,170.68L-244.42,166.64L-252.68,165.35L-286.32,163.70L-328.49,164.32L-338.88,162.79L-351.43,162.08L-368.22,156.89L-379.71,147.97L-386.66,143.71L-393.68,134.11L-405.25,127.34L-409.63,122.08L-414.92,111.42L-419.19,107.48L-421.48,104.13L-423.23,96.10L-427.28,84.79L-425.40,41.40L-427.02,32.06L-428.14,28.66L-432.93,21.16L-439.68,16.30L-441.27,14.21L-442.15,10.40L-442.39,1.57" />
        <path d="M-445.94,9.68L-441.01,-2.90" />
        <path d="M-53.79,155.79L-59.71,151.25" />
        <path d="M-60.58,146.96L-54.30,149.96L-47.15,150.42L-30.49,145.50L-25.78,141.72L-18.27,128.14L-13.82,118.71L-11.82,112.00L-4.81,98.31L1.39,83.30L2.92,74.92" />
      </g>
      <g id="f7" transform="translate(-93.00 -64.25)" style="--index:7; opacity:0;" class="frame">
        <path d="M-444.65,9.04L-447.22,12.77L-448.35,13.12L-448.39,12.17L-443.82,0.94L-420.29,-33.29L-410.19,-42.64L-402.54,-51.70L-378.55,-69.89L-354.34,-82.32L-342.54,-89.93L-316.73,-101.28L-305.17,-107.81L-290.03,-115.00L-275.49,-120.57L-252.12,-131.88L-238.49,-137.04L-225.72,-144.76L-209.22,-151.05L-188.52,-155.29L-178.69,-156.36L-150.93,-156.41L-135.66,-153.85L-121.39,-152.65L-110.04,-150.21L-101.84,-147.19L-95.16,-143.30L-64.00,-130.91L-51.44,-120.62L-44.68,-116.84L-37.74,-114.26L-24.85,-111.28L-2.12,-102.19L16.49,-99.96L45.13,-95.01L94.10,-92.63L112.98,-95.51L131.15,-104.29L131.62,-103.09L131.20,-101.54L120.46,-92.20L110.39,-76.91L97.48,-64.67L84.21,-49.10L78.52,-41.22L74.92,-32.98L71.22,-18.73L61.10,5.83L54.57,17.45L49.87,30.62L44.16,40.88L42.29,48.13L36.93,61.66L34.84,78.11L30.06,94.49L28.55,108.27L24.39,123.05L16.03,166.59L9.24,194.38L4.90,206.48L2.92,233.76L1.54,237.80L-0.43,238.74L-2.84,242.89L-6.60,236.33L-7.91,235.90L-9.99,236.73L-17.17,219.04L-24.74,188.44L-27.97,179.27L-32.80,169.50L-40.01,157.99L-44.34,144.77L-49.05,147.43L-56.37,148.11L-63.11,152.05L-79.34,150.73L-99.69,154.55L-125.90,164.06L-137.56,166.92L-177.60,171.96L-206.92,173.30L-218.93,173.00L-239.31,168.80L-262.02,168.04L-281.10,166.04L-303.58,166.30L-317.37,165.34L-344.54,165.21L-365.70,162.49L-382.56,157.88L-386.36,155.13L-390.02,151.07L-402.53,142.33L-409.20,132.02L-417.17,122.34L-421.95,113.22L-423.23,107.70L-423.44,90.34L-426.16,72.49L-426.04,62.74L-423.18,35.11L-427.72,18.08L-430.47,16.41L-440.03,14.64L-444.65,9.04" />
        <path d="M-441.47,4.65L-444.65,9.04L-445.81,5.76L-445.84,-0.42L-443.38,-5.65" />
        <path d="M-70.73,143.94L-61.57,154.21L-51.55,160.26L-45.44,165.46L-43.33,168.98L-42.56,157.69L-40.75,153.42L-39.20,152.47L-33.32,151.38L-28.20,151.63L-22.57,155.46L-20.10,162.01L-17.02,150.74L-4.21,120.66" />
        <path d="M-59.37,143.27L-47.28,150.65L-39.74,163.58L-33.16,170.52L-28.57,178.51L-23.18,183.58L-17.89,186.23L-17.08,176.65L-15.86,171.90L-2.86,148.48L1.04,144.88L3.89,144.06" />
      </g>
      <g id="f8" transform="translate(-93.00 -64.25)" style="--index:8; opacity:0;" class="frame">
        <path d="M-445.11,-3.09L-439.78,-12.70L-429.30,-25.02L-421.77,-35.27L-409.64,-46.50L-403.42,-54.08L-391.31,-63.06L-380.97,-73.29L-361.87,-87.17L-348.45,-94.24L-332.20,-100.11L-307.99,-111.52L-275.95,-123.31L-267.20,-127.49L-248.18,-134.83L-236.63,-138.58L-212.78,-150.59L-195.10,-156.21L-188.33,-156.83L-167.39,-156.67L-133.99,-155.32L-105.99,-152.50L-88.81,-148.92L-79.73,-145.78L-56.25,-134.20L-0.81,-112.82L27.11,-107.46L39.75,-102.34L56.80,-98.52L93.54,-97.57L100.38,-98.42L112.29,-101.63L120.52,-105.58L131.01,-112.25L132.31,-112.00L126.25,-98.78L118.71,-89.59L109.66,-75.97L98.54,-62.47L90.21,-49.85L74.20,-33.05L69.28,-24.27L57.31,-8.10L52.99,-0.87L46.49,16.64L40.32,27.13L32.62,43.26L27.36,51.32L21.25,58.31L18.36,63.89L14.85,89.60L15.60,130.56L13.45,159.62L8.43,189.86L7.91,199.01L3.85,226.93L2.21,243.99L0.89,246.12L-1.84,245.27L-4.77,249.77L-6.06,245.07L-7.66,231.98L-10.52,220.26L-25.80,183.81L-32.59,173.31L-38.97,165.85L-50.80,154.49L-55.19,152.16L-63.88,152.29L-68.86,150.24L-75.16,150.10L-86.85,155.63L-103.56,156.33L-122.55,162.83L-143.44,165.05L-167.97,170.69L-189.56,171.90L-213.07,174.57L-238.03,174.99L-277.51,174.09L-293.38,172.29L-315.97,171.40L-325.83,170.29L-348.57,162.27L-364.61,157.91L-385.84,146.16L-394.19,139.70L-410.83,124.04L-418.61,111.40L-419.95,105.57L-421.55,66.68L-423.63,54.90L-424.33,40.88L-426.45,24.34L-433.52,9.03L-435.12,7.65L-441.88,6.13L-443.84,4.04L-444.84,1.90L-445.11,-3.09" />
        <path d="M-448.55,8.24L-448.48,3.24L-445.11,-3.09L-444.68,-8.03L-443.03,-13.14L-440.82,-17.35L-436.34,-21.37" />
        <path d="M13.00,117.89L11.71,113.43L12.41,91.56L14.31,79.32L18.30,66.02L21.65,60.39L31.99,50.03L36.85,40.73L52.86,14.65L64.88,-11.04L71.11,-20.81L84.25,-45.89L86.66,-52.54L88.02,-63.95L83.42,-68.91L79.83,-68.74L73.58,-65.32L60.57,-54.51L50.03,-40.11L40.42,-31.13L32.45,-20.70L22.54,-10.47L8.00,8.13L-2.64,18.36" />
        <path d="M-85.02,136.20L-83.27,143.04L-79.73,148.76L-68.06,157.09L-57.78,168.73L-54.70,170.77L-47.92,173.42L-34.30,184.89L-23.85,187.33L-5.96,187.41L-1.22,179.23L-1.19,172.63" />
        <path d="M1.27,242.26L2.00,226.80L15.05,159.51L19.29,133.55L20.35,120.48L22.91,107.30L24.23,93.21L27.77,73.68L33.84,50.64L40.10,21.90L40.43,13.63L38.36,11.91L36.01,7.20L30.84,4.61L28.97,-0.27L28.51,-4.49L25.92,-10.99L18.48,-21.55L16.63,-29.82L18.39,-38.78" />
      </g>
      <g id="f9" transform="translate(-93.00 -64.25)" style="--index:9; opacity:0;" class="frame">
        <path d="M-447.81,1.11L-446.48,-5.18L-440.94,-16.10L-430.60,-27.10L-421.80,-39.55L-414.82,-45.81L-405.61,-55.93L-391.36,-66.21L-381.55,-74.78L-363.11,-87.41L-346.43,-96.37L-287.31,-122.60L-268.50,-128.69L-217.32,-136.88L-200.82,-140.60L-189.22,-144.18L-177.79,-146.20L-157.66,-151.21L-123.60,-151.94L-88.96,-146.18L-67.10,-138.89L-43.17,-135.38L-6.35,-123.08L18.22,-112.61L44.16,-105.23L54.74,-103.16L94.03,-102.50L118.19,-104.65L123.48,-105.98L126.89,-109.65L132.32,-112.47L132.54,-107.96L130.79,-105.35L115.15,-91.63L104.74,-76.53L96.30,-66.23L81.03,-45.25L75.62,-33.69L71.40,-19.98L66.47,-8.29L55.75,5.51L40.27,36.76L35.11,69.07L30.68,88.43L22.54,136.37L18.41,202.63L14.34,232.80L8.44,249.18L7.67,249.60L4.81,247.86L2.37,248.85L-1.16,240.76L-12.53,207.88L-16.84,187.72L-25.76,165.32L-30.03,147.46L-32.38,144.78L-39.31,139.69L-44.40,132.54L-46.84,132.47L-60.02,141.97L-74.31,147.08L-87.32,155.21L-94.83,157.19L-106.07,158.39L-120.00,162.30L-138.84,162.34L-155.04,164.45L-171.44,164.37L-183.41,166.64L-211.54,167.93L-239.44,171.53L-290.59,173.90L-321.58,173.34L-340.60,172.12L-361.64,172.25L-365.33,171.70L-375.25,167.90L-383.55,165.78L-387.76,163.68L-396.93,153.35L-408.42,144.20L-414.49,133.53L-417.99,129.47L-419.80,125.96L-422.51,107.28L-422.74,93.72L-419.22,76.38L-414.31,59.11L-413.39,50.44L-415.43,43.47L-421.10,36.19L-423.89,34.63L-428.52,33.90L-430.54,32.40L-437.89,16.67L-439.88,6.97L-440.13,-0.76L-434.83,-14.76" />
        <path d="M-93.42,150.61L-88.14,152.36L-86.42,153.67L-78.38,162.93L-66.50,166.72L-57.33,173.97L-49.56,177.15L-34.93,191.01L-25.74,198.37L-10.09,205.70L-5.53,211.37L-3.30,216.08L-1.88,217.15L-2.79,208.71L-8.98,185.97L-10.82,175.62L-11.45,170.03L-11.18,148.44L-13.91,137.14L-15.16,134.87L-22.96,128.48L-33.24,124.50L-42.85,119.53L-45.17,119.39L-50.28,120.74L-57.00,119.81L-60.11,123.48L-64.63,123.81L-69.22,126.47L-71.77,126.63L-72.31,125.20L-71.65,123.84" />
        <path d="M22.76,77.69L27.56,71.36L37.27,52.43L54.44,33.74L69.35,11.52L77.53,-9.01L84.08,-22.95L89.45,-37.97L95.23,-64.86L97.81,-71.87L100.52,-77.14L113.20,-94.50L113.32,-95.80L110.17,-93.68L94.74,-88.46L87.38,-89.39" />
      </g>
      <g id="f10" transform="translate(-93.00 -64.25)" style="--index:10; opacity:0;" class="frame">
        <path d="M-445.52,-3.93L-444.05,-13.02L-441.83,-18.60L-420.22,-47.92L-401.99,-65.84L-367.49,-93.08L-345.55,-106.65L-306.62,-127.50L-288.51,-134.37L-267.79,-140.27L-254.15,-143.12L-212.21,-147.50L-197.22,-147.65L-177.96,-149.41L-123.14,-148.96L-68.85,-146.08L-27.52,-137.15L12.21,-125.01L28.58,-116.96L39.60,-109.12L43.63,-107.14L55.62,-102.86L77.06,-98.30L87.42,-98.25L121.83,-105.10L130.63,-108.15L142.98,-114.68L135.34,-107.94L127.91,-97.58L115.42,-86.41L108.29,-74.08L90.45,-48.18L77.47,-32.73L66.59,-9.60L59.39,3.75L49.45,29.55L41.84,43.90L36.42,57.72L21.87,102.95L16.61,131.76L15.15,162.42L16.18,198.03L15.71,256.77L13.06,249.44L8.57,245.26L-1.81,226.72L-14.83,192.13L-23.25,160.88L-26.66,151.34L-32.44,141.80L-37.76,136.49L-41.55,134.57L-44.70,134.43L-45.84,135.08L-53.91,144.20L-67.76,155.96L-75.91,156.69L-82.34,160.65L-86.10,161.99L-97.65,162.30L-116.22,166.31L-140.47,166.66L-158.33,169.19L-183.12,169.79L-218.41,173.90L-244.99,175.44L-274.75,178.67L-314.41,180.63L-363.76,181.58L-391.04,176.68L-397.03,173.92L-404.25,168.24L-410.05,161.38L-420.89,141.05L-424.51,128.38L-426.01,116.66L-425.81,99.54L-424.41,93.01L-416.84,77.11L-416.50,55.36L-423.06,47.36L-430.01,34.54L-439.89,23.67L-443.25,18.31L-444.71,11.58L-444.76,-1.73L-443.85,-6.89L-441.32,-13.06" />
        <path d="M-77.89,158.89L-71.71,161.35L-62.62,162.94L-50.70,169.90L-43.59,174.39L-40.16,178.62L-33.30,184.78L-26.89,188.91L-24.81,188.68L-18.30,182.83L-9.65,177.04L-7.08,172.43L-5.85,165.42L-6.00,135.45L-8.94,118.49L-11.30,110.99L-15.37,103.96L-16.62,95.99L-19.82,90.92L-22.32,80.57L-22.36,75.04" />
      </g>
      <g id="f11" transform="translate(-93.00 -64.25)" style="--index:11; opacity:0;" class="frame">
        <path d="M-425.73,-1.55L-415.77,-7.95L-405.56,-17.94L-392.90,-28.53L-383.28,-38.35L-371.70,-47.15L-361.96,-56.03L-353.80,-61.33L-344.49,-69.13L-317.45,-88.80L-309.09,-94.22L-292.94,-102.24L-287.93,-106.31L-271.29,-116.51L-255.07,-124.17L-230.03,-139.62L-207.58,-148.13L-199.71,-150.23L-194.30,-150.38L-180.34,-148.11L-160.56,-144.51L-155.92,-142.94L-116.63,-128.49L-102.15,-121.16L-92.14,-114.82L-75.23,-106.47L-54.64,-98.52L-35.52,-93.20L35.35,-79.65L81.16,-72.66L97.40,-70.92L111.37,-70.67L115.99,-69.70L107.82,-63.80L103.59,-62.26L97.73,-55.51L86.07,-4.75L81.90,8.19L67.11,31.30L55.32,46.47L50.34,54.82L35.37,75.37L18.92,111.74L10.11,137.50L-0.78,163.18L-5.57,182.78L-10.46,197.85L-16.10,208.05L-20.52,211.24L-26.33,208.35L-29.29,204.05L-35.29,191.60L-38.48,187.19L-43.09,183.49L-92.32,155.72L-106.98,149.23L-121.11,145.24L-136.97,143.44L-164.09,142.06L-174.67,140.28L-213.44,130.77L-226.51,129.15L-237.99,129.04L-259.06,131.37L-276.12,131.95L-286.75,130.83L-315.85,122.24L-329.17,122.30L-344.28,124.25L-359.62,124.59L-386.66,120.30L-391.34,116.34L-396.43,109.48L-400.26,103.17L-404.43,93.16L-415.83,52.15L-419.68,25.56L-425.73,-1.55" />
        <path d="M-427.82,0.37L-425.73,-1.55L-425.23,-7.17" />
        <path d="M-179.19,132.24L-175.89,136.77L-172.75,139.34L-156.09,148.99L-145.40,151.48L-139.23,154.25L-124.84,156.16L-112.54,155.86L-104.69,156.79L-97.43,154.39L-89.04,153.78L-72.31,148.98L-63.01,144.03L-43.62,131.35L-41.71,130.99" />
        <path d="M-421.38,-4.35L-417.64,-13.78L-409.32,-26.65L-404.16,-36.43L-395.43,-45.48L-386.64,-57.80L-377.08,-65.55L-366.03,-76.37L-353.56,-84.63L-347.89,-89.42L-335.13,-95.89L-325.70,-102.92L-308.41,-113.01L-286.83,-123.36L-271.04,-130.00L-256.63,-134.46L-248.53,-138.22L-230.61,-140.87L-194.16,-141.77L-168.73,-138.66L-164.70,-137.75L-157.27,-134.44L-138.03,-131.56L-121.56,-130.24L-109.86,-127.14L-83.07,-121.90L-76.42,-119.85L-60.84,-117.69L-46.88,-114.60L-26.26,-112.35L-7.92,-107.56L14.43,-103.42L24.22,-100.57L48.17,-97.61L65.13,-90.87L71.89,-83.88L74.30,-79.00L77.56,-76.54L88.32,-73.58L96.63,-73.90L99.12,-72.27L100.83,-70.54L101.78,-66.44L98.48,-61.46" />
        <path d="M-394.44,56.36L-398.32,61.09L-400.38,67.97L-404.22,86.98L-407.67,110.45L-407.76,118.65L-406.90,123.71L-404.68,130.55L-402.26,134.24L-398.58,138.25L-394.44,141.13L-380.37,147.97L-371.89,149.91L-335.64,155.26L-312.55,164.29L-302.20,164.75L-291.43,163.61L-261.34,163.70L-246.14,166.87L-226.88,168.69L-218.91,168.60L-204.73,163.62L-173.91,157.35L-136.84,154.37L-122.10,153.92L-109.00,151.96L-86.38,145.23L-61.23,135.89L-52.55,133.74" />
        <path d="M49.68,-79.53L54.81,-79.69L69.57,-83.77L80.63,-85.39L106.25,-94.35L114.72,-99.60L114.33,-94.90L112.60,-91.42L110.77,-82.74L106.32,-71.40L87.06,-47.49L81.01,-41.15" />
      </g>
    </g>
    <g id="t1" transform="translate(95.52 -239.68)" class="thread">
      <g id="f0" style="--index:0; opacity:1;" class="frame">
        <path d="M-411.67,190.31L-407.70,186.61L-396.24,182.04L-366.70,164.23L-327.97,148.47L-293.61,140.33L-283.00,136.89L-262.34,134.10L-255.00,133.91L-226.78,136.29L-210.69,138.88L-192.82,143.57L-183.67,147.54L-166.07,159.20L-161.37,163.83L-158.18,168.34L-155.34,174.36L-153.41,184.36L-153.94,188.00L-158.71,195.48L-163.54,198.98L-186.86,209.17L-202.82,213.22L-217.91,212.95L-226.05,215.33L-240.43,215.93L-250.15,218.64L-263.75,218.85L-267.04,218.78L-275.19,216.39L-284.06,215.07L-288.38,212.95L-289.63,213.28" />
      </g>
      <g id="f1" style="--index:1; opacity:0;" class="frame">
        <path d="M-389.75,181.05L-365.24,170.32L-351.42,165.49L-327.69,160.92L-276.24,157.28L-239.37,152.05L-223.88,151.53L-211.22,152.44L-187.52,157.15L-178.72,162.18L-169.64,171.17L-167.13,178.33L-167.99,180.85L-178.24,187.60L-189.98,192.63L-197.39,194.02L-204.48,196.73L-225.52,198.65L-247.79,198.65L-249.24,199.78" />
      </g>
      <g id="f2" style="--index:2; opacity:0;" class="frame">
        <path d="M-337.44,176.01L-310.75,167.87L-295.52,166.54L-284.59,164.37L-227.71,163.23L-207.58,173.83L-206.99,175.88L-209.18,177.54L-219.76,183.04L-225.92,185.15L-266.26,185.48L-266.72,187.07" />
        <path d="M-270.43,168.13L-260.23,165.22L-244.07,163.17L-217.65,161.97L-205.41,164.10L-197.52,169.27L-195.33,172.43L-195.53,176.15L-203.28,183.49L-217.18,189.32L-236.65,193.69" />
      </g>
      <g id="f3" style="--index:3; opacity:0;" class="frame">
        <path d="M-295.79,173.24L-284.59,170.18L-274.73,169.60L-260.76,167.34L-242.88,166.75L-231.88,167.94L-227.13,169.46L-220.17,169.66L-216.32,171.17L-216.59,174.62L-225.07,180.45L-229.11,181.44L-241.81,182.30L-258.64,179.85L-265.66,179.65L-272.75,177.87L-280.29,177.21" />
      </g>
      <g id="f4" style="--index:4; opacity:0;" class="frame" />
      <g id="f5" style="--index:5; opacity:0;" class="frame">
        <path d="M-390.61,198.19L-386.31,194.82L-370.82,188.39L-354.71,183.89L-346.57,180.72L-331.08,179.32L-315.98,176.88L-298.76,177.33L-287.45,179.13L-267.19,178.99L-256.91,180.78L-241.68,181.30L-224.14,184.15L-211.57,187.34L-209.84,191.37L-211.37,194.49L-217.00,196.14L-232.48,198.19L-253.34,198.59L-287.30,193.36L-302.01,192.76L-315.20,193.50L-335.71,197.00L-344.33,197.14L-362.53,202.62L-374.06,202.95L-379.62,201.77L-382.21,201.70L-381.81,202.23" />
      </g>
      <g id="f6" style="--index:6; opacity:0;" class="frame">
        <path d="M-388.62,200.30L-374.59,189.12L-366.65,184.03L-336.31,172.04L-324.25,168.20L-308.89,165.30L-289.84,163.90L-253.87,164.16L-245.73,165.16L-241.88,166.68L-233.81,168.27L-228.84,168.34L-223.34,170.12L-213.28,176.28L-208.98,180.25L-207.32,182.37L-205.94,186.20L-202.22,191.31L-202.09,193.29L-205.59,196.47L-212.82,199.91L-223.34,207.00L-232.81,210.70L-259.10,213.74L-286.05,214.28L-296.72,213.35L-304.52,214.81L-320.48,215.87L-334.40,213.02L-356.32,212.95L-368.16,212.15L-383.14,209.84L-389.88,206.27L-390.28,203.61L-388.95,200.38" />
      </g>
      <g id="f7" style="--index:7; opacity:0;" class="frame">
        <path d="M-400.35,205.80L-389.09,190.84L-377.16,182.23L-364.84,171.44L-344.53,159.20L-322.99,149.07L-314.80,146.42L-290.22,143.57L-277.57,143.57L-269.43,144.70L-249.37,149.27L-232.68,157.01L-226.45,158.60L-222.15,160.98L-215.39,163.11L-205.13,169.39L-193.47,183.37L-192.36,188.13L-193.22,204.27L-195.26,207.00L-202.29,211.30L-226.65,221.82L-247.59,226.99L-265.66,227.38L-274.79,225.34L-290.22,223.94L-315.65,224.01L-329.55,222.55L-348.23,222.15L-352.27,220.77L-357.90,220.63L-373.53,218.04L-376.50,216.80L-378.62,214.81L-378.62,216.14" />
      </g>
      <g id="f8" style="--index:8; opacity:0;" class="frame">
        <path d="M-202.95,149.40L-202.95,149.40" />
        <path d="M-398.22,202.70L-394.72,194.88L-390.15,187.86L-369.09,167.41L-347.17,152.52L-328.50,144.17L-315.85,141.59L-298.03,136.36L-247.99,133.44L-230.30,138.28L-220.89,142.72L-207.78,146.88L-203.80,149.40" />
        <path d="M-398.02,201.63L-395.71,195.74L-390.75,187.67L-380.02,177.93L-367.43,164.04L-356.65,157.01L-344.66,147.35L-327.69,139.08L-319.02,136.23L-299.24,133.19L-242.74,132.45L-234.07,133.71L-229.24,135.76L-223.48,136.69L-220.49,138.81L-215.14,140.47L-206.46,144.56L-190.43,154.30L-184.15,161.31L-173.62,180.31L-168.51,187.34L-166.33,193.95L-166.13,199.04L-169.37,203.75L-182.49,215.27L-200.83,223.81L-223.15,227.98L-247.44,228.91L-252.81,230.57L-261.89,231.81L-266.11,233.34L-271.42,233.67L-281.14,233.01L-287.65,230.90L-302.33,229.04L-314.39,229.83L-320.95,228.91L-338.37,223.21L-361.22,217.98L-371.73,217.52L-376.58,215.87L-382.99,216.59" />
      </g>
      <g id="f9" style="--index:9; opacity:0;" class="frame">
        <path d="M-397.77,204.41L-395.18,199.58L-388.09,192.69L-353.53,166.54L-343.33,156.62L-324.32,142.39L-303.99,132.39L-294.79,129.94L-283.53,125.77L-262.54,121.40L-254.67,120.60L-246.71,120.60L-230.90,123.52L-221.90,125.70L-207.39,131.00L-184.02,143.64L-169.70,158.08L-164.14,162.11L-158.91,168.07L-150.44,184.94L-149.97,189.92L-152.30,193.42L-161.30,200.77L-173.82,207.60L-195.13,215.40L-203.28,219.44L-207.98,220.77L-214.54,221.37L-236.38,228.64L-243.09,231.75L-278.23,233.34L-304.27,233.47L-328.37,230.49L-334.00,228.17L-353.40,222.55L-357.10,222.28" />
      </g>
      <g id="f10" style="--index:10; opacity:0;" class="frame">
        <path d="M-405.38,198.13L-403.40,192.10L-380.55,176.07L-367.90,164.62L-356.12,157.15L-346.57,148.87L-335.31,141.73L-325.71,133.91L-303.86,121.14L-290.49,116.36L-285.59,115.24L-267.32,114.58L-239.30,115.04L-229.04,117.43L-215.14,122.52L-205.46,123.78L-191.23,130.13L-185.73,131.79L-161.96,148.67L-158.51,152.44L-155.01,158.08L-143.28,169.85L-140.37,175.16L-137.65,190.91L-137.72,193.75L-140.04,198.52L-146.40,205.08L-153.88,208.72L-166.13,216.59L-184.35,225.46L-194.48,227.78L-203.80,231.48L-211.62,231.69L-218.38,232.81L-221.62,232.81L-228.84,230.36L-261.56,225.07L-266.51,225.13L-283.13,229.57L-299.76,227.05L-313.06,227.12L-330.15,225.40L-342.47,222.82L-362.13,216.06L-377.96,212.56L-380.48,210.17" />
        <path d="M-403.85,197.86L-401.46,193.09L-388.22,183.16L-363.33,170.51L-350.94,165.82L-328.77,161.25L-307.76,159.99L-287.98,160.26L-275.46,163.11L-249.10,173.30L-238.84,178.86L-223.54,183.82L-220.77,185.62L-214.28,191.70L-207.32,195.81L-204.86,198.92L-202.88,205.60L-203.02,210.76L-204.53,216.80L-209.23,221.82L-218.63,228.38L-223.15,229.90L-230.57,234.47L-238.51,236.25L-245.33,239.56L-259.70,240.02L-269.90,238.44L-281.02,236.25L-285.85,234.14L-303.26,228.91L-303.41,229.50" />
      </g>
      <g id="f11" style="--index:11; opacity:0;" class="frame">
        <path d="M-421.34,195.07L-411.01,185.21L-396.44,176.01L-388.95,170.18L-336.97,145.56L-326.58,139.33L-316.18,134.77L-307.71,128.87L-291.55,121.33L-281.09,117.95L-259.76,114.05L-241.68,113.12L-228.91,114.98L-220.82,118.88L-200.63,125.44L-194.68,130.93L-185.00,137.16L-175.73,145.37L-162.43,154.57L-156.27,160.52L-142.95,170.18L-139.78,174.83L-135.74,185.81L-135.94,200.71L-138.05,203.69L-141.24,205.93L-154.28,209.98L-160.50,213.88L-171.16,218.45L-189.30,223.15L-208.51,225.34L-225.14,225.86L-237.66,224.60L-247.44,224.80L-253.60,223.68L-286.12,224.20L-288.23,223.27L-289.03,223.35L-289.63,225.20" />
      </g>
    </g>
    <g id="t2" transform="translate(95.52 -239.68)" class="thread">
      <g id="f0" style="--index:0; opacity:1;" class="frame">
        <path d="M-289.08,182.85L-286.57,181.44L-282.02,180.97L-280.82,182.44L-281.22,186.20L-287.18,197.26L-290.36,199.58L-293.73,199.85L-295.45,199.25L-298.23,195.67L-298.64,190.51L-294.79,185.87L-289.08,182.85" />
        <path d="M-290.06,184.85L-289.08,182.85L-282.07,181.78L-280.16,182.44L-277.90,185.81L-277.90,190.58L-279.23,193.50L-282.35,197.92L-285.46,200.24L-288.91,200.57L-290.69,199.58L-293.53,195.15L-293.81,189.65L-290.06,184.85" />
        <path d="M-289.91,185.26L-288.38,183.62L-283.13,181.71L-277.57,181.51L-275.33,182.23L-273.20,185.75L-273.68,190.58L-279.16,198.46L-283.13,200.63L-286.39,200.63L-289.76,197.20L-291.09,194.49L-291.55,188.99L-289.91,185.26" />
        <path d="M-282.98,179.24L-278.83,178.20L-274.08,178.59L-272.75,179.98L-272.14,184.28L-274.73,189.98L-279.30,195.40L-283.28,197.99L-286.52,198.19L-289.76,194.68L-291.09,191.64L-291.75,185.95L-291.02,183.43L-287.65,179.98L-282.98,179.24" />
        <path d="M-286.85,181.68L-282.98,179.24L-279.89,180.52L-277.85,184.69L-278.43,190.65L-281.82,196.14L-285.79,199.52L-287.83,200.24L-292.40,199.91L-297.25,195.88L-298.56,193.02L-298.71,190.51L-297.91,188.06L-295.65,185.68L-290.49,182.56L-286.85,181.68" />
        <path d="M-289.28,186.95L-289.91,185.26L-286.97,181.78L-282.68,181.51L-280.49,182.23L-277.45,184.88L-276.92,190.51L-280.76,196.00L-285.46,197.47L-287.12,196.87L-289.96,193.02L-290.36,188.85L-289.28,186.95" />
        <path d="M-288.31,189.59L-289.23,186.87L-285.66,183.82L-283.20,183.10L-276.97,182.83L-274.53,183.76L-271.54,187.67L-271.29,192.76L-273.80,197.39L-278.83,200.90L-283.60,201.89L-285.59,201.83L-289.49,198.19L-291.09,193.09L-290.36,189.65" />
      </g>
      <g id="f1" style="--index:1; opacity:0;" class="frame">
        <path d="M-285.82,202.08L-287.45,202.03L-288.76,200.63L-290.16,194.74L-289.96,191.10L-285.99,184.55L-282.75,181.84L-273.80,178.53L-266.92,178.00L-264.73,178.99L-263.40,180.91L-262.87,183.56L-263.34,190.05L-264.66,193.89L-268.70,200.30L-271.42,202.56L-278.18,204.61L-281.35,204.61L-284.13,203.61L-285.82,202.08" />
        <path d="M-283.20,201.16L-285.82,202.08L-288.51,198.71L-289.84,195.61L-289.84,189.05L-288.18,185.95L-282.60,180.58L-278.38,178.86L-273.93,178.00L-267.57,178.26L-265.73,180.06L-264.86,185.81L-265.39,189.26L-268.97,196.14L-274.26,200.38L-277.52,201.30L-283.20,201.16" />
        <path d="M-286.34,198.24L-288.23,194.22L-288.43,188.19L-285.39,183.16L-280.16,179.52L-276.64,178.66L-270.56,178.59L-268.45,180.12L-267.24,182.50L-266.84,188.66L-268.97,195.15L-272.87,200.11L-278.78,202.76L-283.48,202.89L-285.19,201.70L-286.34,198.24" />
        <path d="M-272.42,190.73L-277.37,196.87L-282.40,200.77L-283.20,201.16L-286.34,198.24L-285.72,191.83L-284.21,189.05L-279.96,185.27L-277.57,184.36L-274.20,184.42L-272.55,187.27L-272.42,190.73" />
        <path d="M-282.94,197.75L-284.26,195.15L-284.33,190.77L-283.33,188.60L-280.16,185.68L-275.39,185.02L-274.60,185.81L-274.79,189.12L-278.50,194.08L-282.94,197.75" />
        <path d="M-282.40,183.09L-280.03,180.85L-277.17,180.18L-272.14,180.06L-270.56,181.05L-269.76,184.75L-273.07,193.95L-275.19,197.39L-277.85,199.04L-280.89,199.18L-282.94,197.75L-286.97,199.58L-290.69,199.45L-293.33,196.33L-293.08,191.57L-287.12,184.94L-282.40,183.09" />
        <path d="M-285.06,185.62L-282.40,183.09L-275.72,183.43" />
      </g>
      <g id="f2" style="--index:2; opacity:0;" class="frame">
        <path d="M-278.44,181.14L-273.60,174.50L-269.83,171.25L-266.39,171.44L-264.33,176.01L-264.13,186.08L-266.59,193.09L-269.96,197.92L-274.53,199.97L-279.51,199.25L-281.22,197.14L-282.55,193.56L-282.68,186.67L-280.96,183.43L-278.44,181.14" />
        <path d="M-280.81,182.83L-276.97,177.47L-270.23,172.77L-266.92,171.58L-261.21,171.38L-258.64,172.97L-256.59,175.55L-255.40,178.80L-255.33,182.44L-256.31,186.47L-263.20,198.26L-265.99,201.30L-269.56,203.55L-273.47,204.81L-281.09,204.81L-283.86,202.89L-285.72,199.78L-286.19,191.43L-284.33,187.13L-280.81,182.83" />
        <path d="M-266.63,173.69L-259.90,172.24L-256.59,172.70L-254.07,174.69L-252.69,177.54L-253.21,184.94L-258.44,193.16L-264.20,199.85L-267.44,202.03L-271.09,203.22L-279.03,203.28L-282.35,201.30L-284.79,198.19L-285.99,194.49L-285.39,187.07L-279.89,180.31L-271.09,175.22L-266.63,173.69" />
        <path d="M-280.84,182.89L-271.62,176.21L-267.04,173.83L-264.00,173.17L-260.89,173.10L-257.92,174.36L-255.46,176.81L-254.20,179.85L-254.85,186.34L-258.97,193.16L-263.67,198.38L-269.23,200.51L-275.79,199.45L-279.43,196.80L-282.02,193.29L-282.95,186.61L-280.84,182.89" />
        <path d="M-279.28,185.03L-278.44,181.14L-271.09,176.94L-265.18,175.95L-263.14,176.21L-261.61,177.60L-260.30,181.84L-260.83,186.34L-265.13,192.43L-269.70,194.55L-275.66,193.62L-280.36,188.99L-281.09,183.43L-278.50,180.45L-270.63,175.88L-266.79,174.83L-260.36,174.69L-257.24,176.34L-254.85,178.92L-253.60,182.04L-254.53,188.60L-259.23,195.48L-264.80,200.51L-271.34,202.56L-274.93,202.56L-278.38,201.17L-281.14,198.52L-282.40,195.34L-282.60,191.77L-281.75,188.27L-279.28,185.03" />
        <path d="M-265.73,196.87L-269.70,198.26L-272.55,198.26L-275.52,197.06L-278.18,194.82L-279.36,192.36L-278.96,187.53L-274.20,184.22L-271.34,183.29L-266.51,183.04L-264.86,183.76L-263.80,185.41L-263.40,190.51L-265.73,196.87" />
        <path d="M-264.84,176.12L-258.77,176.01L-256.86,177.66L-255.98,179.98L-255.93,182.90L-257.11,185.87L-260.83,191.91L-269.70,201.37L-272.80,203.15L-279.89,204.81L-285.32,203.94L-288.71,199.72L-289.36,196.80L-288.56,190.11L-286.77,186.61L-284.33,183.49L-277.25,178.66L-267.92,175.68L-264.84,176.12" />
        <path d="M-279.43,185.75L-275.26,181.44L-271.22,178.80L-264.84,176.12L-264.33,179.26L-264.86,181.64L-268.05,186.74L-272.35,189.92L-277.52,190.98L-279.89,190.91L-283.20,187.79L-283.73,184.03L-283.00,182.17L-278.50,179.19L-273.07,178.26" />
      </g>
      <g id="f3" style="--index:3; opacity:0;" class="frame">
        <path d="M-260.48,197.65L-264.33,199.97L-267.24,199.38L-269.10,194.08L-268.57,185.75L-264.93,178.53L-262.54,175.68L-259.70,173.83L-253.94,173.03L-251.61,173.90L-249.90,175.74L-248.97,178.47L-249.10,184.94L-252.74,191.37L-255.58,194.35L-260.48,197.65" />
        <path d="M-268.74,203.21L-273.00,201.96L-276.72,199.45L-279.43,196.07L-280.42,191.97L-280.16,187.86L-277.52,183.70L-269.17,175.28L-260.30,168.67L-249.57,166.21L-245.73,166.21L-242.81,167.61L-240.90,170.45L-239.70,178.26L-240.30,182.63L-241.96,186.87L-246.53,195.67L-249.83,199.18L-258.70,203.49L-265.66,204.27L-268.74,203.21" />
        <path d="M-275.66,185.65L-273.60,181.44L-270.63,178.00L-263.93,172.51L-259.70,170.84L-250.50,169.99L-246.86,170.92L-244.40,173.30L-243.27,176.54L-242.94,183.95L-245.98,191.50L-248.70,195.15L-252.54,198.26L-261.69,202.37L-268.90,203.15L-275.26,197.53L-276.97,193.89L-277.25,189.98L-275.66,185.65" />
        <path d="M-261.97,172.40L-256.18,170.18L-251.23,169.60L-247.18,169.60L-244.07,171.38L-241.88,174.36L-240.63,178.14L-240.55,186.74L-241.81,190.91L-246.38,199.38L-250.15,202.82L-265.18,209.98L-270.03,210.70L-274.99,210.31L-279.96,207.99L-283.80,204.75L-285.79,201.17L-285.72,191.97L-283.33,187.01L-279.63,182.23L-274.46,177.87L-265.99,172.91L-261.97,172.40" />
        <path d="M-255.50,186.73L-256.26,190.65L-259.30,196.33L-260.48,197.65L-264.00,198.92L-269.23,197.99L-272.22,195.54L-274.73,192.03L-275.66,188.66L-275.66,185.65L-272.75,181.90L-261.97,172.40L-259.23,172.57L-256.51,174.56L-254.73,177.47L-254.07,183.95L-255.50,186.73" />
        <path d="M-257.64,181.11L-255.50,186.73L-260.03,192.36L-262.47,194.08L-267.32,195.01L-269.96,194.35L-271.82,192.57L-272.55,190.58" />
        <path d="M-264.33,187.93L-260.48,184.69L-260.36,185.87L-261.36,187.20" />
      </g>
      <g id="f4" style="--index:4; opacity:0;" class="frame">
        <path d="M-262.92,171.85L-260.36,167.34L-257.59,165.55L-250.88,164.62L-247.99,165.03L-245.60,166.81L-244.00,169.72L-243.21,173.96L-243.41,182.23L-246.78,190.38L-249.37,194.16L-252.74,197.06L-260.23,199.85L-265.91,199.18L-268.57,196.87L-271.09,192.96L-272.22,188.93L-272.22,184.82L-270.43,180.58L-262.92,171.85" />
        <path d="M-237.61,177.68L-238.77,182.96L-242.88,190.91L-248.44,196.93L-252.41,198.79L-260.23,199.52L-263.47,198.71L-266.26,196.47L-268.70,192.90L-269.90,189.45L-270.09,185.75L-269.23,181.57L-264.00,172.24L-260.10,167.80L-255.06,164.56L-250.50,162.71L-246.26,162.05L-243.09,162.11L-240.55,163.96L-238.57,167.34L-237.51,172.04L-237.61,177.68" />
        <path d="M-253.39,167.22L-245.93,166.08L-242.41,166.41L-240.02,168.34L-238.38,171.44L-237.66,175.22L-238.38,182.04L-242.28,190.84L-247.71,198.32L-251.28,200.38L-255.86,201.44L-262.47,201.17L-265.33,198.98L-270.23,191.31L-271.42,187.01L-271.49,182.96L-267.64,175.35L-261.94,169.33L-257.84,167.67L-253.39,167.22" />
        <path d="M-261.52,170.76L-253.39,167.22L-249.97,167.34L-247.11,169.13L-245.33,172.24L-244.54,176.07L-245.07,183.70L-249.30,190.77L-252.54,194.08L-260.16,198.05L-266.46,198.71L-269.43,197.20L-272.67,194.16L-274.79,190.65L-275.39,187.07L-274.79,183.62L-268.77,176.28L-261.52,170.76" />
        <path d="M-246.60,173.96L-246.98,179.26L-250.76,186.47L-254.20,188.85L-258.04,189.18L-259.76,188.39L-262.42,184.09L-263.20,180.91L-262.92,171.85L-261.52,170.76L-257.11,169.85L-252.81,169.79L-249.24,170.84L-246.60,173.96" />
        <path d="M-266.34,193.40L-267.64,190.17L-267.72,187.07L-266.99,184.15L-262.74,178.26L-259.70,176.01L-256.13,174.69L-250.10,174.29L-248.37,175.28L-247.11,178.86L-248.77,183.70L-250.83,186.34L-253.67,188.93L-260.43,192.96L-263.02,193.83L-266.34,193.40" />
        <path d="M-265.69,194.33L-268.45,190.98L-268.77,188.66L-268.57,186.01L-267.12,183.62L-262.67,178.99L-256.79,176.67L-251.96,176.40L-249.90,179.13L-250.15,182.11L-251.81,184.55L-259.83,191.70L-263.27,193.83L-265.69,194.33" />
        <path d="M-266.43,183.32L-262.14,179.32L-258.77,178.06L-252.54,177.54L-250.55,178.06L-249.63,179.32L-249.57,182.77L-252.29,186.34L-259.70,190.11L-263.67,190.25L-265.06,188.93L-266.46,185.75L-266.43,183.32" />
        <path d="M-246.53,172.91L-245.73,182.04L-248.90,188.00L-254.47,193.16L-260.83,195.61L-263.34,195.67L-266.79,194.28L-268.97,190.58L-269.03,188.19L-268.45,185.81L-266.31,182.83L-264.40,182.50" />
      </g>
      <g id="f5" style="--index:5; opacity:0;" class="frame">
        <path d="M-273.82,179.33L-274.53,175.41L-273.53,171.44L-270.81,167.80L-264.00,161.91L-254.00,158.66L-245.65,158.66L-243.47,160.32L-241.55,166.29L-242.28,174.29L-245.93,181.30L-248.90,183.95L-257.24,187.46L-264.07,188.00L-267.19,186.94L-270.09,184.82L-272.55,182.17L-273.82,179.33" />
        <path d="M-244.84,153.78L-242.21,154.17L-239.57,156.41L-237.84,159.66L-237.25,167.41L-240.95,176.34L-246.33,182.96L-250.15,185.15L-254.85,186.61L-263.27,187.13L-266.92,186.20L-273.53,181.97L-275.06,179.26L-275.33,175.49L-270.56,166.41L-263.93,158.21L-255.98,152.52L-252.01,151.45L-248.70,151.32L-245.73,152.52L-244.84,153.78" />
        <path d="M-261.28,158.07L-255.26,155.03L-250.50,153.91L-244.84,153.78L-242.54,159.20L-241.96,169.99L-244.72,180.58L-250.55,188.39L-254.73,191.50L-259.17,193.56L-265.79,194.28L-268.83,192.63L-275.46,185.95L-277.45,181.97L-277.57,177.66L-275.52,172.51L-272.47,167.87L-265.91,160.73L-261.28,158.07" />
        <path d="M-246.89,162.41L-244.80,164.70L-244.27,170.12L-245.13,173.24L-249.70,179.13L-257.59,183.43L-263.87,185.08L-266.84,185.08L-269.70,183.89L-272.35,181.57L-273.88,179.19L-273.88,175.55L-271.54,170.39L-265.13,161.52L-261.28,158.07L-255.00,157.28L-251.36,157.88L-248.37,160.06L-246.89,162.41" />
        <path d="M-249.61,161.78L-248.04,161.78L-246.33,163.30L-245.20,167.14L-244.80,175.28L-245.85,178.66L-250.03,184.61L-257.51,188.93L-264.53,190.11L-267.77,189.72L-274.26,185.15L-276.24,182.11L-276.52,178.73L-274.99,175.16L-269.43,168.53L-263.55,163.83L-260.03,162.38L-255.93,161.58L-249.61,161.78" />
        <path d="M-261.00,167.23L-259.37,164.49L-256.79,162.90L-249.61,161.78L-247.71,163.11L-246.71,165.09L-246.91,171.11L-250.83,177.54L-253.60,180.06L-260.30,183.37L-263.02,184.03L-267.77,183.62L-269.43,182.11L-270.23,177.47L-266.79,171.91L-261.00,167.23" />
        <path d="M-250.82,167.04L-249.90,169.93L-250.15,172.77L-253.87,178.33L-261.09,183.43L-262.87,183.95L-264.86,183.43L-265.00,179.98L-261.81,174.56L-255.93,169.27L-250.82,167.04" />
        <path d="M-263.77,178.00L-260.96,173.30L-258.44,170.78L-253.34,168.40L-251.28,168.73L-251.28,170.32L-255.58,174.69L-258.37,176.40L-263.77,178.00" />
        <path d="M-260.76,172.84L-261.00,167.23L-255.93,166.02L-253.42,165.96L-250.82,167.04L-247.59,166.81L-248.04,171.98L-250.83,176.21L-255.93,180.78L-260.68,183.16L-263.34,183.49L-264.00,182.50L-263.77,178.00L-266.06,178.00L-267.64,175.55L-267.57,172.70L-266.64,171.51" />
      </g>
      <g id="f6" style="--index:6; opacity:0;" class="frame">
        <path d="M-259.58,172.65L-259.37,170.18L-258.44,169.13L-254.47,168.46L-252.01,169.19L-248.17,173.63L-246.91,181.64L-247.91,184.42L-252.14,189.59L-258.50,193.23L-263.27,194.08L-265.06,193.23L-266.59,190.91L-267.77,184.49L-267.19,181.18L-265.39,178.00L-263.07,175.08L-259.58,172.65" />
        <path d="M-247.61,189.66L-253.67,192.76L-260.56,193.09L-263.60,191.57L-265.79,189.18L-266.99,186.74L-267.24,183.76L-266.72,180.58L-264.86,177.14L-262.22,173.57L-258.77,170.84L-250.50,168.07L-244.27,167.87L-242.36,169.33L-241.10,171.77L-240.70,177.87L-242.88,184.09L-247.61,189.66" />
        <path d="M-251.77,170.86L-248.24,170.84L-245.53,171.85L-243.81,173.90L-242.94,176.40L-242.74,181.90L-245.33,187.27L-249.90,191.10L-252.87,192.10L-258.90,192.03L-262.67,188.13L-263.27,182.77L-259.50,176.28L-251.77,170.86" />
        <path d="M-259.81,175.53L-259.58,172.65L-248.97,169.72L-243.41,169.13L-241.35,169.93L-239.70,172.24L-238.77,175.08L-239.10,181.05L-242.54,186.80L-247.79,191.43L-251.28,192.90L-257.97,193.23L-260.48,191.31L-263.07,185.15L-263.07,181.78L-261.94,178.33L-259.81,175.53" />
        <path d="M-243.37,168.26L-241.23,168.46L-238.97,170.26L-237.78,172.51L-237.31,177.73L-240.02,182.83L-244.34,186.94L-250.70,189.65L-257.97,189.72L-260.48,188.13L-262.01,185.95L-262.34,183.56L-262.09,180.85L-259.83,177.47L-253.01,171.71L-249.17,169.79L-243.37,168.26" />
        <path d="M-252.74,188.36L-256.99,188.00L-255.93,184.49L-248.84,178.26L-245.07,176.54L-243.41,176.88L-243.41,180.18L-246.13,184.28L-252.74,188.36" />
        <path d="M-259.83,175.74L-255.33,171.58L-247.31,168.46L-240.43,168.20L-238.57,169.39L-237.25,173.83L-237.66,176.74L-241.10,182.23L-245.60,186.74L-248.77,188.60L-252.14,189.84L-258.44,190.31L-260.43,189.12L-261.36,187.13L-261.29,184.42L-259.23,181.11L-251.43,174.75L-244.54,171.58L-239.97,171.85L-238.84,173.30L-238.44,177.33L-240.70,181.57L-244.27,184.88L-249.57,187.60L-255.66,189.12L-259.37,189.05L-260.30,187.40L-259.10,185.87" />
      </g>
      <g id="f7" style="--index:7; opacity:0;" class="frame">
        <path d="M-245.85,168.64L-245.00,173.96L-245.98,177.07L-249.90,179.85L-254.00,179.59L-255.46,176.67L-255.46,174.89L-254.27,172.91L-250.23,169.79L-245.85,168.64" />
        <path d="M-257.09,172.54L-257.97,169.06L-257.04,167.34L-253.67,166.21L-249.17,166.15L-245.85,168.64L-242.36,168.79L-241.23,169.79L-240.30,175.82L-242.41,180.64L-246.38,184.61L-251.61,186.61L-257.24,186.53L-261.36,182.96L-261.69,180.45L-261.21,177.47L-257.09,172.54" />
        <path d="M-238.37,165.08L-235.00,167.01L-234.39,170.84L-237.11,175.88L-242.08,180.58L-247.79,183.49L-251.16,184.03L-258.17,183.37L-260.23,181.97L-261.29,180.18L-260.23,175.22L-254.27,168.79L-250.88,166.62L-244.67,164.23L-240.10,164.04L-238.37,165.08" />
        <path d="M-255.66,175.62L-257.09,172.54L-255.40,170.98L-248.04,166.68L-242.54,165.16L-238.37,165.08L-237.51,166.48L-237.51,170.92L-238.91,173.50L-242.54,177.80L-247.18,180.12L-252.87,180.39L-255.93,179.26L-258.44,177.40L-259.63,175.28L-259.43,170.51L-255.58,167.01L-249.37,166.02" />
      </g>
      <g id="f8" style="--index:8; opacity:0;" class="frame">
        <path d="M-255.69,172.38L-255.40,170.05L-252.09,168.40L-246.71,167.74L-245.00,169.13L-245.13,174.36L-246.18,176.40L-249.70,180.12L-253.87,182.30L-257.64,182.56L-259.96,181.05L-260.16,177.47L-255.69,172.38" />
        <path d="M-255.56,172.63L-250.23,169.06L-245.07,167.87L-242.16,168.34L-241.15,171.58L-241.68,175.68L-244.40,179.92L-248.77,183.10L-254.33,184.28L-258.97,183.49L-260.36,182.04L-260.76,180.25L-260.56,178.20L-255.56,172.63" />
        <path d="M-255.53,172.69L-249.70,169.06L-243.09,168.01L-241.35,170.65L-241.23,174.69L-245.45,180.91L-249.83,183.37L-254.20,183.76L-256.31,183.23L-257.92,181.78L-258.64,179.79L-258.64,177.47L-255.53,172.69" />
        <path d="M-246.98,173.24L-252.54,174.69L-255.33,173.10L-255.00,172.10L-252.14,169.79L-247.11,167.80L-244.34,168.20L-243.81,169.72L-243.81,173.36L-245.98,176.74L-249.10,178.47L-252.87,178.59L-256.66,176.61L-258.04,172.64" />
      </g>
      <g id="f9" style="--index:9; opacity:0;" class="frame">
        <path d="M-251.09,175.16L-246.66,171.38L-243.81,171.31L-243.01,172.43L-243.41,175.02L-245.33,176.48L-248.90,176.88L-251.09,175.16" />
        <path d="M-245.53,171.25L-244.60,171.44L-243.94,172.77L-244.93,175.68L-248.11,177.60L-251.28,177.07L-252.01,174.50L-250.83,171.77L-246.98,170.32L-245.73,170.45L-245.53,171.25" />
        <path d="M-250.03,171.89L-245.53,171.25L-246.78,173.90L-249.70,175.16L-251.03,175.02L-251.16,174.36L-250.03,171.89" />
        <path d="M-251.16,175.22L-251.03,172.64L-248.90,171.17" />
      </g>
      <g id="f10" style="--index:10; opacity:0;" class="frame" />
      <g id="f11" style="--index:11; opacity:0;" class="frame" />
      <g id="f12" style="--index:12; opacity:0;" class="frame" />
      <g id="f13" style="--index:13; opacity:0;" class="frame" />
      <g id="f14" style="--index:14; opacity:0;" class="frame" />
      <g id="f15" style="--index:15; opacity:0;" class="frame" />
      <g id="f16" style="--index:16; opacity:0;" class="frame" />
      <g id="f17" style="--index:17; opacity:0;" class="frame">
        <path d="M-284.47,191.40L-286.45,193.95L-289.11,193.83L-290.75,190.65L-290.95,186.08L-287.83,183.37L-282.88,182.30L-281.35,183.43L-281.09,186.94L-284.47,191.40" />
        <path d="M-282.55,183.23L-281.35,183.56L-281.49,186.08L-283.53,189.84L-284.59,191.50L-287.70,191.97L-290.56,188.27L-290.22,184.94L-286.65,183.43L-282.55,183.23" />
        <path d="M-284.76,194.12L-287.78,194.88L-290.22,192.24L-291.62,188.06L-291.15,184.55L-286.65,181.84L-281.02,181.64L-278.38,183.23L-277.70,186.14L-279.76,189.92L-284.76,194.12" />
        <path d="M-280.49,185.21L-280.42,187.20L-282.15,190.91L-284.41,193.89L-286.52,194.62L-290.42,193.83L-292.48,191.91L-294.66,188.06L-294.66,185.02L-290.22,182.70L-282.22,182.56L-280.62,183.76L-280.49,185.21" />
        <path d="M-291.43,191.05L-292.60,187.53L-292.15,186.08L-289.23,183.49L-283.60,181.97L-280.56,182.44L-279.83,183.43L-279.76,186.20L-285.19,192.43L-289.76,193.23L-291.43,191.05" />
        <path d="M-289.11,189.84L-286.97,185.08L-282.40,183.23L-280.62,184.49L-280.49,185.75L-285.52,191.17L-290.02,191.97L-291.43,191.05L-291.42,189.59" />
      </g>
    </g>
    <g id="t3" transform="translate(-78.63 -43.37) scale(1.03 1.03) rotate(-0.54)" class="thread">
      <g id="f0" transform="translate(175.29 -197.87)" style="--index:0; opacity:1;" class="frame">
        <path d="M-294.32,187.04L-291.07,184.23L-287.15,183.12L-286.12,183.75L-285.90,185.56L-287.18,188.22L-291.92,192.51L-293.13,192.52L-293.61,191.70L-294.32,187.04" />
        <path d="M-295.24,189.31L-294.03,186.52" />
      </g>
      <g id="f1" transform="translate(175.29 -197.87)" style="--index:1; opacity:0;" class="frame">
        <path d="M-288.35,188.37L-288.27,186.02L-287.01,184.13L-283.39,181.37L-281.39,181.14L-280.59,185.09L-282.29,188.60L-285.01,189.66L-288.35,188.37" />
        <path d="M-288.35,188.37L-287.68,186.73" />
      </g>
      <g id="f2" transform="translate(175.29 -197.87)" style="--index:2; opacity:0;" class="frame">
        <path d="M-282.31,188.29L-282.00,186.05L-279.53,182.00L-275.84,178.57L-274.04,178.24L-273.00,179.09L-272.68,180.92L-273.72,184.47L-278.33,189.83L-283.87,191.58" />
      </g>
      <g id="f3" transform="translate(175.29 -197.87)" style="--index:3; opacity:0;" class="frame">
        <path d="M-277.77,190.59L-278.11,188.50L-277.35,186.91L-271.56,179.78L-266.50,176.71L-264.61,174.29L-263.51,174.72L-263.00,183.08L-263.98,186.25L-265.72,188.55L-270.85,190.69L-279.12,192.52L-279.86,190.60L-278.86,188.43" />
      </g>
      <g id="f4" transform="translate(175.29 -197.87)" style="--index:4; opacity:0;" class="frame">
        <path d="M-269.56,180.02L-265.30,172.40L-262.47,168.83L-261.02,168.27L-258.06,169.98L-257.39,171.15L-258.33,175.80L-261.19,178.60L-268.36,180.42" />
      </g>
      <g id="f5" transform="translate(175.29 -197.87)" style="--index:5; opacity:0;" class="frame">
        <path d="M-269.07,166.64L-268.66,163.24L-263.20,156.10L-261.43,155.42L-260.08,157.82L-259.67,161.59L-262.74,170.00L-265.06,171.62L-269.45,170.99L-270.40,169.26L-269.07,166.64" />
        <path d="M-269.07,166.65L-266.75,163.81" />
      </g>
      <g id="f6" transform="translate(175.29 -197.87)" style="--index:6; opacity:0;" class="frame">
        <path d="M-263.63,179.43L-263.21,176.24L-260.95,172.87L-257.44,171.70L-256.59,173.50L-257.75,178.24L-260.45,181.97L-262.50,182.20L-264.13,181.17L-263.91,177.80" />
      </g>
      <g id="f7" transform="translate(175.29 -197.87)" style="--index:7; opacity:0;" class="frame">
        <path d="M-260.42,174.90L-260.58,172.16L-258.31,169.41L-254.36,168.20L-253.93,170.07L-255.23,173.64L-257.12,175.70L-259.83,176.16L-260.43,174.66" />
      </g>
      <g id="f8" transform="translate(175.29 -197.87)" style="--index:8; opacity:0;" class="frame">
        <path d="M-258.51,175.51L-258.20,173.21L-256.86,171.23L-255.09,170.30L-254.33,171.00L-255.06,175.69L-256.61,178.43L-260.79,178.00L-260.39,175.81L-258.66,173.42" />
      </g>
      <g id="f9" transform="translate(175.29 -197.87)" style="--index:9; opacity:0;" class="frame">
        <path d="M-253.05,173.65L-251.12,171.01L-248.81,171.32L-249.17,173.24L-252.35,174.36" />
      </g>
      <g id="f10" transform="translate(175.29 -197.87)" style="--index:10; opacity:0;" class="frame" />
      <g id="f11" transform="translate(175.29 -197.87)" style="--index:11; opacity:0;" class="frame" />
      <g id="f12" transform="translate(175.29 -197.87)" style="--index:12; opacity:0;" class="frame" />
      <g id="f13" transform="translate(175.29 -197.87)" style="--index:13; opacity:0;" class="frame" />
      <g id="f14" transform="translate(175.29 -197.87)" style="--index:14; opacity:0;" class="frame" />
      <g id="f15" transform="translate(175.29 -197.87)" style="--index:15; opacity:0;" class="frame" />
      <g id="f16" transform="translate(175.29 -197.87)" style="--index:16; opacity:0;" class="frame" />
      <g id="f17" transform="translate(175.29 -197.87)" style="--index:17; opacity:0;" class="frame">
        <path d="M-291.51,185.74L-289.55,184.42L-288.91,185.40L-290.35,186.23L-292.57,185.83L-290.01,183.21" />
      </g>
    </g>
    <g id="t4" transform="translate(-169.48 -36.67)" class="thread">
      <g id="f0" style="--index:0; opacity:1;" class="frame">
        <path d="M90.99,-17.85L90.99,-17.85" />
        <path d="M-128.99,-3.63L-124.62,-9.84L-115.67,-15.73L-100.84,-23.08L-81.57,-31.29L-59.92,-37.25L-21.92,-44.01L-4.96,-46.06L2.06,-46.06L15.23,-44.34L41.79,-39.04L61.65,-32.82L71.20,-26.79L78.21,-24.01L87.34,-18.72L90.73,-17.79" />
        <path d="M-129.92,0.94L-125.80,5.71L-102.30,10.35L-67.06,13.99L-36.42,15.97L-4.03,16.24L15.50,13.79L27.82,10.35L58.88,4.45L74.64,0.03L82.64,-3.75L88.75,-9.32L92.12,-13.62L91.92,-14.55L90.20,-14.74" />
        <path d="M-124.95,-13.62L-125.88,-19.31L-128.26,-22.03L-132.16,-23.81" />
        <path d="M-107.00,-23.87L-108.00,-32.08L-108.00,-37.45L-107.00,-39.96" />
        <path d="M-69.78,-36.32L-70.38,-42.15L-72.69,-49.03L-72.69,-53.40" />
        <path d="M-23.70,-43.14L-23.90,-56.19L-23.10,-58.83" />
        <path d="M39.21,-44.01L38.61,-52.21L41.39,-57.24" />
        <path d="M74.17,-28.38L78.94,-42.28" />
        <path d="M86.61,-19.31L89.33,-23.87L98.88,-30.70" />
        <path d="M10.68,-47.77L13.52,-53.07" />
      </g>
      <g id="f1" style="--index:1; opacity:0;" class="frame">
        <path d="M-137.92,-0.24L-126.08,-13.35L-110.37,-24.34L-103.69,-30.76L-78.93,-45.13L-57.61,-55.79L-33.96,-61.48L-17.87,-63.59L-3.30,-63.53L-0.26,-62.27L6.63,-62.20L13.57,-60.36L20.28,-60.03L26.29,-57.57L36.04,-56.64L40.59,-54.14L46.55,-52.21L65.77,-41.88L77.09,-37.12L82.84,-32.62L86.09,-28.25L95.49,-20.96L107.42,-13.41L112.12,-8.65" />
        <path d="M-136.66,3.00L-132.29,6.77L-121.43,13.32L-111.77,15.78L-104.56,19.15L-88.65,22.92L-78.60,24.59L-67.47,24.78L-55.68,26.43L-20.39,32.65L-1.18,32.79L23.05,29.55L38.08,28.68L63.18,23.78L79.67,18.03L88.34,13.59L96.36,7.64L104.43,3.46L110.79,-3.28" />
        <path d="M-125.28,-16.59L-127.92,-22.69L-133.22,-28.91" />
        <path d="M-101.24,-36.79L-104.01,-44.92L-103.76,-51.35" />
        <path d="M-70.13,-48.64L-69.05,-68.57" />
        <path d="M-20.66,-63.07L-21.39,-70.02L-25.56,-78.56" />
        <path d="M42.58,-56.91L42.12,-62.93L45.49,-70.55L48.55,-74.38" />
        <path d="M75.70,-40.95L81.71,-47.25L85.96,-50.42" />
        <path d="M96.74,-24.47L114.31,-27.06" />
        <path d="M12.13,-61.68L13.72,-67.10L15.23,-69.03" />
      </g>
      <g id="f2" style="--index:2; opacity:0;" class="frame">
        <path d="M-139.05,0.55L-137.54,-5.20L-125.80,-19.84L-114.74,-28.77L-103.96,-39.57L-90.24,-49.30L-81.31,-56.78L-58.14,-66.65L-53.49,-67.97L-34.89,-72.54L-11.11,-74.98L20.93,-75.18L39.01,-71.94L49.01,-67.50L63.24,-64.46L75.55,-60.22L84.57,-54.86L102.12,-40.04L112.25,-28.38L129.47,-10.70" />
        <path d="M-142.69,2.53L-130.10,4.45L-98.78,17.77L-81.57,21.86L-66.61,24.12L-60.45,26.24L-45.62,27.69L-35.16,30.01L-7.74,32.59L24.38,33.05L47.02,31.33L71.20,26.04L81.99,22.52L101.79,13.86L119.99,3.27L126.22,-2.04L130.72,-8.45" />
        <path d="M-126.20,-23.94L-126.61,-29.04L-128.26,-32.29L-130.78,-35.72L-135.88,-39.83" />
        <path d="M-101.64,-45.27L-102.96,-51.95L-106.67,-60.09" />
        <path d="M-66.21,-64.33L-68.47,-69.23L-68.47,-71.88L-65.81,-80.28" />
        <path d="M-25.22,-75.31L-24.69,-88.36" />
        <path d="M44.31,-73.00L47.48,-80.42L51.27,-83.85" />
        <path d="M85.63,-54.53L87.87,-59.95L93.12,-64.33L96.62,-66.11" />
        <path d="M107.02,-33.55L112.90,-36.26L121.25,-37.85" />
        <path d="M17.69,-78.82L16.63,-91.33" />
      </g>
      <g id="f3" style="--index:3; opacity:0;" class="frame">
        <path d="M145.68,-4.54L145.68,-4.54" />
        <path d="M-138.72,0.03L-133.29,0.75L-102.23,14.91L-72.89,25.31L-52.56,31.20L-11.31,34.84L13.97,35.70L25.96,33.79L45.77,27.96L59.87,25.38L73.04,21.20L111.19,2.53L143.97,-4.54" />
        <path d="M-139.70,-4.15L-133.36,-5.14L-122.83,-13.68L-109.72,-21.10L-80.71,-46.06L-58.99,-60.82L-37.88,-71.21L-18.27,-78.43L-4.17,-81.08L12.46,-81.87L22.79,-81.74L45.57,-79.35L54.11,-77.63L76.63,-70.68L85.16,-64.66L102.25,-57.11L107.27,-51.08L116.55,-43.74L122.83,-37.12L132.38,-23.81L144.82,-14.88L150.13,-10.17L158.00,-6.46L164.56,-5.20" />
        <path d="M-118.13,-18.25L-119.44,-26.33L-123.82,-32.02L-127.92,-35.53" />
        <path d="M-98.73,-31.83L-102.50,-42.81L-102.70,-48.91" />
        <path d="M-62.24,-61.75L-64.70,-68.57L-64.35,-73.53" />
        <path d="M-22.77,-76.44L-28.73,-84.98L-30.92,-91.07" />
        <path d="M47.95,-79.16L50.92,-85.57L54.57,-89.62" />
        <path d="M93.37,-65.06L97.82,-70.68L104.23,-76.37" />
        <path d="M126.15,-35.20L127.81,-41.09L133.51,-42.68L141.13,-43.34" />
        <path d="M17.62,-83.13L19.35,-101.67" />
      </g>
      <g id="f4" style="--index:4; opacity:0;" class="frame">
        <path d="M-148.32,-5.74L-144.28,-9.65L-124.09,-24.94L-114.69,-30.63L-102.96,-39.77L-89.98,-48.24L-80.06,-57.57L-57.14,-75.64L-41.18,-84.78L-32.70,-88.23L-15.23,-92.53L1.26,-94.58L24.05,-94.52L38.08,-92.78L63.18,-85.98L80.46,-78.89L88.14,-74.38L104.30,-62.47L127.15,-42.68L132.44,-36.52L144.70,-28.11L149.60,-23.81L153.30,-21.89L168.40,-16.80" />
        <path d="M-149.65,-2.83L-141.36,-1.83L-114.34,5.12L-110.65,6.77L-102.83,12.80L-98.53,15.12L-69.52,20.74L-53.16,25.97L-39.46,31.33L-15.16,36.10L16.11,36.29L31.06,34.70L54.84,33.71L81.39,28.09L125.55,12.54L147.48,1.41L166.61,-11.43L171.52,-13.82" />
        <path d="M-108.59,-37.05L-112.56,-41.03L-119.52,-42.28L-127.33,-42.61" />
        <path d="M-88.60,-50.81L-93.68,-53.07L-97.86,-58.90L-98.58,-65.39L-96.54,-70.08" />
        <path d="M-60.71,-76.70L-65.28,-85.65L-67.27,-91.60" />
        <path d="M-21.12,-92.26L-22.25,-104.77L-19.93,-110.73" />
        <path d="M52.78,-89.08L58.88,-97.62L60.72,-102.39" />
        <path d="M98.75,-70.41L106.35,-80.35" />
        <path d="M126.88,-43.08L133.97,-43.47L146.21,-45.85" />
        <path d="M24.10,-92.72L21.92,-97.82L17.36,-105.04" />
      </g>
      <g id="f5" style="--index:5; opacity:0;" class="frame">
        <path d="M-165.74,-9.25L-157.85,-12.29L-145.08,-20.96L-132.29,-27.51L-121.96,-34.54L-111.70,-39.23L-90.24,-51.29L-82.70,-56.71L-68.52,-65.12L-56.15,-75.38L-36.47,-86.70L-18.33,-94.71L-8.34,-96.63L5.05,-97.89L23.78,-97.89L37.42,-95.57L59.74,-87.36L68.81,-82.86L82.72,-77.36L110.79,-60.49L122.31,-48.83L130.80,-43.08L141.05,-37.45L151.78,-26.66L170.66,-18.19L175.09,-17.73L175.61,-18.91" />
        <path d="M-166.20,-3.69L-161.29,-4.95L-140.31,-4.42L-109.79,1.60L-82.57,9.42L-62.56,11.87L-25.56,19.48L27.16,22.07L79.20,22.07L87.14,20.74L96.36,20.41L108.15,18.36L125.89,13.06L133.44,8.42L158.47,-2.70L169.98,-9.11L174.16,-12.36L182.57,-16.20L187.20,-17.05L185.54,-17.13" />
        <path d="M-109.59,-39.77L-121.23,-49.90" />
        <path d="M-90.91,-53.07L-94.69,-60.88L-94.48,-69.75" />
        <path d="M-59.85,-76.18L-61.91,-80.94L-67.34,-86.97L-70.13,-92.66" />
        <path d="M-18.27,-97.56L-18.40,-103.91L-15.89,-112.38" />
        <path d="M62.91,-89.81L64.84,-99.34L65.10,-107.23" />
        <path d="M106.09,-67.77L110.59,-80.02" />
        <path d="M135.62,-38.90L140.98,-40.76L152.97,-47.18" />
        <path d="M25.43,-95.37L23.45,-103.65L23.45,-107.09L25.18,-110.66" />
      </g>
      <g id="f6" style="--index:6; opacity:0;" class="frame">
        <path d="M-164.81,-8.26L-144.68,-18.25L-134.09,-22.03L-123.16,-28.38L-112.10,-32.88L-104.89,-36.79L-88.60,-43.08L-71.18,-50.81L-61.51,-56.31L-39.86,-65.18L-20.06,-70.22L12.59,-73.20L39.81,-73.06L46.22,-70.95L62.91,-67.37L79.00,-62.20L85.56,-58.96L98.55,-54.47L114.51,-45.46L120.26,-40.89L134.57,-31.69L156.16,-21.04L162.52,-19.18L181.04,-16.93" />
        <path d="M-168.58,-2.56L-162.95,-5.47L-147.52,-8.39L-138.25,-9.18L-123.62,-9.11L-90.51,-3.75L-69.32,2.07L-56.61,3.33L-45.88,5.38L-18.07,14.85L1.20,17.03L34.84,17.37L60.67,16.24L81.39,14.13L91.19,10.28L109.41,5.12L144.50,-2.04L151.58,-4.48L164.88,-7.46L174.03,-11.57L183.10,-13.29" />
        <path d="M-109.79,-33.55L-120.37,-48.17L-121.90,-51.35" />
        <path d="M-84.81,-42.48L-88.25,-47.65L-89.18,-57.11" />
        <path d="M-53.09,-60.28L-55.81,-70.88L-59.85,-79.22" />
        <path d="M61.25,-71.28L63.84,-76.37L65.10,-82.40" />
        <path d="M105.23,-55.46L108.68,-68.90L111.52,-75.71" />
        <path d="M134.44,-35.72L139.67,-39.23L147.21,-42.42" />
        <path d="M21.54,-75.91L22.92,-85.31" />
      </g>
      <g id="f7" style="--index:7; opacity:0;" class="frame">
        <path d="M-161.90,-9.65L-125.28,-25.80L-103.56,-33.74L-86.21,-37.85L-72.89,-40.04L-61.18,-43.34L-19.33,-52.34L4.32,-54.00L30.26,-54.33L50.14,-54.00L66.76,-52.74L78.34,-50.69L86.56,-47.44L97.29,-45.19L110.52,-38.64L121.05,-35.26L129.14,-29.70L148.87,-21.04L157.09,-16.33L165.96,-12.75L173.10,-11.57" />
        <path d="M-145.13,-11.76L-123.89,-17.73L-105.34,-17.98L-81.71,-16.00L-48.26,-9.25L-35.22,-7.46L-0.91,-7.60L30.13,-6.40L105.56,-9.18L154.70,-15.54" />
        <path d="M-105.34,-33.48L-105.22,-38.84L-105.94,-41.16L-112.63,-45.13" />
        <path d="M-81.64,-41.61L-80.38,-56.38" />
        <path d="M-46.15,-47.71L-46.20,-55.19L-48.14,-60.82" />
        <path d="M57.88,-53.00L58.74,-58.83L61.93,-67.83" />
        <path d="M103.58,-42.42L104.83,-48.77L105.36,-57.84" />
        <path d="M138.94,-33.01L141.05,-37.78L149.07,-45.99" />
        <path d="M21.19,-49.49L19.02,-55.26L18.88,-59.82L22.06,-67.83" />
      </g>
      <g id="f8" style="--index:8; opacity:0;" class="frame">
        <path d="M155.88,-16.59L155.88,-16.59" />
        <path d="M-146.26,-16.53L-141.84,-19.45L-136.99,-20.83L-125.60,-23.68L-104.01,-27.51L-90.71,-28.77L-58.47,-34.27L-32.63,-36.52L-12.04,-40.10L24.78,-43.08L53.11,-42.61L72.84,-39.44L100.99,-29.77L114.96,-23.42L128.54,-19.97L154.43,-16.53" />
        <path d="M-109.44,-21.10L-99.11,-22.75L-73.10,-22.42L-25.56,-16.80L-17.34,-15.14L12.46,-15.40L36.95,-16.72L49.81,-18.52L83.12,-21.29L97.87,-23.21L106.82,-25.60" />
        <path d="M-88.53,-28.05L-88.25,-33.48L-89.86,-35.80L-94.94,-39.57" />
        <path d="M-65.48,-36.38L-67.27,-45.33" />
        <path d="M-43.23,-38.90L-44.82,-45.27L-43.43,-53.14" />
        <path d="M51.40,-42.48L51.52,-57.24" />
        <path d="M98.80,-34.73L100.39,-41.42L102.72,-46.78" />
        <path d="M131.65,-24.14L136.08,-32.49L142.84,-38.78" />
        <path d="M-0.38,-43.34L-1.11,-50.81L-2.24,-54.26" />
        <path d="M23.65,-42.68L26.04,-56.25" />
      </g>
      <g id="f9" style="--index:9; opacity:0;" class="frame">
        <path d="M-101.50,-24.14" />
        <path d="M-144.55,-16.59L-116.88,-23.42L-84.88,-25.13L-68.07,-25.13L-47.01,-28.11L-11.31,-36.71L-1.59,-37.91L11.93,-38.31L39.21,-37.97L54.17,-36.65L79.07,-31.83L89.67,-27.65L102.57,-25.40L110.46,-23.15L142.64,-19.05L148.07,-17.46" />
        <path d="M-64.95,-24.34L-42.30,-22.61L-4.70,-21.70L10.53,-20.23L20.28,-20.23L59.59,-23.35L84.63,-27.65" />
        <path d="M-87.27,-26.79L-91.17,-36.71" />
        <path d="M-63.49,-26.85L-63.69,-40.62" />
        <path d="M-39.19,-30.24L-40.05,-37.64L-44.69,-48.97" />
        <path d="M1.46,-38.64L-0.13,-44.07L0.15,-50.62" />
        <path d="M57.15,-39.77L58.08,-49.36L59.27,-52.21" />
        <path d="M93.50,-26.60L89.53,-39.96L88.75,-46.72" />
        <path d="M125.29,-18.64L127.08,-24.34L129.92,-28.98L131.85,-31.62L136.75,-35.80" />
        <path d="M26.89,-41.55L28.62,-46.65L31.59,-52.07" />
      </g>
      <g id="f10" style="--index:10; opacity:0;" class="frame">
        <path d="M-142.29,-16.47L-123.16,-18.97L-74.75,-22.42L-48.74,-22.88L-25.16,-24.61L-5.63,-24.61L37.62,-28.38L62.91,-28.51L84.90,-26.19L113.38,-22.03L128.74,-18.25L140.52,-16.33L150.85,-15.73L151.18,-15.27L149.32,-14.81" />
        <path d="M-72.24,-17.05L-33.56,-16.59L60.72,-21.43" />
        <path d="M-84.28,-23.21L-87.52,-29.10L-92.70,-35.80" />
        <path d="M-62.11,-24.01L-62.11,-33.81L-61.38,-37.97" />
        <path d="M-30.59,-26.85L-33.83,-32.82L-34.36,-42.15L-33.63,-46.18" />
        <path d="M0.40,-25.20L-0.66,-37.64" />
        <path d="M52.33,-29.91L54.89,-36.65L59.14,-43.27" />
        <path d="M89.00,-24.41L88.34,-35.99L90.59,-43.20" />
        <path d="M125.29,-22.49L132.71,-35.80" />
        <path d="M27.35,-27.45L29.00,-34.67L31.72,-40.76" />
      </g>
      <g id="f11" style="--index:11; opacity:0;" class="frame">
        <path d="M-180.37,-9.25L-174.67,-9.44L-168.71,-11.90L-158.53,-14.15L-145.33,-15.33L-127.46,-18.39L-67.01,-19.45L-53.36,-20.63L-38.01,-20.37L24.58,-25.46L69.74,-26.79L85.30,-26.33L113.78,-21.37L124.36,-20.44L156.68,-13.35L159.07,-12.50L156.08,-12.42" />
        <path d="M-101.37,-20.30L-97.47,-30.49L-95.94,-39.37" />
        <path d="M-52.84,-23.48" />
        <path d="M-60.52,-22.49L-63.57,-26.66L-63.89,-33.01L-65.22,-38.24" />
        <path d="M-28.80,-24.54L-30.52,-30.96L-28.53,-35.14" />
        <path d="M1.13,-23.87L0.40,-38.24" />
        <path d="M51.45,-28.32L51.45,-33.94L53.31,-41.16" />
        <path d="M83.52,-26.19L86.89,-39.83" />
        <path d="M125.62,-20.23L127.01,-26.39L131.32,-33.07" />
        <path d="M28.02,-26.93L28.62,-32.82L30.61,-39.37" />
      </g>
      <g id="f12" style="--index:12; opacity:0;" class="frame">
        <path d="M-183.61,-4.68L-168.71,-7.66L-150.31,-8.84L-77.34,-10.24L-52.18,-14.34L2.99,-19.78L25.31,-19.90L41.67,-17.73L60.80,-16.47L72.91,-14.48L135.15,-11.43L156.08,-9.58L162.24,-9.84L170.46,-12.03" />
        <path d="M-109.72,-10.50L-110.44,-16.80L-113.23,-21.04" />
        <path d="M-64.10,-14.94L-66.68,-22.36L-66.68,-26.33L-64.95,-30.16" />
        <path d="M-28.93,-19.71L-28.00,-25.27L-25.49,-32.02" />
        <path d="M2.99,-20.37L2.13,-25.60L2.86,-37.52" />
        <path d="M53.44,-22.42L55.62,-31.23L56.02,-37.58" />
        <path d="M85.36,-14.88L85.23,-27.98L86.49,-32.95" />
        <path d="M119.46,-12.09L120.72,-17.85L125.55,-23.61" />
        <path d="M32.07,-23.94L32.65,-35.93" />
      </g>
      <g id="f13" style="--index:13; opacity:0;" class="frame">
        <path d="M-176.60,-1.57L-171.83,-3.16L-148.40,-7.39L-124.82,-10.77L-43.89,-19.31L-17.67,-20.50L-5.63,-20.37L19.75,-17.26L61.05,-17.52L71.66,-16.47L95.16,-16.00L124.04,-11.90L137.54,-11.36L154.17,-9.58L171.97,-9.77L175.16,-8.78L179.19,-8.72L176.42,-7.66" />
        <path d="M-149.31,-8.98L-150.18,-19.64L-151.89,-28.44" />
        <path d="M-110.57,-14.88L-109.06,-30.03L-107.80,-34.33" />
        <path d="M-70.38,-20.11L-68.67,-27.72L-70.98,-38.64" />
        <path d="M-21.44,-23.02L-21.32,-28.71L-20.06,-33.21L-15.81,-39.63" />
        <path d="M36.77,-20.90L41.27,-24.80L42.05,-26.85L43.18,-41.03" />
        <path d="M85.43,-17.19L86.16,-22.94L90.26,-28.32L93.97,-31.23" />
        <path d="M133.16,-15.60L137.88,-18.25L140.00,-20.71L144.90,-30.16" />
        <path d="M0.27,-21.29L1.73,-26.39L5.98,-31.29" />
      </g>
      <g id="f14" style="--index:14; opacity:0;" class="frame">
        <path d="M-170.90,-0.90L-164.61,-2.70L-130.58,-6.27L-108.26,-9.98L-87.73,-8.51L-69.40,-12.42L-53.64,-12.83L-31.37,-16.00L-3.63,-17.19L5.78,-17.26L31.59,-15.27L52.13,-15.00L75.43,-11.36L85.63,-11.43L94.17,-12.62L116.09,-12.56L150.05,-15.67L172.57,-14.01" />
        <path d="M-148.25,-7.85L-146.99,-20.63L-144.41,-27.98" />
        <path d="M-106.20,-11.57L-106.35,-20.30L-109.26,-32.68" />
        <path d="M-64.42,-15.73L-66.34,-21.43L-66.28,-31.36L-64.88,-36.05L-62.76,-39.83" />
        <path d="M-22.77,-19.57L-23.90,-29.44L-21.57,-36.71" />
        <path d="M41.92,-18.85L42.12,-28.58L38.35,-39.04" />
        <path d="M82.92,-14.41L82.59,-20.50L85.30,-32.88L87.22,-37.58" />
        <path d="M131.98,-18.31L135.82,-24.80L137.01,-28.65L137.34,-33.41" />
        <path d="M-0.05,-20.17L-1.31,-34.54" />
      </g>
      <g id="f15" style="--index:15; opacity:0;" class="frame">
        <path d="M-166.47,0.36L-133.16,-3.16L-96.54,-3.82L-81.84,-6.46L-51.51,-10.10L-2.92,-11.30L18.29,-13.35L55.77,-13.68L89.73,-12.36L152.84,-11.50" />
        <path d="M-148.12,-2.29L-148.72,-10.50L-149.78,-13.49L-153.68,-19.57L-154.74,-27.98" />
        <path d="M-107.13,-4.81L-110.52,-20.57L-110.24,-26.79L-107.86,-35.72" />
        <path d="M-64.35,-9.51L-64.42,-18.52L-66.48,-23.68L-71.58,-32.29L-72.97,-37.05" />
        <path d="M-21.12,-11.70L-24.03,-20.96L-23.96,-33.94" />
        <path d="M42.45,-16.20L44.18,-31.42L44.24,-41.69" />
        <path d="M81.99,-15.27L79.93,-23.08L80.13,-29.44L81.86,-37.12" />
        <path d="M132.25,-12.17L135.30,-19.45L144.82,-34.47" />
        <path d="M-1.91,-16.99L0.27,-27.72" />
      </g>
      <g id="f16" style="--index:16; opacity:0;" class="frame">
        <path d="M-163.28,4.06L-136.81,-1.63L-98.20,-11.57L-44.62,-18.78L-22.83,-20.83L16.36,-20.30L37.75,-18.45L48.21,-16.66L76.28,-14.74L106.89,-11.03L125.49,-10.17L127.61,-9.25" />
        <path d="M-113.23,-0.90L-17.34,-12.36L3.26,-13.41L50.87,-14.15" />
        <path d="M-146.46,-2.43L-149.45,-14.01L-150.38,-23.68" />
        <path d="M-106.80,-10.04L-109.72,-19.97L-114.29,-31.23" />
        <path d="M-66.54,-18.19L-68.67,-30.49L-68.67,-34.87L-67.67,-38.04" />
        <path d="M-22.25,-22.49L-23.03,-27.65L-21.52,-34.33L-20.11,-38.38L-16.94,-43.68" />
        <path d="M43.71,-19.51L43.51,-26.46L39.13,-39.44L39.61,-47.44" />
        <path d="M81.06,-15.81L78.21,-21.29L78.47,-29.24L80.33,-34.07L84.70,-39.30" />
        <path d="M113.78,-15.40L118.33,-20.83L129.92,-28.58" />
        <path d="M2.39,-22.16L3.64,-32.08" />
      </g>
      <g id="f17" style="--index:17; opacity:0;" class="frame">
        <path d="M115.69,-7.52L115.69,-7.52" />
        <path d="M-150.91,1.87L-139.45,-4.02L-116.48,-13.68L-62.89,-26.99L-49.92,-28.32L-1.51,-28.51L27.75,-24.87L42.25,-24.74L61.20,-22.82L79.87,-19.45L90.79,-15.73L101.46,-13.16L115.16,-7.52" />
        <path d="M-137.46,1.15L-123.62,-0.05L-84.81,0.81L-60.18,-2.43L-43.36,-3.69L-13.10,-3.49L-1.64,-4.29L36.24,-3.75L82.97,-9.51L88.87,-10.97" />
        <path d="M-137.99,-6.53L-138.79,-12.62L-146.66,-22.75" />
        <path d="M-109.79,-16.53L-111.90,-21.43L-111.90,-25.20L-110.65,-28.38" />
        <path d="M-69.05,-25.01L-69.20,-33.88L-72.29,-39.57L-76.81,-45.06" />
        <path d="M-21.97,-28.38L-24.16,-33.74L-24.16,-37.38L-22.97,-40.82" />
        <path d="M40.74,-26.72L40.01,-32.95L40.39,-36.52L45.29,-45.93" />
        <path d="M78.09,-20.96L76.16,-27.51L75.17,-38.57" />
        <path d="M106.29,-15.33L109.01,-20.63L111.19,-22.61L120.59,-26.00" />
        <path d="M8.14,-29.83L9.22,-37.05" />
      </g>
    </g>
  </g>
</svg>