<?xml version="1.0" encoding="utf-8"?>
<svg width="1194" height="834" viewBox="-597 -417 1194 834" xmlns="http://www.w3.org/2000/svg">
  <style>
svg { background-color:#C5CFBA; }

#looom { --version:2; }

#t0 {
--visible:1; --timeOffset:2.000001; --speed:12; --bookmarkIndex:-1; --latched:0; --playMode:0; --masked:0; --blendMode:0; 
stroke:#B17F7F; stroke-opacity:0.3535815; fill-opacity:0; stroke-width:10; stroke-linecap:round; stroke-linejoin:round;
}
@keyframes t0 { 0% { opacity: 1; } 8.333333% { opacity: 0; } }
#t0 .frame { animation:t0 1s calc(var(--index) * 0.08333334s) steps(1) infinite; }

#t1 {
--visible:1; --timeOffset:2.999999; --speed:12; --bookmarkIndex:-1; --latched:0; --playMode:0; --masked:0; --blendMode:0; 
fill:#E47B7B; stroke-opacity:0; fill-opacity:0.8970975; stroke-width:2.748883; stroke-linecap:round; stroke-linejoin:round;
}
@keyframes t1 { 0% { opacity: 1; } 8.333333% { opacity: 0; } }
#t1 .frame { animation:t1 1s calc(var(--index) * 0.08333334s) steps(1) infinite; }

#t2 {
--visible:1; --timeOffset:5.000001; --speed:12; --bookmarkIndex:-1; --latched:0; --playMode:0; --masked:1; --blendMode:1; 
fill:#DDFF00; stroke-opacity:0; fill-opacity:1; stroke-width:4.673926; stroke-linecap:round; stroke-linejoin:round;
}
@keyframes t2 { 0% { opacity: 1; } 8.333333% { opacity: 0; } }
#t2 .frame { animation:t2 1s calc(var(--index) * 0.08333334s) steps(1) infinite; }

</style>
  <g id="w0" transform="translate(-17.25 84.50) scale(2.96 2.96) rotate(-349.75)" class="weave">
    <g id="t0" transform="translate(156.47 -56.55)" class="thread">
      <g id="f0" style="--index:0; opacity:1;" class="frame">
        <path d="M-147.65,-65.26L-141.87,-61.61L-130.26,-58.41L-121.70,-54.94L-115.51,-52.04L-112.56,-49.44L-107.32,-46.58L-100.06,-44.30L-91.91,-40.08L-86.97,-37.13L-80.76,-32.03L-71.37,-20.32L-64.34,-1.64L-61.55,7.91L-61.07,12.79L-63.01,26.56L-63.44,37.99L-65.37,48.61L-72.49,62.94L-77.86,71.43L-81.61,74.72L-84.94,79.46L-85.81,79.72L-86.19,77.32L-86.77,77.49L-90.12,85.38L-95.49,88.51L-102.00,94.19L-107.25,96.66L-111.81,101.45L-118.25,105.22L-122.29,108.60L-133.70,112.56L-135.32,112.41L-154.01,117.24L-173.18,119.39L-201.81,117.07L-209.46,112.40L-213.93,106.79L-220.64,92.41L-226.75,82.26" />
      </g>
      <g id="f1" style="--index:1; opacity:0;" class="frame">
        <path d="M-168.55,-62.61L-160.16,-65.06L-142.23,-59.62L-130.38,-57.75L-121.31,-52.54L-116.84,-52.28L-106.91,-47.32L-101.43,-45.78L-89.38,-38.94L-83.92,-34.25L-78.03,-25.92L-71.70,-19.28L-68.97,-13.17L-64.16,-6.41L-61.71,1.99L-58.22,31.13L-58.29,40.57L-59.94,48.91L-67.64,63.41L-74.32,68.50L-89.76,83.39L-107.97,93.10L-114.07,98.03L-119.93,101.63L-123.41,102.64L-135.45,110.87L-139.83,113.10L-156.12,117.54L-164.45,118.09L-170.03,119.41L-180.34,119.59L-192.08,117.06L-198.09,116.93L-210.96,111.58L-216.45,107.84L-219.66,104.38L-225.75,83.54" />
      </g>
      <g id="f2" style="--index:2; opacity:0;" class="frame">
        <path d="M-130.34,-58.70L-138.42,-59.48L-149.55,-63.14L-158.00,-64.12L-163.38,-63.18L-155.85,-65.38L-148.69,-65.59L-146.33,-65.02L-140.63,-61.66L-130.34,-58.70" />
        <path d="M-130.34,-58.70L-130.34,-58.70" />
        <path d="M-111.74,-50.94L-115.81,-54.15L-124.83,-58.11L-126.61,-58.84L-130.34,-58.70L-111.74,-50.94" />
        <path d="M-111.74,-50.94L-111.74,-50.94" />
        <path d="M-116.20,96.14L-107.03,90.95L-99.94,85.10L-89.58,78.62L-80.52,70.94L-70.34,54.15L-68.67,42.66L-65.12,26.86L-65.79,19.20L-67.57,13.12L-68.08,3.85L-67.51,1.48L-68.87,-3.15L-72.38,-8.72L-76.38,-19.17L-86.02,-31.75L-100.18,-43.64L-111.74,-50.94L-103.11,-49.38L-86.75,-42.85L-80.16,-35.35L-74.31,-26.06L-73.00,-22.67L-70.54,-19.62L-66.17,-8.96L-62.48,4.73L-61.71,22.41L-62.46,29.54L-61.57,39.02L-62.15,46.73L-63.33,50.21L-72.92,66.84L-76.58,70.42L-79.21,74.33L-92.06,86.26L-100.32,90.24L-106.11,91.93L-110.41,94.44L-116.20,96.14" />
        <path d="M-206.83,116.03L-200.86,117.11L-190.09,117.42L-181.77,116.87L-175.98,115.18L-166.98,116.95L-160.56,116.33L-151.38,113.33L-142.97,107.73L-138.75,107.12L-130.73,104.47L-116.69,96.60L-137.74,103.06L-145.39,103.73" />
      </g>
      <g id="f3" style="--index:3; opacity:0;" class="frame">
        <path d="M-151.95,-62.75L-149.39,-64.76L-145.29,-64.70L-139.81,-63.16L-136.17,-63.59L-133.06,-62.62L-129.33,-62.76L-127.83,-61.94L-124.48,-62.30L-118.34,-60.63L-111.39,-55.13L-102.33,-49.92L-96.33,-44.45L-90.09,-40.30L-86.05,-36.14L-80.87,-29.17L-76.31,-21.08L-64.62,-6.90L-56.68,12.77L-55.94,18.52L-57.14,32.70L-59.80,45.10L-62.73,52.24L-65.12,54.82L-65.60,57.48L-67.78,59.68L-69.75,63.71L-81.23,77.12L-85.43,79.92L-92.35,86.34L-99.58,90.65L-100.60,92.52L-104.11,94.49L-108.68,99.28L-120.20,106.10L-130.78,108.57L-139.54,113.01L-147.93,115.46L-155.71,116.80L-160.19,116.53L-163.95,117.63L-169.00,117.54L-183.44,120.81L-187.46,121.05L-191.32,119.66L-194.76,119.72L-211.12,113.19L-215.77,110.16L-221.95,101.91L-224.90,93.97" />
      </g>
      <g id="f4" style="--index:4; opacity:0;" class="frame">
        <path d="M-90.47,82.02L-97.66,85.38L-111.53,93.83L-114.82,97.62L-117.75,99.42L-124.33,107.00L-130.11,110.88L-142.66,117.38L-149.23,119.61L-156.63,123.35L-145.83,120.51L-130.72,112.01L-116.45,102.81L-110.80,97.39L-103.12,93.57L-94.26,86.27L-90.47,82.02" />
        <path d="M-90.47,82.02L-90.47,82.02" />
        <path d="M-72.06,59.05L-72.06,59.05" />
        <path d="M-72.06,59.05L-72.06,59.05" />
        <path d="M-86.57,77.11L-72.06,59.05L-79.44,70.32L-86.57,77.11" />
        <path d="M-196.44,121.47L-196.44,121.47" />
        <path d="M-183.48,121.77L-186.95,122.78L-191.88,122.02L-193.91,122.62L-196.44,121.47L-186.79,121.17L-183.48,121.77" />
        <path d="M-183.48,121.77L-183.48,121.77" />
        <path d="M-172.36,124.33L-175.78,120.15L-183.48,121.77L-181.23,123.00L-175.52,123.21L-172.36,124.33" />
        <path d="M-171.37,124.51L-172.36,124.33L-171.37,124.51" />
        <path d="M-171.37,124.51L-171.37,124.51" />
        <path d="M-129.50,111.34L-143.98,119.33L-150.34,121.20L-160.95,121.47L-161.74,119.81L-171.37,124.51L-161.55,124.78L-153.48,123.37L-143.06,120.32L-140.50,118.32L-134.68,115.67L-129.50,111.34" />
        <path d="M-126.63,109.87L-129.50,111.34L-126.63,109.87" />
        <path d="M-126.63,109.87L-126.63,109.87" />
        <path d="M-99.83,-47.82L-96.31,-47.59L-87.44,-39.82L-76.59,-26.34L-70.05,-20.08L-66.52,-12.32L-59.41,12.00L-58.25,19.20L-58.08,27.32L-60.46,44.98L-62.41,51.20L-66.16,54.50L-68.27,54.80L-70.46,62.35L-79.23,72.14L-86.19,77.32L-90.47,82.02L-86.57,77.11L-102.51,92.45L-112.65,100.75L-122.96,108.48L-126.63,109.87L-113.85,99.85L-94.90,83.00L-79.42,67.17L-78.41,63.10" />
      </g>
      <g id="f5" style="--index:5; opacity:0;" class="frame">
        <path d="M-60.00,37.93L-59.85,36.32L-60.00,37.93" />
        <path d="M-60.00,37.93L-60.00,37.93" />
        <path d="M-84.36,79.29L-84.94,79.46L-84.36,79.29" />
        <path d="M-77.66,71.05L-84.36,79.29L-77.66,71.05" />
        <path d="M-77.66,71.05L-77.66,71.05" />
        <path d="M-76.57,69.95L-77.66,71.05L-76.57,69.95" />
        <path d="M-67.32,54.83L-62.76,47.85L-60.00,37.93L-61.16,45.81L-62.83,49.75L-69.06,60.69L-76.57,69.95L-70.63,61.77L-67.32,54.83" />
        <path d="M-184.98,126.29L-180.44,124.65L-169.71,123.71L-162.48,121.60L-154.90,120.64L-141.21,116.96L-131.71,112.92L-117.59,105.34L-102.49,94.65L-91.45,85.14L-71.70,62.40L-61.04,45.15L-56.15,31.78L-54.87,23.24L-56.30,12.97L-59.99,-0.72L-63.38,-6.95L-74.53,-22.54L-78.24,-25.54L-85.96,-35.85L-91.38,-41.49L-101.53,-48.27" />
      </g>
      <g id="f6" style="--index:6; opacity:0;" class="frame">
        <path d="M-91.84,-41.99L-82.46,-32.48L-80.50,-28.97L-78.83,-27.57L-76.44,-22.61L-72.86,-18.95L-70.92,-14.48L-66.37,-8.59L-58.95,7.15L-54.85,20.09L-55.19,26.47L-59.88,44.81L-67.27,56.08L-70.87,63.10L-75.40,66.94L-80.13,73.34L-86.81,78.44L-89.73,82.43L-93.73,84.86L-97.52,89.11L-103.91,94.12L-110.72,97.68L-127.83,103.62L-128.75,102.63L-127.57,99.15L-132.24,101.45L-133.32,99.88L-132.96,97.89" />
        <path d="M-178.99,124.23L-158.42,120.42L-133.94,113.89L-113.62,103.87L-102.07,96.09L-90.82,86.21L-83.38,76.18L-78.79,68.24L-78.72,66.34" />
      </g>
      <g id="f7" style="--index:7; opacity:0;" class="frame">
        <path d="M-127.31,107.55L-114.59,101.64L-106.39,94.21L-100.82,90.70L-101.39,93.07L-113.09,102.46L-117.18,104.59L-127.31,107.55" />
        <path d="M-133.02,109.53L-127.31,107.55L-133.02,109.53" />
        <path d="M-133.02,109.53L-133.02,109.53" />
        <path d="M-141.57,113.60L-133.02,109.53L-137.07,110.72L-141.57,113.60" />
        <path d="M-157.20,118.17L-152.89,117.86L-138.01,112.88L-108.06,98.16L-94.37,89.13L-88.18,84.49L-80.73,76.66L-78.60,73.21L-71.18,66.33L-68.18,62.63L-60.93,49.83L-59.36,41.20L-55.65,31.32L-55.54,23.12L-56.69,10.57L-58.99,0.56L-63.36,-10.10L-66.86,-13.47L-68.54,-17.07L-74.15,-20.14L-76.57,-24.14L-80.07,-27.52L-90.14,-34.00" />
      </g>
      <g id="f8" style="--index:8; opacity:0;" class="frame">
        <path d="M-85.50,-40.70L-78.16,-32.79L-71.71,-21.48L-62.35,6.26L-59.82,20.28L-59.87,31.92L-60.86,40.38L-63.57,51.54L-67.89,62.54L-76.52,73.86L-79.96,81.46L-85.10,86.42L-88.43,91.16L-96.15,95.93L-99.79,96.37L-102.81,97.88L-111.14,103.77L-126.45,112.64L-133.16,113.35L-136.87,115.69L-141.79,117.13L-149.75,123.22L-156.20,124.79L-167.33,121.13L-172.10,118.76L-175.37,119.40L-178.32,119.00L-182.19,115.42L-182.71,111.49" />
      </g>
      <g id="f9" style="--index:9; opacity:0;" class="frame">
        <path d="M-157.25,-63.71L-154.06,-62.45L-146.43,-62.16L-139.58,-59.14L-130.12,-56.88L-118.37,-52.14L-115.58,-50.13L-106.45,-46.83L-87.62,-42.59L-84.78,-39.34L-74.84,-32.19L-68.42,-25.27L-64.53,-19.49L-56.58,7.71L-55.71,22.54L-56.72,26.60L-56.71,34.14L-58.68,38.17L-58.90,41.69L-61.02,47.34L-66.45,54.58L-69.64,60.85L-73.14,65.02L-77.97,74.28L-87.57,83.37L-90.48,87.37L-93.91,89.62L-102.23,97.71L-112.13,104.69L-118.41,106.84L-123.90,110.64L-128.24,111.91L-132.24,114.33L-137.16,115.77L-151.54,122.49L-163.32,126.24L-179.67,127.25L-192.57,125.05L-196.97,122.88L-207.47,120.30L-210.72,117.79L-215.40,110.36L-220.03,98.83L-222.44,89.48" />
      </g>
      <g id="f10" style="--index:10; opacity:0;" class="frame">
        <path d="M-125.20,-58.31L-121.51,-57.51L-112.94,-51.84L-103.61,-48.92L-78.09,-34.70L-68.89,-20.42L-61.88,-6.13L-57.11,9.13L-56.28,22.71L-59.50,32.13L-61.15,40.47L-63.56,46.20L-67.50,52.06L-72.35,64.47L-78.72,73.87L-83.54,77.80L-90.33,85.75L-95.15,89.67L-100.14,93.02L-106.80,94.96L-109.27,97.25L-110.62,100.16L-115.15,104.00L-134.52,114.06L-140.62,118.98L-144.22,120.66L-149.64,120.36L-168.22,124.53L-174.10,123.74L-176.06,122.43L-179.87,122.28L-184.15,119.45L-191.88,116.68L-195.02,116.66L-198.27,114.15L-201.37,107.83L-203.91,106.69L-205.91,104.13L-208.65,95.82L-208.76,91.14" />
        <path d="M-61.97,34.42L-61.97,34.42" />
        <path d="M-61.89,34.71L-61.89,34.71" />
        <path d="M-61.89,34.71L-61.89,34.71" />
        <path d="M-124.38,105.75L-118.05,104.85L-105.21,98.27L-101.15,97.08L-88.59,85.24L-79.31,71.85L-75.15,60.27L-64.37,42.35L-61.89,34.71L-61.66,38.73L-63.42,47.73L-70.41,63.59L-75.63,70.46L-80.84,79.52L-89.31,89.22L-91.25,90.10L-90.81,88.40" />
      </g>
      <g id="f11" style="--index:11; opacity:0;" class="frame">
        <path d="M-154.42,117.99L-168.31,116.71L-175.98,115.18L-185.92,115.57L-194.34,113.63L-198.66,111.75L-210.01,104.07L-217.56,101.88L-210.89,109.67L-205.53,111.88L-199.29,116.02L-188.71,118.90L-180.14,119.22L-175.05,118.36L-165.02,118.26L-160.09,119.02L-154.42,117.99" />
        <path d="M-153.95,118.01L-153.95,118.01" />
        <path d="M-153.47,118.02L-153.47,118.02" />
        <path d="M-147.68,116.33L-147.68,116.33" />
        <path d="M-147.97,116.42L-147.97,116.42" />
        <path d="M-148.55,116.59L-147.97,116.42L-148.55,116.59" />
        <path d="M-148.55,116.59L-148.55,116.59" />
        <path d="M-151.70,118.09L-153.47,118.02L-148.55,116.59L-151.70,118.09" />
        <path d="M-146.71,-59.88L-140.15,-56.78L-134.63,-56.19L-125.50,-52.89L-116.87,-51.32L-109.65,-48.09L-102.47,-46.11L-97.15,-42.95L-90.09,-40.30L-70.95,-26.41L-65.53,-20.77L-63.19,-17.06L-60.41,-9.70L-56.19,4.77L-56.09,7.26L-57.08,28.59L-64.81,51.59L-70.43,61.40L-76.60,68.23L-83.58,78.75L-89.09,85.70L-96.21,92.50L-100.44,98.44L-106.71,102.79L-109.83,107.16L-117.76,112.30L-127.67,117.08L-134.21,118.36L-151.70,118.09L-158.55,121.08L-162.94,121.11L-169.32,120.77L-190.46,117.21L-196.39,117.37L-208.17,113.59L-215.82,108.91L-220.34,102.06L-219.87,104.75" />
      </g>
    </g>
    <g id="t1" transform="translate(98.42 -40.93)" class="thread">
      <g id="f0" style="--index:0; opacity:1;" class="frame">
        <path d="M-172.39,-45.32L-170.38,-47.25L-169.24,-50.33L-159.04,-59.49L-155.09,-65.89" />
        <path d="M-159.68,-59.76L-159.68,-59.76" />
        <path d="M-170.66,-46.61L-176.15,-41.11L-179.58,-36.18L-184.71,-27.61L-189.51,-17.13L-190.54,-8.71L-194.02,2.51L-193.96,12.70L-196.25,30.57L-194.45,44.97L-192.24,53.99L-180.23,78.32L-168.39,92.87L-160.32,98.49L-153.73,100.25L-149.16,102.76L-139.13,105.08L-135.26,104.78L-131.79,105.53L-119.07,104.23L-115.83,104.82L-103.68,103.63L-88.66,100.93L-72.38,95.46L-50.06,85.37L-39.52,77.40L-25.74,62.37L-14.43,44.45L-11.22,37.20L-5.34,27.32L-1.14,15.77L-0.48,7.41L-3.13,-6.24L-3.70,-13.79L-6.60,-25.63L-9.87,-32.89L-11.77,-40.20L-18.71,-49.35L-26.78,-54.97L-34.69,-57.47L-39.67,-60.11L-44.99,-61.31L-49.35,-64.85L-55.42,-68.07L-73.68,-73.63L-85.69,-81.48L-95.05,-83.33L-103.61,-82.97L-111.79,-81.50L-123.52,-78.02L-136.40,-72.18L-154.99,-65.31L-158.35,-62.16L-159.68,-59.76" />
        <path d="M-166.27,-50.54L-162.12,-56.97L-155.13,-63.92L-141.00,-73.71L-114.44,-83.19L-109.19,-84.52L-96.59,-85.41L-93.70,-84.55L-90.58,-81.39L-84.02,-77.66" />
        <path d="M-169.91,-50.08" />
        <path d="M-170.09,-46.71L-166.74,-53.20L-156.51,-65.04L-142.73,-72.42L-139.49,-75.16L-130.81,-79.27L-118.10,-83.90L-103.55,-85.92L-97.13,-85.11L-89.57,-82.35L-84.93,-79.46L-83.02,-76.46L-82.38,-70.69L-84.51,-66.19L-97.34,-55.65L-107.87,-49.83L-124.05,-43.79L-148.85,-38.75L-158.67,-39.93L-163.23,-43.43L-165.70,-48.48L-165.89,-50.61L-164.13,-55.04L-162.90,-55.85" />
      </g>
      <g id="f1" style="--index:1; opacity:0;" class="frame">
        <path d="M-164.92,-51.76L-162.90,-55.85L-156.32,-62.92L-140.53,-72.23L-124.05,-79.89L-108.03,-83.55L-103.84,-83.13L-100.01,-81.46L-86.06,-78.08L-75.56,-76.43L-59.06,-71.93L-40.68,-62.48L-18.42,-48.82L-11.80,-42.55L-10.04,-39.33L-8.75,-29.95L-2.44,-10.09L-1.56,-5.15L-0.38,17.79L-1.46,28.19L-4.48,35.40L-13.74,49.42L-16.87,52.73L-45.34,76.68L-61.83,88.66L-75.89,96.68L-83.89,99.09L-86.19,100.49L-113.12,105.71L-119.35,104.87L-135.19,105.16L-140.63,104.37L-145.67,102.53L-150.66,102.05L-160.78,97.00L-163.90,93.83L-170.11,89.84L-179.82,80.60L-184.04,70.17L-186.75,59.48L-196.08,41.34L-197.98,31.87L-198.02,26.18L-197.69,19.26L-194.09,-0.03L-188.42,-14.39L-182.40,-25.67L-177.66,-32.01L-175.62,-37.09L-170.02,-46.33L-163.93,-51.74L-161.75,-54.88" />
      </g>
      <g id="f2" style="--index:2; opacity:0;" class="frame">
        <path d="M-157.82,-58.14L-155.51,-63.85L-148.76,-67.81L-136.38,-73.17L-126.04,-78.95L-114.22,-83.03L-106.86,-83.56L-103.30,-83.42L-95.40,-80.91L-76.19,-78.87L-68.29,-76.36L-59.98,-74.91L-55.24,-71.44L-39.96,-62.80L-30.06,-55.75L-21.03,-46.97L-15.04,-39.81L-10.70,-33.13L-5.56,-20.91L-3.58,-12.04L-4.31,-1.91L-3.39,5.38L-4.48,12.45L-4.21,21.62L-6.61,35.59L-11.71,46.51L-20.25,56.87L-25.84,61.80L-33.45,67.48L-38.38,69.54L-47.53,76.48L-67.60,89.30L-74.51,92.31L-81.67,93.99L-85.16,96.38L-94.01,99.54L-109.07,102.04L-142.13,103.66L-150.62,102.24L-161.43,98.88L-168.14,95.38L-181.02,78.26L-188.62,62.17L-190.55,54.66L-192.10,42.78L-193.74,37.97L-197.93,17.93L-194.46,5.53L-182.09,-12.97L-179.04,-25.49L-174.65,-38.24L-170.55,-44.87L-164.99,-49.98L-162.18,-54.02L-154.24,-61.13" />
      </g>
      <g id="f3" style="--index:3; opacity:0;" class="frame">
        <path d="M-148.77,-68.59L-141.60,-73.80L-135.31,-75.91L-132.23,-78.42L-123.39,-82.76L-118.26,-83.68L-111.09,-84.18L-99.59,-83.50L-87.54,-85.27L-61.32,-80.16L-32.06,-58.14L-22.29,-48.51L-8.74,-28.78L-4.44,-20.13L0.40,-8.44L1.51,-3.34L1.17,12.22L-0.81,21.99L-5.02,30.20L-12.27,47.79L-18.85,54.85L-40.95,74.91L-58.79,88.11L-72.69,95.91L-82.17,99.96L-94.79,103.99L-115.12,107.64L-126.77,108.36L-150.08,105.28L-160.22,101.22L-168.68,95.67L-174.10,90.56L-179.29,84.62L-184.62,74.59L-189.68,68.24L-191.22,65.18L-197.18,50.56L-198.88,41.05L-199.68,27.85L-198.64,9.62L-195.28,-6.68L-183.74,-28.76L-174.98,-41.13L-168.83,-52.82L-165.58,-56.55L-155.65,-64.61L-148.77,-68.59" />
        <path d="M-149.21,-68.12L-148.05,-69.31" />
      </g>
      <g id="f4" style="--index:4; opacity:0;" class="frame">
        <path d="M-153.50,-64.13L-140.84,-73.94L-131.38,-79.17L-115.08,-83.46L-92.85,-85.29L-86.30,-84.90L-82.54,-83.61L-73.28,-82.33L-71.30,-81.12L-66.91,-80.73L-64.22,-78.86L-55.61,-75.69L-49.75,-71.45L-41.74,-68.37L-31.89,-62.68L-27.86,-57.72L-22.77,-49.02L-10.80,-33.70L-6.90,-24.00L-6.05,-19.25L-3.35,-11.89L-0.25,3.25L-1.37,17.77L-7.18,37.85L-12.21,46.99L-15.38,50.11L-18.40,55.16L-23.24,58.78L-27.24,63.82L-37.05,71.46L-40.24,75.57L-44.15,77.84L-57.18,89.40L-65.94,95.28L-84.30,102.31L-103.38,107.50L-123.16,109.87L-130.98,108.92L-144.60,104.10L-157.65,101.34L-167.95,95.34L-173.76,90.30L-177.27,83.87L-185.44,72.19L-187.85,67.52L-189.95,54.75L-195.62,48.31L-198.51,43.14L-200.43,33.48L-200.66,25.68L-199.76,16.49L-194.06,-5.33L-190.81,-12.39L-188.41,-20.86L-182.48,-29.38L-178.19,-33.88L-172.45,-42.37L-168.93,-50.06L-164.77,-55.32L-157.43,-62.52L-153.50,-64.13" />
        <path d="M-153.76,-63.96L-146.59,-66.63" />
      </g>
      <g id="f5" style="--index:5; opacity:0;" class="frame">
        <path d="M-148.55,-67.16L-139.39,-74.59L-134.44,-77.63L-122.48,-80.96L-104.46,-84.39L-98.39,-84.50L-90.75,-82.34L-76.88,-82.67L-73.49,-81.31L-67.26,-80.47L-62.72,-78.14L-58.84,-77.27L-41.31,-69.23L-33.98,-62.31L-26.84,-52.01L-20.70,-46.25L-12.30,-34.41L-0.36,-8.31L2.53,4.52L0.75,19.75L-4.49,29.91L-6.38,35.74L-21.14,61.74L-34.00,74.25L-40.86,79.80L-54.52,88.92L-79.67,101.87L-92.22,106.28L-103.14,108.83L-123.55,112.09L-141.64,109.65L-150.06,106.45L-168.07,93.60L-178.44,81.72L-184.56,71.64L-192.05,53.95L-194.91,48.97L-198.43,31.55L-198.91,25.56L-198.34,17.80L-195.13,0.75L-191.59,-5.77L-182.60,-28.97L-174.36,-39.87L-169.07,-48.66L-162.40,-56.33L-157.40,-60.17L-155.25,-63.50L-148.55,-67.16" />
        <path d="M-152.52,-63.60L-148.82,-67.01L-145.25,-69.02L-144.86,-70.08" />
      </g>
      <g id="f6" style="--index:6; opacity:0;" class="frame">
        <path d="M-140.57,-72.42L-135.32,-77.08L-126.47,-80.24L-107.76,-84.19L-96.53,-85.03L-88.03,-83.61L-83.27,-81.13L-78.69,-80.77L-62.44,-75.45L-43.09,-67.15L-32.78,-59.97L-17.37,-38.61L-9.48,-29.62L-5.31,-16.24L-2.12,-9.36L1.28,0.82L0.54,5.46L0.39,18.83L-0.58,22.15L-5.41,32.43L-20.27,52.36L-25.07,64.99L-28.76,69.58L-33.97,74.44L-39.73,78.42L-62.08,91.65L-68.37,93.76L-85.91,103.18L-103.83,109.34L-114.34,112.01L-123.98,112.96L-141.18,111.14L-148.64,108.95L-157.26,104.61L-167.92,97.69L-173.19,90.20L-179.53,83.29L-182.84,74.67L-191.15,60.07L-193.62,52.86L-198.27,31.33L-198.03,22.85L-195.29,12.94L-192.59,-6.97L-189.23,-17.77L-183.15,-29.85L-169.26,-48.63L-158.75,-58.95L-154.25,-64.47L-140.57,-72.42" />
        <path d="M-140.57,-72.42L-140.57,-72.42" />
        <path d="M-141.40,-70.50L-140.57,-72.42L-136.28,-74.75" />
      </g>
      <g id="f7" style="--index:7; opacity:0;" class="frame">
        <path d="M-139.36,-72.24L-129.98,-79.02L-118.20,-81.14L-105.16,-85.05L-97.22,-84.51L-93.80,-85.12L-77.76,-82.12L-74.91,-80.47L-68.99,-79.18L-57.26,-72.85L-45.94,-68.80L-38.47,-63.27L-34.64,-61.60L-24.65,-51.82L-20.85,-50.34L-18.86,-45.79L-16.00,-42.97L-14.45,-38.74L-11.52,-35.54L-4.06,-20.20L-2.18,-11.90L-0.65,0.97L0.80,5.81L-0.08,19.50L-2.04,32.61L-6.74,42.48L-9.98,45.22L-27.29,67.94L-38.71,78.63L-44.30,81.39L-47.47,84.51L-78.38,100.26L-90.68,105.02L-95.50,107.65L-117.95,112.66L-126.71,113.05L-141.45,109.62L-158.57,103.86L-165.12,97.97L-176.59,84.34L-180.86,75.88L-183.14,68.64L-188.95,58.11L-197.47,34.72L-199.67,23.54L-199.17,17.56L-195.40,6.88L-194.14,-1.39L-188.57,-16.32L-185.94,-21.31L-182.87,-32.65L-176.91,-43.14L-165.96,-54.32L-159.11,-59.87L-152.09,-64.46L-144.29,-68.02L-135.10,-74.77" />
      </g>
      <g id="f8" style="--index:8; opacity:0;" class="frame">
        <path d="M-135.22,-74.35L-132.94,-76.92L-129.19,-78.97L-118.42,-81.29L-113.53,-83.55L-94.75,-84.95L-89.84,-83.87L-84.03,-80.99L-55.37,-74.36L-33.07,-62.67L-25.41,-57.18L-20.67,-51.55L-9.31,-34.17L-4.61,-21.08L1.54,8.82L1.96,19.92L0.25,27.88L-6.23,43.17L-12.40,52.52L-20.17,60.58L-30.14,68.45L-41.55,80.31L-45.42,82.77L-48.99,86.94L-53.86,88.21L-56.60,90.47L-61.56,92.34L-65.94,95.28L-85.47,102.32L-91.52,103.60L-106.18,109.37L-114.10,111.18L-125.36,111.83L-132.20,110.90L-150.58,105.76L-157.76,102.93L-166.94,97.71L-172.41,91.24L-181.97,76.28L-187.55,58.25L-195.60,39.68L-198.18,28.57L-197.89,18.12L-194.52,-1.32L-189.36,-18.53L-185.20,-28.11L-184.32,-31.99L-176.28,-46.19L-170.06,-52.02L-165.74,-54.16L-149.06,-66.18L-140.61,-70.45L-132.73,-75.78L-131.30,-77.61" />
      </g>
      <g id="f9" style="--index:9; opacity:0;" class="frame">
        <path d="M-169.01,-51.62L-165.27,-54.84L-135.44,-71.18L-120.54,-81.11L-111.14,-83.38L-102.92,-83.49L-98.05,-82.59L-86.22,-83.34L-78.19,-81.25L-62.62,-69.92L-56.63,-68.25L-48.69,-67.71L-40.78,-65.21L-33.91,-61.93L-22.14,-52.07L-17.34,-46.07L-11.17,-40.11L-4.44,-29.94L-2.18,-25.05L-0.32,-17.93L2.66,1.94L1.23,24.57L0.25,27.88L-5.37,38.11L-18.94,57.62L-25.73,65.70L-39.43,76.79L-80.27,101.78L-85.30,103.27L-92.30,106.88L-114.63,111.48L-123.89,112.35L-132.37,112.11L-142.35,111.15L-148.72,109.55L-158.08,105.54L-168.23,98.14L-173.44,93.19L-177.73,87.88L-184.34,71.80L-188.99,52.42L-196.01,31.90L-196.88,20.49L-194.28,2.16L-188.90,-11.55L-188.22,-18.74L-183.45,-35.88L-179.29,-41.14L-177.87,-44.14L-162.87,-55.66" />
      </g>
      <g id="f10" style="--index:10; opacity:0;" class="frame">
        <path d="M-178.00,-41.57L-167.80,-53.60L-162.59,-58.46L-153.09,-63.50L-120.95,-77.90L-98.78,-82.27L-79.77,-80.19L-69.15,-76.79L-65.31,-73.95L-55.21,-69.09L-49.33,-67.99L-32.01,-62.27L-21.15,-56.37L-12.92,-48.82L-8.06,-40.28L-1.91,-25.69L-0.92,-20.17L-1.23,-4.42L0.15,17.50L-2.67,30.17L-8.01,43.10L-17.92,57.83L-25.07,67.15L-31.53,73.81L-41.72,81.52L-44.97,83.08L-48.42,86.84L-59.77,93.59L-63.19,94.20L-83.09,102.48L-103.13,106.67L-107.11,106.40L-120.29,108.37L-126.07,107.84L-146.65,102.51L-155.21,98.55L-161.65,96.57L-168.91,92.18L-181.31,77.73L-186.63,68.87L-196.23,37.24L-197.31,26.84L-194.85,9.92L-194.38,-2.72L-190.06,-18.02L-183.14,-34.17L-179.09,-37.84L-174.10,-45.01" />
      </g>
      <g id="f11" style="--index:11; opacity:0;" class="frame">
        <path d="M-169.72,-51.55L-153.47,-65.59L-139.53,-71.03L-102.92,-77.99L-95.68,-78.12L-91.35,-76.93L-86.87,-77.15L-78.00,-75.80L-66.98,-73.46L-61.58,-70.70L-51.99,-67.51L-47.50,-64.39L-39.41,-61.92L-24.53,-55.57L-19.43,-51.19L-15.15,-49.21L-13.93,-47.86L-11.03,-39.35L-8.04,-33.61L-6.70,-28.36L-0.42,-13.00L1.16,-0.93L-1.70,19.21L-7.64,34.20L-14.24,44.41L-17.22,47.50L-24.94,62.42L-41.19,81.23L-52.30,89.30L-59.50,91.77L-65.06,94.73L-93.02,102.89L-109.31,105.03L-126.21,104.92L-143.22,103.07L-154.64,98.45L-160.15,97.28L-168.84,92.56L-175.79,85.56L-187.67,71.81L-191.50,62.49L-194.36,52.01L-196.06,40.35L-196.23,31.75L-197.63,23.96L-197.41,18.62L-194.86,6.59L-194.16,-8.06L-190.29,-21.51L-186.09,-28.73L-178.65,-37.53L-171.90,-49.13L-169.72,-51.55" />
        <path d="M-170.31,-51.19L-167.09,-52.94" />
      </g>
    </g>
    <g id="t2" transform="translate(-8.35 -28.35)" class="thread">
      <g id="f0" style="--index:0; opacity:1;" class="frame">
        <path d="M10.12,88.46L10.12,88.46" />
        <path d="M9.62,88.50L10.12,88.46L9.62,88.50" />
        <path d="M9.12,88.54L9.62,88.50L9.12,88.54" />
        <path d="M8.87,88.56L8.87,88.56" />
        <path d="M8.87,88.56L8.87,88.56" />
        <path d="M-9.34,90.47L8.62,88.57" />
        <path d="M-44.49,-61.71L-51.97,-60.88L-53.04,-61.80L-55.06,-61.90L-56.70,-63.53L-57.14,-66.01L-56.16,-69.61L-53.78,-74.57L-50.55,-78.34L-14.41,-95.46L1.45,-98.45L9.45,-99.07L13.55,-98.13L17.49,-95.92L18.99,-92.76L19.22,-89.77L17.47,-86.36L13.73,-82.80L10.59,-81.05L-9.11,-72.49L-14.98,-70.28L-26.59,-67.62L-41.18,-61.21L-47.91,-60.44" />
        <path d="M-9.59,91.18L-8.97,89.95L-6.33,88.73L2.89,85.86L8.01,85.61L9.44,86.86L9.61,88.61L8.95,89.61L3.02,91.63L-10.46,92.65" />
        <path d="M282.28,29.04L284.89,25.10L280.90,32.28L281.02,28.39L282.15,26.21L280.31,29.52L281.63,25.58L278.99,26.96" />
        <path d="M436.77,-178.35" />
      </g>
      <g id="f1" style="--index:1; opacity:0;" class="frame">
        <path d="M-5.10,90.01L-6.57,90.50L-5.10,90.01" />
        <path d="M-4.61,89.85L-5.10,90.01L-4.61,89.85" />
        <path d="M10.88,85.38L11.50,86.84L8.85,88.31L-4.61,89.85L2.94,86.75L10.88,85.38" />
        <path d="M10.88,85.38L10.88,85.38" />
        <path d="M14.96,86.07L14.96,86.07" />
        <path d="M14.69,85.84L14.69,85.84" />
        <path d="M14.44,85.86L14.44,85.86" />
        <path d="M14.44,85.86L14.44,85.86" />
        <path d="M-11.49,91.89L-14.55,91.37L-15.01,88.64L-14.13,87.06L-12.02,85.14L-5.90,82.91L2.02,81.29L10.02,80.67L15.71,82.75L17.58,84.11L17.98,86.09L16.10,87.75L9.23,90.04L-12.26,91.70L-12.13,90.18L-8.59,87.14L0.50,84.42L8.23,83.58L10.04,84.19L10.88,85.38L13.94,85.90" />
        <path d="M-46.55,-78.65L-51.34,-75.51L-51.76,-71.20L-49.10,-69.40L-43.07,-69.36L-25.84,-74.21L-2.04,-85.10L2.75,-88.24L5.71,-92.24L5.74,-95.01L-3.66,-96.29L-13.60,-94.77L-30.90,-87.65L-35.69,-84.52L-42.74,-81.46L-46.55,-78.65" />
        <path d="M-46.55,-78.65L-46.55,-78.65" />
        <path d="M-43.22,-77.90L-46.55,-78.65L-49.34,-75.67" />
        <path d="M-12.68,86.88L-12.50,85.98L-10.09,84.51L-4.86,82.64L9.13,80.21L14.59,81.93L17.64,85.37L13.94,88.41L8.35,89.98L3.98,90.01L-9.39,92.44L-13.20,92.17L-13.31,90.77" />
      </g>
      <g id="f2" style="--index:2; opacity:0;" class="frame">
        <path d="M19.32,80.71L19.46,82.46L17.11,84.65L-7.65,86.31L-11.03,88.08L-16.47,89.26L-9.54,84.70L-6.34,83.70L10.04,80.92L19.32,80.71" />
        <path d="M19.32,80.71L19.32,80.71" />
        <path d="M-13.80,91.31L-17.01,92.06L-18.84,91.20L-20.28,88.80L-20.49,86.05L-16.04,81.93L-7.56,77.76L11.53,74.27L20.82,77.32L24.84,80.53L24.75,82.55L22.67,84.97L13.33,87.71L-15.82,91.22L-19.80,88.51L-18.00,85.85L-8.73,82.12L3.08,78.69L11.05,77.83L18.77,80.00L19.09,80.98L21.59,80.78L21.40,81.55" />
        <path d="M-39.15,-83.72L-41.70,-83.43L-43.58,-81.42L-43.67,-78.53L-42.91,-77.65L-40.50,-77.12L-29.81,-79.91L-9.52,-87.46L-5.85,-89.72L-3.02,-92.72L-2.88,-94.82L-7.84,-96.55L-15.27,-95.24L-27.74,-90.46L-39.15,-83.72" />
        <path d="M-38.76,-83.69L-39.33,-83.69" />
        <path d="M-19.38,85.48L-15.90,82.30L-8.51,78.33L-1.98,76.81L10.20,76.42L19.54,79.62L22.25,81.72L20.98,83.95L17.46,85.72L-2.02,90.19L-10.74,91.54L-16.42,91.53L-19.15,90.24L-19.62,88.24" />
      </g>
      <g id="f3" style="--index:3; opacity:0;" class="frame">
        <path d="M-13.46,82.74L-16.13,83.95L-20.13,84.26L-23.51,82.76L-25.07,78.86L-23.54,75.97L-20.25,72.95L-10.29,68.41L-0.22,65.37L9.72,63.85L22.59,64.36L27.95,65.46L30.61,67.26L30.40,71.05L28.40,74.47L25.32,76.97L22.82,77.17L20.92,78.57L-0.25,81.21L-6.42,82.70L-13.46,82.74" />
        <path d="M1.59,75.79L1.59,75.79" />
        <path d="M1.59,75.79L1.59,75.79" />
        <path d="M20.63,71.55L21.46,72.50L17.92,75.54L8.46,76.77L2.92,76.69L1.61,76.04L11.21,73.29L17.71,72.79L20.63,71.55" />
        <path d="M20.63,71.55L20.63,71.55" />
        <path d="M25.24,69.44L26.13,71.13L25.05,73.48L22.21,75.71L18.05,77.28L9.84,78.42L-2.21,78.60L-16.38,80.70L-17.27,79.01L-10.69,76.24L3.11,72.66L14.82,71.25L20.63,71.55L25.24,69.44" />
        <path d="M25.24,69.44L25.24,69.44" />
        <path d="M27.95,68.72L28.70,68.67L27.95,68.72" />
        <path d="M-13.46,82.74L-19.25,82.68L-20.88,81.05L-20.77,79.28L-18.04,75.55L-9.77,71.89L5.78,68.18L20.86,68.02L24.68,68.73L25.24,69.44L27.95,68.72" />
        <path d="M-35.73,-87.00L-36.84,-87.19L-37.74,-85.97L-37.73,-84.82L-36.31,-84.08L-27.33,-85.72L-14.50,-91.49L-11.40,-93.74L-10.57,-95.87L-12.03,-96.25L-20.79,-94.09L-34.35,-88.52L-35.73,-87.00" />
        <path d="M-35.40,-86.92L-36.13,-86.54L-35.95,-85.65L-34.00,-85.71" />
      </g>
      <g id="f4" style="--index:4; opacity:0;" class="frame">
        <path d="M-27.13,71.73L-32.65,71.90L-35.04,70.32L-37.11,66.21L-37.10,63.19L-32.35,56.29L-24.62,52.17L-18.74,50.21L1.29,45.89L25.91,45.50L35.42,48.28L38.08,50.09L39.56,52.99L40.47,58.20L39.68,61.03L37.62,63.70L32.49,65.61L-8.69,72.81L-18.21,73.30L-27.13,71.73" />
        <path d="M-22.90,71.15L-27.13,71.73L-30.19,71.21L-32.36,69.11L-33.90,68.73L-34.62,66.02" />
        <path d="M-31.96,-88.61L-35.08,-87.56L-35.26,-85.68L-34.09,-85.58L-22.06,-89.11L-17.85,-91.60L-16.67,-93.11L-16.88,-94.10L-20.15,-93.77L-29.24,-90.50L-31.96,-88.61" />
        <path d="M-31.48,-88.54L-32.76,-88.04L-33.50,-86.62" />
      </g>
      <g id="f5" style="--index:5; opacity:0;" class="frame">
        <path d="M-31.17,61.73L-36.33,60.12L-42.19,55.79L-44.52,51.70L-43.64,46.85L-40.87,43.62L-32.55,37.44L-17.53,30.00L-8.71,27.05L1.92,24.72L18.61,22.68L25.03,21.18L30.09,21.54L39.32,20.57L49.20,21.57L53.47,24.76L56.66,30.30L55.80,35.39L49.92,43.89L36.45,51.72L25.16,55.36L1.43,57.45L-22.87,61.84L-30.62,62.44L-31.17,61.73" />
        <path d="M-30.93,61.71L-30.93,61.71" />
        <path d="M-26.16,61.59L-30.92,61.71" />
        <path d="M-30.51,-88.85L-33.00,-88.11L-33.59,-86.49L-26.29,-88.46L-21.16,-90.91L-20.43,-92.90L-24.38,-92.54L-30.89,-89.00" />
      </g>
      <g id="f6" style="--index:6; opacity:0;" class="frame">
        <path d="M-28.22,44.65L-46.27,48.56L-54.85,44.95L-56.02,42.78L-56.35,38.53L-54.51,29.84L-52.01,26.38L-44.65,20.78L-37.92,16.74L-23.60,10.10L-3.72,3.79L13.56,-0.32L27.08,-1.11L40.10,1.40L57.50,8.61L58.87,10.01L60.52,15.16L59.28,18.53L56.99,21.47L52.18,24.36L38.32,30.46L16.50,34.41L3.43,37.68L-2.32,38.13L-8.65,40.88L-14.88,41.61L-18.78,43.17L-29.24,44.48L-31.32,43.64" />
        <path d="M-28.84,-89.66L-30.63,-89.40L-30.71,-88.12L-29.51,-87.91L-26.43,-89.13L-24.21,-91.20L-27.02,-91.42L-29.29,-90.14" />
      </g>
      <g id="f7" style="--index:7; opacity:0;" class="frame">
        <path d="M-41.89,25.01L-44.28,25.53L-43.34,24.70L-41.89,25.01" />
        <path d="M29.38,-16.88L35.88,-14.11L39.65,-10.88L40.35,-8.42L35.29,-2.25L23.95,7.18L16.45,11.03L8.63,13.89L-0.50,16.11L-20.96,18.19L-41.89,25.01L-39.51,25.41L-24.25,21.21L0.67,18.28L5.32,16.66L17.09,16.01L35.01,10.35L40.95,5.86L44.16,1.85L45.85,-2.31L45.54,-6.31L38.17,-13.78L33.44,-16.44L29.38,-16.88" />
        <path d="M29.38,-16.88L29.38,-16.88" />
        <path d="M24.77,-18.03L29.38,-16.88L24.77,-18.03" />
        <path d="M24.00,-18.22L24.77,-18.03L24.00,-18.22" />
        <path d="M24.00,-18.22L24.00,-18.22" />
        <path d="M22.23,-18.34L24.00,-18.22L22.23,-18.34" />
        <path d="M22.23,-18.34L22.23,-18.34" />
        <path d="M16.12,-17.89L22.23,-18.34L16.12,-17.89" />
        <path d="M-58.69,11.55L-49.79,3.07L-27.76,-7.93L-5.17,-14.96L16.12,-17.89L12.92,-18.37L0.91,-17.69L-21.05,-12.22L-35.22,-6.86L-52.12,2.25L-57.44,8.19L-58.69,11.55" />
        <path d="M-59.26,20.40L-60.38,15.71L-58.69,11.55L-59.26,20.40" />
        <path d="M-59.26,20.40L-59.26,20.40" />
        <path d="M-52.91,25.61L-57.03,23.24L-59.26,20.40L-57.78,23.30L-52.91,25.61" />
        <path d="M-50.76,26.28L-52.91,25.61L-50.76,26.28" />
        <path d="M-50.76,26.28L-50.76,26.28" />
        <path d="M-38.99,25.62L-41.69,26.58L-47.43,27.03L-50.76,26.28L-32.98,25.41L-22.54,23.85L-3.33,18.59L24.16,13.20L29.24,10.54L36.60,8.21L43.25,3.17L44.33,0.83" />
        <path d="M-27.10,-90.14L-28.51,-89.73L-27.95,-89.27L-26.81,-89.85L-27.85,-89.87" />
        <path d="M-56.56,7.39L-55.69,5.58L-49.97,0.14L-26.60,-10.16L-14.69,-13.90L12.61,-18.92L28.29,-16.12L37.57,-12.71L41.44,-7.06L43.31,-1.71L43.76,2.32L42.55,5.95L40.81,8.35L36.44,11.85L26.45,16.25L13.48,19.95L-1.06,22.37L-13.86,21.17L-28.04,24.87L-48.02,27.62L-53.35,26.55L-57.60,23.78L-60.43,15.07L-57.89,10.01" />
        <path d="M-58.50,7.25L-51.09,0.46L-37.33,-7.10L-5.08,-15.43L24.93,-17.58L31.63,-16.55L35.13,-14.61L39.95,-10.44L42.49,-4.59L41.96,5.08L39.58,8.88L34.66,12.87L27.02,16.44L21.42,18.03L10.19,20.54L-29.68,25.16L-48.16,25.93L-56.66,24.03L-58.85,22.41L-60.16,19.66L-60.68,13.58L-60.13,13.08" />
      </g>
      <g id="f8" style="--index:8; opacity:0;" class="frame">
        <path d="M-49.67,7.84L-49.67,7.84" />
        <path d="M-46.58,8.86L-52.06,9.53L-57.56,6.69L-60.11,2.86L-59.60,-3.46L-56.89,-7.44L-36.90,-22.06L-16.25,-31.45L0.75,-36.04L20.16,-38.54L29.61,-36.76L36.64,-33.53L38.99,-29.19L38.95,-26.42L33.94,-16.48L22.35,-10.30L12.08,-6.49L2.49,-3.73L-14.43,-1.42L-25.31,0.93L-37.98,6.18L-49.67,7.84" />
      </g>
      <g id="f9" style="--index:9; opacity:0;" class="frame">
        <path d="M-37.86,-14.95L-52.16,-8.06L-55.87,-7.27L-59.91,-7.46L-60.85,-13.17L-59.85,-19.79L-57.41,-24.00L-49.34,-33.42L-38.13,-41.33L-28.64,-45.33L-12.91,-50.07L6.20,-53.31L10.47,-53.38L22.20,-51.27L32.58,-47.05L33.49,-41.84L30.41,-36.07L23.07,-30.22L18.23,-27.83L4.21,-23.73L-5.29,-23.00L-9.94,-21.38L-16.19,-20.90L-20.74,-18.03L-27.45,-17.01L-31.07,-14.97L-36.55,-14.30L-37.86,-14.95" />
        <path d="M-37.86,-14.95L-38.91,-15.62L-39.57,-17.58" />
      </g>
      <g id="f10" style="--index:10; opacity:0;" class="frame">
        <path d="M-40.76,-29.81L-43.15,-28.12L-45.90,-27.91L-53.28,-29.10L-58.09,-32.75L-59.51,-38.17L-58.80,-41.99L-51.94,-50.82L-41.87,-57.13L-30.72,-62.52L-2.25,-71.51L4.25,-72.01L15.62,-71.38L25.06,-66.33L25.63,-65.37L27.48,-57.72L23.51,-50.62L20.89,-48.66L-6.43,-37.75L-16.29,-35.22L-29.71,-33.18L-40.76,-29.81" />
        <path d="M-40.76,-29.81L-40.76,-29.81" />
        <path d="M-38.90,-31.72L-41.00,-29.54L-42.24,-29.45" />
      </g>
      <g id="f11" style="--index:11; opacity:0;" class="frame">
        <path d="M-43.72,-50.20L-49.87,-49.98L-54.02,-51.67L-58.39,-56.11L-58.39,-59.38L-51.14,-66.47L-43.30,-72.36L-30.46,-78.63L-10.50,-83.95L7.78,-84.86L19.11,-81.46L22.15,-77.92L21.79,-72.87L17.14,-67.98L11.12,-64.50L-1.30,-59.26L-8.03,-58.49L-15.12,-55.93L-43.72,-50.20" />
        <path d="M-41.91,-51.10L-45.62,-50.31L-46.31,-49.50" />
        <path d="M436.77,-178.35" />
      </g>
    </g>
  </g>
</svg>